<svg width="24" height="24" viewBox="0 0 24 24" fill="none" xmlns="http://www.w3.org/2000/svg">
<path d="M12 16.9999C12.5304 16.9999 13.0391 16.7892 13.4142 16.4142C13.7893 16.0391 14 15.5304 14 14.9999C14 13.8899 13.1 12.9999 12 12.9999C11.4696 12.9999 10.9609 13.2107 10.5858 13.5857C10.2107 13.9608 10 14.4695 10 14.9999C10 15.5304 10.2107 16.0391 10.5858 16.4142C10.9609 16.7892 11.4696 16.9999 12 16.9999ZM18 7.99994C18.5304 7.99994 19.0391 8.21065 19.4142 8.58573C19.7893 8.9608 20 9.46951 20 9.99994V19.9999C20 20.5304 19.7893 21.0391 19.4142 21.4142C19.0391 21.7892 18.5304 21.9999 18 21.9999H6C5.46957 21.9999 4.96086 21.7892 4.58579 21.4142C4.21071 21.0391 4 20.5304 4 19.9999V9.99994C4 8.88994 4.9 7.99994 6 7.99994H7V5.99994C7 4.67386 7.52678 3.40209 8.46447 2.46441C9.40215 1.52672 10.6739 0.999939 12 0.999939C12.6566 0.999939 13.3068 1.12927 13.9134 1.38054C14.52 1.63181 15.0712 2.00011 15.5355 2.46441C15.9998 2.9287 16.3681 3.47989 16.6194 4.08652C16.8707 4.69315 17 5.34333 17 5.99994V7.99994H18ZM12 2.99994C11.2044 2.99994 10.4413 3.31601 9.87868 3.87862C9.31607 4.44123 9 5.20429 9 5.99994V7.99994H15V5.99994C15 5.20429 14.6839 4.44123 14.1213 3.87862C13.5587 3.31601 12.7956 2.99994 12 2.99994Z" fill="#2A2E2F"/>
</svg>
