<svg width="24" height="24" viewBox="0 0 24 24" fill="none" xmlns="http://www.w3.org/2000/svg">
<path d="M15.3751 7.07318H19.5259V15.3748H15.3751V17.0352C15.3751 17.2553 15.4625 17.4665 15.6182 17.6222C15.7739 17.7779 15.9851 17.8653 16.2052 17.8653H17.8656V19.5256H15.7902C15.3336 19.5256 14.5449 19.1521 14.5449 18.6955C14.5449 19.1521 13.7563 19.5256 13.2997 19.5256H11.2243V17.8653H12.8846C13.1048 17.8653 13.3159 17.7779 13.4716 17.6222C13.6273 17.4665 13.7147 17.2553 13.7147 17.0352V5.41286C13.7147 5.19268 13.6273 4.98153 13.4716 4.82584C13.3159 4.67016 13.1048 4.58269 12.8846 4.58269H11.2243V2.92236H13.2997C13.7563 2.92236 14.5449 3.29594 14.5449 3.75253C14.5449 3.29594 15.3336 2.92236 15.7902 2.92236H17.8656V4.58269H16.2052C15.9851 4.58269 15.7739 4.67016 15.6182 4.82584C15.4625 4.98153 15.3751 5.19268 15.3751 5.41286V7.07318ZM2.92261 7.07318H12.0544V8.73351H4.58294V13.7145H12.0544V15.3748H2.92261V7.07318ZM17.8656 13.7145V8.73351H15.3751V13.7145H17.8656ZM8.31868 11.224C8.31868 10.8937 8.18748 10.577 7.95395 10.3435C7.72042 10.11 7.40369 9.97876 7.07343 9.97876C6.74317 9.97876 6.42644 10.11 6.19291 10.3435C5.95938 10.577 5.82818 10.8937 5.82818 11.224C5.82818 11.5543 5.95938 11.871 6.19291 12.1045C6.42644 12.3381 6.74317 12.4693 7.07343 12.4693C7.40369 12.4693 7.72042 12.3381 7.95395 12.1045C8.18748 11.871 8.31868 11.5543 8.31868 11.224ZM12.0544 10.3025C11.548 9.83763 10.7594 9.87914 10.2945 10.3938C9.82958 10.8919 9.87108 11.6806 10.3941 12.1455C10.8507 12.5772 11.5812 12.5772 12.0544 12.1455V10.3025Z" fill="#2A2E2F"/>
</svg>
