<svg width="64" height="64" viewBox="0 0 64 64" fill="none" xmlns="http://www.w3.org/2000/svg">
<circle cx="32" cy="32" r="32" fill="#FFA653"/>
<g filter="url(#filter0_d)">
<path d="M49.2727 14H36.5455C35.1455 14 34 15.1455 34 16.5455V39.4545C34 40.8545 35.1455 42 36.5455 42H49.2727C50.6727 42 51.8182 40.8545 51.8182 39.4545V16.5455C51.8182 15.1455 50.6727 14 49.2727 14ZM49.2727 38.1818H36.5455V17.8182H49.2727V38.1818Z" fill="white"/>
</g>
<g filter="url(#filter1_d)">
<path d="M28.7847 39.976C28.721 39.976 28.6573 39.96 28.6016 39.928C27.0736 39.136 25.7525 38.8 24.1608 38.8C22.593 38.8 21.0968 39.176 19.7359 39.928C19.5449 40.032 19.3061 39.96 19.1947 39.768C19.0913 39.576 19.1629 39.328 19.3539 39.224C20.8342 38.4 22.4577 38 24.1608 38C25.8639 38 27.3442 38.376 28.9677 39.2C29.1667 39.32 29.2383 39.56 29.1349 39.752C29.0632 39.896 28.9359 39.976 28.7847 39.976ZM17.3961 44.176C17.3165 44.176 17.2369 44.152 17.1653 44.104C16.9982 43.976 16.9425 43.728 17.0698 43.544C17.8577 42.424 18.8605 41.544 20.0542 40.928C22.5691 39.632 25.7525 39.624 28.2594 40.92C29.4532 41.536 30.456 42.4 31.2438 43.52C31.3712 43.696 31.3234 43.952 31.1483 44.08C30.9653 44.208 30.7186 44.168 30.5913 44C29.875 42.976 28.9677 42.184 27.8933 41.632C25.6092 40.456 22.6885 40.456 20.4124 41.64C19.33 42.2 18.4227 43 17.7065 44C17.6428 44.12 17.5234 44.176 17.3961 44.176ZM22.3702 53.832C22.2667 53.832 22.1712 53.792 22.0916 53.712C21.3992 53.016 21.0252 52.568 20.492 51.6C19.9428 50.616 19.6563 49.416 19.6563 48.128C19.6563 45.752 21.6778 43.816 24.1608 43.816C26.6439 43.816 28.6653 45.752 28.6653 48.128C28.6653 48.2341 28.6234 48.3358 28.5488 48.4108C28.4741 48.4859 28.3729 48.528 28.2674 48.528C28.1618 48.528 28.0606 48.4859 27.986 48.4108C27.9114 48.3358 27.8695 48.2341 27.8695 48.128C27.8695 46.192 26.2061 44.616 24.1608 44.616C22.1155 44.616 20.4522 46.192 20.4522 48.128C20.4522 49.28 20.7068 50.344 21.1923 51.2C21.7016 52.128 22.0518 52.52 22.6646 53.144C22.8158 53.304 22.8158 53.552 22.6646 53.712C22.5691 53.792 22.4736 53.832 22.3702 53.832ZM28.0764 52.352C27.1293 52.352 26.2937 52.112 25.6092 51.64C24.4234 50.832 23.7151 49.52 23.7151 48.128C23.7151 48.0219 23.7571 47.9202 23.8317 47.8452C23.9063 47.7701 24.0075 47.728 24.1131 47.728C24.2186 47.728 24.3198 47.7701 24.3944 47.8452C24.4691 47.9202 24.511 48.0219 24.511 48.128C24.511 49.256 25.084 50.32 26.0549 50.976C26.62 51.36 27.2805 51.544 28.0764 51.544C28.2674 51.544 28.5857 51.52 28.9041 51.464C29.1189 51.424 29.3338 51.568 29.3656 51.792C29.4054 52 29.2622 52.216 29.0393 52.256C28.5857 52.344 28.1878 52.352 28.0764 52.352ZM26.4767 54C26.4449 54 26.4051 54 26.3733 54C25.1079 53.632 24.2802 53.16 23.4127 52.304C22.2985 51.2 21.6857 49.712 21.6857 48.128C21.6857 46.832 22.784 45.776 24.1369 45.776C25.4899 45.776 26.5881 46.832 26.5881 48.128C26.5881 48.984 27.3442 49.68 28.2435 49.68C29.1587 49.68 29.8989 48.984 29.8989 48.128C29.8989 45.112 27.3124 42.664 24.129 42.664C21.8688 42.664 19.7836 43.928 18.8684 45.888C18.558 46.536 18.3989 47.296 18.3989 48.128C18.3989 48.752 18.4546 49.736 18.9321 51.016C19.0117 51.224 18.9082 51.456 18.7013 51.528C18.4944 51.6 18.2636 51.496 18.192 51.296C17.794 50.248 17.611 49.2 17.611 48.128C17.611 47.168 17.794 46.296 18.1522 45.536C19.2106 43.304 21.5584 41.856 24.129 41.856C27.7421 41.856 30.6947 44.664 30.6947 48.12C30.6947 49.416 29.5964 50.472 28.2435 50.472C26.8906 50.472 25.7923 49.416 25.7923 48.12C25.7923 47.264 25.0522 46.568 24.1369 46.568C23.2217 46.568 22.4816 47.264 22.4816 48.12C22.4816 49.488 23.0068 50.768 23.9698 51.728C24.7259 52.48 25.4501 52.896 26.5722 53.2C26.7871 53.264 26.9065 53.488 26.8508 53.696C26.811 53.88 26.6439 54 26.4767 54Z" fill="white"/>
</g>
<g filter="url(#filter2_d)">
<path d="M18.0625 23.2C18.7903 23.2 19.4884 23.495 20.003 24.0201C20.5177 24.5452 20.8068 25.2574 20.8068 26C20.8068 26.7426 20.5177 27.4548 20.003 27.9799C19.4884 28.505 18.7903 28.8 18.0625 28.8C17.3347 28.8 16.6366 28.505 16.122 27.9799C15.6073 27.4548 15.3182 26.7426 15.3182 26C15.3182 25.2574 15.6073 24.5452 16.122 24.0201C16.6366 23.495 17.3347 23.2 18.0625 23.2ZM18.0625 19C22.6364 19 26.5424 21.9027 28.125 26C26.5424 30.0973 22.6364 33 18.0625 33C13.4886 33 9.58256 30.0973 8 26C9.58256 21.9027 13.4886 19 18.0625 19ZM9.9942 26C11.5036 29.136 14.623 31.1333 18.0625 31.1333C21.502 31.1333 24.6214 29.136 26.1308 26C24.6214 22.864 21.502 20.8667 18.0625 20.8667C14.623 20.8667 11.5036 22.864 9.9942 26Z" fill="white"/>
</g>
<defs>
<filter id="filter0_d" x="30" y="14" width="25.8182" height="36" filterUnits="userSpaceOnUse" color-interpolation-filters="sRGB">
<feFlood flood-opacity="0" result="BackgroundImageFix"/>
<feColorMatrix in="SourceAlpha" type="matrix" values="0 0 0 0 0 0 0 0 0 0 0 0 0 0 0 0 0 0 127 0"/>
<feOffset dy="4"/>
<feGaussianBlur stdDeviation="2"/>
<feColorMatrix type="matrix" values="0 0 0 0 0 0 0 0 0 0 0 0 0 0 0 0 0 0 0.25 0"/>
<feBlend mode="normal" in2="BackgroundImageFix" result="effect1_dropShadow"/>
<feBlend mode="normal" in="SourceGraphic" in2="effect1_dropShadow" result="shape"/>
</filter>
<filter id="filter1_d" x="13" y="38" width="22.3158" height="24" filterUnits="userSpaceOnUse" color-interpolation-filters="sRGB">
<feFlood flood-opacity="0" result="BackgroundImageFix"/>
<feColorMatrix in="SourceAlpha" type="matrix" values="0 0 0 0 0 0 0 0 0 0 0 0 0 0 0 0 0 0 127 0"/>
<feOffset dy="4"/>
<feGaussianBlur stdDeviation="2"/>
<feColorMatrix type="matrix" values="0 0 0 0 0 0 0 0 0 0 0 0 0 0 0 0 0 0 0.25 0"/>
<feBlend mode="normal" in2="BackgroundImageFix" result="effect1_dropShadow"/>
<feBlend mode="normal" in="SourceGraphic" in2="effect1_dropShadow" result="shape"/>
</filter>
<filter id="filter2_d" x="4" y="19" width="28.125" height="22" filterUnits="userSpaceOnUse" color-interpolation-filters="sRGB">
<feFlood flood-opacity="0" result="BackgroundImageFix"/>
<feColorMatrix in="SourceAlpha" type="matrix" values="0 0 0 0 0 0 0 0 0 0 0 0 0 0 0 0 0 0 127 0"/>
<feOffset dy="4"/>
<feGaussianBlur stdDeviation="2"/>
<feColorMatrix type="matrix" values="0 0 0 0 0 0 0 0 0 0 0 0 0 0 0 0 0 0 0.25 0"/>
<feBlend mode="normal" in2="BackgroundImageFix" result="effect1_dropShadow"/>
<feBlend mode="normal" in="SourceGraphic" in2="effect1_dropShadow" result="shape"/>
</filter>
</defs>
</svg>
