<svg width="234" height="172" viewBox="0 0 234 172" fill="none" xmlns="http://www.w3.org/2000/svg">
<circle cx="131" cy="92.4572" r="79" fill="#9CCDF8"/>
<circle cx="108.907" cy="63.2" r="63.2" fill="#D0E4F7"/>
<circle cx="123.014" cy="70.5357" r="48.5286" fill="#F2F9FF"/>
<path d="M168.166 60.1201L170.015 53.6872C170.241 53.7536 170.476 53.7833 170.711 53.7753C171.186 53.73 171.63 53.5191 171.966 53.1796C172.301 52.84 172.507 52.3934 172.547 51.9176C172.895 51.6571 173.141 51.2833 173.243 50.8607L177.384 52.8086C177.384 52.8086 175.477 59.9418 172.773 62.3518C170.069 64.7619 161.318 71.425 161.318 71.425L159.681 70.7755L168.166 60.1201Z" fill="#FB886B"/>
<path d="M159.193 71.0572C158.778 71.546 158.233 71.907 157.621 72.0983C156.629 72.5012 154.322 72.7348 155.05 73.6117C156.189 73.8335 157.5 74.2324 157.5 74.2324C158.203 74.299 159.219 73.6845 159.78 73.1817L161.317 71.4291C161.317 71.4291 161.148 70.3101 161.148 70.2559L160.657 70.2147C160.216 70.5694 159.722 70.8536 159.193 71.0572Z" fill="#FB886B"/>
<path d="M158.983 71.6141C158.964 71.669 158.939 71.7218 158.909 71.7715C159.061 71.7834 159.21 71.8037 159.36 71.828C159.898 71.6756 160.44 71.5402 160.98 71.394C160.851 71.0966 160.671 70.6791 160.663 70.6475L156.939 70.9048C156.939 70.9048 156.77 71.3562 157.529 71.552C158.005 71.6687 158.499 71.6898 158.983 71.6141Z" fill="#FB886B"/>
<path d="M48.7441 33.9348L43.1159 48.6418L39.5688 45.9998L47.4959 32.6364L48.7441 33.9348Z" fill="#FFC996"/>
<path d="M48.0472 29.4877C47.6922 29.925 47.5114 30.478 47.5394 31.0406L47.2905 33.164L47.5806 33.4924L48.5765 34.3767C48.541 33.9371 48.4919 34.3767 48.4919 34.3767L50.0928 31.5891C50.0928 31.5891 52.0288 30.3477 49.5849 28.516C49.4724 28.4263 49.3351 28.3733 49.1915 28.3641C49.0479 28.3549 48.9049 28.39 48.7819 28.4646C48.4215 28.7057 48.1605 29.0691 48.0472 29.4877Z" fill="#FB886B"/>
<path d="M36.3208 59.2605C38.8251 55.8786 41.0956 52.3297 43.1165 48.6384L40.0648 45.1664L36.3214 49.53L36.3208 59.2605Z" fill="#144D4C"/>
<path d="M1.65641 32.8545C1.09801 33.0514 0.552281 33.2314 0 33.4187V40.1604C0.989739 39.8286 1.98559 39.489 2.99323 39.133C62.6963 18.0418 78.2314 41.5201 78.6527 41.7571L80.6929 35.7985C78.9015 34.7829 63.191 11.1157 1.65641 32.8545Z" fill="#FF7B00"/>
<path d="M92.7342 50.411L73.0344 45.5999C71.6009 45.2481 70.3652 44.3425 69.598 43.0815C68.8308 41.8204 68.5946 40.3068 68.9411 38.8719L70.6576 31.8866C71.0169 30.4538 71.9278 29.221 73.1919 28.4568C74.4559 27.6925 75.9708 27.4587 77.4065 27.8063L97.1068 32.6174C98.5403 32.9694 99.7758 33.875 100.543 35.136C101.31 36.397 101.546 37.9106 101.2 39.3454L99.483 46.3307C99.1238 47.7635 98.2129 48.9963 96.9488 49.7605C95.6847 50.5248 94.1699 50.7586 92.7342 50.411Z" fill="#2372B8"/>
<path d="M107.448 23.5928C93.9969 20.584 78.9841 22.0489 75.4358 36.4878C71.7115 51.6468 84.0073 60.7572 97.3166 64.3364L107.448 23.5928Z" fill="#9CCDF8"/>
<path d="M108.613 45.4865C105.848 56.7451 100.74 65.1727 97.2075 64.3105C93.6751 63.4483 93.055 53.6218 95.8217 42.3632C98.5883 31.1045 103.695 22.6764 107.227 23.5391C110.759 24.4019 111.38 34.2279 108.613 45.4865Z" fill="#FF7B00"/>
<path d="M104.664 32.7398C103.705 32.5057 102.554 33.83 102.096 35.6984C101.637 37.5667 102.039 39.2715 103.002 39.5056C103.965 39.7398 105.111 38.4154 105.571 36.5471C106.03 34.6787 105.624 32.974 104.664 32.7398Z" fill="#D0E4F7"/>
<path d="M100.972 47.7656C100.013 47.5309 98.8623 48.8558 98.403 50.7241C97.9436 52.5925 98.3499 54.2972 99.3092 54.5314C100.269 54.7656 101.419 53.4412 101.878 51.5728C102.338 49.7045 101.931 47.9998 100.972 47.7656Z" fill="#D0E4F7"/>
<path d="M230 55.9572C226.614 60.4622 226.853 61.6626 224.076 66.8436C215.5 85.4572 208.144 95.2739 185.898 94.1205C169.165 93.2566 156.721 83.8505 156.598 83.7551L154.098 89.3777C154.641 89.7952 167.575 99.6195 185.489 100.618C186.404 100.669 187.339 100.695 188.297 100.697C204.712 100.697 215.842 96.4572 228.5 72.9572C230.173 69.8525 231.526 64.585 233.335 61.8463L230 55.9572Z" fill="#1E5A91"/>
<path d="M136.461 82.9603C136.157 83.4506 135.673 83.8012 135.112 83.9361C134.551 84.0709 133.96 83.979 133.467 83.6803L123.942 77.8766C123.451 77.5763 123.099 77.0933 122.963 76.5336C122.828 75.9739 122.92 75.3834 123.219 74.8915C123.523 74.4011 124.008 74.0503 124.568 73.9155C125.129 73.7807 125.72 73.8727 126.214 74.1715L135.739 79.9752C136.23 80.2756 136.582 80.7587 136.717 81.3183C136.853 81.878 136.761 82.4685 136.461 82.9603Z" fill="#1E5A91"/>
<path d="M144.602 69.6831C144.299 70.1735 143.814 70.5243 143.253 70.6591C142.692 70.7939 142.101 70.7019 141.608 70.4031L132.083 64.5994C131.592 64.2989 131.24 63.8158 131.104 63.2562C130.969 62.6966 131.061 62.1062 131.361 61.6144C131.664 61.1241 132.149 60.7734 132.709 60.6385C133.27 60.5037 133.861 60.5956 134.355 60.8943L143.88 66.698C144.371 66.9985 144.723 67.4816 144.858 68.0412C144.994 68.6008 144.901 69.1913 144.602 69.6831Z" fill="#1E5A91"/>
<path d="M132.213 94.1145C142.444 99.403 152.659 100.039 160.004 88.0603C167.614 75.646 162.122 67.3087 152.735 60.6433L132.213 94.1145Z" fill="#9CCDF8"/>
<path d="M131.786 95.226L128.689 93.3385C127.818 92.8058 127.194 91.9493 126.953 90.957C126.713 89.9646 126.877 88.9175 127.408 88.0455L145.34 58.7986C145.878 57.929 146.737 57.307 147.732 57.0679C148.726 56.8288 149.774 56.9918 150.649 57.5216L153.746 59.4085C154.617 59.9413 155.241 60.7978 155.482 61.7901C155.722 62.7824 155.558 63.8295 155.027 64.7015L137.095 93.9473C136.557 94.8171 135.698 95.4393 134.704 95.6787C133.71 95.9182 132.661 95.7555 131.786 95.226Z" fill="#2995F5"/>
<path d="M174.932 41.5439L176.179 44.3089L179.835 42.6002L176.679 38.0571L174.932 41.5439Z" fill="#FB886B"/>
<path d="M170.504 34.5144C170.504 34.5144 171.309 41.6763 172.939 42.3681C174.57 43.0599 176.494 40.6369 176.494 40.6369L178.323 36.3963L172.511 33.8937L170.504 34.5144Z" fill="#FCA372"/>
<path d="M167.861 33.0942C167.861 33.0942 169.102 35.5771 172.692 34.466C173.704 34.4874 174.249 35.5054 174.534 36.4094C174.864 37.4573 174.976 36.6548 175.811 37.3687L177.271 39.4627C177.271 39.4627 180.625 33.1585 176.102 31.2569C171.579 29.3552 167.861 33.0942 167.861 33.0942Z" fill="#070B3B"/>
<path d="M175.548 36.2785C175.346 36.2549 175.142 36.3 174.969 36.4066C174.796 36.5132 174.665 36.675 174.595 36.8659C174.413 37.2818 174.544 37.6937 174.888 37.7851C175.09 37.8087 175.294 37.7634 175.466 37.6567C175.639 37.55 175.771 37.3881 175.841 37.1971C176.023 36.7812 175.892 36.3699 175.548 36.2785Z" fill="#FCA372"/>
<path d="M181.301 42.2993C190.324 47.647 186.887 69.7332 186.887 69.7332H173.164C173.164 69.7332 173.006 63.9571 172.826 57.8555C172.688 53.2346 172.253 48.4274 173.491 45.8001C175.22 42.1797 179.061 40.9721 181.301 42.2993Z" fill="#6DB6F7"/>
<path d="M176.59 56.6131C176.59 56.6131 174.545 63.7079 171.793 66.0654C169.042 68.423 161.137 74.7791 161.137 74.7791L158.541 74.2352L167.231 63.744L170.378 53.5439L176.59 56.6131Z" fill="#FCA372"/>
<path d="M177.257 57.2801L169.712 54.211L173.49 45.8031L178.467 48.3943L177.257 57.2801Z" fill="#6DB6F7"/>
<path d="M189.905 117.8C189.905 117.8 188.387 119.207 184.927 120.088C184.165 120.283 183.347 120.024 183.347 121.28H187.546L191.038 120.676V121.28H192.925C192.925 121.28 193.45 118.195 192.348 117.8H189.905Z" fill="#070B3B"/>
<path d="M190.276 115.584L189.905 117.8C190.242 118.034 190.64 118.165 191.05 118.179C191.461 118.193 191.866 118.088 192.218 117.877L192.348 117.8L192.16 115.584H190.276Z" fill="#FCA372"/>
<path d="M186.885 69.7333C186.885 69.7333 188.233 74.3508 188.505 85.6292C188.587 87.9091 189.156 90.1451 190.173 92.1873C194.117 100.351 192.332 116.14 192.332 116.14H189.608L178.718 77.3472L182.551 69.7333H186.885Z" fill="#242D80"/>
<path d="M175.089 119.134C175.089 119.134 173.571 120.541 170.111 121.422C169.349 121.616 168.528 121.357 168.528 122.614H172.727L176.22 122.01V122.614H178.105C178.105 122.614 178.631 119.529 177.529 119.134H175.089Z" fill="#070B3B"/>
<path d="M175.46 116.92L175.089 119.136C175.426 119.37 175.824 119.502 176.234 119.516C176.645 119.529 177.05 119.424 177.402 119.213L177.532 119.136L177.344 116.92H175.46Z" fill="#FCA372"/>
<path d="M161.139 74.7791L159.077 77.8223C158.148 78.992 155.756 78.5141 154.261 77.7591C154.21 77.7321 154.167 77.6926 154.136 77.6444C154.104 77.5961 154.086 77.5407 154.082 77.4834C154.078 77.426 154.089 77.3686 154.113 77.3165C154.137 77.2644 154.175 77.2195 154.221 77.1858C155.293 76.4183 158.076 74.4574 158.976 74.0782L161.139 74.7791Z" fill="#FCA372"/>
<path d="M173.164 69.7333L174.513 117.585H177.383C177.383 117.585 181.424 104.277 180.543 95.0951C180.283 92.6021 180.658 90.0838 181.633 87.7746C185.895 77.8962 185.22 69.7333 185.22 69.7333H173.164Z" fill="#535EC1"/>
<path d="M27.5288 123.006L29.3215 123.317C29.6917 121.094 35.268 110.554 35.7194 105.081C36.1321 100.77 36.7712 96.4832 37.634 92.2392L31.6396 90.4561C31.6396 90.4561 30.1211 90.456 31.7886 102.84C28.0395 107.762 27.0345 118.928 27.5288 123.006Z" fill="#FFC996"/>
<path d="M31.9438 85.9513C31.9438 85.9513 33.3546 94.4229 35.3104 103.484C33.2648 108.958 36.3825 124.223 36.439 124.169C36.6743 123.948 37.7515 125.275 37.7515 125.275C37.7515 125.275 40.0244 111.801 40.5272 105.724C41.03 99.6471 41.1552 92.2374 41.1552 92.2374L31.9438 85.9513Z" fill="#FFC996"/>
<path d="M36.1852 123.317C35.9494 123.518 35.7637 123.772 35.6428 124.057C35.522 124.343 35.4693 124.653 35.4889 124.963C35.6452 125.885 35.8664 128.045 35.8664 128.045H36.7438L36.7167 126.031C36.7167 125.899 38.5986 128.045 38.9175 128.045H43.5604C43.5604 128.045 43.8685 126.686 41.1424 126.25C38.4164 125.813 36.1852 123.317 36.1852 123.317Z" fill="#2A2E2F"/>
<path d="M29.5268 121.783L29.4026 123.705C29.3768 124.11 29.4884 124.511 29.7192 124.843C30.1144 125.39 30.5843 125.878 31.1152 126.294C29.7694 126.727 28.5455 125.218 27.9033 124.215C27.5915 123.726 27.4678 123.14 27.5552 122.567L27.7809 121.054L29.5268 121.783Z" fill="#FFC996"/>
<path d="M27.5295 122.838C27.5295 122.838 26.3445 122.945 26.1487 123.845C25.9529 124.746 25.3926 126.568 25.3926 126.568L26.0387 127.083L26.9489 125.277C26.9489 125.277 28.9069 127.917 29.2184 128.046H34.2863C34.2863 128.046 34.2863 126.369 31.115 126.293C28.1926 126.222 27.5295 122.838 27.5295 122.838Z" fill="#2A2E2F"/>
<path d="M54.6563 33.2239L49.0281 47.9309L45.4805 45.2912L53.4076 31.9277L54.6563 33.2239Z" fill="#FFC996"/>
<path d="M53.9593 28.7772C53.6043 29.2145 53.4235 29.7675 53.4515 30.3301L53.2026 32.4529L53.4927 32.7819L54.4886 33.6656C54.4531 33.226 54.404 33.6656 54.404 33.6656L56.0037 30.8769C56.0037 30.8769 57.9398 29.6354 55.4959 27.8032C55.3835 27.7134 55.2462 27.6604 55.1027 27.6513C54.9591 27.6422 54.8163 27.6775 54.6935 27.7524C54.3328 27.9939 54.0719 28.358 53.9593 28.7772Z" fill="#FFC996"/>
<path d="M37.6336 51.5354H34.0063L35.4543 47.2728L38.2904 49.0159L37.6336 51.5354Z" fill="#FB886B"/>
<path d="M42.452 56.1203C42.434 56.0131 42.4092 55.9233 42.3877 55.8246C45.9794 51.1924 49.0288 47.9308 49.0288 47.9308L45.9766 44.4559L39.0359 51.0445L36.9999 51.053C36.198 50.5475 35.245 50.3372 34.3048 50.4581C33.3647 50.579 32.4959 51.0236 31.848 51.7155C30.9705 52.6183 30.3859 55.0747 30.9722 57.6693C32.5889 64.8216 31.3238 68.6057 31.3238 68.6057L40.6853 72.0947C40.6853 72.0947 40.898 65.8745 41.0441 61.5126V61.4974C41.0846 60.6491 41.3465 59.8261 41.8037 59.1104C42.382 58.2282 42.613 57.1629 42.452 56.1203Z" fill="#1E5A91"/>
<path d="M38.9085 39.611L32.9609 41.6932L33.5472 46.133C33.5557 46.1956 33.5721 46.256 33.5839 46.3181C33.6968 46.3384 33.8096 46.3598 33.9264 46.3875C33.9451 46.3925 33.9625 46.3988 33.9829 46.4033C34.0032 46.4078 34.019 46.41 34.0393 46.4146C34.7002 46.6058 35.3018 46.9614 35.788 47.4482C36.2742 47.935 36.6291 48.537 36.8195 49.1982C37.6723 49.3459 38.5451 49.3346 39.3938 49.1649C39.8923 49.1063 40.3629 48.9037 40.7481 48.582C41.9974 45.8435 38.9085 39.611 38.9085 39.611Z" fill="#FCA372"/>
<path d="M38.7718 43.3894C37.1704 44.172 37.5473 52.4242 37.2708 58.0444C37.1929 59.5098 36.6127 60.9036 35.6279 61.9915C34.643 63.0794 33.3137 63.795 31.8633 64.018C29.7433 64.3565 27.4161 64.4186 26.0122 63.6185C26.9405 62.8595 31.944 55.4973 30.3414 45.7487C30.1304 44.466 30.1044 40.8958 32.2651 38.9547C34.6655 36.8008 39.6177 39.6109 39.6177 39.6109C39.6177 39.6109 40.9714 42.3139 38.7718 43.3894Z" fill="#070B3B"/>
<path d="M40.8737 68.3884C40.8737 68.3884 42.1191 74.7299 42.1191 78.5016C42.1191 80.5742 41.6112 93.6301 41.6112 93.6301C41.6112 93.6301 32.7203 94.2733 30.9936 94.2733C30.5653 83.5745 28.1265 83.2455 28.1265 78.2561C28.1265 76.0875 29.2387 73.6363 30.0919 72.0743C30.7365 71.0149 31.1562 69.8342 31.3248 68.6057L31.3813 68.4025L40.8737 68.3884Z" fill="#6DB6F7"/>
</svg>
