<svg width="220" height="184" viewBox="0 0 220 184" fill="none" xmlns="http://www.w3.org/2000/svg">
<ellipse cx="128.861" cy="91.2062" rx="90.7473" ry="90.583" fill="#D0E4F7"/>
<ellipse cx="59.8932" cy="99.3587" rx="59.8932" ry="59.7848" fill="#9CCDF8"/>
<path d="M88.5342 177.834H134.539C130.045 172.49 123.613 161.134 127.795 142.687C131.781 125.112 121.721 120.301 111.537 125.505C101.35 120.3 91.2926 125.112 95.2773 142.687C99.4599 161.134 93.0285 172.49 88.5342 177.834Z" fill="#2A2E2F"/>
<path d="M137.473 174.919H84.1225C81.0709 174.919 78.5972 177.886 78.5972 181.546H142.995C142.995 177.886 140.524 174.919 137.473 174.919Z" fill="#2A2E2F"/>
<path d="M189.872 28.2822H31.3056C29.8343 28.2822 28.6416 29.4713 28.6416 30.9382V143.623C28.6416 145.089 29.8343 146.279 31.3056 146.279H189.872C191.344 146.279 192.536 145.089 192.536 143.623V30.9382C192.536 29.4713 191.344 28.2822 189.872 28.2822Z" fill="#A9A9A9"/>
<path d="M34.8756 30.9381H186.303C186.978 30.9381 187.625 31.2053 188.102 31.681C188.579 32.1567 188.847 32.8018 188.847 33.4745V141.085C188.847 141.418 188.781 141.748 188.653 142.056C188.526 142.364 188.338 142.643 188.102 142.879C187.866 143.115 187.585 143.301 187.276 143.429C186.968 143.556 186.637 143.622 186.303 143.622H34.8756C34.2008 143.622 33.5535 143.355 33.0763 142.879C32.5991 142.403 32.3311 141.758 32.3311 141.085V33.475C32.3311 32.8022 32.5991 32.1569 33.0763 31.6811C33.5535 31.2054 34.2008 30.9381 34.8756 30.9381V30.9381Z" fill="#838586"/>
<path d="M108.617 29.6274C108.617 29.8218 108.675 30.0119 108.783 30.1735C108.891 30.3352 109.045 30.4611 109.225 30.5355C109.405 30.6099 109.604 30.6294 109.795 30.5915C109.986 30.5535 110.162 30.4599 110.3 30.3225C110.438 30.185 110.532 30.0099 110.57 29.8192C110.608 29.6285 110.588 29.4309 110.513 29.2513C110.439 29.0717 110.312 28.9182 110.15 28.8102C109.988 28.7022 109.798 28.6445 109.603 28.6445C109.341 28.6445 109.09 28.7481 108.905 28.9324C108.721 29.1168 108.617 29.3668 108.617 29.6274Z" fill="white"/>
<path d="M182.458 36.625H39.1108V138.239H182.458V36.625Z" fill="#FAFAFA"/>
<path d="M182.458 36.625H39.1108V48.971H182.458V36.625Z" fill="#2372B8"/>
<path d="M170.412 42.8832C170.412 43.5921 170.623 44.285 171.018 44.8744C171.413 45.4638 171.974 45.9231 172.631 46.1943C173.288 46.4655 174.011 46.5364 174.709 46.3981C175.406 46.2597 176.046 45.9183 176.549 45.417C177.052 44.9157 177.394 44.277 177.533 43.5818C177.672 42.8865 177.6 42.1658 177.328 41.5109C177.056 40.856 176.595 40.2962 176.004 39.9024C175.413 39.5085 174.718 39.2983 174.007 39.2983C173.535 39.2983 173.067 39.391 172.631 39.5711C172.195 39.7512 171.798 40.0153 171.464 40.3482C171.13 40.6811 170.866 41.0763 170.685 41.5113C170.504 41.9462 170.411 42.4124 170.412 42.8832Z" fill="#122043"/>
<path d="M159.132 42.8832C159.132 43.592 159.343 44.285 159.738 44.8743C160.133 45.4637 160.695 45.923 161.351 46.1943C162.008 46.4655 162.731 46.5364 163.429 46.3981C164.126 46.2598 164.766 45.9184 165.269 45.4172C165.772 44.9159 166.114 44.2773 166.253 43.5821C166.392 42.8868 166.321 42.1662 166.049 41.5112C165.777 40.8563 165.316 40.2965 164.725 39.9026C164.134 39.5087 163.439 39.2984 162.728 39.2983C162.255 39.2983 161.788 39.391 161.351 39.5711C160.915 39.7512 160.519 40.0153 160.185 40.3482C159.851 40.6811 159.586 41.0763 159.405 41.5112C159.225 41.9462 159.132 42.4124 159.132 42.8832Z" fill="white"/>
<path d="M88.3136 39.2983H42.5732V46.4675H88.3136V39.2983Z" fill="white"/>
<path d="M59.6309 97.9755C59.6306 98.3384 59.7382 98.6933 59.9402 98.9951C60.1422 99.297 60.4294 99.5324 60.7656 99.6716C61.1018 99.8107 61.4718 99.8473 61.8289 99.7767C62.1859 99.7062 62.514 99.5317 62.7715 99.2753C63.0291 99.0188 63.2046 98.692 63.2758 98.3361C63.3471 97.9803 63.3109 97.6113 63.1718 97.276C63.0327 96.9406 62.797 96.6539 62.4944 96.4521C62.1919 96.2503 61.8361 96.1425 61.4721 96.1423C60.9842 96.1422 60.5162 96.3352 60.1709 96.679C59.8256 97.0227 59.6314 97.4891 59.6309 97.9755Z" fill="#FF7B00"/>
<path d="M53.8564 97.9755C53.856 98.3385 53.9636 98.6934 54.1656 98.9955C54.3675 99.2975 54.6547 99.533 54.9909 99.6723C55.3271 99.8115 55.6972 99.8483 56.0544 99.7779C56.4115 99.7074 56.7397 99.533 56.9974 99.2766C57.2552 99.0203 57.4308 98.6934 57.5023 98.3375C57.5737 97.9816 57.5376 97.6126 57.3987 97.2771C57.2597 96.9416 57.0241 96.6547 56.7216 96.4527C56.4191 96.2508 56.0633 96.1427 55.6992 96.1423C55.4575 96.1421 55.2181 96.1893 54.9946 96.2813C54.7712 96.3733 54.5681 96.5082 54.397 96.6784C54.2259 96.8487 54.0901 97.0508 53.9973 97.2734C53.9046 97.4959 53.8567 97.7345 53.8564 97.9755Z" fill="white"/>
<path d="M166.304 73.0897H108.663C107.523 73.0886 106.43 72.9451 105.624 72.6905C104.818 72.436 104.363 72.091 104.36 71.7309C104.363 71.3709 104.818 71.0259 105.624 70.7713C106.43 70.5167 107.523 70.3732 108.663 70.3722H166.304C167.444 70.3734 168.536 70.5169 169.342 70.7715C170.148 71.0261 170.602 71.371 170.605 71.7309C170.602 72.0909 170.148 72.4358 169.342 72.6904C168.536 72.9449 167.444 73.0885 166.304 73.0897Z" fill="#6DB6F7"/>
<path d="M100.702 71.5792C100.702 72.2028 100.517 72.8124 100.17 73.3309C99.822 73.8494 99.3281 74.2535 98.7502 74.4921C98.1723 74.7308 97.5365 74.7932 96.923 74.6716C96.3095 74.5499 95.746 74.2496 95.3037 73.8087C94.8614 73.3677 94.5602 72.8059 94.4382 72.1943C94.3162 71.5827 94.3788 70.9487 94.6182 70.3726C94.8575 69.7965 95.2629 69.3041 95.783 68.9576C96.303 68.6112 96.9145 68.4263 97.54 68.4263C98.3787 68.4263 99.1831 68.7585 99.7762 69.3497C100.369 69.941 100.702 70.743 100.702 71.5792Z" fill="#6DB6F7"/>
<path d="M166.304 104.022H108.663C107.523 104.021 106.43 103.878 105.624 103.623C104.818 103.368 104.363 103.023 104.36 102.663C104.363 102.303 104.818 101.958 105.624 101.704C106.43 101.449 107.523 101.306 108.663 101.305H166.304C167.444 101.306 168.536 101.449 169.342 101.704C170.148 101.959 170.602 102.303 170.605 102.663C170.602 103.023 170.148 103.368 169.342 103.623C168.536 103.877 167.444 104.021 166.304 104.022Z" fill="#6DB6F7"/>
<path d="M100.702 102.512C100.702 103.135 100.517 103.745 100.17 104.263C99.822 104.782 99.3281 105.186 98.7502 105.425C98.1723 105.663 97.5365 105.726 96.923 105.604C96.3095 105.482 95.746 105.182 95.3037 104.741C94.8614 104.3 94.5602 103.738 94.4382 103.127C94.3162 102.515 94.3788 101.881 94.6182 101.305C94.8575 100.729 95.2629 100.237 95.783 99.8901C96.303 99.5437 96.9145 99.3588 97.54 99.3588C98.3787 99.3588 99.1831 99.6909 99.7762 100.282C100.369 100.874 100.702 101.675 100.702 102.512Z" fill="#6DB6F7"/>
<path d="M166.304 83.0539H108.663C107.523 83.0529 106.431 82.9094 105.624 82.6549C104.818 82.4004 104.364 82.0554 104.36 81.6954C104.363 81.3353 104.818 80.9903 105.624 80.7356C106.43 80.481 107.523 80.3375 108.663 80.3364H166.304C167.444 80.3376 168.536 80.4812 169.342 80.7358C170.148 80.9904 170.602 81.3354 170.605 81.6954C170.602 82.0553 170.147 82.4002 169.341 82.6547C168.536 82.9092 167.444 83.0527 166.304 83.0539Z" fill="#6DB6F7"/>
<path d="M100.702 81.5526C100.702 82.1762 100.517 82.7858 100.17 83.3043C99.822 83.8228 99.3281 84.2269 98.7502 84.4655C98.1723 84.7042 97.5365 84.7666 96.923 84.6449C96.3095 84.5233 95.746 84.223 95.3037 83.7821C94.8614 83.3411 94.5602 82.7793 94.4382 82.1677C94.3162 81.5561 94.3788 80.9221 94.6182 80.346C94.8575 79.7699 95.2629 79.2775 95.783 78.931C96.303 78.5846 96.9145 78.3997 97.54 78.3997C98.3787 78.3997 99.1831 78.7318 99.7762 79.3231C100.369 79.9144 100.702 80.7164 100.702 81.5526Z" fill="#6DB6F7"/>
<path d="M166.304 113.986H108.663C107.523 113.985 106.431 113.842 105.624 113.587C104.818 113.333 104.364 112.988 104.36 112.628C104.363 112.268 104.818 111.923 105.624 111.668C106.43 111.413 107.523 111.27 108.663 111.269H166.304C167.444 111.27 168.536 111.414 169.342 111.668C170.148 111.923 170.602 112.268 170.605 112.628C170.602 112.988 170.147 113.333 169.341 113.587C168.536 113.842 167.444 113.985 166.304 113.986Z" fill="#6DB6F7"/>
<path d="M100.702 112.485C100.702 113.109 100.517 113.718 100.17 114.237C99.822 114.755 99.3281 115.159 98.7502 115.398C98.1723 115.637 97.5365 115.699 96.923 115.577C96.3095 115.456 95.746 115.155 95.3037 114.714C94.8614 114.273 94.5602 113.712 94.4382 113.1C94.3162 112.488 94.3788 111.855 94.6182 111.278C94.8575 110.702 95.2629 110.21 95.783 109.863C96.303 109.517 96.9145 109.332 97.54 109.332C98.3787 109.332 99.1831 109.664 99.7762 110.256C100.369 110.847 100.702 111.649 100.702 112.485Z" fill="#6DB6F7"/>
<path d="M166.304 93.0179H108.663C107.523 93.0169 106.43 92.8733 105.624 92.6187C104.818 92.3641 104.363 92.019 104.36 91.6589C104.363 91.2989 104.818 90.9539 105.624 90.6993C106.43 90.4448 107.523 90.3013 108.663 90.3004H166.304C167.444 90.3015 168.536 90.4449 169.342 90.6995C170.148 90.954 170.602 91.2989 170.605 91.6589C170.602 92.0189 170.148 92.3639 169.342 92.6185C168.536 92.8731 167.444 93.0167 166.304 93.0179Z" fill="#6DB6F7"/>
<path d="M100.702 91.5259C100.702 92.1495 100.517 92.759 100.17 93.2775C99.822 93.796 99.3281 94.2002 98.7502 94.4388C98.1723 94.6774 97.5365 94.7399 96.923 94.6182C96.3095 94.4965 95.746 94.1963 95.3037 93.7553C94.8614 93.3144 94.5602 92.7526 94.4382 92.141C94.3162 91.5294 94.3788 90.8954 94.6182 90.3193C94.8575 89.7432 95.2629 89.2507 95.783 88.9043C96.303 88.5578 96.9145 88.3729 97.54 88.3729C97.9553 88.3729 98.3665 88.4545 98.7502 88.6129C99.1339 88.7714 99.4825 89.0036 99.7762 89.2964C100.07 89.5892 100.303 89.9368 100.462 90.3193C100.621 90.7018 100.702 91.1118 100.702 91.5259Z" fill="#6DB6F7"/>
<path d="M166.304 123.95H108.663C107.523 123.949 106.43 123.806 105.624 123.551C104.818 123.297 104.363 122.952 104.36 122.591C104.363 122.231 104.818 121.886 105.624 121.632C106.43 121.377 107.523 121.234 108.663 121.233H166.304C167.444 121.234 168.536 121.377 169.342 121.632C170.148 121.887 170.602 122.231 170.605 122.591C170.602 122.951 170.148 123.296 169.342 123.551C168.536 123.806 167.444 123.949 166.304 123.95Z" fill="#6DB6F7"/>
<path d="M100.702 122.458C100.702 123.082 100.517 123.692 100.17 124.21C99.822 124.729 99.3281 125.133 98.7502 125.371C98.1723 125.61 97.5365 125.672 96.923 125.551C96.3095 125.429 95.746 125.129 95.3037 124.688C94.8614 124.247 94.5602 123.685 94.4382 123.073C94.3162 122.462 94.3788 121.828 94.6182 121.252C94.8575 120.676 95.2629 120.183 95.783 119.837C96.303 119.49 96.9145 119.305 97.54 119.305C97.9553 119.305 98.3665 119.387 98.7502 119.545C99.1339 119.704 99.4825 119.936 99.7762 120.229C100.07 120.522 100.303 120.869 100.462 121.252C100.621 121.634 100.702 122.044 100.702 122.458Z" fill="#6DB6F7"/>
<path d="M68.9681 67.6548H53.541V130.157H68.9681V67.6548Z" fill="#FF7B00"/>
<path d="M88.9324 67.6548H73.5054V130.157H88.9324V67.6548Z" fill="#FF7B00"/>
<path d="M181.089 139.213C181.089 139.213 184.614 145.98 184.366 147.468C184.119 148.956 181.089 151.54 181.089 151.54L180.6 150.697L182.137 147.231L180.157 141.544L181.089 139.213Z" fill="#F7A57A"/>
<path d="M177.311 136.31L177.597 138.247H179.324L179.501 135.271L177.311 136.31Z" fill="#F18C72"/>
<path d="M174.15 144.865V139.404C176.367 137.839 177.933 138.003 177.933 138.003C178.261 137.967 178.591 137.954 178.921 137.963C178.935 137.963 182.632 137.689 181.951 143.527C180.475 148.49 181.184 150.68 181.184 150.68C181.184 150.68 177.321 152.25 175.164 151.143C175.707 149.903 174.708 146.493 174.164 144.837L174.15 144.865Z" fill="#2995F5"/>
<path d="M179.91 137.39C179.91 137.39 181.377 138.248 181.377 139.607C181.355 140.31 181.105 140.987 180.665 141.536C180.352 142.009 180.191 142.567 180.204 143.133C180.217 143.7 180.403 144.25 180.737 144.708L180.768 144.749C180.883 144.89 180.965 145.055 181.007 145.231C181.049 145.408 181.051 145.592 181.012 145.769C180.741 147.058 178.962 147.251 178.273 146.127C177.989 145.664 177.762 145.169 177.597 144.652C177.46 144.334 177.422 143.982 177.487 143.642C177.552 143.301 177.717 142.988 177.962 142.742C178.038 142.672 178.099 142.589 178.143 142.495C178.187 142.402 178.211 142.3 178.215 142.197C178.219 142.094 178.203 141.992 178.167 141.895C178.131 141.798 178.077 141.71 178.006 141.634C177.454 141.068 176.902 140.214 177.597 139.461C178.265 138.764 178.774 137.931 179.09 137.019L179.91 137.39Z" fill="#122043"/>
<path d="M183.182 180.987L182.147 181.166C181.933 179.887 178.716 173.82 178.454 170.67C178.216 168.188 177.847 165.721 177.35 163.278L180.813 162.252C180.813 162.252 181.69 162.252 180.727 169.38C182.888 172.212 183.467 178.639 183.182 180.987Z" fill="#F18C72"/>
<path d="M175.72 131.738L178.914 131.588L179.481 133.781C179.489 133.812 179.493 133.844 179.499 133.875C179.449 133.906 179.399 133.938 179.352 133.975L179.329 133.993L179.306 134.009C179.031 134.223 178.816 134.504 178.679 134.824C178.543 135.145 178.491 135.494 178.527 135.84C178.154 136.071 177.741 136.231 177.31 136.313C177.065 136.379 176.805 136.373 176.563 136.295C175.454 135.246 175.72 131.738 175.72 131.738Z" fill="#F7A57A"/>
<path d="M179.919 136.923C179.09 137.018 180.408 136.923 179.09 137.018C179.053 136.321 176.802 134.506 176.374 134.139C176.062 133.89 175.809 133.575 175.634 133.216C175.459 132.858 175.366 132.465 175.362 132.066C175.362 132.066 177.536 129.731 178.944 130.226C179.354 130.372 179.721 130.618 180.011 130.941C180.301 131.265 180.505 131.655 180.606 132.078C180.762 132.598 181.085 133.487 179.919 136.923Z" fill="#122043"/>
<path d="M180.633 159.661C180.633 159.661 179.82 164.537 178.689 169.753C179.87 172.902 178.07 181.69 178.037 181.659C177.901 181.532 177.279 182.296 177.279 182.296C177.279 182.296 175.966 174.539 175.676 171.042C175.386 167.545 174.942 163.28 174.942 163.28L180.633 159.661Z" fill="#F7A57A"/>
<path d="M178.184 181.166C178.32 181.282 178.427 181.428 178.497 181.592C178.567 181.757 178.597 181.935 178.586 182.113C178.496 182.644 178.368 183.888 178.368 183.888H177.862L177.877 182.728C177.877 182.652 176.79 183.888 176.607 183.888H173.926C173.926 183.888 173.748 183.106 175.322 182.854C176.896 182.603 178.184 181.166 178.184 181.166Z" fill="#002F4C"/>
<path d="M179.091 137.389H179.91C180.093 137.389 180.242 137.24 180.242 137.057V136.979C180.242 136.796 180.093 136.647 179.91 136.647H179.091C178.908 136.647 178.759 136.796 178.759 136.979V137.057C178.759 137.24 178.908 137.389 179.091 137.389Z" fill="#2995F5"/>
<path d="M175.316 149.952C175.316 149.952 174.438 154.875 174.438 157.325C174.438 158.672 175.061 164.386 175.061 164.386C175.061 164.386 180.197 164.536 181.24 164.536C181.373 160.485 182.888 157.815 182.888 154.577C182.888 152.29 180.867 150.295 180.867 150.295L175.316 149.952Z" fill="#1E5A91"/>
<path d="M165.524 144.242L165.755 144.309C165.984 144.375 166.194 144.498 166.363 144.666C166.533 144.833 166.658 145.041 166.727 145.269L166.781 145.451C168.177 145.908 169.611 146.238 171.067 146.436C173.37 139.898 174.15 139.404 174.15 139.404C174.605 139.577 174.993 139.889 175.26 140.295C175.526 140.701 175.658 141.181 175.636 141.666C175.636 143.167 174.632 147.421 172.716 148.753C172.453 148.929 172.148 149.033 171.831 149.055C171.515 149.076 171.198 149.015 170.913 148.875C167.837 147.419 165.667 146.173 165.667 146.173L163.345 144.895L164.371 144.357C164.726 144.171 165.139 144.13 165.524 144.242Z" fill="#F7A57A"/>
<path d="M182.029 180.28L182.101 181.387C182.116 181.619 182.051 181.85 181.918 182.041C181.69 182.356 181.418 182.637 181.112 182.876C181.889 183.127 182.596 182.257 182.969 181.68C183.149 181.398 183.221 181.06 183.17 180.729L183.039 179.858L182.029 180.28Z" fill="#F18C72"/>
<path d="M183.182 180.891C183.182 180.891 183.866 180.952 183.979 181.47C184.093 181.989 184.416 183.037 184.416 183.037L184.043 183.334L183.517 182.294C183.117 182.853 182.679 183.386 182.207 183.888H179.281C179.281 183.888 179.281 182.922 181.112 182.878C182.799 182.838 183.182 180.891 183.182 180.891Z" fill="#122043"/>
<path d="M82.7954 48.8927L83.0258 50.2665C82.8165 50.4117 82.5697 50.4936 82.3149 50.5025C82.06 50.5114 81.8081 50.4468 81.5891 50.3165L81.5083 50.2665L81.168 48.8927H82.7954Z" fill="#F7A57A"/>
<path d="M71.7528 17.1148C72.9767 21.142 77.0844 27.3243 77.0844 27.3243L73.8401 26.0006L71.547 20.7191C71.547 20.7191 70.529 13.0875 71.7528 17.1148Z" fill="#A4D1BB"/>
<path d="M80.5697 33.2838L83.1298 49.0134H80.8538C80.8538 49.0134 75.7451 34.8612 75.209 30.7004C75.209 28.3437 80.3729 30.7004 80.3729 30.7004L80.5697 33.2838Z" fill="#CF5B1A"/>
<path d="M72.0973 10.7586L71.2484 12.9492L69.4106 11.6234L70.6511 9.04053L72.0973 10.7586Z" fill="#F18C72"/>
<path d="M72.7895 11.122C73.0252 11.1855 73.2744 11.1789 73.5064 11.103C74.5721 10.089 74.3121 6.70187 74.3121 6.70187L73.1213 5.8811L71.2459 6.56674L70.7018 8.68671C70.6323 8.97274 70.6354 9.27151 70.7107 9.55608C70.7859 9.84064 70.9311 10.102 71.133 10.3167C71.6022 10.7293 72.1746 11.0075 72.7895 11.122Z" fill="#F7A57A"/>
<path d="M71.5766 7.28005C71.6565 7.11543 71.7953 6.98665 71.9658 6.91919C72.1363 6.85173 72.3259 6.85049 72.4973 6.91571C72.7832 7.02773 73.0774 7.11742 73.3773 7.18396C74.1132 7.3376 75.4856 7.32409 75.7195 6.20805C75.9534 5.09202 74.4982 5.1871 74.4982 5.1871L72.5635 5.32023C71.9909 5.35351 71.4186 5.24897 70.8949 5.01544C70.6967 4.95546 70.4827 4.97598 70.2996 5.07252C70.1164 5.16906 69.979 5.33382 69.9171 5.53092C69.6992 6.16101 69.9266 7.23801 70.1179 7.92865C70.2283 8.3279 70.409 8.70442 70.6515 9.04069L71.5766 7.28005Z" fill="#122043"/>
<path d="M70.4894 7.76001C70.6082 7.7133 70.7394 7.70806 70.8615 7.74514C70.9836 7.78222 71.0896 7.85943 71.1621 7.9642C71.3393 8.18691 71.3258 8.45716 71.1315 8.56727C71.0123 8.61371 70.8808 8.61856 70.7585 8.58103C70.6362 8.5435 70.5302 8.4658 70.4578 8.36057C70.2811 8.13887 70.2952 7.86912 70.4894 7.76001Z" fill="#F7A57A"/>
<path d="M83.0683 50.1209C83.0683 50.1209 83.0748 51.5812 86.0169 52.4576C86.6193 52.6377 86.424 52.8154 86.5375 53.0686H83.1516L81.8259 51.5827L81.4137 51.9361L80.46 50.9997C80.46 50.9997 80.6256 49.6444 81.3535 49.6329C81.9534 49.8366 83.0683 50.1209 83.0683 50.1209Z" fill="#122043"/>
<path d="M74.7081 48.4649L74.1559 49.7291C73.9107 49.7989 73.6505 49.7967 73.4065 49.7229C73.1624 49.649 72.9449 49.5066 72.78 49.3127L72.7192 49.2412L73.164 47.9399L74.7081 48.4649Z" fill="#F7A57A"/>
<path d="M71.652 12.3363C71.652 12.3363 71.8859 11.9764 69.8051 10.9039C66.3416 13.7656 65.6387 26.001 65.6387 26.001H73.8396C74.1172 19.1706 71.652 12.3363 71.652 12.3363Z" fill="#2995F5"/>
<path d="M79.7554 25.6767C79.7731 25.6013 79.7661 25.5223 79.7353 25.4512C79.7046 25.3801 79.6518 25.3207 79.5847 25.2818L78.2479 24.5091C77.917 24.3183 77.5273 24.2556 77.1531 24.3329L75.7038 24.3905L75.5141 24.6187L75.2129 25.8959C75.504 25.8263 75.6747 25.7818 75.6747 25.7818L76.5949 25.8073C76.5949 25.8073 78.3317 27.4153 79.1921 26.0165C79.2278 27.5049 79.6655 27.3903 79.6655 27.3903L79.7554 25.6767Z" fill="#F7A57A"/>
<path d="M65.6391 26.001L65.5151 27.0149L65.5106 27.056C65.4163 27.9978 65.6601 28.9424 66.1986 29.7218C66.7371 30.5013 67.5355 31.0651 68.4517 31.3129C71.1972 32.142 74.032 32.6422 76.8961 32.8028C73.8034 36.762 72.9475 47.8718 72.9475 47.8718L74.9404 48.593L82.6363 30.318C82.7517 30.0441 82.8051 29.7481 82.7925 29.4513C82.78 29.1544 82.7019 28.864 82.5638 28.6007C82.4257 28.3374 82.2311 28.1077 81.9937 27.9281C81.7563 27.7484 81.4821 27.6232 81.1906 27.5614L73.84 26.001H65.6391Z" fill="#FF7B00"/>
<path d="M70.7665 16.2464C69.8535 17.0929 69.0397 18.04 68.341 19.0695C68.219 19.2629 68.1625 19.4902 68.1797 19.7181C68.197 19.9459 68.2871 20.1622 68.4368 20.3352C70.1436 22.296 76.2307 24.1792 76.2307 24.1792L75.8366 26.3923C75.8366 26.3923 67.2024 24.6992 64.1403 21.6379C61.0014 18.4994 69.1155 11.9438 69.1155 11.9438" fill="#1E5A91"/>
<path d="M82.9812 28.3462L85.5373 19.2352L85.0685 19.1041L82.6308 27.7922L75.2923 26.521L75.209 26.9995L82.9812 28.3462Z" fill="#2A2E2F"/>
<path d="M74.2796 49.4488C74.2796 49.4488 74.1642 50.9217 77.1063 51.798C77.7087 51.9782 77.5134 52.1558 77.6269 52.4091H74.241L72.9157 50.9232L72.5031 51.2765L71.5493 50.3402C71.5493 50.3402 71.9956 48.9849 72.7235 48.9734C73.3193 49.1776 74.2796 49.4488 74.2796 49.4488Z" fill="#122043"/>
</svg>
