<svg width="220" height="186" viewBox="0 0 220 186" fill="none" xmlns="http://www.w3.org/2000/svg">
<circle cx="136.427" cy="82.8724" r="82.8724" fill="#D0E4F7"/>
<circle cx="59.7696" cy="45.2838" r="27.5255" fill="#6DB6F7"/>
<path d="M105.384 70.1738L102.895 60.1766C102.694 59.3682 102.228 58.6504 101.571 58.1374C100.915 57.6244 100.106 57.3457 99.2726 57.3458H4.60395C4.03994 57.3458 3.48327 57.4736 2.97574 57.7196C2.46821 57.9656 2.02303 58.3234 1.67364 58.7662C1.32424 59.209 1.07972 59.7251 0.958428 60.2759C0.837141 60.8268 0.842245 61.3979 0.973356 61.9465L16.8582 128.404H119.302L105.384 70.1738Z" fill="#A9A9A9"/>
<path d="M101.499 72.8064L98.576 61.0667H4.93994L20.6644 128.404H114.418L101.499 72.8064Z" fill="white"/>
<path d="M46.2299 95.4233C52.1961 90.3207 51.6756 79.9205 45.0674 72.194C38.4591 64.4674 28.2655 62.3403 22.2993 67.443C16.3331 72.5457 16.8536 82.9458 23.4619 90.6724C30.0701 98.3989 40.2637 100.526 46.2299 95.4233Z" fill="#D0E4F7"/>
<path d="M58.506 111.266C57.3143 106.911 54.3147 96.1069 53.2192 93.6474C51.8387 90.5481 48.8201 89.4976 48.8201 89.4976L39.9771 104.239L44.7727 111.266H58.506Z" fill="#9B4717"/>
<path d="M35.4319 80.076H36.9546C36.652 78.899 38.1518 77.6068 37.7562 75.7056C37.4934 74.4426 37.4285 72.9449 37.4166 72.0049C37.2461 72.0891 37.0691 72.165 36.9035 72.2562C36.1777 72.6311 35.5639 73.1912 35.1242 73.8796C34.3618 75.1182 34.2008 76.8219 34.3986 78.2403C34.5155 79.0682 34.8752 79.8429 35.4322 80.4665L35.4319 80.076Z" fill="#222954"/>
<path d="M32.9446 70.5507C34.3394 70.0964 35.1019 68.5974 34.6476 67.2025C34.1933 65.8077 32.6943 65.0453 31.2994 65.4996C29.9046 65.9539 29.1422 67.4529 29.5965 68.8477C30.0508 70.2425 31.5498 71.005 32.9446 70.5507Z" fill="#222954"/>
<path d="M24.3529 111.266C23.4509 106.911 22.3418 96.1069 22.2548 93.6474C22.1451 90.548 25.8382 89.2077 25.8382 89.2077L41.0242 104.239L39.6067 111.266H24.3529Z" fill="#9B4717"/>
<path d="M29.3964 78.7857C29.3964 78.7857 28.5411 78.2352 28.4073 78.8543C28.1938 79.842 30.0968 80.4741 30.0968 80.4741L29.3964 78.7857Z" fill="#F4A086"/>
<path d="M37.0737 77.5974C37.0737 77.5974 37.6644 77.0469 38.0957 77.666C38.7839 78.6537 37.1848 79.2856 37.1848 79.2856L37.0737 77.5974Z" fill="#F4A086"/>
<path d="M50.5098 111.266L48.2711 89.5988C48.2711 89.5988 35.4967 87.1354 28.3556 89.2951C23.7263 90.6951 27.2322 102.872 30.2715 111.266H50.5098Z" fill="white"/>
<path d="M35.4611 111.266L34.2377 98.7332L31.8209 89.5313L40.9055 89.5651L46.3418 111.266H52.3775C51.878 103.295 51.2519 90.5825 48.8211 89.4974C45.4192 87.9789 37.7489 87.2365 35.6566 87.2365C33.5643 87.2365 27.1677 87.439 24.1776 90.4423C22.1337 92.4951 25.9366 103.721 28.7573 111.265L35.4611 111.266Z" fill="#FF7B00"/>
<path d="M38.3829 85.3433C37.7694 84.8532 36.5025 84.7975 34.8857 84.9435C33.2688 85.0894 32.4677 85.5871 32.1109 86.0121L32.0737 89.2082C32.0759 89.0973 32.1698 87.7096 35.4585 87.7096C38.8849 87.7096 40.2755 88.7641 40.2755 88.7641C40.2755 88.7641 39.7078 86.4016 38.3829 85.3433Z" fill="#FDAC47"/>
<path d="M35.9722 87.709C38.4302 87.709 41.2774 88.0465 41.7323 88.4514C42.1871 88.8564 39.9881 95.3018 37.8959 95.3018C35.8037 95.3018 30.0185 89.1938 30.4962 88.6539C30.9738 88.114 33.514 87.709 35.9722 87.709Z" fill="#F6B690"/>
<path d="M32.0986 83.5046L33.2783 88.4155C33.2783 88.4155 34.245 89.1077 36.1052 89.1077C37.9655 89.1077 38.4937 87.9756 38.4937 87.9756L36.7617 81.5802L32.0986 83.5046Z" fill="#F4A086"/>
<path d="M28.6639 77.7257C28.6639 77.7257 31.4565 85.4422 34.7789 85.4422C38.1012 85.4422 38.4722 79.628 36.4936 74.9659C34.5149 70.3037 27.0657 74.246 28.6639 77.7257Z" fill="#F6B690"/>
<path d="M32.7425 70.4818C32.7425 70.4818 30.2733 66.7359 26.597 68.2883C22.6767 69.9436 24.5249 74.97 26.6108 76.9779C28.2818 78.5867 27.6091 79.3063 27.6091 79.3063C27.6091 79.3063 32.9526 79.4244 32.5135 74.6494C33.222 76.4043 38.3145 76.7417 37.9101 72.7427C37.5057 68.7436 32.8976 68.3896 32.7425 70.4818Z" fill="#0A3C5F"/>
<path d="M35.0063 111.266H35.6648L35.8587 97.2542C35.8587 97.2542 33.5848 92.4447 32.7312 89.107C32.124 86.7317 32.0832 86.1502 32.11 86.0121L28.2803 90.6224C31.1727 94.3575 33.0312 97.2796 33.0312 97.2796L29.9384 97.521C30.6542 98.8188 33.6763 107.436 35.0063 111.266Z" fill="#9B4717"/>
<path d="M40.4124 98.0672C40.4124 98.0672 43.7634 105.899 46.1083 111.266H46.5557C46.2951 106.608 46.8784 99.1217 46.8784 99.1217L44.1317 97.7369C44.1317 97.7369 45.0475 93.6715 45.8738 91.5625C42.9029 88.399 38.3823 85.3433 38.3823 85.3433C38.3823 85.3433 39.4146 86.8363 39.9334 89.3646C40.3022 91.159 40.4124 98.0672 40.4124 98.0672Z" fill="#9B4717"/>
<path d="M64.8987 84.6038L60.9246 68.0708C60.8972 67.9875 60.8904 67.8988 60.9049 67.8123C60.9194 67.7258 60.9546 67.6441 61.0077 67.5743C61.0607 67.5044 61.1299 67.4485 61.2094 67.4114C61.2888 67.3742 61.3761 67.3569 61.4637 67.3609H88.9006C89.1037 67.3706 89.2984 67.4446 89.4567 67.5722C89.6149 67.6998 89.7285 67.8744 89.781 68.0708L93.0191 81.5426C93.0466 81.6259 93.0533 81.7146 93.0389 81.8011C93.0244 81.8876 92.9891 81.9692 92.9361 82.0391C92.883 82.1089 92.8138 82.1648 92.7344 82.2019C92.6549 82.2391 92.5677 82.2564 92.4801 82.2523H67.7671C67.6571 82.2469 67.548 82.2756 67.4549 82.3345C67.3618 82.3934 67.2892 82.4797 67.2471 82.5815L66.2991 84.9844C66.0623 85.584 65.0693 85.3137 64.8987 84.6038Z" fill="#9CCDF8"/>
<path d="M64.5957 70.681H87.3642L87.1173 69.6533H64.3486L64.5957 70.681Z" fill="#1E5A91"/>
<path d="M65.166 73.0527H87.9345L87.6876 72.025H64.9189L65.166 73.0527Z" fill="#1E5A91"/>
<path d="M65.7358 75.4245H88.5043L88.2574 74.3968H65.4888L65.7358 75.4245Z" fill="#1E5A91"/>
<path d="M66.306 77.7964H77.9494L77.7025 76.7687H66.0591L66.306 77.7964Z" fill="#1E5A91"/>
<path d="M59.4796 71.461C60.2112 70.6368 59.9551 69.2148 58.9076 68.2849C57.86 67.355 56.4177 67.2693 55.6861 68.0934C54.9544 68.9176 55.2105 70.3396 56.2581 71.2695C57.3057 72.1995 58.748 72.2852 59.4796 71.461Z" fill="#1E5A91"/>
<path d="M92.5065 104.379L88.5324 87.8457C88.4799 87.6493 88.3663 87.4747 88.2081 87.3471C88.0498 87.2196 87.8551 87.1456 87.652 87.136H60.2156C60.128 87.1319 60.0408 87.1492 59.9613 87.1863C59.8819 87.2235 59.8127 87.2794 59.7596 87.3492C59.7066 87.419 59.6713 87.5007 59.6568 87.5872C59.6424 87.6737 59.6491 87.7624 59.6765 87.8457L62.9147 101.317C62.9672 101.514 63.0808 101.688 63.239 101.816C63.3973 101.944 63.592 102.018 63.7951 102.027H88.5073C88.6371 102.032 88.7645 102.064 88.8813 102.12C88.9981 102.177 89.1018 102.257 89.1858 102.357L91.2889 104.759C91.8139 105.359 92.6773 105.089 92.5065 104.379Z" fill="#1E5A91"/>
<path d="M86.1165 90.4562H63.348L63.1011 89.4285H85.8696L86.1165 90.4562Z" fill="#D0E4F7"/>
<path d="M86.6863 92.828H63.9178L63.6709 91.8002H86.4394L86.6863 92.828Z" fill="#D0E4F7"/>
<path d="M87.2563 95.1997H64.4876L64.2407 94.172H87.0092L87.2563 95.1997Z" fill="#D0E4F7"/>
<path d="M87.8265 97.5715H76.183L75.936 96.5438H87.5795L87.8265 97.5715Z" fill="#D0E4F7"/>
<path d="M95.1742 91.2338C95.9053 90.4095 95.6487 88.9879 94.601 88.0585C93.5532 87.1292 92.1112 87.0441 91.38 87.8684C90.6489 88.6927 90.9055 90.1143 91.9532 91.0436C93.0009 91.9729 94.443 92.0581 95.1742 91.2338Z" fill="#9CCDF8"/>
<path d="M74.7107 125.425L70.7366 108.892C70.7092 108.808 70.7024 108.72 70.7169 108.633C70.7314 108.547 70.7667 108.465 70.8197 108.395C70.8728 108.325 70.942 108.269 71.0215 108.232C71.1009 108.195 71.1882 108.178 71.2758 108.182H98.7122C98.9153 108.192 99.11 108.266 99.2682 108.393C99.4265 108.521 99.5401 108.695 99.5926 108.892L102.831 122.364C102.858 122.447 102.865 122.536 102.85 122.622C102.836 122.709 102.801 122.79 102.748 122.86C102.695 122.93 102.625 122.986 102.546 123.023C102.466 123.06 102.379 123.077 102.292 123.073H77.5791C77.4691 123.068 77.3601 123.097 77.267 123.156C77.174 123.215 77.1013 123.301 77.0591 123.403L76.1111 125.805C75.8745 126.405 74.8815 126.136 74.7107 125.425Z" fill="#9CCDF8"/>
<path d="M74.4075 111.502H97.1762L96.9293 110.475H74.1606L74.4075 111.502Z" fill="#1E5A91"/>
<path d="M74.9774 113.874H97.7459L97.499 112.847H74.7305L74.9774 113.874Z" fill="#1E5A91"/>
<path d="M75.5483 116.246H98.3168L98.0699 115.218H75.3013L75.5483 116.246Z" fill="#1E5A91"/>
<path d="M76.1184 118.618H87.7625L87.5156 117.59H75.8721L76.1184 118.618Z" fill="#1E5A91"/>
<path d="M69.2913 112.28C70.0225 111.456 69.7659 110.034 68.7182 109.105C67.6705 108.175 66.2284 108.09 65.4972 108.915C64.7661 109.739 65.0227 111.16 66.0704 112.09C67.1181 113.019 68.5601 113.104 69.2913 112.28Z" fill="#1E5A91"/>
<path d="M16.6636 128.404H174.047L172.469 132.227C171.663 134.182 170.294 135.854 168.536 137.031C166.778 138.207 164.711 138.835 162.595 138.835H28.596C26.6483 138.835 24.7377 138.303 23.0709 137.295C21.4041 136.288 20.0445 134.843 19.1392 133.119L16.6636 128.404Z" fill="#838586"/>
<path d="M55.8447 128.404H174.047L172.469 132.227C171.663 134.182 170.294 135.854 168.536 137.031C166.778 138.207 164.71 138.835 162.595 138.835H67.7771C65.8295 138.835 63.9189 138.303 62.2521 137.295C60.5852 136.288 59.2256 134.843 58.3203 133.119L55.8447 128.404Z" fill="#A9A9A9"/>
<path d="M202.21 61.0295V44.1716C202.21 44.088 202.194 44.0052 202.162 43.9279C202.13 43.8507 202.083 43.7805 202.024 43.7214C201.965 43.6622 201.895 43.6153 201.817 43.5833C201.74 43.5513 201.657 43.5349 201.574 43.5349H173.991C173.907 43.5349 173.825 43.5513 173.747 43.5833C173.67 43.6153 173.6 43.6622 173.541 43.7214C173.482 43.7805 173.435 43.8507 173.403 43.9279C173.371 44.0052 173.354 44.088 173.354 44.1716V57.7896C173.354 57.9585 173.422 58.1204 173.541 58.2398C173.66 58.3592 173.822 58.4262 173.991 58.4262H198.817C198.924 58.4262 199.03 58.4533 199.123 58.505C199.217 58.5566 199.297 58.6312 199.354 58.7217L201.036 61.3708C201.11 61.4872 201.22 61.5765 201.349 61.6252C201.478 61.6739 201.619 61.6794 201.751 61.6409C201.884 61.6024 202 61.522 202.083 61.4118C202.166 61.3015 202.21 61.1674 202.21 61.0295Z" fill="#9CCDF8"/>
<path d="M199.167 45.8276H176.398V46.8553H199.167V45.8276Z" fill="#1E5A91"/>
<path d="M199.167 48.1993H176.398V49.2271H199.167V48.1993Z" fill="#1E5A91"/>
<path d="M199.167 50.571H176.398V51.5987H199.167V50.571Z" fill="#1E5A91"/>
<path d="M199.167 52.9427H176.398V53.9705H199.167V52.9427Z" fill="#1E5A91"/>
<path d="M173.354 87.9885V71.1305C173.354 70.9616 173.422 70.7997 173.541 70.6803C173.66 70.5609 173.822 70.4938 173.991 70.4938H201.574C201.743 70.4938 201.905 70.5609 202.024 70.6803C202.143 70.7997 202.21 70.9616 202.21 71.1305V84.7485C202.21 84.8321 202.194 84.9149 202.162 84.9921C202.13 85.0694 202.083 85.1396 202.024 85.1987C201.965 85.2578 201.895 85.3048 201.817 85.3368C201.74 85.3688 201.657 85.3852 201.574 85.3852H176.748C176.641 85.3852 176.535 85.4123 176.441 85.4639C176.348 85.5155 176.268 85.5901 176.211 85.6806L174.529 88.3297C174.455 88.4461 174.345 88.5354 174.216 88.5842C174.087 88.6329 173.946 88.6385 173.814 88.6C173.681 88.5615 173.565 88.4811 173.482 88.3708C173.399 88.2606 173.354 88.1264 173.354 87.9885Z" fill="#9CCDF8"/>
<path d="M176.398 73.8142H199.167V72.7865H176.398V73.8142Z" fill="#1E5A91"/>
<path d="M176.398 76.1859H199.167V75.1582H176.398V76.1859Z" fill="#1E5A91"/>
<path d="M176.398 78.5576H199.167V77.5299H176.398V78.5576Z" fill="#1E5A91"/>
<path d="M176.398 80.9294H199.167V79.9017H176.398V80.9294Z" fill="#1E5A91"/>
<path d="M126.485 75.2225L126.093 81.0799L131.661 81.7266L132.16 77.4354C132.16 77.4354 132.374 72.3051 132.248 72.2903C132.123 72.2755 128.845 71.4494 128.845 71.4494L126.485 75.2225Z" fill="#F4A086"/>
<path d="M130.081 75.0512C130.081 75.0512 130.444 79.4213 132.67 79.6162C134.896 79.8111 135.39 79.383 136.067 78.139C136.769 76.8464 137.507 73.771 137.078 71.0693C136.65 68.3675 130.767 70.0603 130.767 70.0603C130.767 70.0603 129.719 73.1583 130.081 75.0512Z" fill="#F6B690"/>
<path d="M135.499 66.5503C132.577 63.6993 127.071 63.9715 127.064 66.6738C126.736 66.6802 126.41 66.7306 126.094 66.8236C123.389 67.6262 125.813 72.5894 126.486 75.2231C127.129 75.3203 127.775 75.3992 128.421 75.4635C128.808 75.118 129.14 74.7169 129.408 74.2734C129.408 74.2734 129.308 73.8587 130.28 74.438C131.253 75.0173 131.299 74.62 131.555 73.6951C131.775 72.8971 132.595 72.5154 132.733 71.3812C133.348 71.6023 133.853 71.7675 134.146 71.8531C135.582 72.2745 137.544 71.3318 137.544 71.3318C137.544 71.3318 137.414 68.4189 135.499 66.5503Z" fill="#222954"/>
<path d="M130.639 73.546C130.639 73.546 130.529 72.3026 129.77 72.2566C129.011 72.2105 128.755 75.2653 130.038 75.4276C130.77 75.5205 130.639 73.546 130.639 73.546Z" fill="#F6B690"/>
<path d="M175.282 66.2922L180.037 60.924C180.037 60.924 186.13 55.9034 186.903 56.3158C187.677 56.7281 182.025 61.3508 182.47 61.7936C182.915 62.2364 184.166 64.3084 181.945 65.7388C179.724 67.1693 179.85 65.587 177.741 67.5837C175.631 69.5804 175.282 66.2922 175.282 66.2922Z" fill="#F6B690"/>
<path d="M128.74 92.7689C129.671 97.9703 134.364 96.8286 142.864 94.5451C151.364 92.2615 164.177 84.3961 164.177 84.3961L180.585 67.904L175.722 64.521L154.662 79.1947C154.662 79.1947 139.017 82.1662 132.287 81.0947C129.321 86.7468 128.74 92.7689 128.74 92.7689Z" fill="#1E5A91"/>
<path d="M165.322 164.091L162.705 171.853L155.597 170.86L158.914 157.954L165.322 164.091Z" fill="#F4A086"/>
<path d="M156.044 167.705C156.305 167.778 157.54 168.173 157.54 168.173C157.54 168.173 157.344 169.927 158.692 170.574C160.04 171.22 162.165 167.765 164.207 168.865C166.249 169.965 164.99 171.589 166.662 173.833C168.335 176.078 171.43 179.93 171.962 182.328C172.494 184.725 170.254 185.999 170.254 185.999L152.627 173.119L156.044 167.705Z" fill="#2372B8"/>
<path d="M165.324 180.235C163.144 178.572 160.887 177.013 158.717 175.337C157.741 174.582 156.782 173.807 155.857 172.99C155.232 172.437 154.601 171.68 153.915 171.077L152.626 173.119L170.253 186C170.708 185.717 171.104 185.348 171.419 184.914C169.413 183.323 167.359 181.787 165.324 180.235Z" fill="#2A2E2F"/>
<path d="M143.795 133.746C143.795 133.746 141.658 136.682 144.961 139.985C148.264 143.288 151.745 140.934 151.745 140.934L154.789 135.835L153.25 131.315L146.489 131.744L143.795 133.746Z" fill="#0D496D"/>
<path d="M154.47 135.971C154.4 135.971 149.041 142.404 149.041 142.404L142.438 137.005L149.347 128.404L154.47 135.971Z" fill="#F4A086"/>
<path d="M128.741 108.282C128.741 108.282 155.56 100.43 162.707 99.1335C172.682 97.3244 176.99 99.4327 178.513 105.15C180.035 110.868 168.448 123.301 168.448 123.301L151.745 140.934C151.745 140.934 154.855 136.229 150.698 133.458C147.074 131.043 143.795 133.746 143.795 133.746L161.133 112.983C159.78 112.116 136.975 127.741 124.379 128.037C111.783 128.333 110.726 112.687 110.726 112.687L128.741 108.282Z" fill="#1E5A91"/>
<path d="M110.726 112.686C110.726 112.686 112.544 80.338 127.768 80.3365C131.72 80.3365 135.167 81.7527 136.32 85.0088C138.942 92.4091 137.198 111.079 137.198 111.079L110.726 112.686Z" fill="#1B2152"/>
<path d="M127.007 103.256C127.007 103.256 136.69 101.945 136.817 101.945C136.944 101.945 141.934 106.681 141.976 108.077C142.019 109.472 138.57 105.159 138.032 105.286C137.494 105.413 135.972 108.119 134.407 108.119C132.842 108.119 131.954 106.301 131.954 106.301C131.954 106.301 125.78 107.316 125.907 107.316C126.034 107.316 127.007 103.256 127.007 103.256Z" fill="#F6B690"/>
<path d="M125.631 82.3396C129.117 84.6359 126.942 89.6977 122.585 92.8693C118.229 96.0409 109.603 101.876 109.603 101.876C109.603 101.876 130.22 101.945 130.389 101.945C130.558 101.945 131.192 108.119 131.192 108.119C131.192 108.119 113.916 109.319 103.895 109.403C93.873 109.488 97.9221 101.324 102.119 96.4212C106.136 91.7275 118.569 77.6881 125.631 82.3396Z" fill="#1E5A91"/>
<path d="M110.726 112.686C110.726 112.686 106.371 120.636 111.487 126.937C116.604 133.238 142.061 129.432 151.491 128.375C160.921 127.318 163.712 127.825 163.712 127.825L156.904 165.25L165.573 165.926C165.573 165.926 178.683 132.265 179.993 128.756C181.304 125.246 184.254 114.942 172.329 113.167C160.404 111.391 133.004 111.334 133.004 111.334L110.726 112.686Z" fill="#2372B8"/>
<path d="M165.84 93.1299L165.194 91.8602L153.016 111.03H130.686L131.411 112.256H153.745L154.47 111.03L165.84 93.1299Z" fill="#C7CCCE"/>
<path d="M139.396 139.982C139.444 139.934 142.437 135.601 142.437 135.601C142.437 135.601 144.17 134.841 146.333 136.303C148.496 137.764 148.341 140.199 150.347 141.29C152.353 142.381 161.471 145.927 161.782 150.856C159.128 153.024 142.515 143.355 142.515 143.355L139.396 139.982Z" fill="#2372B8"/>
<path d="M139.651 139.751C137.982 141.019 139.047 144.193 143.489 146.862C147.93 149.531 150.258 155.271 154.594 154.694C158.929 154.117 161.958 152.531 161.783 150.856C161.607 149.18 151.594 147.271 148.223 144.076C144.853 140.881 142.651 137.472 139.651 139.751Z" fill="#2A2E2F"/>
<path d="M58.1821 43.212C58.6852 43.212 59.0969 43.6116 59.0969 44.1C59.0969 44.5883 58.6852 44.9879 58.1821 44.9879C57.6789 44.9879 57.2673 44.5883 57.2673 44.1C57.2673 43.6116 57.6789 43.212 58.1821 43.212ZM64.6499 34.0576L65.9581 35.3096L64.6499 36.5527L63.36 35.3096L64.6499 34.0576ZM67.2389 36.5527L68.5288 37.8224L67.2389 39.0743L65.9581 37.8224L67.2389 36.5527ZM58.1821 41.4362C56.6635 41.4362 55.4376 42.626 55.4376 44.1C55.4376 45.5739 56.6635 46.7637 58.1821 46.7637C59.7007 46.7637 60.9266 45.5739 60.9266 44.1C60.9266 42.626 59.7007 41.4362 58.1821 41.4362ZM59.8013 33.738L60.4692 34.4039L63.9363 31.0387C64.101 30.8789 64.3297 30.7812 64.5859 30.7812C64.842 30.7812 65.0707 30.8789 65.2354 31.0387L71.7032 37.3163V37.3251C71.8313 37.4761 71.9045 37.6714 71.9045 37.8845C71.9045 38.1509 71.7855 38.3906 71.5934 38.5594L68.1811 41.8802L68.8581 42.5283L62.7105 48.4952C61.5486 49.6228 59.9477 50.3154 58.1821 50.3154C54.6417 50.3154 51.7783 47.5362 51.7783 44.1C51.7783 42.3863 52.4919 40.8324 53.6537 39.7048L59.8013 33.738ZM69.6997 37.8845L64.5859 32.9211L61.7774 35.6647L66.8729 40.6193L69.6997 37.8845Z" fill="white"/>
</svg>
