<svg width="173" height="186" viewBox="0 0 173 186" fill="none" xmlns="http://www.w3.org/2000/svg">
<circle cx="81.3551" cy="81.3551" r="81.3551" fill="#D0E4F7"/>
<path d="M169.732 25.9904H59.437V180.473H169.732V25.9904Z" fill="#838586"/>
<path d="M166.989 24.6305H63.5385C60.3381 24.6305 57.7168 26.7203 57.7168 29.2797V177.829C57.7168 180.386 60.3351 182.478 63.5385 182.478H166.986C170.186 182.478 172.804 180.388 172.804 177.829V29.2797C172.807 26.7226 170.188 24.6305 166.989 24.6305ZM169.732 167.815H61.2748V35.3918H169.732V167.815Z" fill="#002F4C"/>
<path d="M114.912 179.739C117.555 179.739 119.698 177.596 119.698 174.952C119.698 172.309 117.555 170.166 114.912 170.166C112.268 170.166 110.125 172.309 110.125 174.952C110.125 177.596 112.268 179.739 114.912 179.739Z" fill="#F2F2F2"/>
<path d="M114.912 178.798C117.036 178.798 118.758 177.076 118.758 174.952C118.758 172.828 117.036 171.106 114.912 171.106C112.787 171.106 111.065 172.828 111.065 174.952C111.065 177.076 112.787 178.798 114.912 178.798Z" fill="#646464"/>
<path d="M119.987 31.2755H110.011C109.637 31.2735 109.28 31.1242 109.015 30.8601C108.751 30.596 108.602 30.2383 108.6 29.8648C108.602 29.4914 108.752 29.1339 109.016 28.87C109.28 28.606 109.637 28.4569 110.011 28.4549H119.987C120.36 28.4569 120.718 28.606 120.982 28.87C121.246 29.1339 121.395 29.4914 121.397 29.8648C121.396 30.2383 121.246 30.596 120.982 30.8601C120.718 31.1242 120.36 31.2735 119.987 31.2755Z" fill="white"/>
<path d="M162.906 39.3579H66.8486V162.839H162.906V39.3579Z" fill="#FAFAFA"/>
<path d="M162.906 39.3579H66.8486V51.1552H162.906V39.3579Z" fill="#2995F5"/>
<path d="M152.738 45.2566C152.737 45.7978 152.897 46.3269 153.198 46.7772C153.498 47.2274 153.925 47.5785 154.425 47.7859C154.925 47.9934 155.475 48.048 156.006 47.9428C156.537 47.8376 157.025 47.5773 157.407 47.1949C157.79 46.8125 158.051 46.3251 158.157 45.7943C158.263 45.2636 158.209 44.7134 158.003 44.2132C157.796 43.7131 157.445 43.2855 156.995 42.9846C156.546 42.6837 156.017 42.5229 155.475 42.5226C154.75 42.5224 154.054 42.8102 153.541 43.3229C153.027 43.8356 152.739 44.5311 152.738 45.2566Z" fill="#F99200"/>
<path d="M144.152 45.2566C144.152 45.7979 144.312 46.3272 144.612 46.7776C144.912 47.2281 145.339 47.5793 145.839 47.787C146.339 47.9947 146.889 48.0495 147.42 47.9445C147.951 47.8395 148.439 47.5793 148.823 47.197C149.206 46.8146 149.467 46.3272 149.573 45.7964C149.679 45.2656 149.626 44.7153 149.419 44.2149C149.212 43.7146 148.862 43.2867 148.412 42.9855C147.963 42.6843 147.434 42.5232 146.892 42.5226C146.533 42.5222 146.177 42.5926 145.845 42.7298C145.512 42.867 145.211 43.0682 144.956 43.3221C144.702 43.576 144.5 43.8775 144.362 44.2094C144.224 44.5413 144.153 44.8971 144.152 45.2566Z" fill="white"/>
<path d="M105.353 42.3442H71.3477V47.6905H105.353V42.3442Z" fill="white"/>
<path d="M102.628 129.123H83.2471V148.623H102.628V129.123Z" fill="#6DB6F6"/>
<path d="M128.352 129.123H108.971V148.623H128.352V129.123Z" fill="#FF7B00"/>
<path d="M155.222 129.123H135.841V148.623H155.222V129.123Z" fill="#2995F5"/>
<path d="M102.628 103.746H83.2471V123.246H102.628V103.746Z" fill="#1E5A91"/>
<path d="M128.352 103.746H108.971V123.246H128.352V103.746Z" fill="#FF7B00"/>
<path d="M155.222 103.746H135.841V123.246H155.222V103.746Z" fill="#6DB6F6"/>
<path d="M102.628 78.3697H83.2471V97.8695H102.628V78.3697Z" fill="#6DB6F6"/>
<path d="M128.352 78.3697H108.971V97.8695H128.352V78.3697Z" fill="#FF7B00"/>
<path d="M155.222 78.3697H135.841V97.8695H155.222V78.3697Z" fill="#6DB6F6"/>
<path d="M46.4141 90.8359L44.9746 94.0514L42.6322 91.9403L44.2846 87.2563L46.4141 90.8359Z" fill="#F18C72"/>
<path d="M47.2469 91.0397C47.5761 91.1145 47.9206 91.083 48.2307 90.9496C49.6557 89.3362 49.1665 84.5835 49.1665 84.5835L47.4996 83.1463L44.9496 84.3362L44.2848 86.948C44.1074 88.0035 44.3421 89.0868 44.9404 89.9742C45.5889 90.5468 46.3906 90.9171 47.2469 91.0397Z" fill="#F7A57A"/>
<path d="M47.6298 108.085C48.0727 108.656 48.6739 109.085 49.3585 109.317C50.5102 109.713 59.0882 107.913 59.0882 107.913L60.8116 108.094C61.7129 108.339 62.6691 108.289 63.5402 107.952L66.0635 106.977L51.2628 106.672L45.598 99.6353L47.6298 108.085Z" fill="#F7A57A"/>
<path d="M42.6339 91.9404C42.6339 91.9404 39.2138 96.3206 38.4154 99.2003C37.6171 102.08 37.3286 110.019 37.3286 110.019H44.5252C44.5252 110.019 46.5912 106.274 48.1948 102.876C48.4333 102.373 48.5607 101.824 48.5685 101.267C48.5762 100.71 48.4642 100.157 48.2398 99.6475C47.0652 96.9869 45.3006 93.3264 45.3006 93.3264L42.6339 91.9404Z" fill="#2372B8"/>
<path d="M46.2849 157.935L46.8558 159.42C46.9962 159.828 47.2703 160.176 47.6336 160.407C48.2416 160.799 48.9034 161.099 49.5981 161.3C48.4533 162.276 46.6345 161.256 45.5927 160.536C45.0866 160.184 44.7252 159.66 44.5753 159.062L44.3371 157.936L46.2849 157.935Z" fill="#F7A57A"/>
<path d="M44.4608 158.708C44.2516 158.871 44.0848 159.081 43.9747 159.322C43.8646 159.563 43.8146 159.827 43.8288 160.091C43.9708 160.867 44.1715 162.682 44.1715 162.682H44.9668L44.9424 160.989C44.9424 160.878 46.6482 162.682 46.9375 162.682H51.1468C51.1468 162.682 51.4261 161.537 48.9547 161.173C47.2519 160.798 45.6923 159.943 44.4608 158.708Z" fill="#002F4C"/>
<path d="M38.1028 157.935L38.6737 159.42C38.8139 159.828 39.0877 160.175 39.4507 160.407C40.0591 160.798 40.7211 161.099 41.416 161.3C40.2712 162.276 38.4516 161.256 37.4105 160.536C36.904 160.184 36.5424 159.66 36.3931 159.062L36.1543 157.936L38.1028 157.935Z" fill="#F7A57A"/>
<path d="M36.2789 158.708C36.0695 158.871 35.9027 159.081 35.7926 159.322C35.6825 159.563 35.6325 159.827 35.647 160.091C35.7889 160.867 35.9897 162.682 35.9897 162.682H36.785L36.7605 160.989C36.7605 160.878 38.4664 162.682 38.7549 162.682H42.9641C42.9641 162.682 43.2435 161.537 40.7721 161.173C39.0695 160.798 37.5101 159.943 36.2789 158.708Z" fill="#002F4C"/>
<path d="M44.5234 110.145C44.5234 110.145 48.0938 115.498 45.0378 136.835C45.5179 144.899 46.4116 158.172 46.4116 158.172H44.389C44.389 158.172 38.7701 144.035 40.656 136.993C41.1041 130.018 39.3761 110.019 39.3761 110.019L44.5234 110.145Z" fill="#8B96FA"/>
<path d="M37.3272 110.019C37.3272 110.019 33.5874 113.026 33.5874 117.49C33.5874 120.991 35.2756 128.245 36.2426 132.994C36.4987 134.74 36.3312 136.522 35.7542 138.189C33.7774 145.077 36.1793 158.172 36.1793 158.172H38.1958C38.1958 158.172 38.3064 151.437 41.064 136.337C44.2315 118.995 44.5215 110.019 44.5215 110.019H37.3272Z" fill="#242D80"/>
<path d="M66.4682 106.977H54.7144V106.113H65.9461L70.937 96.6236L71.7002 97.0258L66.4682 106.977Z" fill="#0F787A"/>
<path d="M39.3743 99.9689C39.3743 99.9689 43.1287 108.709 44.9329 108.709C46.7372 108.709 56.728 104.435 56.728 104.435L56.4632 102.944L46.2625 104.672C45.6484 102.98 45.1369 101.252 44.7307 99.4987C44.6166 98.9586 44.3477 98.4633 43.957 98.0733C43.5663 97.6832 43.0706 97.4153 42.5303 97.3021C40.1154 96.8472 39.3743 99.9689 39.3743 99.9689Z" fill="#F7A57A"/>
<path d="M44.3574 86.0955C44.3574 86.0955 45.4702 86.7686 48.8788 84.5835C49.4008 84.7201 48.5674 79.8072 44.1574 81.2505C41.0709 82.2602 41.2189 85.2491 41.3609 86.8984C41.5136 88.6844 40.5847 89.8628 39.3574 91.1725C38.327 92.2686 38.3431 94.2835 37.6569 95.3703C36.8128 96.7045 35.9175 96.6266 35.2481 97.9798C34.8667 98.6594 34.6783 99.4303 34.7033 100.209C34.7283 100.988 34.9658 101.745 35.3901 102.399C35.9244 103.122 37.1661 104.865 39.13 104.244C40.2344 103.895 40.532 101.968 40.5801 100.343C40.6056 99.6285 40.7866 98.9283 41.1105 98.2911C41.4344 97.6539 41.8933 97.095 42.4554 96.6533C43.5163 95.8084 44.6749 94.6506 44.9848 93.4432C45.5984 91.071 44.3574 86.0955 44.3574 86.0955Z" fill="#122043"/>
<path d="M43.9563 86.1909C44.1151 86.1104 44.2979 86.0912 44.47 86.1369C44.642 86.1827 44.7912 86.2902 44.889 86.4389C44.9495 86.4986 44.9973 86.5701 45.0293 86.6489C45.0613 86.7276 45.0768 86.8122 45.0751 86.8972C45.0733 86.9822 45.0542 87.0659 45.0189 87.1433C44.9836 87.2207 44.9329 87.2901 44.8699 87.3472C44.7111 87.4274 44.5284 87.4464 44.3565 87.4005C44.1846 87.3546 44.0357 87.247 43.938 87.0984C43.8773 87.0388 43.8294 86.9675 43.7973 86.8888C43.7652 86.8101 43.7495 86.7257 43.7512 86.6407C43.753 86.5557 43.772 86.4719 43.8073 86.3946C43.8426 86.3173 43.8933 86.2479 43.9563 86.1909Z" fill="#F7A57A"/>
<path d="M62.0519 103.71C62.0639 103.606 62.042 103.5 61.9895 103.41C61.937 103.319 61.8567 103.247 61.7604 103.205L59.8416 102.372C59.3669 102.166 58.833 102.142 58.3418 102.304L56.4398 102.936L56.1826 102.946L55.9781 104.716C56.3597 104.576 56.581 104.487 56.581 104.487L57.7839 104.05C57.7839 104.05 60.4094 106.275 61.3474 104.254C61.6291 106.256 62.1992 106.034 62.1992 106.034L62.0519 103.71Z" fill="#F7A57A"/>
<path d="M42.6644 84.3751C43.0461 85.7429 44.9854 86.3985 47.0057 85.8405C49.026 85.2826 50.1213 83.7661 49.9824 82.3549C49.7954 80.5017 47.6614 80.3315 45.6418 80.8894C43.6223 81.4474 42.2874 83.0082 42.6644 84.3751Z" fill="#122043"/>
<path d="M169.732 25.9904H59.437V180.473H169.732V25.9904Z" fill="#838586"/>
<path d="M166.989 24.6305H63.5385C60.3381 24.6305 57.7168 26.7203 57.7168 29.2797V177.829C57.7168 180.386 60.3351 182.478 63.5385 182.478H166.986C170.186 182.478 172.804 180.388 172.804 177.829V29.2797C172.807 26.7226 170.188 24.6305 166.989 24.6305ZM169.732 167.815H61.2748V35.3918H169.732V167.815Z" fill="#002F4C"/>
<path d="M114.912 179.739C117.555 179.739 119.698 177.596 119.698 174.952C119.698 172.309 117.555 170.166 114.912 170.166C112.268 170.166 110.125 172.309 110.125 174.952C110.125 177.596 112.268 179.739 114.912 179.739Z" fill="#F2F2F2"/>
<path d="M114.912 178.798C117.036 178.798 118.758 177.076 118.758 174.952C118.758 172.828 117.036 171.106 114.912 171.106C112.787 171.106 111.065 172.828 111.065 174.952C111.065 177.076 112.787 178.798 114.912 178.798Z" fill="#646464"/>
<path d="M119.987 31.2755H110.011C109.637 31.2735 109.28 31.1242 109.015 30.8601C108.751 30.596 108.602 30.2383 108.6 29.8648C108.602 29.4914 108.752 29.1339 109.016 28.87C109.28 28.606 109.637 28.4569 110.011 28.4549H119.987C120.36 28.4569 120.718 28.606 120.982 28.87C121.246 29.1339 121.395 29.4914 121.397 29.8648C121.396 30.2383 121.246 30.596 120.982 30.8601C120.718 31.1242 120.36 31.2735 119.987 31.2755Z" fill="white"/>
<path d="M162.906 39.3579H66.8486V162.839H162.906V39.3579Z" fill="#FAFAFA"/>
<path d="M162.906 39.3579H66.8486V51.1552H162.906V39.3579Z" fill="#2995F5"/>
<path d="M152.738 45.2566C152.737 45.7978 152.897 46.3269 153.198 46.7772C153.498 47.2274 153.925 47.5785 154.425 47.7859C154.925 47.9934 155.475 48.048 156.006 47.9428C156.537 47.8376 157.025 47.5773 157.407 47.1949C157.79 46.8125 158.051 46.3251 158.157 45.7943C158.263 45.2636 158.209 44.7134 158.003 44.2132C157.796 43.7131 157.445 43.2855 156.995 42.9846C156.546 42.6837 156.017 42.5229 155.475 42.5226C154.75 42.5224 154.054 42.8102 153.541 43.3229C153.027 43.8356 152.739 44.5311 152.738 45.2566Z" fill="#F99200"/>
<path d="M144.152 45.2566C144.152 45.7979 144.312 46.3272 144.612 46.7776C144.912 47.2281 145.339 47.5793 145.839 47.787C146.339 47.9947 146.889 48.0495 147.42 47.9445C147.951 47.8395 148.439 47.5793 148.823 47.197C149.206 46.8146 149.467 46.3272 149.573 45.7964C149.679 45.2656 149.626 44.7153 149.419 44.2149C149.212 43.7146 148.862 43.2867 148.412 42.9855C147.963 42.6843 147.434 42.5232 146.892 42.5226C146.533 42.5222 146.177 42.5926 145.845 42.7298C145.512 42.867 145.211 43.0682 144.956 43.3221C144.702 43.576 144.5 43.8775 144.362 44.2094C144.224 44.5413 144.153 44.8971 144.152 45.2566Z" fill="white"/>
<path d="M105.353 42.3442H71.3477V47.6905H105.353V42.3442Z" fill="white"/>
<path d="M102.628 129.123H83.2471V148.623H102.628V129.123Z" fill="#6DB6F6"/>
<path d="M128.352 129.123H108.971V148.623H128.352V129.123Z" fill="#FF7B00"/>
<path d="M155.222 129.123H135.841V148.623H155.222V129.123Z" fill="#2995F5"/>
<path d="M102.628 103.746H83.2471V123.246H102.628V103.746Z" fill="#1E5A91"/>
<path d="M128.352 103.746H108.971V123.246H128.352V103.746Z" fill="#FF7B00"/>
<path d="M155.222 103.746H135.841V123.246H155.222V103.746Z" fill="#6DB6F6"/>
<path d="M102.628 78.3697H83.2471V97.8695H102.628V78.3697Z" fill="#6DB6F6"/>
<path d="M128.352 78.3697H108.971V97.8695H128.352V78.3697Z" fill="#FF7B00"/>
<path d="M155.222 78.3697H135.841V97.8695H155.222V78.3697Z" fill="#6DB6F6"/>
<path d="M46.4141 90.8359L44.9746 94.0514L42.6322 91.9403L44.2846 87.2563L46.4141 90.8359Z" fill="#F18C72"/>
<path d="M47.2469 91.0397C47.5761 91.1145 47.9206 91.083 48.2307 90.9496C49.6557 89.3362 49.1665 84.5835 49.1665 84.5835L47.4996 83.1463L44.9496 84.3362L44.2848 86.948C44.1074 88.0035 44.3421 89.0868 44.9404 89.9742C45.5889 90.5468 46.3906 90.9171 47.2469 91.0397Z" fill="#F7A57A"/>
<path d="M47.6298 108.085C48.0727 108.656 48.6739 109.085 49.3585 109.317C50.5102 109.713 59.0882 107.913 59.0882 107.913L60.8116 108.094C61.7129 108.339 62.6691 108.289 63.5402 107.952L66.0635 106.977L51.2628 106.672L45.598 99.6353L47.6298 108.085Z" fill="#F7A57A"/>
<path d="M42.6339 91.9404C42.6339 91.9404 39.2138 96.3206 38.4154 99.2003C37.6171 102.08 37.3286 110.019 37.3286 110.019H44.5252C44.5252 110.019 46.5912 106.274 48.1948 102.876C48.4333 102.373 48.5607 101.824 48.5685 101.267C48.5762 100.71 48.4642 100.157 48.2398 99.6475C47.0652 96.9869 45.3006 93.3264 45.3006 93.3264L42.6339 91.9404Z" fill="#2372B8"/>
<path d="M46.2849 157.935L46.8558 159.42C46.9962 159.828 47.2703 160.176 47.6336 160.407C48.2416 160.799 48.9034 161.099 49.5981 161.3C48.4533 162.276 46.6345 161.256 45.5927 160.536C45.0866 160.184 44.7252 159.66 44.5753 159.062L44.3371 157.936L46.2849 157.935Z" fill="#F7A57A"/>
<path d="M44.4608 158.708C44.2516 158.871 44.0848 159.081 43.9747 159.322C43.8646 159.563 43.8146 159.827 43.8288 160.091C43.9708 160.867 44.1715 162.682 44.1715 162.682H44.9668L44.9424 160.989C44.9424 160.878 46.6482 162.682 46.9375 162.682H51.1468C51.1468 162.682 51.4261 161.537 48.9547 161.173C47.2519 160.798 45.6923 159.943 44.4608 158.708Z" fill="#002F4C"/>
<path d="M38.1028 157.935L38.6737 159.42C38.8139 159.828 39.0877 160.175 39.4507 160.407C40.0591 160.798 40.7211 161.099 41.416 161.3C40.2712 162.276 38.4516 161.256 37.4105 160.536C36.904 160.184 36.5424 159.66 36.3931 159.062L36.1543 157.936L38.1028 157.935Z" fill="#F7A57A"/>
<path d="M36.2789 158.708C36.0695 158.871 35.9027 159.081 35.7926 159.322C35.6825 159.563 35.6325 159.827 35.647 160.091C35.7889 160.867 35.9897 162.682 35.9897 162.682H36.785L36.7605 160.989C36.7605 160.878 38.4664 162.682 38.7549 162.682H42.9641C42.9641 162.682 43.2435 161.537 40.7721 161.173C39.0695 160.798 37.5101 159.943 36.2789 158.708Z" fill="#002F4C"/>
<path d="M44.5234 110.145C44.5234 110.145 48.0938 115.498 45.0378 136.835C45.5179 144.899 46.4116 158.172 46.4116 158.172H44.389C44.389 158.172 38.7701 144.035 40.656 136.993C41.1041 130.018 39.3761 110.019 39.3761 110.019L44.5234 110.145Z" fill="#8B96FA"/>
<path d="M37.3272 110.019C37.3272 110.019 33.5874 113.026 33.5874 117.49C33.5874 120.991 35.2756 128.245 36.2426 132.994C36.4987 134.74 36.3312 136.522 35.7542 138.189C33.7774 145.077 36.1793 158.172 36.1793 158.172H38.1958C38.1958 158.172 38.3064 151.437 41.064 136.337C44.2315 118.995 44.5215 110.019 44.5215 110.019H37.3272Z" fill="#242D80"/>
<path d="M66.4682 106.977H54.7144V106.113H65.9461L70.937 96.6236L71.7002 97.0258L66.4682 106.977Z" fill="#0F787A"/>
<path d="M39.3743 99.9689C39.3743 99.9689 43.1287 108.709 44.9329 108.709C46.7372 108.709 56.728 104.435 56.728 104.435L56.4632 102.944L46.2625 104.672C45.6484 102.98 45.1369 101.252 44.7307 99.4987C44.6166 98.9586 44.3477 98.4633 43.957 98.0733C43.5663 97.6832 43.0706 97.4153 42.5303 97.3021C40.1154 96.8472 39.3743 99.9689 39.3743 99.9689Z" fill="#F7A57A"/>
<path d="M44.3574 86.0955C44.3574 86.0955 45.4702 86.7686 48.8788 84.5835C49.4008 84.7201 48.5674 79.8072 44.1574 81.2505C41.0709 82.2602 41.2189 85.2491 41.3609 86.8984C41.5136 88.6844 40.5847 89.8628 39.3574 91.1725C38.327 92.2686 38.3431 94.2835 37.6569 95.3703C36.8128 96.7045 35.9175 96.6266 35.2481 97.9798C34.8667 98.6594 34.6783 99.4303 34.7033 100.209C34.7283 100.988 34.9658 101.745 35.3901 102.399C35.9244 103.122 37.1661 104.865 39.13 104.244C40.2344 103.895 40.532 101.968 40.5801 100.343C40.6056 99.6285 40.7866 98.9283 41.1105 98.2911C41.4344 97.6539 41.8933 97.095 42.4554 96.6533C43.5163 95.8084 44.6749 94.6506 44.9848 93.4432C45.5984 91.071 44.3574 86.0955 44.3574 86.0955Z" fill="#122043"/>
<path d="M43.9563 86.1909C44.1151 86.1104 44.2979 86.0912 44.47 86.1369C44.642 86.1827 44.7912 86.2902 44.889 86.4389C44.9495 86.4986 44.9973 86.5701 45.0293 86.6489C45.0613 86.7276 45.0768 86.8122 45.0751 86.8972C45.0733 86.9822 45.0542 87.0659 45.0189 87.1433C44.9836 87.2207 44.9329 87.2901 44.8699 87.3472C44.7111 87.4274 44.5284 87.4464 44.3565 87.4005C44.1846 87.3546 44.0357 87.247 43.938 87.0984C43.8773 87.0388 43.8294 86.9675 43.7973 86.8888C43.7652 86.8101 43.7495 86.7257 43.7512 86.6407C43.753 86.5557 43.772 86.4719 43.8073 86.3946C43.8426 86.3173 43.8933 86.2479 43.9563 86.1909Z" fill="#F7A57A"/>
<path d="M62.0519 103.71C62.0639 103.606 62.042 103.5 61.9895 103.41C61.937 103.319 61.8567 103.247 61.7604 103.205L59.8416 102.372C59.3669 102.166 58.833 102.142 58.3418 102.304L56.4398 102.936L56.1826 102.946L55.9781 104.716C56.3597 104.576 56.581 104.487 56.581 104.487L57.7839 104.05C57.7839 104.05 60.4094 106.275 61.3474 104.254C61.6291 106.256 62.1992 106.034 62.1992 106.034L62.0519 103.71Z" fill="#F7A57A"/>
<path d="M42.6644 84.3751C43.0461 85.7429 44.9854 86.3985 47.0057 85.8405C49.026 85.2826 50.1213 83.7661 49.9824 82.3549C49.7954 80.5017 47.6614 80.3315 45.6418 80.8894C43.6223 81.4474 42.2874 83.0082 42.6644 84.3751Z" fill="#122043"/>
</svg>
