<svg width="64" height="64" viewBox="0 0 64 64" fill="none" xmlns="http://www.w3.org/2000/svg">
<circle cx="32" cy="32" r="32" fill="#FFA653"/>
<g filter="url(#filter0_d)">
<path d="M40.7273 12H23.4545C21.5545 12 20 13.5545 20 15.4545V46.5455C20 48.4455 21.5545 50 23.4545 50H40.7273C42.6273 50 44.1818 48.4455 44.1818 46.5455V15.4545C44.1818 13.5545 42.6273 12 40.7273 12ZM40.7273 44.8182H23.4545V17.1818H40.7273V44.8182Z" fill="white"/>
</g>
<path fill-rule="evenodd" clip-rule="evenodd" d="M38.8176 33.5826C39.3654 31.194 38.6184 28.7557 36.9749 27.1136L37.9211 26.5662C38.2698 26.3671 38.4192 25.8695 38.22 25.5212C38.0207 25.1728 37.5227 25.0236 37.1741 25.2226L35.6801 26.0686C35.0326 25.6705 34.3354 25.3719 33.5386 25.1728C29.8034 24.3269 26.0185 26.6657 25.1719 30.4476C24.624 32.8859 25.4209 35.3243 27.0643 36.9664L25.9687 37.5636C25.6201 37.7626 25.4707 38.2602 25.6699 38.6086C25.7695 38.8076 25.9687 38.9071 26.1181 38.9569C26.3173 39.0067 26.5165 39.0067 26.7157 38.9071L28.3592 37.9617C28.907 38.31 29.5046 38.5588 30.152 38.7081C30.2018 38.733 30.2517 38.7454 30.3015 38.7578L30.3015 38.7578C30.3513 38.7703 30.4011 38.7827 30.4509 38.8076C32.2437 39.2555 34.1362 38.9071 35.7299 37.9119C37.3235 36.9167 38.4192 35.374 38.8176 33.5826ZM26.6658 30.796C27.3132 27.8601 30.2515 26.0189 33.2396 26.6658C33.2895 26.6658 33.3268 26.6782 33.3642 26.6906C33.4015 26.7031 33.4389 26.7155 33.4887 26.7155C33.7377 26.7653 33.9369 26.8648 34.1361 26.9643L28.9069 29.95C27.9108 30.4974 27.5622 31.7912 28.1101 32.7865C28.6579 33.7817 29.9527 34.13 30.9488 33.5827L33.7875 31.9405C34.0365 31.7912 34.3851 31.8908 34.5345 32.1396C34.5409 32.1588 34.5473 32.1771 34.5535 32.1949L34.5536 32.1951C34.5955 32.3154 34.6277 32.4077 34.5843 32.5377C34.5345 32.687 34.4349 32.7865 34.3353 32.886L28.4587 36.22C26.9646 34.8765 26.1678 32.8362 26.6658 30.796ZM30.7497 37.3147C32.1939 37.6631 33.6382 37.4143 34.8832 36.6181C36.1283 35.8716 36.9749 34.6276 37.2737 33.1845C37.722 31.1443 36.9749 29.1538 35.5307 27.86L29.6042 31.2438C29.3552 31.3931 29.2556 31.7414 29.405 31.9902C29.5544 32.239 29.9031 32.3386 30.1521 32.1893L32.9908 30.5471C33.9868 29.9997 35.2817 30.3481 35.8295 31.3433C36.3773 32.3386 36.0287 33.6324 35.0327 34.1797L29.9031 37.0659C30.1023 37.1655 30.3015 37.2152 30.5007 37.265C30.5505 37.265 30.5878 37.2774 30.6252 37.2899C30.6625 37.3023 30.6999 37.3147 30.7497 37.3147Z" fill="white"/>
<defs>
<filter id="filter0_d" x="16" y="12" width="32.1818" height="46" filterUnits="userSpaceOnUse" color-interpolation-filters="sRGB">
<feFlood flood-opacity="0" result="BackgroundImageFix"/>
<feColorMatrix in="SourceAlpha" type="matrix" values="0 0 0 0 0 0 0 0 0 0 0 0 0 0 0 0 0 0 127 0"/>
<feOffset dy="4"/>
<feGaussianBlur stdDeviation="2"/>
<feColorMatrix type="matrix" values="0 0 0 0 0 0 0 0 0 0 0 0 0 0 0 0 0 0 0.25 0"/>
<feBlend mode="normal" in2="BackgroundImageFix" result="effect1_dropShadow"/>
<feBlend mode="normal" in="SourceGraphic" in2="effect1_dropShadow" result="shape"/>
</filter>
</defs>
</svg>
