<svg width="64" height="64" viewBox="0 0 64 64" fill="none" xmlns="http://www.w3.org/2000/svg">
<circle cx="32" cy="32" r="32" fill="#FFA653"/>
<g filter="url(#filter0_d)">
<path d="M50.2636 22.5727L48.5364 24.3C51.6455 27.4091 51.6455 32.2455 48.5364 35.5273L50.2636 37.2545C54.5818 33.2818 54.5818 26.7182 50.2636 22.5727ZM46.6364 26.2L44.9091 27.9273C45.7727 29.1364 45.7727 30.6909 44.9091 31.9L46.6364 33.6273C48.7091 31.5545 48.7091 28.4455 46.6364 26.2ZM39.7273 11H22.4545C20.5545 11 19 12.5545 19 14.4545V45.5455C19 47.4455 20.5545 49 22.4545 49H39.7273C41.6273 49 43.1818 47.4455 43.1818 45.5455V14.4545C43.1818 12.5545 41.6273 11 39.7273 11ZM39.7273 43.8182H22.4545V16.1818H39.7273V43.8182Z" fill="white"/>
</g>
<defs>
<filter id="filter0_d" x="15" y="11" width="42.5023" height="46" filterUnits="userSpaceOnUse" color-interpolation-filters="sRGB">
<feFlood flood-opacity="0" result="BackgroundImageFix"/>
<feColorMatrix in="SourceAlpha" type="matrix" values="0 0 0 0 0 0 0 0 0 0 0 0 0 0 0 0 0 0 127 0"/>
<feOffset dy="4"/>
<feGaussianBlur stdDeviation="2"/>
<feColorMatrix type="matrix" values="0 0 0 0 0 0 0 0 0 0 0 0 0 0 0 0 0 0 0.25 0"/>
<feBlend mode="normal" in2="BackgroundImageFix" result="effect1_dropShadow"/>
<feBlend mode="normal" in="SourceGraphic" in2="effect1_dropShadow" result="shape"/>
</filter>
</defs>
</svg>
