<svg width="563" height="403" viewBox="0 0 563 403" fill="none" xmlns="http://www.w3.org/2000/svg">
<path opacity="0.2" d="M411.943 266H0V393C0 398.523 4.47716 403 10 403H536L411.943 266Z" fill="url(#paint0_linear)"/>
<path opacity="0.2" d="M412.712 245H0V382H537L412.712 245Z" fill="url(#paint1_linear)"/>
<path d="M432.694 311H0V393C0 398.523 4.47716 403 10 403H563L432.694 311Z" fill="url(#paint2_linear)"/>
<g style="mix-blend-mode:multiply" opacity="0.2">
<path d="M432.694 337H0V393C0 398.523 4.47716 403 10 403H563L432.694 337Z" fill="url(#paint3_linear)"/>
</g>
<path d="M225.136 148.345H66.8437C66.8437 148.345 58.2591 137.483 66.8437 130.175C71.5816 126.141 77.1747 126.559 81.2382 127.743C81.868 127.91 82.5254 127.946 83.1694 127.847C83.8134 127.748 84.4301 127.518 84.9811 127.17C85.532 126.822 86.0052 126.364 86.3712 125.825C86.7372 125.286 86.988 124.677 87.108 124.037C88.071 119.57 91.0372 113.727 99.5579 110.273C107.938 106.876 113.243 112.064 116.317 117.394C116.548 117.786 116.887 118.105 117.294 118.311C117.701 118.517 118.158 118.601 118.611 118.555C119.064 118.509 119.495 118.334 119.852 118.05C120.208 117.766 120.476 117.386 120.623 116.955C123.283 108.541 132.542 97.3876 162.969 97.3876C201.675 97.3876 197.368 117.966 193.91 126.524C193.77 126.857 193.724 127.222 193.778 127.579C193.831 127.935 193.981 128.271 194.211 128.548C194.442 128.826 194.744 129.035 195.085 129.152C195.426 129.27 195.793 129.291 196.146 129.215C202.117 127.937 213.196 126.288 218.164 130.186C225.136 135.658 225.136 148.345 225.136 148.345Z" fill="#D0E4F7"/>
<path d="M164.361 219.179C164.361 219.179 164.73 139.219 110.537 116.992C41.2895 190.233 113.487 258.153 113.487 258.153L164.361 219.179Z" fill="#535EC1"/>
<path d="M110.535 116.992C110.295 117.246 110.062 117.502 109.825 117.756L132.936 209.095L80.5305 182.538C80.5154 183.193 80.5088 183.845 80.5105 184.495L133.506 211.352L140.174 237.709L141.691 236.549L128.389 184.005L151.201 158.715C150.935 158.138 150.669 157.563 150.394 156.985L127.871 181.955L111.545 117.428C111.206 117.283 110.88 117.13 110.53 116.989L110.535 116.992Z" fill="#BEC4F5"/>
<path d="M139.27 187.507C139.27 187.507 89.7363 125.027 34.4938 134.784C12.2915 198.503 79.5768 234.072 79.5768 234.072L148.998 240.478L139.27 187.507Z" fill="url(#paint4_linear)"/>
<path d="M95.0635 149.027L89.2429 183.906L35.8041 134.578C35.3678 134.647 34.9316 134.711 34.494 134.784C34.4062 135.034 34.3317 135.28 34.2479 135.53L62.868 161.949L30.2017 165.347C30.2256 165.659 30.2589 165.966 30.2868 166.279L30.3732 167.098L64.5865 163.539L112.283 207.566L55.1414 215.359C55.6734 215.891 56.1975 216.407 56.7242 216.914L113.955 209.11L147.825 240.375L148.998 240.483L148.685 238.779L90.7858 185.332L96.6849 150.016C96.1467 149.684 95.6062 149.354 95.0635 149.027Z" fill="#9CCDF8"/>
<path d="M131.039 224.764C131.039 224.764 67.1417 206.189 39.9834 241.69C72.3837 327.025 183.189 291.825 183.189 291.825L131.039 224.764Z" fill="#535EC1"/>
<path d="M39.9834 241.691C40.1084 242.02 40.2375 242.342 40.3651 242.666L128.581 261.086L90.7766 292.352C91.4213 292.584 92.0681 292.805 92.7172 293.017L130.781 261.539L165.231 268.734L163.566 266.591L96.4868 252.59L75.8979 221.486C75.2754 221.599 74.6542 221.721 74.0357 221.849L94.046 252.079L40.6006 240.921C40.3971 241.178 40.1869 241.426 39.9874 241.688L39.9834 241.691Z" fill="#BEC4F5"/>
<path d="M414.404 158.479H273.485C273.485 158.479 265.844 147.938 273.485 140.844C277.703 136.929 282.683 137.334 286.301 138.484C286.883 138.63 287.49 138.65 288.081 138.543C288.671 138.436 289.232 138.205 289.727 137.864C290.221 137.523 290.637 137.081 290.947 136.567C291.257 136.053 291.455 135.479 291.525 134.882C292.1 131.903 293.416 129.116 295.354 126.781C297.291 124.446 299.786 122.638 302.608 121.525C310.071 118.229 314.792 123.263 317.523 128.435C317.71 128.812 318.009 129.122 318.378 129.323C318.747 129.525 319.17 129.608 319.588 129.562C320.006 129.515 320.4 129.341 320.716 129.064C321.033 128.786 321.256 128.418 321.356 128.009C323.722 119.843 331.966 109.018 359.053 109.018C393.503 109.018 389.677 128.99 386.598 137.292C386.459 137.599 386.405 137.938 386.443 138.273C386.481 138.608 386.61 138.926 386.814 139.194C387.019 139.462 387.293 139.669 387.606 139.794C387.92 139.918 388.261 139.955 388.593 139.901C393.914 138.662 403.773 137.056 408.195 140.844C414.404 146.162 414.404 158.479 414.404 158.479Z" fill="#D0E4F7"/>
<path d="M305.819 206.063C305.819 206.063 307.241 130.872 358.686 111.177C422.171 181.571 352.789 243.837 352.789 243.837L305.819 206.063Z" fill="url(#paint5_linear)"/>
<path d="M358.686 111.177C358.906 111.423 359.119 111.666 359.337 111.911L335.59 197.278L385.448 173.463C385.448 174.078 385.439 174.692 385.422 175.303L335.003 199.384L328.149 224.019L326.751 222.893L340.411 173.786L319.528 149.503C319.794 148.971 320.06 148.438 320.326 147.897L340.943 171.873L357.721 111.564C358.043 111.431 358.358 111.298 358.686 111.173V111.177Z" fill="#9CCDF8"/>
<path d="M329.64 196.858C329.64 196.858 377.593 139.208 429.318 149.604C448.783 210.006 384.735 241.957 384.735 241.957L319.322 246.445L329.64 196.858Z" fill="#535EC1"/>
<path d="M372.053 161.65L376.755 194.572L428.089 149.376C428.498 149.451 428.907 149.509 429.318 149.599C429.393 149.837 429.451 150.07 429.532 150.306L402.038 174.513L432.676 178.429C432.647 178.722 432.608 179.01 432.575 179.3L432.477 180.069L400.388 175.965L354.569 216.305L408.121 224.895C407.613 225.38 407.106 225.859 406.599 226.323L352.962 217.719L320.428 246.364L319.322 246.439L319.653 244.843L375.274 195.874L370.513 162.544C371.022 162.248 371.536 161.95 372.053 161.65Z" fill="#BEC4F5"/>
<path d="M336.555 232.068C336.555 232.068 397.042 216.017 421.792 249.996C389.442 329.51 286.04 293.964 286.04 293.964L336.555 232.068Z" fill="#1E5A91"/>
<path d="M421.791 249.992C421.667 250.298 421.538 250.598 421.412 250.9L338.062 266.267L372.911 296.499C372.3 296.702 371.686 296.899 371.071 297.088L335.979 266.65L303.425 272.652L305.04 270.675L368.421 258.99L388.467 230.2C389.05 230.321 389.631 230.449 390.212 230.583L370.73 258.564L421.227 249.251C421.413 249.495 421.604 249.735 421.787 249.985L421.791 249.992Z" fill="white"/>
<path d="M153.815 140.751C155.877 120.567 165.352 101.867 180.406 88.269C195.46 74.6714 215.022 67.144 235.306 67.144C255.589 67.144 275.152 74.6714 290.206 88.269C305.26 101.867 314.735 120.567 316.797 140.751H341.786C339.677 113.95 327.544 88.9299 307.808 70.6813C288.072 52.4326 262.183 42.2973 235.306 42.2973C208.43 42.2973 182.541 52.4326 162.804 70.6813C143.068 88.9299 130.936 113.95 128.827 140.751H153.815Z" fill="#1E5A91"/>
<path d="M336.41 137.809H134.202C130.218 137.809 126.989 141.04 126.989 145.024V309.791C126.989 313.776 130.218 317.006 134.202 317.006H336.41C340.394 317.006 343.624 313.776 343.624 309.791V145.024C343.624 141.04 340.394 137.809 336.41 137.809Z" fill="#D0E4F7"/>
<path d="M343.624 155.468V141.416C343.624 139.433 340.377 137.809 336.409 137.809H134.202C130.234 137.809 126.989 139.433 126.989 141.416V155.468H343.624Z" fill="#2372B8"/>
<path d="M126.989 300.549V314.601C126.989 316.585 130.234 318.208 134.202 318.208H336.409C340.377 318.208 343.624 316.585 343.624 314.601V300.549H126.989Z" fill="#2372B8"/>
<path d="M259.68 215.666C259.684 212.001 258.731 208.398 256.917 205.214C255.103 202.03 252.489 199.374 249.334 197.509C246.18 195.645 242.593 194.636 238.929 194.582C235.266 194.529 231.651 195.432 228.443 197.204C225.235 198.975 222.545 201.553 220.639 204.683C218.732 207.813 217.675 211.386 217.571 215.05C217.468 218.714 218.322 222.341 220.05 225.573C221.777 228.806 224.318 231.531 227.42 233.481V263.207C227.42 266.18 228.601 269.03 230.703 271.132C232.804 273.234 235.654 274.415 238.626 274.415C241.598 274.415 244.448 273.234 246.55 271.132C248.651 269.03 249.832 266.18 249.832 263.207V233.477C252.846 231.584 255.331 228.957 257.053 225.842C258.776 222.727 259.679 219.226 259.68 215.666Z" fill="#1E5A91"/>
<path d="M107.084 105.481L112.226 113.752L121.464 115.931L115.405 123.536L115.972 132.84L107.084 129.586L98.196 132.843L98.7627 123.539L92.7026 115.934L101.94 113.755L107.084 105.481Z" fill="#FFA653"/>
<path d="M121.464 115.931L112.226 113.754L107.172 105.674L107.187 129.642L115.965 132.841L115.399 123.538L121.464 115.931Z" fill="#FF7B00"/>
<path d="M363.979 105.481L369.121 113.752L378.359 115.931L372.3 123.536L372.867 132.84L363.979 129.583L355.091 132.84L355.658 123.536L349.598 115.931L358.835 113.752L363.979 105.481Z" fill="#FFA653"/>
<path d="M378.359 115.931L369.121 113.752L364.067 105.672L364.082 129.64L372.86 132.84L372.294 123.536L378.359 115.931Z" fill="#FF7B00"/>
<path d="M125.707 51.3753L130.849 59.6467L140.087 61.826L134.028 69.4309L134.595 78.7347L125.707 75.4778L116.819 78.7347L117.386 69.4309L111.327 61.826L120.565 59.6467L125.707 51.3753Z" fill="#FFA653"/>
<path d="M140.087 61.8247L130.849 59.6454L125.795 51.5656L125.81 75.5337L134.588 78.7334L134.022 69.4296L140.087 61.8247Z" fill="#FF7B00"/>
<path d="M344.026 51.3753L349.168 59.6467L358.406 61.826L352.347 69.4309L352.914 78.7347L344.026 75.4778L335.138 78.7347L335.705 69.4309L329.645 61.826L338.882 59.6467L344.026 51.3753Z" fill="#FFA653"/>
<path d="M358.405 61.8247L349.168 59.6454L344.113 51.5656L344.128 75.5337L352.907 78.7334L352.34 69.4296L358.405 61.8247Z" fill="#FF7B00"/>
<path d="M174.72 14.635L179.862 22.9064L189.1 25.0857L183.041 32.6905L183.608 41.9943L174.72 38.7374L165.832 41.9943L166.399 32.6905L160.34 25.0857L169.575 22.905L174.72 14.635Z" fill="#FFA653"/>
<path d="M189.1 25.0843L179.863 22.905L174.808 14.8252L174.823 38.7933L183.601 41.993L183.035 32.6892L189.1 25.0843Z" fill="#FF7B00"/>
<path d="M299.439 14.635L304.581 22.9064L313.819 25.0857L307.759 32.6905L308.325 41.9943L299.438 38.7374L290.55 41.9943L291.116 32.6905L285.058 25.0857L294.295 22.9064L299.439 14.635Z" fill="#FFA653"/>
<path d="M313.819 25.0843L304.582 22.905L299.528 14.8252L299.542 38.7933L308.321 41.993L307.755 32.6892L313.819 25.0843Z" fill="#FF7B00"/>
<path d="M237.079 0L242.221 8.27141L251.459 10.4507L245.399 18.0555L245.965 27.3594L237.078 24.1024L228.19 27.3594L228.756 18.0555L222.698 10.4507L231.935 8.27141L237.079 0Z" fill="#FFA653"/>
<path d="M251.459 10.448L242.221 8.26874L237.167 0.188919L237.181 24.157L245.96 27.3567L245.393 18.0529L251.459 10.448Z" fill="#FF7B00"/>
<path d="M307.4 317.258C305.15 319.002 302.53 320.207 299.741 320.781C298.57 321.08 297.305 320.681 297.305 322.614H303.766L309.14 321.683V322.614H312.042C312.042 322.614 312.851 317.867 311.155 317.258H307.4Z" fill="#2A2E2F"/>
<path d="M307.728 313.853L307.4 317.263C307.919 317.623 308.53 317.825 309.16 317.847C309.791 317.868 310.414 317.707 310.956 317.383L311.155 317.263L312.362 313.853H307.728Z" fill="#F7A57A"/>
<path d="M333.225 317.258C330.974 319.002 328.354 320.207 325.566 320.781C324.393 321.08 323.129 320.681 323.129 322.614H329.588L334.962 321.683V322.614H337.864C337.864 322.614 338.673 317.867 336.977 317.258H333.225Z" fill="#2A2E2F"/>
<path d="M333.552 313.853L333.225 317.263C333.743 317.623 334.354 317.825 334.985 317.847C335.615 317.868 336.239 317.707 336.78 317.383L336.98 317.263L338.186 313.853H333.552Z" fill="#F7A57A"/>
<path d="M317.693 228.49H310.259L307.646 314.664H312.669L327.425 244.528L317.693 228.49Z" fill="#2A2E2F"/>
<path d="M315.281 228.49L332.657 314.664H338.186L335.925 228.49H315.281Z" fill="#424A4D"/>
<path d="M330.377 247.437L332.042 247.319C332.031 246.568 332.308 245.841 332.817 245.289C333.239 244.928 333.729 244.654 334.258 244.484C334.787 244.314 335.345 244.251 335.898 244.299C337.091 244.189 338.281 244.54 339.224 245.279C339.603 245.649 339.822 246.153 339.832 246.683L341.5 246.777C341.51 246.3 341.423 245.826 341.245 245.384C341.067 244.941 340.801 244.54 340.463 244.203C339.843 243.658 339.119 243.244 338.335 242.985C337.551 242.727 336.723 242.628 335.9 242.696C335.115 242.64 334.327 242.746 333.584 243.007C332.842 243.267 332.16 243.677 331.582 244.211C331.178 244.643 330.864 245.15 330.657 245.704C330.45 246.257 330.355 246.847 330.377 247.437Z" fill="#122043"/>
<path d="M323.266 265.385H348.145V249.373H323.266V265.385Z" fill="#122043"/>
<path d="M334.796 260.167C334.796 261.144 335.26 261.255 335.833 261.255C336.406 261.255 336.872 261.144 336.872 260.167V256.777C340.682 256.44 344.454 255.764 348.145 254.757V267.387C348.145 268.516 347.707 269.431 347.046 269.431H324.365C323.7 269.431 323.266 268.516 323.266 267.387V254.8C327.052 255.752 330.907 256.405 334.796 256.753V260.167Z" fill="#FFA653"/>
<path d="M328.282 255.874C329.393 258.146 330.683 260.326 332.139 262.393C333.971 264.862 335.962 267.209 338.098 269.42H324.365C323.7 269.42 323.266 268.505 323.266 267.377V254.789C325.598 255.335 326.955 255.638 328.282 255.874Z" fill="#FFC996"/>
<path d="M324.365 245.939H347.046C347.711 245.939 348.145 246.853 348.145 247.981V254.102C344.503 255.297 340.704 255.943 336.872 256.017V255.188C336.872 254.212 336.406 254.102 335.833 254.102C335.26 254.102 334.796 254.212 334.796 255.188V256.015C330.879 255.949 326.994 255.304 323.266 254.102V247.981C323.266 246.853 323.702 245.939 324.365 245.939Z" fill="#FF7B00"/>
<path d="M334.471 258.7V257.647C334.472 257.528 334.519 257.414 334.603 257.33C334.687 257.245 334.802 257.198 334.921 257.197H336.72C336.84 257.197 336.954 257.245 337.039 257.329C337.123 257.413 337.171 257.528 337.171 257.647V258.7C337.171 258.819 337.123 258.933 337.039 259.018C336.954 259.102 336.84 259.149 336.72 259.149H334.921C334.802 259.149 334.687 259.101 334.603 259.017C334.519 258.933 334.472 258.819 334.471 258.7V258.7ZM334.921 257.327C334.836 257.327 334.754 257.36 334.694 257.42C334.634 257.481 334.6 257.562 334.6 257.647V258.7C334.6 258.785 334.634 258.866 334.694 258.927C334.754 258.987 334.836 259.021 334.921 259.022H336.72C336.806 259.022 336.888 258.988 336.948 258.927C337.008 258.867 337.042 258.785 337.042 258.7V257.647C337.042 257.605 337.034 257.563 337.018 257.524C337.002 257.485 336.978 257.45 336.948 257.42C336.918 257.39 336.883 257.367 336.843 257.351C336.804 257.334 336.763 257.326 336.72 257.327H334.921Z" fill="white"/>
<path d="M335.707 258.054C335.708 258.069 335.711 258.083 335.717 258.097C335.723 258.11 335.732 258.122 335.743 258.132C335.753 258.142 335.766 258.15 335.78 258.155C335.793 258.16 335.808 258.163 335.823 258.162C335.837 258.163 335.852 258.16 335.866 258.155C335.88 258.15 335.892 258.142 335.903 258.132C335.914 258.122 335.922 258.11 335.928 258.097C335.935 258.083 335.938 258.069 335.938 258.054V256.591C335.938 256.576 335.935 256.562 335.928 256.548C335.922 256.535 335.914 256.523 335.903 256.513C335.892 256.503 335.88 256.495 335.866 256.49C335.852 256.485 335.837 256.482 335.823 256.483V256.483C335.808 256.482 335.793 256.485 335.78 256.49C335.766 256.495 335.753 256.503 335.743 256.513C335.732 256.523 335.723 256.535 335.717 256.548C335.711 256.562 335.708 256.576 335.707 256.591V258.054Z" fill="white"/>
<path d="M274.501 215.678C273.451 216.343 272.234 216.696 270.991 216.696C268.923 216.868 264.52 215.967 265.359 218.01C267.34 219.075 269.536 220.571 269.536 220.571C271.168 220.924 272.872 220.703 274.36 219.945L278.218 217.59C278.218 217.59 278.549 215.421 278.583 215.322L277.699 214.961C276.677 215.365 275.598 215.607 274.501 215.678Z" fill="#F7A57A"/>
<path d="M273.794 216.588C273.726 216.678 273.65 216.761 273.565 216.836C273.839 216.947 274.097 217.071 274.363 217.203C275.446 217.232 276.527 217.295 277.61 217.336C277.542 216.712 277.45 215.835 277.456 215.771L270.422 214.096C270.422 214.096 269.853 214.837 271.139 215.634C271.952 216.125 272.854 216.449 273.794 216.588V216.588Z" fill="#F7A57A"/>
<path d="M334.747 238.519L332.408 243.661C332.636 245.065 333.16 246.404 333.946 247.589C334.101 247.749 334.301 247.859 334.519 247.903C334.738 247.947 334.964 247.924 335.17 247.836C336.454 247.38 337.664 246.736 338.761 245.926C338.848 245.792 338.904 245.64 338.924 245.481C338.943 245.323 338.927 245.162 338.875 245.011L338.194 242.749L338.11 237.47L334.747 238.519Z" fill="#F7A57A"/>
<path d="M320.98 176.697L320.901 183.586L327.037 183.256L327.424 172.575L320.98 176.697Z" fill="#F18C72"/>
<path d="M319.957 177.333C319.235 177.376 318.516 177.205 317.89 176.842C315.416 173.25 318.233 163.547 318.233 163.547L322.186 161.883L327.209 165.016L327.495 171.515C327.522 172.39 327.331 173.257 326.94 174.04C326.548 174.822 325.968 175.495 325.252 175.997C323.64 176.912 321.81 177.374 319.957 177.333V177.333Z" fill="#F7A57A"/>
<path d="M325.815 168.701C325.538 167.609 326.286 165.09 325.174 165.271C324.364 165.404 321.582 165.519 320.651 165.519C318.423 165.519 314.453 164.647 314.453 161.261C314.438 160.607 314.631 159.964 315.006 159.427C315.38 158.89 315.915 158.486 316.535 158.273C317.557 157.846 318.711 159.071 319.756 159.439C322.606 160.338 325.582 160.771 328.57 160.721C329.251 160.662 329.932 160.837 330.501 161.218C331.069 161.598 331.49 162.162 331.694 162.815C331.943 164.782 330.63 167.778 329.652 169.671C329.089 170.765 328.336 171.751 327.428 172.582V172.582L325.815 168.701Z" fill="#122043"/>
<path d="M328.676 168.945C328.36 168.737 327.982 168.642 327.605 168.676C327.229 168.709 326.874 168.869 326.599 169.13C325.95 169.671 325.825 170.46 326.323 170.903C326.639 171.111 327.016 171.206 327.393 171.172C327.769 171.139 328.124 170.979 328.398 170.718C329.048 170.177 329.172 169.382 328.676 168.945Z" fill="#F7A57A"/>
<path d="M324.164 181.424C326.642 181.406 329.096 181.909 331.366 182.901C333.799 184.014 335.941 185.676 337.624 187.756C339.308 189.836 340.486 192.278 341.068 194.89C343.02 203.182 346.293 222.859 338.788 240.106C337.116 240.219 335.438 240.219 333.766 240.106L332.968 199.447L333.536 228.49H310.259V209.76C310.259 209.76 309.656 213.991 304.031 217.896C298.406 221.801 277.309 219.206 277.309 219.206V214.804C277.309 214.804 295.798 210.916 298.806 208.631C301.815 206.345 308.329 189.862 308.329 189.862C309.325 187.866 310.757 186.119 312.519 184.751C314.281 183.383 316.329 182.43 318.509 181.96C320.371 181.591 322.266 181.411 324.164 181.424Z" fill="#2372B8"/>
<path d="M333.209 228.651L332.661 200.665L333.263 200.648L333.816 228.653L333.209 228.651Z" fill="#9CCDF8"/>
<path d="M327.154 179.462L327.532 181.724L320.482 181.71L320.944 179.461L327.154 179.462Z" fill="white"/>
<path d="M134.473 197.838L141.478 211.035L133.763 210.662L133.222 197.412L134.473 197.838Z" fill="#F7A57A"/>
<path d="M123.473 191.984L129.944 191.975L132.626 233.807H121.026L123.473 191.984Z" fill="#2995F5"/>
<path d="M111.594 314.784C111.161 315.12 110.816 315.556 110.589 316.054C110.362 316.552 110.259 317.098 110.289 317.645C110.581 319.241 110.996 323 110.996 323H112.646L112.595 319.5C112.595 319.271 116.121 323 116.719 323H125.415C125.415 323 125.993 320.64 120.883 319.88C115.773 319.12 111.594 314.784 111.594 314.784Z" fill="#2A2E2F"/>
<path d="M115.366 313.188L116.544 316.257C116.835 317.099 117.401 317.818 118.151 318.298C119.409 319.106 120.777 319.728 122.213 320.142C119.85 322.162 116.087 320.053 113.935 318.563C112.888 317.834 112.14 316.751 111.831 315.514L111.338 313.188H115.366Z" fill="#F7A57A"/>
<path d="M128.17 314.784C127.737 315.12 127.392 315.556 127.165 316.054C126.937 316.552 126.834 317.098 126.863 317.645C127.156 319.241 127.571 323 127.571 323H129.215L129.166 319.5C129.166 319.271 132.692 323 133.289 323H141.991C141.991 323 142.568 320.64 137.459 319.88C132.35 319.12 128.17 314.784 128.17 314.784Z" fill="#2A2E2F"/>
<path d="M131.94 313.188L133.12 316.257C133.41 317.1 133.976 317.819 134.727 318.298C135.984 319.107 137.353 319.728 138.789 320.142C136.424 322.162 132.661 320.053 130.509 318.563C129.462 317.834 128.715 316.751 128.406 315.514L127.913 313.188H131.94Z" fill="#F7A57A"/>
<path d="M118.51 233.812C118.51 233.812 117.424 240.065 123.675 270.798C118.614 286.814 126.718 313.612 126.718 313.612H132.626L136.646 233.815L118.51 233.812Z" fill="#1E5A91"/>
<path d="M129.234 191.984L131.333 242.739L138.285 239.762C136.174 232.365 135.217 224.686 135.45 216.998C134.385 207.418 139.816 212.474 133.164 194.038C130.688 191.984 129.234 191.984 129.234 191.984Z" fill="#CF5B1A"/>
<path d="M130.141 186.746L129.327 191.026C129.244 191.462 129.057 191.871 128.78 192.217C128.504 192.564 128.147 192.838 127.74 193.015C127.334 193.192 126.89 193.268 126.448 193.234C126.006 193.201 125.579 193.061 125.204 192.825L122.349 191.035L127.445 179.515L130.141 186.746Z" fill="#F18C72"/>
<path d="M112.827 233.812C112.827 233.812 105.087 240.065 111.338 270.798C106.284 286.814 110.742 313.612 110.742 313.612H116.046L130.963 233.815L112.827 233.812Z" fill="#2372B8"/>
<path d="M123.473 187.688C123.473 187.688 116.941 191.36 114.911 194.639C112.976 197.763 112.305 204.884 112.118 211.209C111.863 219.903 107.666 242.741 107.666 242.741H125.177L125.615 193.016L123.473 187.688Z" fill="#CF5B1A"/>
<path d="M136.366 173.91C132.405 172.907 128.595 176.97 128.595 176.97L125.616 193.023L121.032 185.958C121.032 185.958 120.766 176.359 125.201 170.004C128.373 166.153 134.461 167.259 137.539 171.003C138.907 172.934 139.501 175.307 139.204 177.655C139.009 180.76 138.13 198.586 138.13 198.586L129.056 191.863C129.312 190.139 129.675 188.433 130.141 186.754C131.636 181.074 139.026 174.584 136.366 173.91Z" fill="#122043"/>
<path d="M127.41 176.721C127.752 176.635 128.112 176.677 128.424 176.84C128.736 177.003 128.977 177.275 129.101 177.604C129.192 177.746 129.253 177.904 129.281 178.07C129.309 178.235 129.302 178.405 129.262 178.568C129.222 178.731 129.149 178.885 129.048 179.019C128.946 179.153 128.819 179.264 128.673 179.347C128.332 179.433 127.971 179.391 127.659 179.229C127.347 179.066 127.106 178.794 126.981 178.465C126.89 178.324 126.829 178.165 126.801 177.999C126.773 177.834 126.78 177.664 126.82 177.501C126.86 177.337 126.933 177.184 127.035 177.05C127.136 176.916 127.264 176.804 127.41 176.721Z" fill="#F7A57A"/>
<path d="M131.659 187.499C132.262 187.786 132.94 187.874 133.597 187.75C137.042 185.253 138.285 175.277 138.285 175.277L135.557 172.38L130.125 173.577L127.447 179.519C127.095 180.301 126.932 181.155 126.97 182.011C127.009 182.868 127.248 183.704 127.67 184.451C128.674 185.834 130.061 186.893 131.659 187.499V187.499Z" fill="#F7A57A"/>
<path d="M137.273 173.704C136.991 176.72 128.595 176.967 128.595 176.967L128.158 172.883L133.053 170.188L136.927 172.519C137.137 172.88 137.255 173.287 137.273 173.704Z" fill="#122043"/>
<path d="M137.091 174.289C137.081 175.376 137.378 176.444 137.949 177.369L138.614 176.161L138.595 175.116L137.93 174.301C137.93 174.301 137.369 173.166 137.091 174.289Z" fill="#122043"/>
<path d="M116.696 194.645C108.224 195.633 112.226 217.499 114.045 226.476C114.15 226.998 114.364 227.492 114.672 227.927C114.98 228.361 115.375 228.726 115.833 228.997C116.291 229.269 116.801 229.441 117.33 229.503C117.859 229.565 118.395 229.515 118.903 229.356C126.275 227.031 137.047 217.372 137.047 217.372L135.339 215.222L121.026 218.558C121.026 218.558 126.521 193.493 116.696 194.645Z" fill="#F9B089"/>
<path d="M133.648 210.078L130.882 227.209C130.863 227.326 130.87 227.445 130.902 227.559C130.934 227.672 130.99 227.778 131.067 227.868C131.143 227.958 131.239 228.03 131.346 228.08C131.453 228.129 131.57 228.155 131.688 228.155H142.643C142.837 228.155 143.024 228.085 143.172 227.959C143.319 227.833 143.417 227.659 143.447 227.467L146.165 210.344C146.183 210.228 146.176 210.108 146.144 209.995C146.112 209.881 146.056 209.776 145.979 209.687C145.903 209.597 145.808 209.525 145.7 209.476C145.593 209.426 145.477 209.401 145.359 209.401H134.452C134.26 209.401 134.074 209.469 133.927 209.593C133.78 209.717 133.681 209.889 133.648 210.078V210.078Z" fill="#FF7B00"/>
<path d="M145.807 217.662C145.856 216.914 145.792 216.164 145.617 215.436C145.351 213.815 145.424 211.277 143.77 212.542C142.835 213.711 142.233 215.109 142.024 216.591C141.948 217.233 142.001 217.884 142.181 218.505C142.36 219.126 142.662 219.705 143.069 220.208L144.206 222.688C145.359 221.277 145.932 219.48 145.807 217.662Z" fill="#F7A57A"/>
<path d="M138.641 216.052C138.64 216.217 138.689 216.379 138.781 216.517C138.873 216.655 139.004 216.762 139.156 216.826C139.309 216.89 139.478 216.906 139.64 216.874C139.803 216.842 139.952 216.762 140.069 216.645C140.186 216.528 140.266 216.378 140.298 216.216C140.33 216.054 140.313 215.885 140.25 215.732C140.186 215.579 140.079 215.449 139.941 215.357C139.803 215.265 139.642 215.216 139.476 215.216C139.255 215.217 139.042 215.305 138.886 215.461C138.729 215.618 138.641 215.83 138.641 216.052V216.052Z" fill="white"/>
<path d="M396.32 243.931L421.654 322.709H424.728L399.394 243.931H396.32Z" fill="#2A2E2F"/>
<path d="M368.408 243.931L393.741 322.709H396.815L371.487 243.931H368.408Z" fill="#2A2E2F"/>
<path d="M404.624 260.299V262.801L375.701 262.785L375.208 260.283L404.624 260.299Z" fill="#2A2E2F"/>
<path d="M398.645 244.034V246.532L369.723 246.516L369.229 244.014L398.645 244.034Z" fill="#2A2E2F"/>
<path d="M409.893 276.772V279.275L380.971 279.259L380.476 276.756L409.893 276.772Z" fill="#2A2E2F"/>
<path d="M414.837 293.246V295.748L385.915 295.732L385.42 293.23L414.837 293.246Z" fill="#2A2E2F"/>
<path d="M419.951 310.361L421.12 312.865L392.198 312.849L391.705 310.345L419.951 310.361Z" fill="#2A2E2F"/>
<path d="M349.141 243.931L323.806 322.709H326.88L352.215 243.931H349.141Z" fill="#1B2152"/>
<path d="M377.059 243.931L351.725 322.709H354.799L380.132 243.931H377.059Z" fill="#1B2152"/>
<path d="M343.916 260.299V262.801L372.839 262.785L373.333 260.283L343.916 260.299Z" fill="#1B2152"/>
<path d="M349.896 244.034V246.532L378.819 246.516L379.313 244.014L349.896 244.034Z" fill="#1B2152"/>
<path d="M338.649 276.772V279.275L367.571 279.259L368.066 276.756L338.649 276.772Z" fill="#1B2152"/>
<path d="M333.705 293.246V295.748L362.629 295.732L363.122 293.23L333.705 293.246Z" fill="#1B2152"/>
<path d="M328.591 310.361L327.421 312.865L356.343 312.849L356.838 310.346L328.591 310.361Z" fill="#1B2152"/>
<path d="M356.091 87.1656L365.451 111.631L371.351 107.241L358.168 85.0103L356.091 87.1656Z" fill="#F18C72"/>
<path d="M357.255 79.7683C357.846 80.4959 358.147 81.4158 358.102 82.352L358.514 85.8831L358.033 86.4299L356.377 87.9C356.435 87.1696 356.518 87.9 356.518 87.9L353.858 83.2634C353.858 83.2634 350.638 81.1985 354.698 78.1518C354.885 78.0036 355.112 77.9159 355.35 77.9004C355.588 77.885 355.824 77.9425 356.028 78.0653C356.63 78.4658 357.066 79.0709 357.255 79.7683Z" fill="#F18C72"/>
<path d="M376.753 129.301C372.587 123.675 368.81 117.772 365.447 111.631L370.524 105.85L376.749 113.109L376.753 129.301Z" fill="#005558"/>
<path d="M391.375 235.339L388.394 235.857C387.779 232.159 378.508 214.628 377.753 205.522C377.067 198.351 376.003 191.22 374.568 184.159L384.544 181.194C384.544 181.194 387.071 181.194 384.295 201.796C390.527 209.981 392.197 228.555 391.375 235.339Z" fill="#F18C72"/>
<path d="M384.033 173.701C384.033 173.701 381.691 187.793 378.433 202.867C381.836 211.969 376.651 237.367 376.555 237.276C376.164 236.909 374.374 239.116 374.374 239.116C374.374 239.116 370.592 216.701 369.756 206.592C368.919 196.483 368.711 184.159 368.711 184.159L384.033 173.701Z" fill="#F7A57A"/>
<path d="M376.978 235.857C377.37 236.192 377.68 236.614 377.881 237.09C378.082 237.565 378.17 238.081 378.138 238.596C377.872 240.13 377.508 243.724 377.508 243.724H376.045L376.091 240.372C376.091 240.153 372.961 243.724 372.431 243.724H364.717C364.717 243.724 364.203 241.462 368.738 240.737C373.272 240.012 376.978 235.857 376.978 235.857Z" fill="#2A2E2F"/>
<path d="M388.054 233.302L388.258 236.495C388.3 237.168 388.113 237.835 387.726 238.387C387.069 239.297 386.288 240.11 385.405 240.802C387.644 241.522 389.68 239.01 390.747 237.343C391.265 236.529 391.471 235.556 391.327 234.602L390.951 232.085L388.054 233.302Z" fill="#F18C72"/>
<path d="M391.374 235.061C391.374 235.061 393.344 235.238 393.671 236.736C393.998 238.234 394.928 241.26 394.928 241.26L393.854 242.115L392.339 239.11C391.185 240.728 389.924 242.267 388.564 243.717H380.133C380.133 243.717 380.133 240.923 385.407 240.801C390.271 240.69 391.374 235.061 391.374 235.061Z" fill="#2A2E2F"/>
<path d="M346.257 85.9828L355.617 110.448L361.518 106.058L348.334 83.8275L346.257 85.9828Z" fill="#F7A57A"/>
<path d="M347.412 78.5855C348.003 79.3131 348.304 80.2331 348.259 81.1693L348.672 84.7016L348.19 85.2484L346.534 86.7186C346.593 85.9868 346.675 86.7186 346.675 86.7186L344.015 82.082C344.015 82.082 340.795 80.0158 344.856 76.969C345.042 76.821 345.27 76.7335 345.507 76.7183C345.745 76.7031 345.982 76.7609 346.186 76.8839C346.787 77.2837 347.223 77.8884 347.412 78.5855Z" fill="#F7A57A"/>
<path d="M374.569 116.446H380.601L378.194 109.355L373.477 112.254L374.569 116.446Z" fill="#F18C72"/>
<path d="M366.557 124.072C366.586 123.894 366.627 123.745 366.663 123.58C360.689 115.875 355.623 110.448 355.623 110.448L360.7 104.668L372.242 115.629L375.627 115.643C376.96 114.802 378.545 114.452 380.109 114.653C381.673 114.854 383.118 115.593 384.195 116.744C385.658 118.25 386.627 122.332 385.658 126.649C382.97 138.548 385.073 144.842 385.073 144.842L369.511 150.647C369.511 150.647 369.157 140.3 368.914 133.042V133.017C368.846 131.606 368.411 130.237 367.65 129.047C366.683 127.581 366.293 125.809 366.557 124.072V124.072Z" fill="#1E5A91"/>
<path d="M372.449 96.6078L382.341 100.067L381.366 107.452C381.353 107.557 381.325 107.657 381.305 107.761C381.115 107.794 380.924 107.83 380.735 107.877L380.644 107.903L380.555 107.921C379.455 108.239 378.455 108.831 377.646 109.641C376.837 110.45 376.247 111.452 375.93 112.552C374.511 112.798 373.06 112.779 371.648 112.497C370.82 112.399 370.039 112.062 369.4 111.526C367.312 106.977 372.449 96.6078 372.449 96.6078Z" fill="#F7A57A"/>
<path d="M372.684 102.894C375.345 104.197 374.719 117.928 375.18 127.273C375.31 129.711 376.275 132.029 377.912 133.839C379.55 135.649 381.761 136.839 384.173 137.211C387.699 137.773 391.569 137.876 393.905 136.545C392.361 135.283 384.04 123.035 386.705 106.818C387.056 104.689 387.104 98.7405 383.505 95.5089C379.515 91.926 371.276 96.5998 371.276 96.5998C371.276 96.5998 369.019 101.105 372.684 102.894Z" fill="#122043"/>
<path d="M369.181 144.487C368.08 150.036 367.388 155.659 367.11 161.31C367.11 164.757 367.955 186.477 367.955 186.477C367.955 186.477 382.741 187.541 385.613 187.541C386.325 169.743 390.382 169.196 390.382 160.895C390.382 157.287 388.531 153.211 387.112 150.612C386.041 148.849 385.343 146.885 385.061 144.841L384.965 144.504L369.181 144.487Z" fill="#FF7B00"/>
<path d="M158.609 73.0417L161.283 79.0141L165.634 75.0932L162.565 66.3921L158.609 73.0417Z" fill="#F18C72"/>
<path d="M157.064 73.4248C156.452 73.5642 155.812 73.5055 155.236 73.2572C152.591 70.261 153.498 61.4335 153.498 61.4335L156.594 58.7633L161.329 60.9745L162.564 65.8253C162.894 67.7858 162.458 69.7981 161.347 71.4465C160.143 72.5097 158.654 73.1974 157.064 73.4248V73.4248Z" fill="#F7A57A"/>
<path d="M153.335 61.8114C155.695 63.6735 158.614 64.6822 161.619 64.6732C162.754 64.6346 162.617 64.4882 162.624 66.5358C162.731 68.0301 163.173 69.4813 163.915 70.7826L166.586 70.0202C166.586 70.0202 169.922 57.9637 162.669 56.0878C154.828 54.0641 153.335 61.8114 153.335 61.8114Z" fill="#122043"/>
<path d="M159.513 132.668C159.513 132.668 161.086 133.499 160.843 134.854L160.2 138.368H159.259L159.225 136.772C159.224 136.728 159.211 136.685 159.188 136.648C159.164 136.611 159.131 136.581 159.092 136.561C159.053 136.541 159.009 136.533 158.965 136.536C158.921 136.54 158.879 136.556 158.844 136.581L157.017 137.912C156.609 138.21 156.117 138.37 155.611 138.369H148.25C148.25 138.369 148.25 136.013 152.576 135.371C155.07 135.035 157.448 134.108 159.513 132.668V132.668Z" fill="#2A2E2F"/>
<path d="M157.366 130.057L156.428 132.783C156.23 133.355 155.845 133.844 155.335 134.171C154.474 134.697 153.544 135.1 152.571 135.368C154.18 136.742 156.739 135.368 158.204 134.349C158.917 133.854 159.425 133.117 159.635 132.275L160.195 130.055L157.366 130.057Z" fill="#F7A57A"/>
<path d="M166.586 70.0242L167.349 71.5516L164.504 72.145L163.915 70.7879L166.586 70.0242Z" fill="#FEE4A2"/>
<path d="M167.254 71.2642C167.254 71.2642 172.597 71.2363 175.368 74.6036C176.367 76.2 177.003 77.997 177.23 79.8669C177.347 80.4387 177.58 80.9805 177.914 81.4587C178.249 81.937 178.678 82.3416 179.175 82.6475C181.968 84.3505 186.977 88.302 182.616 92.735C176.796 98.6515 173.172 93.3084 173.172 93.3084L164.3 71.8762L167.254 71.2642Z" fill="#122043"/>
<path d="M138.938 78.425L138.59 80.5574L146.659 81.8751L147.007 79.7427L138.938 78.425Z" fill="#F99200"/>
<path d="M147.126 81.9501L147.474 79.8177L146.736 79.6972L146.388 81.8296L147.126 81.9501Z" fill="url(#paint6_linear)"/>
<path d="M147.318 79.7937C147.908 79.8935 148.372 80.0824 148.215 81.047C148.042 82.1007 147.55 82.0449 146.966 81.9517L147.318 79.7937Z" fill="#122043"/>
<path d="M138.938 78.4247L137.156 78.8491L137.023 79.6248L138.583 80.5561L138.938 78.4247Z" fill="url(#paint7_linear)"/>
<path d="M137.156 78.8491L136.358 79.1152L137.031 79.6287L137.156 78.8491Z" fill="#122043"/>
<path d="M146.603 80.5111L146.682 80.0266L138.884 78.7542L138.805 79.2387L146.603 80.5111Z" fill="#FFD159"/>
<path d="M146.436 81.5395L146.515 81.055L138.717 79.7821L138.638 80.2666L146.436 81.5395Z" fill="#FFD159"/>
<path d="M169.831 107.813C169.831 107.813 158.048 98.6515 151.608 101.801C145.167 104.95 158.007 131.574 158.007 131.574C159.609 129.895 160.684 127.785 161.1 125.503C161.696 122.741 161.696 119.883 161.1 117.121L167.351 128.43L169.831 107.813Z" fill="#9B4717"/>
<path d="M140.783 78.4965C141.156 77.5652 141.286 77.3404 142.213 77.7289C143.064 78.0963 143.749 78.7667 144.134 79.6101L146.431 84.5328L146.47 84.5567C145.857 85.1563 145.299 85.8095 144.803 86.5085C144.588 86.2743 144.469 86.1426 144.469 86.1426L141.843 84.1988C140.92 83.5203 139.715 82.6023 139.6 81.4621C139.484 80.3219 140.431 79.3906 140.783 78.4965Z" fill="#F7A57A"/>
<path d="M163.173 64.4177C162.879 64.2696 162.54 64.2348 162.221 64.3199C161.902 64.405 161.626 64.604 161.444 64.8794C161.331 64.99 161.243 65.1226 161.183 65.2689C161.124 65.4151 161.095 65.5721 161.098 65.73C161.101 65.8879 161.137 66.0434 161.203 66.187C161.268 66.3307 161.363 66.4593 161.48 66.565C161.774 66.7142 162.113 66.7496 162.432 66.6647C162.751 66.5798 163.028 66.3805 163.209 66.1047C163.322 65.9937 163.41 65.861 163.469 65.7147C163.529 65.5683 163.558 65.4114 163.554 65.2535C163.551 65.0956 163.515 64.94 163.45 64.7963C163.384 64.6526 163.29 64.5238 163.173 64.4177V64.4177Z" fill="#F7A57A"/>
<path d="M192.756 126.964C192.756 126.964 192.939 125.194 194.29 124.917L197.788 124.201L198.139 125.077L196.676 125.704C196.636 125.721 196.601 125.749 196.576 125.785C196.55 125.82 196.535 125.862 196.532 125.906C196.528 125.949 196.537 125.993 196.557 126.032C196.576 126.071 196.606 126.105 196.643 126.128L198.581 126.985L200.257 132.911C200.585 134.072 199.411 136.082 199.411 136.082C199.411 136.082 197.891 138.381 196.485 138.381H193.977C193.902 138.171 193.889 137.944 193.94 137.726C193.991 137.509 194.104 137.311 194.265 137.156C195.204 136.07 197.124 134.431 196.646 132.396C196.456 131.253 196.007 130.169 195.333 129.227C194.658 128.285 193.777 127.511 192.756 126.964V126.964Z" fill="#2A2E2F"/>
<path d="M191.136 129.93L194.015 129.783C194.316 129.738 194.624 129.759 194.916 129.845C195.209 129.93 195.479 130.079 195.709 130.279C196.447 131.097 196.216 133.101 196.308 134.574C198.714 131.574 196.293 128.529 194.805 127.55C194.08 127.074 193.206 126.877 192.347 126.997L190.085 127.305L191.136 129.93Z" fill="#F7A57A"/>
<path d="M169.941 90.5624C169.941 90.5624 165.788 102.86 160.344 103.576C154.9 104.291 143.348 85.3244 143.348 85.3244L146.17 83.966L158.581 93.8419L163.549 83.3926" fill="#2995F5"/>
<path d="M165.062 73.7229L161.149 78.7227C159.854 82.2604 159.191 85.9982 159.191 89.7655C159.289 91.5528 160.036 93.2428 161.293 94.5178C164.412 98.7677 167.264 103.208 169.831 107.813L180.325 103.232C180.325 103.232 174.028 81.4515 170.976 77.4668C167.923 73.4821 165.062 73.7229 165.062 73.7229Z" fill="#2995F5"/>
<path d="M180.325 103.232C182.297 104.22 184.012 105.652 185.336 107.416C186.661 109.18 187.558 111.226 187.957 113.396C189.245 120.766 174.219 132.288 174.219 132.288C174.219 132.288 177.081 127.279 191.821 126.849C192.637 127.877 193.356 128.979 193.967 130.141C168.209 147.318 158.389 145.6 156.645 138.3C154.901 131 169.831 107.812 169.831 107.812L180.325 103.232Z" fill="#CF5B1A"/>
<defs>
<linearGradient id="paint0_linear" x1="268" y1="266" x2="260.717" y2="414.626" gradientUnits="userSpaceOnUse">
<stop stop-color="#56A099"/>
<stop offset="0.731857" stop-color="#5083B2"/>
</linearGradient>
<linearGradient id="paint1_linear" x1="268.5" y1="245" x2="261.231" y2="393.627" gradientUnits="userSpaceOnUse">
<stop stop-color="#56A099"/>
<stop offset="0.731857" stop-color="#5083B2"/>
</linearGradient>
<linearGradient id="paint2_linear" x1="281.5" y1="311" x2="278.369" y2="410.949" gradientUnits="userSpaceOnUse">
<stop stop-color="#56A099"/>
<stop offset="0.731857" stop-color="#5083B2"/>
</linearGradient>
<linearGradient id="paint3_linear" x1="281.5" y1="337" x2="279.888" y2="408.736" gradientUnits="userSpaceOnUse">
<stop stop-color="#56A099"/>
<stop offset="0.731857" stop-color="#5083B2"/>
</linearGradient>
<linearGradient id="paint4_linear" x1="89.4991" y1="133.75" x2="89.4991" y2="240.478" gradientUnits="userSpaceOnUse">
<stop stop-color="#5083B3"/>
<stop offset="1" stop-color="#0D3255"/>
</linearGradient>
<linearGradient id="paint5_linear" x1="345.634" y1="111.177" x2="345.634" y2="243.837" gradientUnits="userSpaceOnUse">
<stop stop-color="#5083B3"/>
<stop offset="1" stop-color="#0D3255"/>
</linearGradient>
<linearGradient id="paint6_linear" x1="166.651" y1="-40.0035" x2="166.476" y2="-38.9309" gradientUnits="userSpaceOnUse">
<stop stop-color="#DAECE5"/>
<stop offset="1" stop-color="#B2DEEB"/>
</linearGradient>
<linearGradient id="paint7_linear" x1="32.6699" y1="79.4904" x2="34.5853" y2="79.4904" gradientUnits="userSpaceOnUse">
<stop stop-color="#DAECE5"/>
<stop offset="1" stop-color="#B2DEEB"/>
</linearGradient>
</defs>
</svg>
