<svg width="64" height="64" viewBox="0 0 64 64" fill="none" xmlns="http://www.w3.org/2000/svg">
<circle cx="32" cy="32" r="32" fill="#FFA653"/>
<g filter="url(#filter0_d)">
<path d="M27.1818 36.3636C27.9818 36.3636 28.6364 37.0182 28.6364 37.8182C28.6364 38.6182 27.9818 39.2727 27.1818 39.2727C26.3818 39.2727 25.7273 38.6182 25.7273 37.8182C25.7273 37.0182 26.3818 36.3636 27.1818 36.3636ZM37.4655 21.3673L39.5455 23.4182L37.4655 25.4545L35.4145 23.4182L37.4655 21.3673ZM41.5818 25.4545L43.6327 27.5345L41.5818 29.5855L39.5455 27.5345L41.5818 25.4545ZM27.1818 33.4545C24.7673 33.4545 22.8182 35.4036 22.8182 37.8182C22.8182 40.2327 24.7673 42.1818 27.1818 42.1818C29.5964 42.1818 31.5455 40.2327 31.5455 37.8182C31.5455 35.4036 29.5964 33.4545 27.1818 33.4545ZM29.7564 20.8436L30.8182 21.9345L36.3309 16.4218C36.5927 16.16 36.9564 16 37.3636 16C37.7709 16 38.1345 16.16 38.3964 16.4218L48.68 26.7055V26.72C48.8836 26.9673 49 27.2873 49 27.6364C49 28.0727 48.8109 28.4655 48.5055 28.7418L43.08 34.1818L44.1564 35.2436L34.3818 45.0182C32.5345 46.8655 29.9891 48 27.1818 48C21.5527 48 17 43.4473 17 37.8182C17 35.0109 18.1345 32.4655 19.9818 30.6182L29.7564 20.8436ZM45.4945 27.6364L37.3636 19.5055L32.8982 24L41 32.1164L45.4945 27.6364Z" fill="white"/>
</g>
<defs>
<filter id="filter0_d" x="13" y="16" width="40" height="40" filterUnits="userSpaceOnUse" color-interpolation-filters="sRGB">
<feFlood flood-opacity="0" result="BackgroundImageFix"/>
<feColorMatrix in="SourceAlpha" type="matrix" values="0 0 0 0 0 0 0 0 0 0 0 0 0 0 0 0 0 0 127 0"/>
<feOffset dy="4"/>
<feGaussianBlur stdDeviation="2"/>
<feColorMatrix type="matrix" values="0 0 0 0 0 0 0 0 0 0 0 0 0 0 0 0 0 0 0.25 0"/>
<feBlend mode="normal" in2="BackgroundImageFix" result="effect1_dropShadow"/>
<feBlend mode="normal" in="SourceGraphic" in2="effect1_dropShadow" result="shape"/>
</filter>
</defs>
</svg>
