<svg width="178" height="192" viewBox="0 0 178 192" fill="none" xmlns="http://www.w3.org/2000/svg">
<circle cx="108.483" cy="121.766" r="69.5174" fill="#D0E4F7"/>
<circle cx="66.0885" cy="66.0885" r="66.0885" fill="#6DB6F7"/>
<circle cx="113.339" cy="41.6072" r="28.3236" fill="#9CCDF8"/>
<path d="M24.9017 72.9644C24.9017 72.9613 24.8654 72.6422 24.8198 72.0724L25.116 72.0487C25.161 72.613 25.1966 72.9277 25.1969 72.9308L24.9017 72.9644Z" fill="#BDDADA"/>
<path d="M24.7068 70.2999C24.678 69.7191 24.6559 69.1218 24.6411 68.5248L24.9382 68.5174C24.9528 69.112 24.9749 69.7068 25.0036 70.2851L24.7068 70.2999ZM24.9152 66.7488H24.6182V66.6274C24.6182 66.078 24.6241 65.5206 24.6357 64.9709L24.9328 64.9771C24.9212 65.525 24.9152 66.0804 24.9152 66.6276V66.7488ZM24.9909 63.2065L24.6941 63.1933C24.7206 62.5976 24.7542 62.0002 24.7941 61.4178L25.0906 61.4386C25.0504 62.0178 25.017 62.6128 24.9905 63.2062L24.9909 63.2065ZM25.233 59.6728L24.937 59.6453C24.9917 59.0574 25.0547 58.4624 25.1245 57.877L25.4195 57.9121C25.3496 58.4946 25.2869 59.0871 25.2325 59.6725L25.233 59.6728ZM25.6525 56.1572L25.3586 56.114C25.4452 55.5238 25.5406 54.9331 25.6422 54.3584L25.9346 54.41C25.8333 54.9815 25.7383 55.5694 25.6521 56.1569L25.6525 56.1572ZM26.2683 52.672L25.9774 52.6113C26.0988 52.0279 26.2304 51.4445 26.3686 50.8762L26.6572 50.9464C26.5199 51.5115 26.389 52.092 26.2683 52.672ZM27.105 49.2356L26.8189 49.1552C26.9803 48.5809 27.153 48.0087 27.3316 47.4546L27.6144 47.5458C27.4369 48.0965 27.2654 48.6651 27.1054 49.2358L27.105 49.2356ZM28.1908 45.8769L27.912 45.7741C28.1189 45.2136 28.3386 44.6568 28.5649 44.1191L28.8388 44.2344C28.6141 44.7681 28.3962 45.3208 28.1908 45.8771V45.8769ZM29.5623 42.6243L29.2946 42.4957C29.5533 41.9561 29.8259 41.4226 30.1059 40.9109L30.3664 41.0533C30.0895 41.561 29.8189 42.0895 29.5623 42.6245V42.6243ZM31.2555 39.53L31.0035 39.3729C31.32 38.8648 31.6519 38.3663 31.9903 37.8911L32.2323 38.0634C31.8979 38.5342 31.5689 39.0271 31.2555 39.5301V39.53ZM33.2991 36.6637L33.069 36.4762C33.4462 36.0139 33.84 35.5638 34.2406 35.1385L34.4571 35.3419C34.0616 35.762 33.672 36.2069 33.2991 36.6638V36.6637ZM35.708 34.1041L35.5069 33.8853C35.9445 33.4837 36.4008 33.0954 36.8637 32.7312L37.0474 32.9646C36.5903 33.3243 36.1399 33.7077 35.708 34.1042V34.1041ZM38.4704 31.9321L38.3052 31.6852C38.7962 31.3571 39.3071 31.044 39.8237 30.7545L39.9695 31.0135C39.4592 31.2994 38.955 31.6085 38.4704 31.9322V31.9321ZM87.1914 30.4191C87.0208 30.4191 86.8506 30.4178 86.6809 30.415L86.6858 30.1179C87.2724 30.1275 87.8687 30.1202 88.4492 30.096L88.4617 30.3928C88.0433 30.4103 87.6154 30.4191 87.1914 30.4191ZM84.9035 30.3385C84.3305 30.2989 83.7344 30.2438 83.1324 30.1744L83.1663 29.8792C83.764 29.9481 84.3554 30.0029 84.9238 30.0421L84.9035 30.3385ZM90.2377 30.2643L90.2073 29.9688C90.6839 29.9195 91.1658 29.8571 91.6399 29.7834C91.7455 29.767 91.8504 29.7502 91.9548 29.7333L92.0026 30.0265C91.8976 30.0436 91.7919 30.0605 91.6855 30.077C91.2068 30.1514 90.7201 30.2144 90.2379 30.2643H90.2377ZM41.5349 30.214L41.4099 29.9445C41.9437 29.697 42.4969 29.4652 43.0538 29.2569L43.158 29.5349C42.608 29.7411 42.0619 29.9697 41.5349 30.214ZM81.3713 29.936C80.8088 29.8495 80.2357 29.7522 79.6201 29.6385L79.6741 29.3463C80.2869 29.4594 80.8569 29.5563 81.4166 29.6425L81.3713 29.936ZM93.7512 29.7036L93.6912 29.4126C94.2668 29.2936 94.8454 29.1607 95.4112 29.0175L95.4841 29.3054C94.9139 29.4494 94.3309 29.5837 93.7509 29.7036H93.7512ZM77.8779 29.2973C77.3585 29.1902 76.791 29.0691 76.1427 28.9272L76.2062 28.637C76.8533 28.7786 77.4197 28.8994 77.9379 29.0063L77.8779 29.2973ZM44.824 28.9453L44.7294 28.664C45.2934 28.4743 45.8632 28.293 46.4229 28.125L46.5082 28.4096C45.9517 28.5762 45.3851 28.7567 44.824 28.9453ZM97.1972 28.83L97.1113 28.5456C97.6713 28.3764 98.2356 28.1914 98.7887 27.9967L98.8876 28.2768C98.3301 28.4734 97.7614 28.6596 97.1971 28.83H97.1972ZM74.4111 28.543C73.8348 28.4145 73.26 28.2864 72.6811 28.1597L72.7446 27.8695C73.3239 27.9963 73.8995 28.1238 74.4715 28.2521L74.4111 28.543ZM48.2089 27.9303L48.1335 27.6429C48.708 27.492 49.2889 27.3505 49.8604 27.2224L49.9254 27.5122C49.3576 27.6397 48.7801 27.7804 48.2091 27.9304L48.2089 27.9303ZM70.9493 27.7901C70.3313 27.6621 69.7634 27.5496 69.2136 27.4463L69.2684 27.1545C69.8206 27.2587 70.3896 27.3712 71.0095 27.4995L70.9493 27.7901ZM100.55 27.6471L100.439 27.3717C100.973 27.1558 101.519 26.9216 102.061 26.6755L102.184 26.9464C101.638 27.1939 101.088 27.4298 100.55 27.647L100.55 27.6471ZM51.6566 27.159L51.6028 26.8673C52.1862 26.7599 52.7768 26.6632 53.3577 26.5801L53.3994 26.8742C52.8228 26.9565 52.2363 27.0524 51.6567 27.1591L51.6566 27.159ZM67.4717 27.1389C66.8764 27.0416 66.2881 26.954 65.7233 26.8785L65.7626 26.5839C66.3303 26.6598 66.9214 26.7479 67.5196 26.8456L67.4717 27.1389ZM63.9681 26.6732C63.3763 26.6142 62.784 26.5661 62.2074 26.53L62.2259 26.2335C62.8059 26.2698 63.4018 26.3183 63.997 26.3776L63.9681 26.6732ZM55.1525 26.6594L55.1226 26.3637C55.7109 26.304 56.3072 26.256 56.8953 26.221L56.9131 26.5175C56.3295 26.5524 55.7372 26.6001 55.1529 26.6595L55.1525 26.6594ZM60.4435 26.4541C59.854 26.4406 59.2687 26.4388 58.6776 26.4493L58.6724 26.1523C59.2673 26.1419 59.8569 26.1433 60.4505 26.1572L60.4435 26.4541ZM103.788 26.1816L103.656 25.9157C104.145 25.6723 104.659 25.4071 105.227 25.105L105.367 25.3675C104.796 25.6709 104.28 25.9372 103.788 26.1817L103.788 26.1816ZM106.927 24.525L106.786 24.2641C107.276 23.997 107.832 23.6945 108.348 23.4243L108.486 23.6876C107.973 23.9567 107.442 24.2456 106.928 24.5252L106.927 24.525ZM110.068 22.9095L109.946 22.6386C110.489 22.3897 111.047 22.1761 111.617 21.999L111.703 22.2834C111.145 22.4568 110.599 22.666 110.068 22.9096L110.068 22.9095ZM115.124 22.0697C114.559 21.9506 113.979 21.9118 113.403 21.9544L113.382 21.658C113.986 21.6136 114.593 21.6544 115.185 21.7791L115.124 22.0697Z" fill="#9CCDF8"/>
<path d="M117.565 23.0753C117.306 22.9191 117.047 22.7778 116.795 22.6548L116.925 22.3878C117.185 22.5145 117.452 22.6604 117.718 22.821L117.565 23.0753Z" fill="#BDDADA"/>
<path d="M107.05 45.5397H69.0898C65.6459 45.5397 62.854 48.3315 62.854 51.7755V154.777C62.854 158.221 65.6459 161.013 69.0898 161.013H107.05C110.494 161.013 113.285 158.221 113.285 154.777V51.7755C113.285 48.3315 110.494 45.5397 107.05 45.5397Z" fill="#2372B8"/>
<path d="M103.004 45.5397H65.0439C61.6 45.5397 58.8081 48.3315 58.8081 51.7755V154.777C58.8081 158.221 61.6 161.013 65.0439 161.013H103.004C106.448 161.013 109.24 158.221 109.24 154.777V51.7755C109.24 48.3315 106.448 45.5397 103.004 45.5397Z" fill="#1E5A91"/>
<path d="M103.422 47.8468H63.3424C61.237 47.8468 59.5303 49.5535 59.5303 51.6589V154.893C59.5303 156.999 61.237 158.705 63.3424 158.705H103.422C105.527 158.705 107.234 156.999 107.234 154.893V51.6589C107.234 49.5535 105.527 47.8468 103.422 47.8468Z" fill="white"/>
<path d="M97.3254 90.2142H69.438V91.5485H97.3254V90.2142Z" fill="#ACCCCB"/>
<path d="M97.3254 93.2832H69.438V94.6175H97.3254V93.2832Z" fill="#ACCCCB"/>
<path d="M97.3254 96.3522H69.438V97.6865H97.3254V96.3522Z" fill="#ACCCCB"/>
<path d="M83.3816 99.4211H69.438V100.755H83.3816V99.4211Z" fill="#ACCCCB"/>
<path d="M71.3896 125.129V108.21C71.3896 108.018 71.4662 107.833 71.6024 107.697C71.7386 107.56 71.9234 107.484 72.116 107.484H100.192C100.287 107.484 100.382 107.503 100.47 107.539C100.558 107.576 100.638 107.629 100.706 107.697C100.773 107.764 100.827 107.844 100.863 107.932C100.9 108.02 100.918 108.115 100.918 108.21V121.996C100.918 122.189 100.842 122.373 100.706 122.51C100.569 122.646 100.385 122.722 100.192 122.722H74.9036C74.7813 122.722 74.6609 122.753 74.5538 122.812C74.4466 122.871 74.356 122.956 74.2904 123.059L72.7292 125.518C72.645 125.651 72.5199 125.753 72.3728 125.808C72.2257 125.864 72.0645 125.87 71.9135 125.826C71.7625 125.782 71.6298 125.691 71.5353 125.565C71.4408 125.439 71.3897 125.286 71.3896 125.129Z" fill="#9CCDF8"/>
<path d="M74.5047 110.882H97.8042V109.83H74.5047V110.882Z" fill="#1E5A91"/>
<path d="M74.5047 113.309H97.8042V112.257H74.5047V113.309Z" fill="#1E5A91"/>
<path d="M74.5047 115.736H97.8042V114.684H74.5047V115.736Z" fill="#1E5A91"/>
<path d="M74.5045 118.163H86.4194V117.111H74.5045V118.163Z" fill="#1E5A91"/>
<path d="M69.2392 111.52C70.1023 110.587 70.0457 109.13 69.1126 108.267C68.1795 107.404 66.7234 107.461 65.8602 108.394C64.9971 109.327 65.0538 110.783 65.9868 111.646C66.9199 112.509 68.376 112.453 69.2392 111.52Z" fill="#1E5A91"/>
<path d="M94.7769 145.365V128.447C94.7769 128.254 94.7003 128.069 94.5641 127.933C94.4279 127.797 94.2432 127.72 94.0506 127.72H65.9744C65.7818 127.72 65.597 127.797 65.4608 127.933C65.3246 128.069 65.2481 128.254 65.248 128.447V142.233C65.2481 142.425 65.3246 142.61 65.4608 142.746C65.597 142.882 65.7818 142.959 65.9744 142.959H91.263C91.3853 142.959 91.5056 142.99 91.6128 143.049C91.72 143.108 91.8106 143.193 91.8762 143.296L93.4374 145.755C93.5216 145.887 93.6467 145.989 93.7939 146.045C93.941 146.1 94.1022 146.107 94.2533 146.063C94.4043 146.019 94.537 145.927 94.6314 145.802C94.7258 145.676 94.7769 145.523 94.7769 145.365Z" fill="#1E5A91"/>
<path d="M91.6623 130.066H68.3628V131.118H91.6623V130.066Z" fill="#D0E4F7"/>
<path d="M91.6623 132.493H68.3628V133.545H91.6623V132.493Z" fill="#D0E4F7"/>
<path d="M91.6623 134.92H68.3628V135.972H91.6623V134.92Z" fill="#D0E4F7"/>
<path d="M91.6619 137.347H79.7471V138.399H91.6619V137.347Z" fill="#D0E4F7"/>
<path d="M101.177 131.393C101.84 130.309 101.499 128.892 100.415 128.228C99.3304 127.565 97.9136 127.906 97.2501 128.99C96.5867 130.075 96.9279 131.492 98.0122 132.155C99.0966 132.819 100.513 132.477 101.177 131.393Z" fill="#D0E4F7"/>
<path d="M100.919 158.595V149.984C100.919 149.888 100.901 149.794 100.864 149.706C100.828 149.617 100.774 149.537 100.707 149.47C100.639 149.402 100.559 149.349 100.471 149.312C100.383 149.276 100.288 149.257 100.193 149.257H72.1164C72.021 149.257 71.9266 149.276 71.8385 149.312C71.7503 149.349 71.6703 149.403 71.6028 149.47C71.5354 149.537 71.4819 149.617 71.4454 149.706C71.4089 149.794 71.3901 149.888 71.3901 149.984V158.595H100.919Z" fill="#9CCDF8"/>
<path d="M74.5052 152.655H97.8047V151.603H74.5052V152.655Z" fill="#1E5A91"/>
<path d="M74.5052 155.082H97.8047V154.03H74.5052V155.082Z" fill="#1E5A91"/>
<path d="M74.5052 157.509H97.8047V156.457H74.5052V157.509Z" fill="#1E5A91"/>
<path d="M68.0601 153.973C69.2995 153.691 70.0755 152.458 69.7933 151.218C69.5111 149.979 68.2776 149.203 67.0381 149.485C65.7987 149.767 65.0227 151.001 65.3049 152.24C65.5871 153.48 66.8207 154.256 68.0601 153.973Z" fill="#1E5A91"/>
<path d="M82.6288 86.4921C91.4486 86.4921 98.5984 78.8105 98.5984 69.3346C98.5984 59.8588 91.4486 52.1771 82.6288 52.1771C73.809 52.1771 66.6592 59.8588 66.6592 69.3346C66.6592 78.8105 73.809 86.4921 82.6288 86.4921Z" fill="#D0E4F7"/>
<path d="M73.311 74.6662C73.311 74.6662 68.5983 74.3606 66.3406 79.2065C64.0829 84.0524 61.7148 91.1117 61.7148 106.305H70.2501L73.311 74.6662Z" fill="#1E5A91"/>
<path d="M91.2856 73.3213C91.2856 73.3213 96.6824 73.3213 98.9168 79.2063C100.815 84.204 103.543 91.1115 103.543 106.305H95.0072L91.2856 73.3213Z" fill="#1E5A91"/>
<path d="M88.3589 106.305L88.7321 104.588L67.7949 105.506C67.7949 105.506 67.752 105.786 67.6738 106.305H88.3589Z" fill="#FDAC47"/>
<path d="M98.6419 106.305C98.4624 105.217 98.3382 104.588 98.3382 104.588C98.3382 104.588 86.6537 104.679 80.7114 104.939C80.6858 105.36 80.6651 105.817 80.6489 106.304L98.6419 106.305Z" fill="#FDD247"/>
<path d="M77.7542 62.0688C77.7542 62.0688 76.9779 61.6294 76.7238 62.1335C76.4697 62.6377 76.658 63.4074 77.1339 63.7588C77.5193 64.0433 77.2747 64.9121 78.1089 64.4709C78.9431 64.0297 77.7542 62.0688 77.7542 62.0688Z" fill="#F4A086"/>
<path d="M87.321 62.0647C87.321 62.0647 88.1051 61.6395 88.35 62.148C88.5949 62.6566 88.3927 63.4229 87.9105 63.7658C87.5203 64.0432 87.7486 64.9164 86.9225 64.46C86.0964 64.0035 87.321 62.0647 87.321 62.0647Z" fill="#F4A086"/>
<path d="M79.1602 67.4382V72.3181H85.8042V65.5823L79.1602 67.4382Z" fill="#F4A086"/>
<path d="M77.5771 62.6104C77.5771 64.7648 78.927 69.7484 82.4182 69.7484C85.9094 69.7484 87.8171 63.454 87.7392 61.3385C87.6614 59.2231 85.507 58.016 85.507 58.016L78.317 58.6131C77.8449 59.8938 77.5947 61.2456 77.5771 62.6104Z" fill="#F6B690"/>
<path d="M78.5764 73.9665L78.4053 71.0341L86.9081 70.7098V73.4213L78.5764 73.9665Z" fill="#2372B8"/>
<path d="M99.4043 106.305L97.7773 96.9474L86.9084 73.4215L78.5763 73.9666L67.3722 102.111L67.1196 106.305H99.4043Z" fill="#BEC4F5"/>
<path d="M87.6271 62.6243C87.6271 62.6243 88.4661 60.2224 88.0378 58.5743C87.7298 57.389 87.4537 57.549 87.4537 57.549L85.8056 58.9117C85.8056 58.9117 85.7063 61.2486 87.6271 62.6243Z" fill="#222954"/>
<path d="M76.8765 58.9895C76.8765 58.9895 76.539 61.5463 77.6033 63.0777C78.5766 61.6504 78.6545 59.5086 78.6545 59.5086L76.8765 58.9895Z" fill="#222954"/>
<path d="M75.812 58.1718C75.812 58.1718 76.2532 60.3781 81.2758 60.3781C86.2984 60.3781 87.4539 57.5489 87.4539 57.5489C87.4539 57.5489 87.7524 55.3167 85.9224 54.8364C84.0924 54.3561 83.8075 55.3815 83.8075 55.3815C83.8075 55.3815 83.7166 53.8242 81.0301 54.2135C78.3435 54.6028 78.1351 57.8864 75.812 58.1718Z" fill="#0A3C5F"/>
<path d="M77.1143 106.305L78.5147 95.6674L78.5765 73.9669C78.5765 73.9669 78.9812 73.8377 73.3106 74.6667C67.64 75.4957 67.0655 82.0706 66.5651 89.702C66.0647 97.3333 66.6089 106.305 66.6089 106.305L77.1143 106.305Z" fill="#1B2152"/>
<path d="M98.5587 88.38C98.0033 81.6113 96.2729 73.3214 90.8997 73.3214C88.5491 73.3214 87.4913 73.3405 87.0449 73.3619V75.4572L88.3264 94.5656L90.7737 106.305H99.8187C99.8187 106.305 99.0338 94.1749 98.5587 88.38Z" fill="#1B2152"/>
<path d="M78.4804 72.3182L79.6525 87.7009L78.5146 95.6672L74.9168 82.7448L77.046 78.8535L74.688 74.3472L78.4804 72.3182Z" fill="#1E5A91"/>
<path d="M86.9082 71.7898L89.9702 73.3767L88.3263 78.1931L90.5558 81.2034L88.3263 94.5661L86.9082 87.1139V71.7898Z" fill="#1E5A91"/>
<path d="M46.5337 151.79L43.9761 169.797L39.999 168.515L40.6857 161.025L46.5337 151.79Z" fill="#F4A086"/>
<path d="M44.1062 173.572L43.9207 170.377L44.3127 168.641L39.638 167.874L38.9072 169.858L34.148 171.812C34.148 171.812 32.7472 172.504 32.7207 173.572H40.1788L41.8375 172.739L41.8167 173.572L44.1062 173.572Z" fill="#9CCDF8"/>
<path d="M40.1791 173.572H32.7212C32.7287 173.363 32.784 173.159 32.8828 172.975L41.2682 173.025L40.1791 173.572Z" fill="#1E5A91"/>
<path d="M41.8308 173.028L44.0759 173.042L44.1071 173.572H41.8174L41.8308 173.028Z" fill="#1E5A91"/>
<path d="M57.5757 157.875L59.0015 168.515L62.9787 169.798L61.5915 155.008L57.5757 157.875Z" fill="#F4A086"/>
<path d="M63.9299 173.572L63.2501 167.874H58.641L58.7309 169.858L53.9718 171.812C53.9718 171.812 52.5708 172.504 52.5444 173.572H60.0024L61.6611 172.739L61.6403 173.572L63.9299 173.572Z" fill="#6DB6F7"/>
<path d="M60.0024 173.572H52.5444C52.5519 173.363 52.6071 173.159 52.706 172.975L61.0914 173.025L60.0024 173.572Z" fill="#1E5A91"/>
<path d="M61.6541 173.028L63.8991 173.042L63.9304 173.572H61.6406L61.6541 173.028Z" fill="#1E5A91"/>
<path d="M45.7715 100.689L41.4458 133.766L40.0337 163.698H45.2021C45.2021 163.698 51.8998 139.501 50.2063 134.079C57.3284 120.709 61.9498 109.948 59.3849 100.688L45.7715 100.689Z" fill="#1E5A91"/>
<path d="M47.7979 100.689L52.3329 133.462L57.9805 164.013H62.5994C62.5994 164.013 62.6584 140.103 60.7491 132.824C60.9441 120.721 68.1298 106.677 60.4991 100.688L47.7979 100.689Z" fill="#2372B8"/>
<path d="M30.7565 87.55L28.3186 84.7832C28.3186 84.7832 24.5471 81.5138 25.1058 80.2452C25.6644 78.9767 26.5591 76.6731 27.1753 77.0885C27.7914 77.5039 31.166 81.1961 31.0274 82.1147L30.891 82.9787L32.3016 84.7284L30.7565 87.55Z" fill="#F6B690"/>
<path d="M53.942 77.7102C56.9275 79.8766 50.4743 90.6548 43.7281 96.0798C42.0272 97.4475 39.6376 97.4238 38.0801 96.0298C33.5506 91.9757 28.3994 86.3567 28.3994 86.3567L31.6277 83.4841C31.6277 83.4841 39.1053 89.8324 40.7085 91.2687C42.3634 87.5919 49.6268 74.5792 53.942 77.7102Z" fill="#9B4717"/>
<path d="M51.7017 75.3042L51.5439 78.9026H55.8233L56.2307 72.327L55.0926 70.8857L51.7017 75.3042Z" fill="#F4A086"/>
<path d="M48.9996 69.0265C48.9996 69.0265 48.5267 75.9773 50.1321 76.2621C51.7376 76.547 54.5089 74.7476 55.5771 72.819C56.6453 70.8903 57.3711 68.5087 57.3711 68.5087L54.2291 65.4797L48.9996 69.0265Z" fill="#F6B690"/>
<path d="M52.8265 64.8615C52.8265 64.8615 52.2468 63.3212 52.3749 62.1692C52.5031 61.0172 53.4897 60.3699 54.8878 60.6548C56.2858 60.9396 56.6916 62.0247 56.5832 62.7247C56.4749 63.4247 55.0622 65.2499 55.0622 65.2499L52.8265 64.8615Z" fill="#0A3C5F"/>
<path d="M51.5032 68.3145C51.5032 68.3145 52.1689 69.9584 55.358 69.5438C55.3403 70.2428 54.9793 70.7994 55.5723 71.4466C56.1652 72.0938 55.5982 72.9222 55.5982 72.9222L56.1452 73.6989C56.1452 73.6989 56.2971 72.5373 56.883 71.6667C57.4689 70.796 58.7847 69.9192 58.6252 67.3563C58.4656 64.7933 56.2839 62.5929 53.6162 64.6899C52.2268 62.7224 49.6781 63.5888 48.4889 65.6089C47.395 67.4677 47.644 69.3995 49.168 69.6086C50.5835 69.803 51.5032 68.3145 51.5032 68.3145Z" fill="#212B54"/>
<path d="M55.4648 71.1751C55.4648 71.1751 55.7593 70.5973 56.2983 70.8425C56.8372 71.0878 56.034 73.3325 55.4139 73.4298C54.7938 73.5271 55.4648 71.1751 55.4648 71.1751Z" fill="#F6B690"/>
<path d="M28.1842 75.4153L26.1857 76.8749C26.1708 76.8853 26.1592 76.8998 26.1522 76.9166C26.1453 76.9334 26.1433 76.9519 26.1465 76.9698L27.626 84.5662C27.6297 84.583 27.6381 84.5984 27.6504 84.6106C27.6626 84.6227 27.6781 84.6311 27.6949 84.6347C27.7118 84.6383 27.7294 84.6369 27.7455 84.6308C27.7616 84.6247 27.7756 84.6141 27.7859 84.6002L29.6924 82.4124C29.7011 82.4017 29.7074 82.3893 29.7107 82.376C29.7141 82.3626 29.7144 82.3488 29.7118 82.3353L28.3245 75.4674C28.3214 75.4528 28.3146 75.4392 28.3049 75.4279C28.2951 75.4166 28.2826 75.408 28.2687 75.4028C28.2547 75.3976 28.2396 75.396 28.2248 75.3982C28.21 75.4004 28.1961 75.4062 28.1842 75.4153Z" fill="#212B54"/>
<path d="M30.9725 82.4643L31.4736 79.2044C31.4736 79.2044 29.9266 78.6389 29.6224 78.1815C29.186 78.8385 29.7451 79.5537 30.507 79.6285C29.927 80.5267 29.2948 81.8322 30.9725 82.4643Z" fill="#F6B690"/>
<path d="M52.3956 77.2509C54.5855 76.8741 57.4693 77.4565 58.5199 77.9789C61.6488 79.5357 60.4989 100.689 60.4989 100.689H45.7719C46.5445 94.7133 43.0712 78.8551 52.3956 77.2509Z" fill="#FF7B00"/>
<path d="M62.2764 96.8513L56.521 102.151C56.521 102.151 56.1811 106.042 55.4694 107.614C54.7577 109.185 58.5474 108.476 59.2651 106.96C59.9829 105.445 59.0652 103.461 59.0652 103.461L67.4261 96.8513H62.2764Z" fill="#F6B690"/>
<path d="M55.9647 78.5995C58.0831 75.3107 69.7601 83.6686 73.3044 91.2995C73.7403 92.2378 73.4815 93.3808 72.6806 94.0995C67.8207 98.4631 60.0984 103.253 60.0984 103.253L57.8168 99.7952C57.8168 99.7952 65.3984 93.585 67.1079 92.1253C63.7492 90.1545 52.9587 83.2663 55.9647 78.5995Z" fill="#9B4717"/>
<path d="M112.068 56.874C117.053 56.874 121.095 52.8324 121.095 47.8468C121.095 42.8612 117.053 38.8196 112.068 38.8196C107.082 38.8196 103.041 42.8612 103.041 47.8468C103.041 52.8324 107.082 56.874 112.068 56.874Z" fill="white"/>
<path d="M121.621 24.7162L113.3 20.1232L109.051 19.2733L105.841 19.7454L121.621 24.7162Z" fill="url(#paint0_linear)"/>
<path d="M121.621 24.7162L106.038 20.7103L105.84 19.7454" fill="#6DB6F7"/>
<path d="M105.594 23.384L105.614 23.4165L106.268 25.8358L121.583 24.7173L105.594 23.384Z" fill="#2372B8"/>
<path d="M102.618 21.9661L104.842 20.1616L121.52 24.6902L107.163 24.263L102.618 21.9661Z" fill="url(#paint1_linear)"/>
<path d="M115.985 42.5517C115.931 42.5517 115.877 42.5377 115.83 42.5099C114.534 41.82 113.414 41.5273 112.064 41.5273C110.735 41.5273 109.466 41.8548 108.313 42.5099C108.151 42.6004 107.948 42.5377 107.854 42.3705C107.766 42.2032 107.827 41.9872 107.989 41.8966C109.244 41.1789 110.62 40.8304 112.064 40.8304C113.509 40.8304 114.764 41.158 116.14 41.8757C116.309 41.9802 116.37 42.1893 116.282 42.3565C116.221 42.482 116.113 42.5517 115.985 42.5517ZM106.329 46.2101C106.261 46.2101 106.194 46.1892 106.133 46.1474C105.991 46.0359 105.944 45.8199 106.052 45.6596C106.72 44.684 107.57 43.9175 108.582 43.3809C110.715 42.252 113.414 42.2451 115.54 43.374C116.552 43.9105 117.402 44.6631 118.07 45.6387C118.178 45.792 118.138 46.015 117.989 46.1265C117.834 46.238 117.625 46.2032 117.517 46.0568C116.91 45.1649 116.14 44.475 115.229 43.9942C113.293 42.9698 110.816 42.9698 108.886 44.0011C107.968 44.4889 107.199 45.1858 106.592 46.0568C106.538 46.1614 106.437 46.2101 106.329 46.2101ZM110.546 54.6211C110.458 54.6211 110.377 54.5863 110.31 54.5166C109.723 53.9103 109.406 53.5201 108.954 52.6769C108.488 51.8198 108.245 50.7745 108.245 49.6526C108.245 47.5829 109.959 45.8966 112.064 45.8966C114.17 45.8966 115.884 47.5829 115.884 49.6526C115.884 49.745 115.848 49.8336 115.785 49.899C115.722 49.9643 115.636 50.001 115.547 50.001C115.457 50.001 115.371 49.9643 115.308 49.899C115.245 49.8336 115.209 49.745 115.209 49.6526C115.209 47.9662 113.799 46.5934 112.064 46.5934C110.33 46.5934 108.92 47.9662 108.92 49.6526C108.92 50.6561 109.136 51.5829 109.547 52.3285C109.979 53.1368 110.276 53.4783 110.796 54.0218C110.924 54.1612 110.924 54.3772 110.796 54.5166C110.715 54.5863 110.634 54.6211 110.546 54.6211ZM115.385 53.332C114.582 53.332 113.873 53.1229 113.293 52.7118C112.287 52.0079 111.687 50.8651 111.687 49.6526C111.687 49.5602 111.722 49.4716 111.785 49.4062C111.849 49.3409 111.935 49.3042 112.024 49.3042C112.113 49.3042 112.199 49.3409 112.263 49.4062C112.326 49.4716 112.361 49.5602 112.361 49.6526C112.361 50.6351 112.847 51.562 113.671 52.1334C114.15 52.4679 114.71 52.6281 115.385 52.6281C115.547 52.6281 115.816 52.6072 116.086 52.5585C116.269 52.5236 116.451 52.649 116.478 52.8442C116.512 53.0253 116.39 53.2135 116.201 53.2483C115.816 53.325 115.479 53.332 115.385 53.332ZM114.028 54.7675C114.001 54.7675 113.967 54.7675 113.94 54.7675C112.868 54.4469 112.166 54.0358 111.43 53.2901C110.485 52.3285 109.966 51.0324 109.966 49.6526C109.966 48.5237 110.897 47.6038 112.044 47.6038C113.191 47.6038 114.123 48.5237 114.123 49.6526C114.123 50.3982 114.764 51.0045 115.526 51.0045C116.302 51.0045 116.93 50.3982 116.93 49.6526C116.93 47.0255 114.737 44.8931 112.038 44.8931C110.121 44.8931 108.353 45.9941 107.577 47.7014C107.314 48.2658 107.179 48.9279 107.179 49.6526C107.179 50.1961 107.226 51.0533 107.631 52.1682C107.698 52.3494 107.611 52.5515 107.435 52.6142C107.26 52.6769 107.064 52.5863 107.003 52.4121C106.666 51.4992 106.511 50.5864 106.511 49.6526C106.511 48.8164 106.666 48.0568 106.97 47.3948C107.867 45.4506 109.858 44.1893 112.038 44.1893C115.101 44.1893 117.605 46.6352 117.605 49.6456C117.605 50.7745 116.674 51.6944 115.526 51.6944C114.379 51.6944 113.448 50.7745 113.448 49.6456C113.448 48.9 112.82 48.2937 112.044 48.2937C111.268 48.2937 110.641 48.9 110.641 49.6456C110.641 50.8372 111.086 51.9522 111.903 52.7884C112.544 53.4435 113.158 53.8058 114.109 54.0706C114.291 54.1264 114.393 54.3215 114.345 54.5027C114.312 54.6629 114.17 54.7675 114.028 54.7675Z" fill="#1E5A91"/>
<defs>
<linearGradient id="paint0_linear" x1="105.841" y1="21.9948" x2="121.621" y2="21.9948" gradientUnits="userSpaceOnUse">
<stop stop-color="white"/>
<stop offset="1" stop-color="#D0E4F7"/>
</linearGradient>
<linearGradient id="paint1_linear" x1="102.618" y1="22.4259" x2="121.52" y2="22.4259" gradientUnits="userSpaceOnUse">
<stop stop-color="#FBFBFB"/>
<stop offset="1" stop-color="#D0E4F7"/>
</linearGradient>
</defs>
</svg>
