<svg width="478" height="380" viewBox="0 0 478 380" fill="none" xmlns="http://www.w3.org/2000/svg">
<path d="M131.376 67.1829H340.116C340.116 67.1829 351.435 52.8631 340.116 43.2272C333.868 37.909 326.491 38.4596 321.135 40.0222C320.304 40.2418 319.437 40.2876 318.588 40.1569C317.738 40.0261 316.925 39.7216 316.199 39.2624C315.472 38.8031 314.849 38.199 314.366 37.4877C313.884 36.7765 313.553 35.9734 313.396 35.1287C312.126 29.2419 308.214 21.538 296.978 16.9846C285.924 12.5073 278.932 19.3459 274.886 26.3723C274.582 26.8906 274.135 27.3107 273.599 27.5827C273.064 27.8547 272.461 27.9672 271.863 27.9067C271.265 27.8462 270.697 27.6154 270.226 27.2417C269.756 26.8679 269.402 26.3669 269.208 25.7982C265.702 14.7051 253.49 0 213.365 0C162.333 0 168.003 27.1306 172.564 38.4061C172.748 38.8447 172.808 39.3252 172.737 39.7955C172.667 40.2658 172.469 40.7077 172.165 41.0733C171.861 41.4388 171.462 41.714 171.013 41.8688C170.563 42.0236 170.079 42.0521 169.615 41.9512C161.743 40.2684 147.132 38.0875 140.58 43.2319C131.376 50.4576 131.376 67.1829 131.376 67.1829Z" fill="#9CCDF8"/>
<path d="M371.72 379.253H365.876C357.613 379.244 349.692 375.957 343.849 370.115C338.006 364.272 334.72 356.35 334.711 348.087V280.269H337.59V348.087C337.598 355.586 340.58 362.776 345.882 368.079C351.184 373.382 358.373 376.365 365.872 376.374H371.717C379.216 376.365 386.405 373.382 391.707 368.079C397.009 362.776 399.991 355.586 399.999 348.087V341.589H402.878V348.087C402.869 356.349 399.584 364.269 393.743 370.112C387.902 375.955 379.982 379.242 371.72 379.253V379.253Z" fill="#FFA653"/>
<path d="M118.755 33.5942H112.91C104.648 33.6037 96.7259 36.8903 90.8833 42.7331C85.0407 48.5759 81.7543 56.4977 81.7451 64.7605V174.043H84.6241V64.7605C84.6336 57.2624 87.6164 50.0741 92.9183 44.7721C98.2203 39.4702 105.409 36.4874 112.907 36.4779H118.751C126.249 36.4874 133.438 39.4702 138.74 44.7721C144.041 50.0741 147.024 57.2624 147.034 64.7605V71.2589H149.913V64.7605C149.904 56.499 146.618 48.5783 140.777 42.7358C134.936 36.8932 127.016 33.6057 118.755 33.5942V33.5942Z" fill="#FFA653"/>
<path d="M220.074 339.514H306.186C297.774 329.481 285.735 308.16 293.564 273.526C301.023 240.529 282.194 231.497 263.13 241.266C244.064 231.494 225.237 240.529 232.696 273.526C240.525 308.16 228.487 329.481 220.074 339.514Z" fill="#2A2E2F"/>
<path d="M311.679 334.041H211.817C206.105 334.041 201.474 339.612 201.474 346.483H322.015C322.015 339.612 317.389 334.041 311.679 334.041Z" fill="#2A2E2F"/>
<path d="M476.965 100.07C482.033 122.091 430.101 124.922 408.702 125.157C402.776 125.224 396.859 124.662 391.051 123.482C372.955 119.81 333.343 110.173 338.902 97.0694C346.07 80.1637 367.601 91.9513 367.601 91.9513C367.601 91.9513 364.899 79.1875 401.536 70.7581C438.174 62.3288 438.027 90.4187 438.027 90.4187C438.027 90.4187 470.6 72.4053 476.965 100.07Z" fill="#D0E4F7"/>
<path d="M327.064 24.8182L347.386 13.6048L357.758 11.5301L365.595 12.683L327.064 24.8182Z" fill="#CF5B1A"/>
<path d="M327.063 24.8181L365.108 15.0339L365.59 12.6782" fill="url(#paint0_linear)"/>
<path d="M366.194 21.5652L366.145 21.6451L364.548 27.5515L327.159 24.821L366.194 21.5652Z" fill="url(#paint1_linear)"/>
<path d="M373.458 18.1037L368.03 13.6978L327.311 24.7543L362.358 23.7123L373.458 18.1037Z" fill="#CF5B1A"/>
<path d="M459.034 93.4801C457.778 93.037 456.555 92.5064 455.374 91.8921C455.244 91.8309 455.096 91.8223 454.96 91.8681C454.825 91.9139 454.712 92.0105 454.646 92.1377C454.58 92.2649 454.566 92.4126 454.607 92.5499C454.648 92.6873 454.74 92.8034 454.865 92.874C456.092 93.5119 457.363 94.0629 458.667 94.5231C459.135 94.6885 459.605 94.8416 460.077 94.9826C460.146 95.0035 460.219 95.0106 460.291 95.0034C460.363 94.9962 460.433 94.9748 460.497 94.9405C460.561 94.9062 460.618 94.8597 460.663 94.8035C460.709 94.7474 460.744 94.6827 460.765 94.6133C460.785 94.5438 460.792 94.4709 460.785 94.3987C460.778 94.3265 460.757 94.2565 460.722 94.1926C460.688 94.1287 460.641 94.0722 460.585 94.0264C460.529 93.9805 460.464 93.9462 460.394 93.9255C459.939 93.787 459.485 93.6386 459.034 93.4801Z" fill="url(#paint2_linear)"/>
<path d="M384.574 13.9852C382.85 14.206 381.055 14.4897 379.085 14.8534C378.944 14.8832 378.82 14.9671 378.74 15.087C378.659 15.2069 378.629 15.3535 378.655 15.4954C378.682 15.6373 378.762 15.7633 378.88 15.8467C378.998 15.93 379.144 15.964 379.286 15.9415C381.235 15.5806 383.011 15.2997 384.715 15.0817C384.787 15.0724 384.857 15.0491 384.92 15.013C384.983 14.9769 385.038 14.9287 385.082 14.8713C385.127 14.8138 385.159 14.7482 385.178 14.6781C385.197 14.6081 385.202 14.535 385.193 14.463C385.184 14.391 385.161 14.3215 385.124 14.2585C385.088 14.1955 385.04 14.1403 384.983 14.0959C384.925 14.0515 384.86 14.0189 384.79 13.9999C384.719 13.9809 384.646 13.9759 384.574 13.9852V13.9852Z" fill="url(#paint3_linear)"/>
<path d="M393.794 14.4081C393.887 14.3392 393.957 14.2426 393.992 14.1321C394.027 14.0216 394.027 13.9027 393.991 13.7924C393.955 13.6821 393.885 13.5859 393.792 13.5175C393.698 13.449 393.585 13.4119 393.469 13.4112C391.696 13.3952 389.82 13.4695 387.897 13.6311C387.751 13.6435 387.616 13.7135 387.521 13.8256C387.427 13.9376 387.381 14.0827 387.393 14.2287C387.406 14.3747 387.476 14.5098 387.588 14.6043C387.7 14.6987 387.845 14.7448 387.991 14.7323C389.881 14.5745 391.722 14.5012 393.462 14.5162C393.582 14.5175 393.698 14.4795 393.794 14.4081V14.4081Z" fill="url(#paint4_linear)"/>
<path d="M448.369 86.821C448.318 86.7695 448.256 86.7288 448.189 86.7013C448.122 86.6738 448.049 86.6601 447.977 86.661C447.904 86.6618 447.832 86.6773 447.765 86.7064C447.699 86.7355 447.638 86.7777 447.588 86.8304C447.537 86.8823 447.497 86.9437 447.47 87.0111C447.443 87.0785 447.43 87.1506 447.43 87.2232C447.431 87.2959 447.447 87.3676 447.475 87.4344C447.504 87.5011 447.546 87.5616 447.598 87.6122C448.941 88.9236 450.401 90.1096 451.96 91.1555C452.021 91.1959 452.088 91.224 452.159 91.2383C452.231 91.2526 452.304 91.2527 452.375 91.2386C452.446 91.2246 452.514 91.1967 452.574 91.1564C452.635 91.1162 452.687 91.0645 452.727 91.0042C452.767 90.9439 452.796 90.8763 452.81 90.8051C452.824 90.734 452.824 90.6607 452.81 90.5895C452.796 90.5183 452.768 90.4506 452.728 90.3902C452.688 90.3298 452.636 90.2779 452.576 90.2375C451.073 89.2287 449.665 88.0851 448.369 86.821V86.821Z" fill="url(#paint5_linear)"/>
<path d="M446.09 85.1983C446.147 85.1523 446.193 85.0957 446.227 85.0317C446.262 84.9676 446.283 84.8975 446.29 84.8253C446.297 84.753 446.29 84.68 446.269 84.6106C446.248 84.5411 446.213 84.4764 446.167 84.4203C445.854 84.0388 445.551 83.6501 445.258 83.2542C444.475 82.1972 443.765 81.0877 443.134 79.9336C443.1 79.8695 443.053 79.8129 442.996 79.7671C442.94 79.7212 442.874 79.6871 442.805 79.6665C442.735 79.646 442.661 79.6395 442.589 79.6474C442.517 79.6554 442.446 79.6776 442.383 79.7128C442.254 79.7838 442.159 79.9025 442.118 80.0433C442.076 80.184 442.092 80.3353 442.162 80.4645C442.816 81.6642 443.553 82.817 444.367 83.9148C444.67 84.3257 444.984 84.7285 445.307 85.1231C445.396 85.232 445.524 85.3024 445.664 85.3199C445.804 85.3374 445.945 85.3006 446.058 85.2171L446.09 85.1983Z" fill="url(#paint6_linear)"/>
<path d="M441.44 77.7152C441.482 77.6979 441.522 77.6755 441.559 77.6485C441.658 77.575 441.73 77.4703 441.763 77.351C441.796 77.2317 441.788 77.1049 441.74 76.9908C441.056 75.309 440.494 73.58 440.059 71.8172C440.023 71.6751 439.932 71.5529 439.807 71.4777C439.681 71.4024 439.53 71.3803 439.388 71.416C439.246 71.4518 439.124 71.5426 439.049 71.6684C438.973 71.7942 438.951 71.9447 438.987 72.0869C439.434 73.9015 440.013 75.6811 440.719 77.4117C440.746 77.4791 440.786 77.5405 440.837 77.5922C440.889 77.644 440.949 77.6852 441.016 77.7133C441.083 77.7415 441.155 77.7562 441.228 77.7566C441.301 77.7569 441.373 77.7428 441.44 77.7152V77.7152Z" fill="url(#paint7_linear)"/>
<path d="M426.782 30.5536C427.243 31.1174 427.689 31.6896 428.121 32.2703C428.773 33.1508 429.395 34.0612 429.971 34.9783C430.009 35.0399 430.06 35.0933 430.119 35.1354C430.178 35.1775 430.245 35.2075 430.316 35.2237C430.387 35.24 430.46 35.2421 430.532 35.2299C430.603 35.2178 430.672 35.1917 430.734 35.1531C430.745 35.1456 430.757 35.1381 430.769 35.1287C430.88 35.0456 430.956 34.9236 430.982 34.7871C431.007 34.6506 430.98 34.5096 430.906 34.392C430.317 33.4524 429.679 32.5127 429.01 31.6126C428.567 31.015 428.109 30.4284 427.637 29.8527C427.593 29.7933 427.537 29.7438 427.473 29.7074C427.409 29.6709 427.338 29.6483 427.265 29.6411C427.191 29.6338 427.117 29.642 427.047 29.6652C426.977 29.6884 426.913 29.726 426.859 29.7756C426.745 29.8688 426.674 30.003 426.66 30.1489C426.645 30.2947 426.69 30.4403 426.782 30.5536V30.5536Z" fill="url(#paint8_linear)"/>
<path d="M431.6 37.8169C432.441 39.4279 433.173 41.0939 433.791 42.8035C433.815 42.8719 433.853 42.9349 433.902 42.9888C433.951 43.0427 434.01 43.0864 434.075 43.1174C434.141 43.1484 434.212 43.1661 434.285 43.1694C434.357 43.1728 434.43 43.1618 434.498 43.137C434.549 43.1188 434.596 43.0932 434.639 43.0609C434.734 42.9901 434.804 42.8904 434.838 42.7768C434.872 42.6632 434.868 42.5417 434.827 42.4304C434.192 40.6728 433.439 38.9603 432.572 37.3048C432.539 37.2405 432.493 37.1833 432.437 37.1368C432.381 37.0902 432.317 37.055 432.248 37.0333C432.178 37.0116 432.105 37.0037 432.033 37.0101C431.961 37.0166 431.89 37.0372 431.826 37.0708C431.762 37.1045 431.705 37.1504 431.658 37.2061C431.611 37.2618 431.576 37.3261 431.555 37.3954C431.533 37.4647 431.525 37.5376 431.531 37.6099C431.538 37.6822 431.559 37.7525 431.592 37.8169H431.6Z" fill="url(#paint9_linear)"/>
<path d="M420.61 24.3918C422.017 25.5467 423.354 26.7858 424.612 28.1023C424.704 28.2 424.829 28.2605 424.964 28.2723C425.098 28.284 425.231 28.2463 425.34 28.1662C425.358 28.1522 425.376 28.1372 425.393 28.1211C425.499 28.0198 425.561 27.8805 425.564 27.7339C425.567 27.5874 425.512 27.4455 425.411 27.3394C424.123 25.9903 422.754 24.7204 421.313 23.5367C421.199 23.4448 421.054 23.4016 420.908 23.4163C420.763 23.4311 420.63 23.5027 420.537 23.6155C420.444 23.7283 420.4 23.8732 420.413 24.0186C420.427 24.1641 420.498 24.2982 420.61 24.3918V24.3918Z" fill="url(#paint10_linear)"/>
<path d="M410.42 18.101C410.554 18.1602 410.706 18.1637 410.843 18.1108C410.98 18.0578 411.09 17.9528 411.149 17.8187C411.208 17.6846 411.212 17.5325 411.159 17.3959C411.106 17.2592 411.001 17.1492 410.866 17.09C409.16 16.3345 407.406 15.6892 405.617 15.1582C405.476 15.1165 405.325 15.1325 405.196 15.2024C405.067 15.2724 404.972 15.3906 404.93 15.5312C404.888 15.6717 404.904 15.8231 404.974 15.9519C405.044 16.0807 405.162 16.1764 405.303 16.218C407.047 16.7365 408.756 17.3655 410.42 18.101V18.101Z" fill="url(#paint11_linear)"/>
<path d="M437.653 60.5042C437.726 60.496 437.795 60.4737 437.859 60.4385C437.922 60.4034 437.978 60.356 438.024 60.2992C438.069 60.2424 438.102 60.1772 438.122 60.1075C438.142 60.0377 438.148 59.9646 438.14 59.8925L438.057 59.1962C437.875 57.5942 437.692 55.9903 437.48 54.3929C437.456 54.2519 437.378 54.1257 437.263 54.0409C437.148 53.956 437.004 53.9191 436.863 53.9378C436.721 53.9565 436.592 54.0294 436.502 54.1413C436.413 54.2531 436.371 54.3951 436.384 54.5376C436.594 56.1284 436.777 57.7257 436.959 59.3212L437.038 60.0165C437.046 60.0891 437.068 60.1595 437.103 60.2234C437.139 60.2874 437.186 60.3437 437.244 60.389C437.301 60.4344 437.367 60.4679 437.437 60.4877C437.507 60.5075 437.581 60.5131 437.653 60.5042V60.5042Z" fill="url(#paint12_linear)"/>
<path d="M418.005 22.4062C418.1 22.4731 418.214 22.5084 418.33 22.5071C418.446 22.5057 418.559 22.4678 418.653 22.3986C418.7 22.3631 418.741 22.3207 418.775 22.2727C418.86 22.1529 418.893 22.0045 418.868 21.8601C418.843 21.7156 418.762 21.587 418.643 21.5022C417.118 20.4274 415.529 19.4461 413.884 18.564C413.756 18.4996 413.607 18.488 413.469 18.5316C413.332 18.5753 413.217 18.6708 413.149 18.7978C413.081 18.9248 413.065 19.0733 413.105 19.2118C413.145 19.3503 413.237 19.4678 413.362 19.5394C414.967 20.3989 416.517 21.3563 418.005 22.4062V22.4062Z" fill="url(#paint13_linear)"/>
<path d="M437.913 62.7009C437.841 62.7097 437.771 62.7328 437.708 62.7687C437.645 62.8046 437.589 62.8527 437.545 62.9102C437.5 62.9677 437.468 63.0335 437.449 63.1037C437.43 63.1739 437.425 63.2471 437.435 63.3192C437.705 65.4719 437.972 67.2186 438.272 68.8169C438.3 68.9609 438.383 69.0882 438.504 69.1707C438.625 69.2533 438.774 69.2846 438.918 69.2576C439 69.2418 439.078 69.2082 439.145 69.1589C439.228 69.0971 439.293 69.013 439.331 68.9163C439.368 68.8196 439.378 68.7141 439.359 68.6121C439.063 67.0373 438.795 65.3112 438.53 63.1801C438.512 63.0348 438.436 62.9028 438.321 62.8129C438.205 62.7231 438.058 62.6828 437.913 62.7009V62.7009Z" fill="url(#paint14_linear)"/>
<path d="M463.561 94.7032C463.418 94.6749 463.268 94.7049 463.147 94.7866C463.025 94.8683 462.941 94.995 462.912 95.1387C462.884 95.2825 462.914 95.4317 462.996 95.5533C463.078 95.675 463.204 95.7593 463.348 95.7875C465.179 96.1417 467.031 96.3808 468.892 96.5035C469.023 96.5135 469.154 96.4755 469.259 96.3964C469.35 96.3293 469.418 96.2358 469.455 96.1286C469.491 96.0214 469.493 95.9057 469.462 95.797C469.43 95.6884 469.366 95.5921 469.278 95.5212C469.19 95.4502 469.082 95.4081 468.969 95.4004C467.154 95.2805 465.348 95.0477 463.561 94.7032V94.7032Z" fill="url(#paint15_linear)"/>
<path d="M435.155 45.2484C435.014 45.2867 434.893 45.3795 434.82 45.5064C434.747 45.6334 434.727 45.7842 434.764 45.9259C435.2 47.5523 435.573 49.3019 435.904 51.277C435.916 51.3486 435.942 51.4171 435.98 51.4786C436.019 51.5402 436.069 51.5935 436.128 51.6357C436.187 51.6778 436.254 51.7079 436.325 51.7242C436.395 51.7406 436.468 51.7428 436.54 51.7308C436.612 51.7189 436.68 51.6929 436.742 51.6545C436.803 51.616 436.857 51.5658 436.899 51.5068C436.941 51.4477 436.971 51.3809 436.987 51.3102C437.004 51.2395 437.006 51.1663 436.994 51.0947C436.658 49.0839 436.277 47.2996 435.832 45.6402C435.794 45.4986 435.701 45.3779 435.574 45.3044C435.448 45.231 435.297 45.2108 435.155 45.2484V45.2484Z" fill="url(#paint16_linear)"/>
<path d="M398.756 13.7391C398.11 13.6621 397.465 13.5994 396.818 13.5512C396.675 13.545 396.534 13.5949 396.427 13.6903C396.32 13.7857 396.253 13.9191 396.243 14.0623C396.232 14.2055 396.277 14.3474 396.369 14.4578C396.461 14.5683 396.592 14.6388 396.734 14.6543C397.365 14.7013 397.995 14.7624 398.625 14.8375C399.793 14.9757 400.974 15.1702 402.131 15.4154C402.207 15.4321 402.286 15.4324 402.363 15.4162C402.439 15.4 402.511 15.3677 402.574 15.3214C402.683 15.242 402.759 15.1247 402.786 14.9926C402.801 14.9214 402.803 14.8478 402.79 14.7761C402.777 14.7044 402.75 14.636 402.71 14.5748C402.671 14.5136 402.619 14.4609 402.559 14.4197C402.499 14.3785 402.431 14.3497 402.36 14.3348C401.17 14.0811 399.956 13.8819 398.756 13.7391Z" fill="url(#paint17_linear)"/>
<path d="M409.76 58.732H112.954C110.2 58.732 107.967 60.9646 107.967 63.7186V275.283C107.967 278.037 110.2 280.269 112.954 280.269H409.76C412.514 280.269 414.747 278.037 414.747 275.283V63.7186C414.747 60.9646 412.514 58.732 409.76 58.732Z" fill="#A9A9A9"/>
<path d="M119.636 63.7186H403.079C404.342 63.7186 405.554 64.2203 406.447 65.1134C407.34 66.0064 407.841 67.2177 407.841 68.4806V270.519C407.841 271.144 407.718 271.764 407.479 272.342C407.239 272.919 406.889 273.444 406.446 273.887C406.004 274.329 405.479 274.68 404.901 274.919C404.323 275.159 403.704 275.282 403.078 275.282H119.636C118.373 275.282 117.162 274.78 116.268 273.887C115.375 272.993 114.873 271.782 114.873 270.519V68.4816C114.873 67.2184 115.375 66.0069 116.268 65.1137C117.162 64.2204 118.373 63.7186 119.636 63.7186V63.7186Z" fill="#838586"/>
<path d="M257.665 61.2576C257.665 61.6226 257.774 61.9794 257.976 62.2829C258.179 62.5864 258.467 62.8229 258.804 62.9626C259.142 63.1023 259.513 63.1388 259.871 63.0676C260.229 62.9964 260.558 62.8206 260.816 62.5625C261.074 62.3045 261.249 61.9756 261.321 61.6177C261.392 61.2597 261.355 60.8886 261.216 60.5514C261.076 60.2142 260.839 59.926 260.536 59.7232C260.232 59.5205 259.876 59.4122 259.511 59.4122C259.021 59.4122 258.552 59.6067 258.206 59.9527C257.86 60.2988 257.665 60.7682 257.665 61.2576Z" fill="white"/>
<path d="M395.883 74.3955H127.563V265.175H395.883V74.3955Z" fill="#FAFAFA"/>
<path d="M395.883 74.3955H127.563V97.575H395.883V74.3955Z" fill="#2372B8"/>
<path d="M298.757 242.986H148.691C148.014 242.984 147.365 242.714 146.886 242.235C146.407 241.756 146.137 241.107 146.135 240.43V240.43C146.137 239.753 146.407 239.103 146.886 238.625C147.365 238.146 148.014 237.876 148.691 237.874H298.757C299.434 237.876 300.083 238.146 300.562 238.625C301.041 239.104 301.311 239.753 301.313 240.43V240.43C301.311 241.107 301.041 241.756 300.562 242.235C300.083 242.714 299.434 242.984 298.757 242.986V242.986Z" fill="#6DB6F7"/>
<path d="M373.334 86.1453C373.334 87.4762 373.729 88.7772 374.468 89.8838C375.208 90.9903 376.259 91.8527 377.489 92.3619C378.718 92.8711 380.071 93.0043 381.377 92.7445C382.682 92.4847 383.881 91.8437 384.822 90.9025C385.763 89.9614 386.404 88.7623 386.664 87.4569C386.923 86.1515 386.79 84.7985 386.281 83.5688C385.771 82.3392 384.909 81.2883 383.802 80.5489C382.695 79.8094 381.394 79.4148 380.063 79.4148C379.179 79.4147 378.304 79.5887 377.488 79.9269C376.671 80.2651 375.929 80.7609 375.304 81.3859C374.679 82.0109 374.184 82.7529 373.846 83.5696C373.507 84.3862 373.333 85.2614 373.334 86.1453V86.1453Z" fill="#122043"/>
<path d="M352.219 86.1453C352.22 87.4762 352.614 88.7772 353.354 89.8837C354.094 90.9902 355.145 91.8526 356.374 92.3618C357.604 92.8711 358.957 93.0043 360.262 92.7446C361.567 92.4849 362.766 91.844 363.708 90.9029C364.649 89.9618 365.29 88.7628 365.549 87.4575C365.809 86.1521 365.676 84.7991 365.167 83.5695C364.657 82.3399 363.795 81.2888 362.688 80.5493C361.582 79.8098 360.281 79.415 358.95 79.4148C358.066 79.4147 357.191 79.5887 356.374 79.9269C355.558 80.2651 354.816 80.7608 354.191 81.3858C353.566 82.0108 353.07 82.7529 352.732 83.5695C352.393 84.3861 352.219 85.2614 352.219 86.1453Z" fill="white"/>
<path d="M219.662 79.4148H134.045V92.8749H219.662V79.4148Z" fill="white"/>
<path d="M187.367 165.326H48.5159V359.806H187.367V165.326Z" fill="#838586"/>
<path d="M183.913 163.614H53.6791C49.65 163.614 46.3501 166.245 46.3501 169.467V356.477C46.3501 359.696 49.6463 362.33 53.6791 362.33H183.911C187.939 362.33 191.235 359.699 191.235 356.477V169.467C191.238 166.248 187.942 163.614 183.913 163.614ZM187.366 343.87H50.8293V177.162H187.366V343.87Z" fill="#2A2E2F"/>
<path d="M118.353 358.881C121.681 358.881 124.378 356.183 124.378 352.856C124.378 349.528 121.681 346.83 118.353 346.83C115.025 346.83 112.327 349.528 112.327 352.856C112.327 356.183 115.025 358.881 118.353 358.881Z" fill="#838586"/>
<path d="M118.353 357.698C121.027 357.698 123.195 355.53 123.195 352.856C123.195 350.182 121.027 348.014 118.353 348.014C115.679 348.014 113.511 350.182 113.511 352.856C113.511 355.53 115.679 357.698 118.353 357.698Z" fill="#A9A9A9"/>
<path d="M124.742 171.98H112.183C111.713 171.977 111.263 171.789 110.93 171.457C110.598 171.124 110.41 170.674 110.407 170.204V170.204C110.41 169.734 110.598 169.284 110.93 168.951C111.263 168.619 111.713 168.431 112.183 168.429H124.742C125.212 168.431 125.662 168.619 125.995 168.951C126.327 169.284 126.515 169.734 126.518 170.204V170.204C126.515 170.674 126.328 171.124 125.995 171.457C125.663 171.789 125.212 171.977 124.742 171.98V171.98Z" fill="white"/>
<path d="M178.774 182.155H57.8467V337.607H178.774V182.155Z" fill="#FAFAFA"/>
<path d="M178.774 182.155H57.8467V197.007H178.774V182.155Z" fill="#2995F5"/>
<path d="M165.973 189.581C165.973 190.262 166.174 190.928 166.552 191.495C166.93 192.062 167.468 192.504 168.097 192.765C168.727 193.026 169.419 193.095 170.088 192.962C170.756 192.83 171.37 192.502 171.852 192.021C172.334 191.539 172.663 190.926 172.796 190.258C172.929 189.59 172.862 188.897 172.601 188.267C172.341 187.638 171.9 187.099 171.333 186.72C170.767 186.342 170.101 186.139 169.42 186.139C168.507 186.139 167.631 186.501 166.984 187.146C166.338 187.792 165.974 188.667 165.973 189.581V189.581Z" fill="#FF7B00"/>
<path d="M155.165 189.581C155.164 190.262 155.365 190.929 155.743 191.496C156.121 192.063 156.659 192.505 157.288 192.766C157.918 193.028 158.61 193.097 159.279 192.965C159.947 192.832 160.562 192.505 161.044 192.023C161.527 191.542 161.855 190.929 161.989 190.26C162.123 189.592 162.055 188.899 161.795 188.269C161.535 187.639 161.094 187.101 160.528 186.722C159.962 186.342 159.296 186.14 158.614 186.139C158.162 186.138 157.714 186.227 157.295 186.4C156.877 186.572 156.497 186.826 156.177 187.145C155.856 187.465 155.602 187.845 155.429 188.262C155.255 188.68 155.165 189.128 155.165 189.581V189.581Z" fill="white"/>
<path d="M106.32 185.914H63.5107V192.645H106.32V185.914Z" fill="white"/>
<path d="M298.757 119.069H148.691C148.014 119.067 147.365 118.797 146.886 118.318C146.407 117.839 146.137 117.19 146.135 116.513V116.513C146.137 115.836 146.407 115.187 146.886 114.708C147.365 114.229 148.014 113.959 148.691 113.957H298.757C299.434 113.959 300.083 114.229 300.562 114.708C301.041 115.187 301.311 115.836 301.313 116.513C301.311 117.19 301.041 117.839 300.562 118.318C300.083 118.797 299.434 119.067 298.757 119.069V119.069Z" fill="#6DB6F7"/>
<path d="M313.294 151.923H163.228C162.551 151.921 161.902 151.651 161.423 151.171C160.944 150.692 160.674 150.043 160.673 149.366V149.366C160.675 148.689 160.944 148.04 161.423 147.561C161.902 147.082 162.551 146.812 163.228 146.81H313.294C313.972 146.812 314.621 147.082 315.1 147.561C315.579 148.04 315.849 148.689 315.851 149.366C315.849 150.043 315.579 150.692 315.1 151.172C314.621 151.651 313.972 151.921 313.294 151.923Z" fill="#6DB6F7"/>
<path d="M346.069 119.069H311.831C311.154 119.067 310.505 118.797 310.026 118.318C309.548 117.839 309.278 117.19 309.276 116.513V116.513C309.278 115.836 309.548 115.187 310.026 114.708C310.505 114.229 311.154 113.959 311.831 113.957H346.069C346.746 113.959 347.395 114.229 347.874 114.708C348.353 115.187 348.623 115.836 348.625 116.513V116.513C348.623 117.19 348.353 117.839 347.874 118.318C347.395 118.797 346.746 119.067 346.069 119.069V119.069Z" fill="#6DB6F7"/>
<path d="M148.69 133.256H182.925C183.602 133.254 184.251 132.984 184.73 132.506C185.209 132.027 185.478 131.378 185.48 130.701V130.701C185.478 130.024 185.209 129.375 184.73 128.896C184.251 128.417 183.603 128.147 182.925 128.145H148.69C148.013 128.147 147.364 128.417 146.885 128.896C146.406 129.375 146.137 130.024 146.135 130.701V130.701C146.137 131.378 146.406 132.027 146.885 132.506C147.364 132.984 148.013 133.254 148.69 133.256V133.256Z" fill="#6DB6F7"/>
<path d="M73.3663 218.441H107.601C108.278 218.439 108.927 218.169 109.405 217.691C109.884 217.212 110.154 216.563 110.156 215.886V215.886C110.154 215.209 109.884 214.561 109.406 214.082C108.927 213.603 108.278 213.333 107.601 213.331H73.3663C72.6891 213.333 72.0402 213.603 71.5613 214.081C71.0824 214.56 70.8125 215.209 70.8105 215.886V215.886C70.8128 216.563 71.0828 217.212 71.5616 217.691C72.0405 218.169 72.6893 218.439 73.3663 218.441V218.441Z" fill="#53B6B9"/>
<path d="M130.989 218.441H165.224C165.902 218.439 166.55 218.169 167.029 217.691C167.508 217.212 167.778 216.563 167.78 215.886V215.886C167.778 215.209 167.508 214.56 167.029 214.081C166.551 213.603 165.902 213.333 165.224 213.331H130.989C130.312 213.333 129.664 213.603 129.185 214.082C128.706 214.561 128.437 215.209 128.435 215.886V215.886C128.437 216.563 128.707 217.212 129.185 217.691C129.664 218.169 130.312 218.439 130.989 218.441V218.441Z" fill="#2372B8"/>
<path d="M73.3663 231.241H145.316C145.993 231.239 146.642 230.969 147.12 230.49C147.599 230.012 147.869 229.363 147.871 228.686C147.869 228.009 147.599 227.36 147.121 226.881C146.642 226.402 145.993 226.132 145.316 226.13H73.3663C72.6891 226.132 72.0402 226.402 71.5613 226.881C71.0824 227.36 70.8125 228.009 70.8105 228.686V228.686C70.8128 229.363 71.0828 230.012 71.5616 230.49C72.0405 230.969 72.6893 231.239 73.3663 231.241V231.241Z" fill="#2372B8"/>
<path d="M73.3663 244.049H145.316C145.993 244.047 146.642 243.777 147.121 243.299C147.599 242.82 147.869 242.171 147.871 241.494V241.494C147.869 240.817 147.599 240.168 147.121 239.689C146.642 239.21 145.993 238.941 145.316 238.939H73.3663C72.6892 238.941 72.0403 239.21 71.5614 239.689C71.0825 240.168 70.8125 240.816 70.8105 241.494V241.494C70.8125 242.171 71.0824 242.82 71.5613 243.299C72.0402 243.778 72.6891 244.047 73.3663 244.049Z" fill="#2372B8"/>
<path d="M194.696 133.256H289.508C290.169 133.254 290.802 132.991 291.269 132.524C291.736 132.056 292 131.423 292.002 130.762V130.762C292 130.102 291.736 129.468 291.269 129.001C290.802 128.534 290.169 128.271 289.508 128.269H194.696C194.035 128.27 193.402 128.534 192.934 129.001C192.467 129.468 192.204 130.101 192.202 130.762V130.762C192.204 131.423 192.467 132.056 192.934 132.524C193.402 132.991 194.035 133.254 194.696 133.256V133.256Z" fill="#6DB6F7"/>
<path d="M307.544 130.869C307.544 131.485 307.362 132.087 307.02 132.6C306.678 133.112 306.191 133.511 305.622 133.747C305.053 133.983 304.427 134.045 303.823 133.925C303.219 133.805 302.664 133.508 302.229 133.073C301.793 132.637 301.496 132.082 301.376 131.478C301.256 130.874 301.317 130.248 301.553 129.679C301.789 129.11 302.188 128.624 302.7 128.281C303.212 127.939 303.814 127.756 304.43 127.756C305.256 127.756 306.048 128.084 306.632 128.668C307.216 129.252 307.544 130.044 307.544 130.869Z" fill="#6DB6F7"/>
<path d="M315.11 243.616C316.83 243.616 318.224 242.222 318.224 240.503C318.224 238.783 316.83 237.389 315.11 237.389C313.39 237.389 311.996 238.783 311.996 240.503C311.996 242.222 313.39 243.616 315.11 243.616Z" fill="#6DB6F7"/>
<path d="M369.17 178.622H334.934C334.257 178.62 333.608 178.35 333.129 177.871C332.651 177.392 332.381 176.743 332.379 176.066V176.066C332.381 175.389 332.651 174.74 333.129 174.261C333.608 173.782 334.257 173.512 334.934 173.51H369.17C369.847 173.513 370.495 173.783 370.974 174.261C371.453 174.74 371.722 175.389 371.724 176.066V176.066C371.722 176.743 371.453 177.392 370.974 177.871C370.495 178.35 369.847 178.62 369.17 178.622Z" fill="#6DB6F7"/>
<path d="M325.961 175.736C325.961 176.907 325.614 178.052 324.963 179.025C324.313 179.999 323.388 180.757 322.307 181.205C321.225 181.653 320.035 181.771 318.886 181.542C317.738 181.314 316.683 180.75 315.855 179.922C315.028 179.094 314.464 178.04 314.235 176.891C314.007 175.743 314.124 174.553 314.572 173.471C315.02 172.389 315.779 171.465 316.752 170.814C317.726 170.164 318.87 169.817 320.041 169.817C321.611 169.817 323.117 170.44 324.227 171.551C325.337 172.661 325.961 174.166 325.961 175.736V175.736Z" fill="#6DB6F7"/>
<path d="M369.17 197.35H334.934C334.257 197.348 333.609 197.078 333.13 196.599C332.651 196.12 332.381 195.472 332.379 194.795C332.381 194.118 332.651 193.469 333.129 192.99C333.608 192.511 334.257 192.241 334.934 192.239H369.17C369.847 192.241 370.495 192.511 370.974 192.99C371.453 193.469 371.722 194.118 371.724 194.795V194.795C371.722 195.472 371.452 196.12 370.974 196.599C370.495 197.077 369.846 197.347 369.17 197.35V197.35Z" fill="#6DB6F7"/>
<path d="M325.961 194.461C325.961 195.632 325.614 196.776 324.963 197.75C324.313 198.723 323.388 199.482 322.307 199.93C321.225 200.378 320.035 200.495 318.886 200.267C317.738 200.039 316.683 199.475 315.855 198.647C315.028 197.819 314.464 196.764 314.235 195.616C314.007 194.468 314.124 193.277 314.572 192.196C315.02 191.114 315.779 190.19 316.752 189.539C317.726 188.889 318.87 188.542 320.041 188.542C321.611 188.542 323.117 189.165 324.227 190.275C325.337 191.385 325.961 192.891 325.961 194.461V194.461Z" fill="#6DB6F7"/>
<path d="M369.17 216.074H334.934C334.257 216.072 333.608 215.802 333.129 215.324C332.651 214.845 332.381 214.196 332.379 213.519V213.519C332.381 212.841 332.651 212.193 333.129 211.714C333.608 211.235 334.257 210.965 334.934 210.964H369.17C369.846 210.966 370.495 211.235 370.974 211.714C371.453 212.193 371.722 212.842 371.724 213.519V213.519C371.722 214.196 371.453 214.844 370.974 215.323C370.495 215.802 369.847 216.072 369.17 216.074Z" fill="#6DB6F7"/>
<path d="M325.961 213.186C325.961 214.357 325.614 215.501 324.963 216.475C324.313 217.448 323.388 218.207 322.307 218.655C321.225 219.103 320.035 219.22 318.886 218.992C317.738 218.763 316.683 218.2 315.855 217.372C315.028 216.544 314.464 215.489 314.235 214.341C314.007 213.192 314.124 212.002 314.572 210.921C315.02 209.839 315.779 208.914 316.752 208.264C317.726 207.613 318.87 207.266 320.041 207.266C320.819 207.266 321.588 207.419 322.307 207.717C323.025 208.014 323.677 208.45 324.227 209C324.777 209.55 325.213 210.202 325.51 210.921C325.808 211.639 325.961 212.409 325.961 213.186V213.186Z" fill="#6DB6F7"/>
<path d="M123.88 214.901C123.88 215.516 123.698 216.118 123.355 216.63C123.013 217.142 122.527 217.54 121.958 217.776C121.389 218.011 120.763 218.073 120.16 217.953C119.556 217.832 119.001 217.536 118.566 217.1C118.131 216.665 117.834 216.11 117.714 215.507C117.594 214.903 117.656 214.277 117.892 213.708C118.127 213.139 118.526 212.653 119.038 212.311C119.55 211.969 120.152 211.787 120.767 211.787C121.176 211.787 121.581 211.867 121.959 212.024C122.337 212.18 122.68 212.41 122.969 212.699C123.258 212.988 123.487 213.331 123.644 213.709C123.8 214.087 123.881 214.492 123.88 214.901V214.901Z" fill="#2372B8"/>
<path d="M161.228 241.487C161.228 242.103 161.045 242.705 160.703 243.217C160.361 243.729 159.875 244.128 159.306 244.364C158.737 244.6 158.11 244.661 157.506 244.541C156.902 244.421 156.348 244.124 155.912 243.689C155.477 243.253 155.18 242.699 155.06 242.095C154.94 241.491 155.001 240.864 155.237 240.295C155.473 239.726 155.872 239.24 156.384 238.898C156.896 238.556 157.498 238.373 158.114 238.373C158.94 238.373 159.732 238.701 160.316 239.285C160.9 239.869 161.228 240.661 161.228 241.487V241.487Z" fill="#2372B8"/>
<path d="M152.131 149.621C152.131 150.237 151.948 150.839 151.606 151.351C151.263 151.862 150.777 152.261 150.208 152.497C149.64 152.732 149.014 152.794 148.41 152.674C147.806 152.553 147.251 152.257 146.816 151.821C146.381 151.386 146.085 150.831 145.965 150.227C145.844 149.624 145.906 148.998 146.142 148.429C146.377 147.86 146.776 147.374 147.288 147.032C147.8 146.69 148.402 146.508 149.018 146.508C149.843 146.508 150.635 146.836 151.219 147.42C151.803 148.004 152.131 148.796 152.131 149.621V149.621Z" fill="#6DB6F7"/>
<path d="M293.091 168.114H212.48V226.621H293.091V168.114Z" fill="#FF7B00"/>
<path d="M159.102 261.292H113.73V319.798H159.102V261.292Z" fill="#FF7B00"/>
<path d="M102.89 295.249H78.4907V319.798H102.89V295.249Z" fill="#6DB6F7"/>
<path d="M102.89 263.714H78.4907V288.262H102.89V263.714Z" fill="#6DB6F7"/>
<path d="M3.31897 177.359L1.07422 184.742L8.01519 181.812L31.3779 169.634L3.31897 177.359Z" fill="#CF5B1A"/>
<path d="M1.07422 184.742L13.2263 181.803L9.94424 180.805L1.07422 184.742Z" fill="url(#paint18_linear)"/>
<path d="M3.31874 177.359L0 171.141L31.3777 169.638L3.31874 177.359Z" fill="url(#paint19_linear)"/>
<path d="M31.3766 169.634L8.01392 181.812L13.3857 190.67L31.3766 169.634Z" fill="url(#paint20_linear)"/>
<path d="M4.99351 191.078C4.90196 191.05 4.81879 190.999 4.75125 190.931C4.68371 190.863 4.63386 190.78 4.60605 190.688C4.57824 190.596 4.57333 190.499 4.59173 190.405C4.61013 190.311 4.6513 190.223 4.71163 190.148C5.35 189.357 6.06025 188.626 6.83329 187.966C6.8919 187.916 6.95978 187.878 7.03306 187.854C7.10633 187.83 7.18356 187.821 7.26035 187.827C7.33713 187.833 7.41196 187.854 7.48056 187.889C7.54915 187.924 7.61018 187.973 7.66016 188.031C7.71013 188.09 7.74807 188.158 7.77181 188.231C7.79555 188.304 7.80463 188.382 7.79852 188.458C7.79241 188.535 7.77124 188.61 7.73621 188.679C7.70119 188.747 7.653 188.808 7.59438 188.858C6.87545 189.472 6.21489 190.15 5.62118 190.886C5.5478 190.977 5.44878 191.044 5.33689 191.078C5.22501 191.113 5.1054 191.113 4.99351 191.078V191.078Z" fill="url(#paint21_linear)"/>
<path d="M24.4493 253.01L24.4136 252.998C22.4992 252.266 20.7264 251.207 19.1743 249.869C19.0555 249.768 18.9818 249.624 18.9692 249.468C18.9566 249.313 19.0062 249.159 19.1071 249.04C19.208 248.922 19.352 248.848 19.5073 248.835C19.6627 248.823 19.8166 248.872 19.9354 248.973C21.3824 250.224 23.0356 251.213 24.8214 251.898C24.9625 251.953 25.077 252.06 25.141 252.197C25.2051 252.334 25.2138 252.49 25.1654 252.634C25.1169 252.777 25.015 252.896 24.8809 252.966C24.7468 253.036 24.5909 253.052 24.4456 253.01H24.4493ZM16.8891 247.448C16.7784 247.415 16.6802 247.35 16.6072 247.26C15.3104 245.694 14.2354 243.957 13.4125 242.098C13.3786 242.027 13.3593 241.95 13.3556 241.872C13.3519 241.793 13.364 241.715 13.3912 241.641C13.4184 241.567 13.4601 241.5 13.5138 241.443C13.5675 241.385 13.6321 241.339 13.7039 241.308C13.7757 241.276 13.8532 241.259 13.9317 241.257C14.0102 241.256 14.0882 241.27 14.1611 241.299C14.234 241.329 14.3003 241.372 14.356 241.428C14.4117 241.483 14.4558 241.549 14.4856 241.622C15.2661 243.383 16.2847 245.028 17.513 246.512C17.5936 246.609 17.6407 246.73 17.6473 246.856C17.6538 246.982 17.6196 247.107 17.5497 247.212C17.4797 247.317 17.3777 247.396 17.2589 247.439C17.1401 247.481 17.0107 247.484 16.8901 247.447L16.8891 247.448ZM12.6223 239.063C12.5253 239.033 12.4375 238.979 12.3675 238.906C12.2976 238.832 12.2478 238.742 12.223 238.644L12.1563 238.368C11.7261 236.49 11.4888 234.573 11.4478 232.646C11.449 232.494 11.5095 232.348 11.6165 232.239C11.7234 232.13 11.8685 232.068 12.0209 232.064C12.1734 232.06 12.3213 232.116 12.4333 232.219C12.5454 232.323 12.6128 232.466 12.6214 232.618C12.6602 234.464 12.8875 236.301 13.2998 238.101L13.3618 238.358C13.387 238.459 13.385 238.565 13.3561 238.664C13.3272 238.764 13.2724 238.854 13.1972 238.926C13.1221 238.998 13.0293 239.048 12.9283 239.072C12.8273 239.096 12.7217 239.093 12.6223 239.063V239.063ZM11.9759 229.643C11.8474 229.604 11.7363 229.522 11.6611 229.411C11.5858 229.3 11.551 229.166 11.5624 229.032C11.7394 227.035 12.0534 225.053 12.502 223.099C12.5189 223.024 12.5505 222.952 12.5949 222.889C12.6393 222.826 12.6958 222.773 12.761 222.731C12.8262 222.69 12.8989 222.662 12.9749 222.649C13.0509 222.636 13.1287 222.638 13.2039 222.655C13.355 222.691 13.4861 222.784 13.5691 222.916C13.652 223.047 13.6801 223.205 13.6474 223.357C13.2112 225.259 12.9061 227.188 12.7341 229.131C12.7279 229.208 12.7065 229.283 12.6712 229.351C12.636 229.42 12.5875 229.481 12.5287 229.53C12.4699 229.58 12.4018 229.618 12.3284 229.641C12.2549 229.665 12.1776 229.673 12.1008 229.667C12.0584 229.664 12.0165 229.656 11.9759 229.643ZM13.7912 220.341C13.6436 220.296 13.5196 220.195 13.4461 220.059C13.3726 219.924 13.3555 219.765 13.3984 219.617C13.4388 219.478 13.4783 219.34 13.5197 219.202C12.5717 218.952 11.6444 218.63 10.7459 218.238C10.608 218.173 10.5009 218.056 10.4474 217.913C10.3938 217.77 10.3981 217.612 10.4591 217.472C10.5202 217.333 10.6334 217.222 10.7746 217.164C10.9158 217.106 11.074 217.106 11.2157 217.162C12.0717 217.537 12.9562 217.844 13.8607 218.079C14.2695 216.777 14.7336 215.419 15.2702 213.945C15.3236 213.799 15.4329 213.68 15.574 213.615C15.6438 213.582 15.7193 213.564 15.7963 213.561C15.8732 213.557 15.95 213.569 16.0223 213.596C16.0946 213.622 16.161 213.663 16.2177 213.715C16.2744 213.767 16.3202 213.83 16.3526 213.9C16.3851 213.97 16.4034 214.045 16.4066 214.122C16.4098 214.199 16.3979 214.276 16.3714 214.348C15.8527 215.767 15.4027 217.079 15.0061 218.335C15.5818 218.447 16.1634 218.531 16.751 218.587C16.9034 218.605 17.0426 218.682 17.139 218.801C17.2353 218.921 17.2811 219.073 17.2664 219.226C17.2518 219.379 17.178 219.52 17.0608 219.619C16.9436 219.718 16.7922 219.767 16.6392 219.756C15.9747 219.692 15.314 219.594 14.6594 219.463C14.6124 219.621 14.5661 219.779 14.5203 219.938C14.4769 220.087 14.3759 220.214 14.2396 220.289C14.1032 220.364 13.9426 220.381 13.7931 220.338L13.7912 220.341ZM7.72501 216.506C7.66336 216.488 7.60524 216.459 7.55306 216.422C5.87994 215.224 4.45409 213.714 3.3539 211.975C3.31262 211.909 3.28458 211.837 3.27138 211.761C3.25818 211.685 3.26008 211.607 3.27696 211.532C3.29385 211.456 3.32539 211.385 3.36978 211.322C3.41418 211.259 3.47056 211.205 3.53572 211.164C3.60087 211.123 3.67351 211.095 3.7495 211.082C3.82549 211.068 3.90333 211.07 3.97858 211.087C4.05384 211.104 4.12503 211.136 4.1881 211.18C4.25116 211.224 4.30486 211.281 4.34614 211.346C5.36464 212.959 6.68635 214.359 8.23804 215.469C8.34827 215.551 8.42619 215.669 8.4582 215.803C8.49021 215.936 8.47428 216.077 8.4132 216.2C8.35211 216.323 8.24975 216.421 8.12397 216.476C7.99819 216.531 7.85699 216.541 7.72501 216.503V216.506ZM20.0829 219.749C19.9528 219.709 19.8406 219.625 19.7654 219.512C19.6902 219.399 19.6567 219.263 19.6707 219.127C19.6847 218.992 19.7452 218.866 19.842 218.77C19.9388 218.674 20.0658 218.615 20.2013 218.603C22.1101 218.438 23.9779 217.956 25.7272 217.174C25.868 217.117 26.0257 217.116 26.1669 217.173C26.3082 217.229 26.422 217.338 26.4845 217.477C26.5469 217.616 26.5532 217.773 26.5018 217.916C26.4505 218.06 26.3456 218.177 26.2092 218.245C24.3399 219.082 22.3434 219.6 20.3028 219.777C20.2285 219.783 20.1539 219.774 20.0829 219.752V219.749ZM2.11924 209.037C2.03205 209.011 1.95224 208.964 1.88606 208.901C1.81987 208.838 1.76911 208.761 1.73775 208.676C1.04506 206.753 0.667482 204.731 0.619603 202.687C0.615366 202.532 0.673078 202.381 0.780039 202.268C0.887 202.155 1.03445 202.089 1.18995 202.085C1.34545 202.081 1.49627 202.139 1.60923 202.246C1.72218 202.352 1.78801 202.5 1.79225 202.655C1.83712 204.573 2.19154 206.47 2.8418 208.274C2.87917 208.377 2.88723 208.488 2.86509 208.595C2.84295 208.701 2.79147 208.8 2.71644 208.879C2.64141 208.959 2.54579 209.015 2.4403 209.043C2.33481 209.071 2.22364 209.069 2.11924 209.037V209.037ZM28.8533 216.466C28.749 216.435 28.6553 216.375 28.5828 216.294C28.5103 216.213 28.4619 216.113 28.4429 216.006C28.4239 215.898 28.4351 215.788 28.4752 215.687C28.5153 215.586 28.5828 215.498 28.6701 215.432C29.0618 215.136 29.4381 214.819 29.7976 214.484C30.8157 213.528 31.6487 212.392 32.2548 211.134C32.2864 211.061 32.3322 210.996 32.3896 210.942C32.4469 210.888 32.5146 210.846 32.5885 210.819C32.6625 210.791 32.7412 210.779 32.82 210.783C32.8987 210.786 32.976 210.806 33.0471 210.84C33.1181 210.874 33.1816 210.922 33.2337 210.981C33.2858 211.041 33.3254 211.11 33.3502 211.184C33.375 211.259 33.3845 211.338 33.378 211.417C33.3716 211.496 33.3494 211.572 33.3128 211.642C32.6432 213.032 31.7229 214.286 30.5982 215.341C30.2094 215.705 29.8016 216.047 29.3767 216.367C29.3034 216.424 29.2178 216.462 29.1268 216.479C29.0359 216.497 28.9422 216.492 28.8533 216.466V216.466ZM16.9436 211.399L16.8863 211.378C16.743 211.317 16.6295 211.203 16.5707 211.058C16.5118 210.914 16.5125 210.753 16.5725 210.609C17.3153 208.718 18.3066 206.935 19.5201 205.305C19.5662 205.241 19.6248 205.187 19.6924 205.146C19.76 205.105 19.8352 205.078 19.9135 205.066C19.9917 205.055 20.0715 205.06 20.1479 205.08C20.2243 205.1 20.2959 205.136 20.3582 205.185C20.4206 205.233 20.4725 205.294 20.5108 205.363C20.5491 205.432 20.5731 205.508 20.5813 205.587C20.5894 205.666 20.5816 205.745 20.5583 205.821C20.535 205.896 20.4967 205.966 20.4456 206.027C19.2968 207.575 18.3584 209.268 17.6549 211.063C17.599 211.198 17.4948 211.307 17.3627 211.369C17.2307 211.431 17.0802 211.442 16.9408 211.399H16.9436ZM1.2623 199.686C1.1272 199.645 1.01154 199.556 0.936486 199.436C0.861431 199.317 0.831998 199.174 0.853569 199.034C0.997449 198.117 1.20498 197.211 1.47466 196.322C1.79719 195.259 2.21188 194.227 2.71402 193.236C2.74765 193.165 2.79514 193.101 2.8537 193.049C2.91225 192.997 2.98067 192.957 3.05493 192.932C3.12919 192.906 3.20776 192.896 3.28603 192.902C3.36429 192.907 3.44066 192.928 3.51061 192.964C3.58056 192.999 3.64268 193.049 3.6933 193.109C3.74391 193.169 3.78201 193.238 3.80532 193.313C3.82864 193.388 3.83671 193.467 3.82906 193.545C3.8214 193.623 3.79818 193.699 3.76075 193.768C3.28978 194.697 2.90056 195.666 2.5975 196.663C2.34421 197.5 2.14924 198.352 2.014 199.215C1.98972 199.369 1.90547 199.507 1.77971 199.599C1.65396 199.691 1.49696 199.729 1.34311 199.705C1.31584 199.7 1.28886 199.694 1.2623 199.686V199.686ZM33.5599 208.546C33.4328 208.508 33.3225 208.427 33.2472 208.318C33.1719 208.209 33.136 208.077 33.1455 207.945C33.2782 206.616 32.9044 205.285 32.0988 204.22C31.8176 203.858 31.4856 203.538 31.1131 203.27C30.9868 203.179 30.9018 203.041 30.8768 202.888C30.8519 202.734 30.8891 202.576 30.9802 202.45C31.0712 202.324 31.2088 202.239 31.3625 202.214C31.5163 202.189 31.6736 202.226 31.8 202.317C32.2636 202.651 32.6766 203.05 33.0262 203.501C34.0044 204.796 34.4645 206.409 34.3163 208.025C34.3109 208.102 34.2904 208.177 34.256 208.246C34.2216 208.315 34.174 208.377 34.1158 208.428C34.0576 208.478 33.99 208.517 33.9169 208.541C33.8437 208.566 33.7665 208.576 33.6896 208.57C33.6455 208.568 33.6019 208.559 33.5599 208.546V208.546ZM22.353 203.759C22.2269 203.721 22.1175 203.642 22.043 203.533C21.9988 203.47 21.9675 203.399 21.9509 203.323C21.9343 203.248 21.9327 203.17 21.9462 203.095C21.9597 203.019 21.9881 202.946 22.0297 202.881C22.0713 202.816 22.1253 202.76 22.1886 202.717C23.9427 201.509 26.0525 200.927 28.1777 201.065C28.3331 201.076 28.4776 201.149 28.5795 201.266C28.6813 201.384 28.7322 201.538 28.7208 201.693C28.7095 201.849 28.6369 201.993 28.519 202.095C28.4011 202.197 28.2476 202.248 28.0922 202.236C26.2363 202.125 24.396 202.633 22.8595 203.68C22.7866 203.73 22.7031 203.764 22.6154 203.778C22.5277 203.791 22.438 203.785 22.353 203.759V203.759Z" fill="url(#paint22_linear)"/>
<path d="M27.9598 253.844C27.8208 253.801 27.7028 253.708 27.6286 253.583C27.5544 253.458 27.5292 253.31 27.558 253.167C27.5868 253.024 27.6674 252.898 27.7844 252.811C27.9013 252.725 28.0462 252.684 28.1909 252.699C29.1216 252.796 30.0601 252.788 30.9891 252.676C31.1435 252.657 31.299 252.701 31.4214 252.797C31.5437 252.893 31.623 253.033 31.6417 253.188C31.6604 253.342 31.617 253.498 31.521 253.62C31.4251 253.742 31.2844 253.822 31.1301 253.84C30.1144 253.963 29.0883 253.972 28.0707 253.868C28.0331 253.863 27.996 253.855 27.9598 253.844V253.844Z" fill="url(#paint23_linear)"/>
<path d="M73.3663 218.441H107.601C108.278 218.439 108.927 218.169 109.405 217.691C109.884 217.212 110.154 216.563 110.156 215.886V215.886C110.154 215.209 109.884 214.561 109.406 214.082C108.927 213.603 108.278 213.333 107.601 213.331H73.3663C72.6891 213.333 72.0402 213.603 71.5613 214.081C71.0824 214.56 70.8125 215.209 70.8105 215.886V215.886C70.8128 216.563 71.0828 217.212 71.5616 217.691C72.0405 218.169 72.6893 218.439 73.3663 218.441V218.441Z" fill="#2372B8"/>
<path d="M427.246 185.763C435.55 185.763 442.28 192.185 442.28 200.106V333.98C442.28 341.902 435.548 348.324 427.246 348.324H374.232C365.927 348.324 359.198 341.902 359.198 333.98V200.104C359.198 192.183 365.93 185.761 374.232 185.761L427.246 185.763Z" fill="#C7CCCE"/>
<path d="M428.954 188.32C436.802 188.32 439.997 194.389 439.997 201.875V332.21C439.997 339.697 436.802 345.765 428.954 345.765H373.579C365.731 345.765 361.48 340.653 361.48 333.167V200.919C361.48 193.432 365.731 188.32 373.579 188.32H428.954Z" fill="white"/>
<path d="M438.6 208.234H362.877V325.853H438.6V208.234Z" fill="#838586"/>
<path d="M401.442 341.59C402.46 341.59 403.455 341.288 404.301 340.723C405.147 340.157 405.807 339.353 406.197 338.413C406.586 337.473 406.688 336.438 406.489 335.44C406.291 334.441 405.801 333.524 405.081 332.805C404.361 332.085 403.444 331.595 402.446 331.396C401.448 331.198 400.413 331.3 399.473 331.689C398.532 332.079 397.728 332.738 397.163 333.585C396.597 334.431 396.296 335.426 396.296 336.444C396.296 337.809 396.838 339.118 397.803 340.083C398.768 341.048 400.077 341.59 401.442 341.59Z" fill="#C7CCCE"/>
<path d="M415.028 199.157C415.197 199.157 415.333 198.915 415.333 198.618C415.333 198.321 415.197 198.08 415.028 198.08H386.848C386.679 198.08 386.543 198.321 386.543 198.618C386.543 198.915 386.679 199.157 386.848 199.157H415.028Z" fill="#2A2E2F"/>
<path d="M433.071 214.975H367.599V319.352H433.071V214.975Z" fill="#F2F2F2"/>
<path d="M433.071 214.975H367.599V226.702H433.071V214.975Z" fill="#2995F5"/>
<path d="M422.617 220.839C422.617 221.335 422.765 221.82 423.04 222.233C423.316 222.645 423.708 222.967 424.166 223.157C424.625 223.347 425.129 223.396 425.616 223.3C426.102 223.203 426.549 222.964 426.9 222.613C427.251 222.262 427.49 221.815 427.587 221.329C427.684 220.842 427.634 220.337 427.444 219.879C427.254 219.421 426.933 219.029 426.52 218.753C426.107 218.477 425.622 218.33 425.126 218.33C424.797 218.33 424.47 218.395 424.166 218.521C423.862 218.647 423.585 218.832 423.352 219.065C423.119 219.298 422.934 219.574 422.808 219.879C422.682 220.183 422.617 220.51 422.617 220.839V220.839Z" fill="#F99200"/>
<path d="M414.746 220.839C414.746 221.335 414.893 221.82 415.169 222.233C415.445 222.645 415.837 222.967 416.295 223.157C416.753 223.347 417.258 223.396 417.745 223.3C418.231 223.203 418.678 222.964 419.029 222.613C419.38 222.262 419.619 221.815 419.716 221.329C419.813 220.842 419.763 220.337 419.573 219.879C419.383 219.421 419.062 219.029 418.649 218.753C418.236 218.477 417.751 218.33 417.255 218.33C416.926 218.33 416.599 218.395 416.295 218.521C415.991 218.647 415.714 218.832 415.481 219.065C415.248 219.298 415.063 219.575 414.937 219.879C414.811 220.183 414.746 220.51 414.746 220.839V220.839Z" fill="#FFC630"/>
<path d="M396.43 218.872H371.397V222.807H396.43V218.872Z" fill="white"/>
<path d="M380.513 252.812C380.513 253.428 380.331 254.03 379.989 254.543C379.647 255.055 379.16 255.454 378.591 255.69C378.022 255.926 377.396 255.987 376.792 255.867C376.188 255.747 375.633 255.451 375.197 255.015C374.762 254.58 374.465 254.025 374.345 253.421C374.225 252.816 374.287 252.19 374.523 251.621C374.758 251.052 375.158 250.566 375.67 250.224C376.182 249.882 376.784 249.699 377.4 249.699C378.226 249.7 379.017 250.028 379.601 250.611C380.185 251.195 380.513 251.987 380.513 252.812V252.812Z" fill="#FF7B00"/>
<path d="M411.936 263.726C411.936 264.342 411.753 264.944 411.411 265.455C411.069 265.967 410.583 266.366 410.014 266.602C409.445 266.838 408.82 266.899 408.216 266.779C407.612 266.659 407.057 266.363 406.622 265.928C406.186 265.492 405.89 264.938 405.77 264.334C405.649 263.73 405.711 263.104 405.946 262.535C406.182 261.967 406.581 261.48 407.093 261.138C407.604 260.796 408.206 260.613 408.822 260.613C409.647 260.613 410.439 260.941 411.023 261.525C411.607 262.109 411.935 262.9 411.936 263.726Z" fill="#FF7B00"/>
<path d="M384.113 245.028H418.348C419.025 245.026 419.674 244.756 420.153 244.277C420.631 243.799 420.901 243.15 420.903 242.473V242.473C420.901 241.796 420.631 241.147 420.153 240.668C419.674 240.189 419.025 239.919 418.348 239.917H384.113C383.436 239.919 382.787 240.189 382.308 240.668C381.829 241.147 381.559 241.796 381.557 242.473V242.473C381.559 243.15 381.829 243.799 382.308 244.278C382.787 244.756 383.436 245.026 384.113 245.028V245.028Z" fill="#FF7B00"/>
<path d="M388.054 255.868H422.289C422.966 255.866 423.615 255.597 424.094 255.118C424.573 254.639 424.842 253.99 424.844 253.313V253.313C424.842 252.636 424.573 251.987 424.094 251.508C423.615 251.029 422.967 250.76 422.289 250.758H388.054C387.377 250.76 386.728 251.029 386.249 251.508C385.77 251.987 385.501 252.636 385.499 253.313V253.313C385.501 253.99 385.77 254.639 386.249 255.118C386.728 255.597 387.377 255.866 388.054 255.868V255.868Z" fill="#FF7B00"/>
<path d="M458.631 282.959C458.631 282.959 465.229 295.664 464.765 298.458C464.302 301.253 458.631 306.103 458.631 306.103L457.715 304.521L460.593 298.013L456.886 287.336L458.631 282.959Z" fill="#F7A57A"/>
<path d="M451.559 277.509L452.094 281.146H455.328L455.658 275.559L451.559 277.509Z" fill="#F18C72"/>
<path d="M445.642 293.571V283.318C449.792 280.38 452.723 280.687 452.723 280.687C453.338 280.621 453.956 280.595 454.573 280.612C454.6 280.612 461.52 280.099 460.244 291.06C457.482 300.378 458.808 304.489 458.808 304.489C458.808 304.489 451.579 307.437 447.541 305.358C448.556 303.03 446.686 296.627 445.67 293.519L445.642 293.571Z" fill="#2995F5"/>
<path d="M456.423 279.537C456.423 279.537 459.17 281.149 459.17 283.699C459.128 285.019 458.661 286.29 457.836 287.321C457.25 288.21 456.949 289.256 456.974 290.32C456.998 291.385 457.346 292.416 457.971 293.277L458.03 293.353C458.245 293.618 458.398 293.927 458.477 294.259C458.556 294.591 458.559 294.936 458.485 295.269C457.978 297.689 454.648 298.052 453.36 295.941C452.828 295.072 452.403 294.142 452.094 293.171C451.838 292.573 451.766 291.913 451.888 291.274C452.009 290.635 452.319 290.047 452.776 289.586C452.919 289.455 453.035 289.297 453.116 289.122C453.198 288.946 453.243 288.756 453.251 288.563C453.259 288.369 453.228 288.176 453.161 287.995C453.094 287.813 452.992 287.647 452.86 287.505C451.826 286.442 450.793 284.839 452.094 283.425C453.345 282.116 454.298 280.552 454.889 278.841L456.423 279.537Z" fill="#122043"/>
<path d="M462.549 361.39L460.611 361.726C460.211 359.324 454.188 347.935 453.699 342.019C453.253 337.361 452.563 332.728 451.631 328.142L458.115 326.215C458.115 326.215 459.755 326.215 457.953 339.599C461.997 344.916 463.083 356.983 462.549 361.39Z" fill="#F18C72"/>
<path d="M448.582 268.926L454.559 268.644L455.621 272.762C455.636 272.82 455.643 272.879 455.655 272.937C455.561 272.997 455.467 273.056 455.379 273.125L455.336 273.159L455.292 273.188C454.779 273.592 454.375 274.119 454.12 274.72C453.865 275.321 453.767 275.978 453.834 276.627C453.136 277.061 452.364 277.362 451.556 277.514C451.097 277.64 450.612 277.628 450.159 277.481C448.083 275.512 448.582 268.926 448.582 268.926Z" fill="#F7A57A"/>
<path d="M456.441 278.661C454.889 278.838 457.356 278.661 454.889 278.838C454.82 277.529 450.606 274.123 449.805 273.434C449.22 272.966 448.747 272.374 448.42 271.701C448.092 271.028 447.918 270.29 447.911 269.542C447.911 269.542 451.98 265.156 454.616 266.087C455.383 266.361 456.069 266.823 456.613 267.43C457.156 268.037 457.538 268.77 457.726 269.563C458.019 270.54 458.623 272.208 456.441 278.661Z" fill="#122043"/>
<path d="M457.777 321.35C457.777 321.35 456.256 330.506 454.139 340.298C456.35 346.211 452.981 362.71 452.918 362.652C452.664 362.413 451.5 363.847 451.5 363.847C451.5 363.847 449.043 349.283 448.499 342.718C447.956 336.153 447.126 328.146 447.126 328.146L457.777 321.35Z" fill="#F7A57A"/>
<path d="M453.194 361.726C453.448 361.944 453.649 362.218 453.779 362.526C453.91 362.835 453.967 363.17 453.945 363.504C453.776 364.501 453.538 366.836 453.538 366.836H452.59L452.619 364.659C452.619 364.516 450.584 366.836 450.241 366.836H445.223C445.223 366.836 444.89 365.368 447.836 364.896C450.782 364.424 453.194 361.726 453.194 361.726Z" fill="#002F4C"/>
<path d="M454.891 279.535H456.423C456.767 279.535 457.045 279.256 457.045 278.913V278.765C457.045 278.422 456.767 278.143 456.423 278.143H454.891C454.547 278.143 454.269 278.422 454.269 278.765V278.913C454.269 279.256 454.547 279.535 454.891 279.535Z" fill="#2995F5"/>
<path d="M447.824 303.122C447.824 303.122 446.181 312.366 446.181 316.965C446.181 319.493 447.347 330.221 447.347 330.221C447.347 330.221 456.96 330.503 458.913 330.503C459.162 322.898 461.998 317.885 461.998 311.805C461.998 307.512 458.215 303.766 458.215 303.766L447.824 303.122Z" fill="#1E5A91"/>
<path d="M429.496 292.401L429.928 292.527C430.358 292.651 430.749 292.882 431.067 293.197C431.385 293.512 431.619 293.901 431.747 294.33L431.849 294.672C434.462 295.53 437.147 296.149 439.871 296.521C444.183 284.245 445.642 283.318 445.642 283.318C446.493 283.644 447.22 284.229 447.719 284.992C448.219 285.754 448.465 286.654 448.423 287.564C448.423 290.383 446.544 298.37 442.959 300.87C442.466 301.202 441.894 301.397 441.302 301.438C440.709 301.478 440.117 301.362 439.583 301.101C433.825 298.366 429.763 296.027 429.763 296.027L425.418 293.627L427.338 292.617C428.002 292.268 428.776 292.19 429.496 292.401Z" fill="#F7A57A"/>
<path d="M460.391 360.063L460.524 362.14C460.552 362.577 460.432 363.01 460.182 363.369C459.755 363.96 459.247 364.488 458.673 364.937C460.129 365.407 461.451 363.774 462.15 362.691C462.487 362.161 462.621 361.527 462.526 360.906L462.281 359.271L460.391 360.063Z" fill="#F18C72"/>
<path d="M462.548 361.209C462.548 361.209 463.828 361.323 464.04 362.297C464.253 363.27 464.858 365.24 464.858 365.24L464.16 365.796L463.176 363.844C462.426 364.894 461.606 365.894 460.723 366.836H455.246C455.246 366.836 455.246 365.024 458.673 364.941C461.83 364.866 462.548 361.209 462.548 361.209Z" fill="#122043"/>
<path d="M302.067 316.032L300.094 321.254C299.949 321.608 299.926 322 300.028 322.368C300.13 322.737 300.351 323.061 300.658 323.29C300.988 323.478 301.334 323.637 301.691 323.765C302.05 323.689 304.328 316.638 304.328 316.638L304.306 316.596C304.048 316.266 303.689 316.032 303.283 315.93C302.878 315.828 302.45 315.864 302.067 316.032V316.032Z" fill="#2995F5"/>
<path d="M301.691 323.765L304.327 316.638L304.674 316.838L302.019 323.9L301.691 323.765Z" fill="#122043"/>
<path d="M301.282 318.098L301.109 318.567L302.018 318.742L302.19 318.286L301.282 318.098Z" fill="white"/>
<path d="M300.902 319.106L300.729 319.576L301.639 319.75L301.811 319.295L300.902 319.106Z" fill="white"/>
<path d="M299.879 314.8L302.067 316.032C302.128 316.29 302.115 316.56 302.03 316.81C301.945 317.061 301.791 317.283 301.585 317.45L301.508 317.511L299.093 316.89L299.879 314.8Z" fill="#F7A57A"/>
<path d="M282.407 281.854C283.909 283.703 284.854 285.94 285.132 288.305C285.508 291.043 284.48 295.381 284.368 298.784C284.323 300.248 284.643 301.699 285.302 303.007C285.96 304.314 286.935 305.437 288.137 306.271L299.875 314.8L299.089 316.89C299.089 316.89 283.022 314.481 278.806 307.285C274.59 300.09 273.588 283.801 273.588 283.801L282.407 281.854Z" fill="#1E5A91"/>
<path d="M291.753 272.988L297.79 286.469C297.79 286.469 300.272 286.758 301.347 287.709C301.592 288.038 301.754 288.421 301.821 288.826C301.888 289.231 301.857 289.646 301.731 290.036C301.705 290.181 301.64 290.316 301.545 290.427C301.45 290.539 301.327 290.623 301.189 290.672C301.05 290.721 300.901 290.732 300.757 290.705C300.613 290.677 300.479 290.613 300.368 290.517C299.777 289.933 299.067 289.484 298.286 289.201C297.882 289.157 297.495 289.016 297.158 288.789C296.821 288.562 296.544 288.256 296.352 287.899L287.69 274.315L291.753 272.988Z" fill="#F7A57A"/>
<path d="M261.315 245.876L258.222 243.232L260.62 230.165L264.342 228.262C264.205 228.048 263.998 227.89 263.756 227.814C263.514 227.738 263.253 227.751 263.019 227.849C262.474 228.032 261.893 228.074 261.327 227.973C261.327 227.973 260.631 227.111 261.951 226.528C262.693 226.03 263.189 226.528 265.339 226.443C265.339 226.112 262.506 225.327 262.506 225.327C261.621 225.045 259.366 226.789 259.366 226.789C259.215 226.996 259.117 227.237 259.079 227.491L258.723 229.917C258.723 229.917 253.931 243.071 253.931 244.472C253.931 245.873 256.618 247.801 256.618 247.801L261.315 245.876Z" fill="#F7A57A"/>
<path d="M277.946 283.21C277.946 283.21 279.807 285.452 278.69 290.662C277.978 293.988 274.848 298.174 272.745 301.056C271.242 303.124 271.207 305.723 271.66 308.24C273.381 317.809 270.626 329.491 270.626 329.491H268.394C268.394 329.491 265.044 312.371 264.052 300.339C263.508 293.775 264.841 287.192 267.898 281.358L277.946 283.21Z" fill="#2372B8"/>
<path d="M265.291 225.94L258.279 226.968L258.55 228.821L265.563 227.792L265.291 225.94Z" fill="#F99200"/>
<path d="M257.875 227.029L258.147 228.881L258.787 228.787L258.515 226.935L257.875 227.029Z" fill="white"/>
<path d="M258.282 228.861C257.768 228.933 257.335 228.898 257.212 228.06C257.078 227.145 257.494 227.064 258.007 226.985L258.282 228.861Z" fill="#122043"/>
<path d="M265.564 227.792L266.925 226.974L266.826 226.299L265.292 225.939L265.564 227.792Z" fill="white"/>
<path d="M266.925 226.974L267.517 226.548L266.827 226.3L266.925 226.974Z" fill="#002F4C"/>
<path d="M265.46 227.087L258.683 228.079L258.745 228.5L265.522 227.508L265.46 227.087Z" fill="#EF7100"/>
<path d="M265.326 226.193L258.552 227.186L258.614 227.607L265.388 226.614L265.326 226.193Z" fill="#EF7100"/>
<path d="M283.421 256.759C287.411 259.69 292.107 273.78 292.107 273.78L288.604 275.745L282.904 267.922C282.904 267.922 282.347 276.979 283.713 283.926C283.092 286.531 280.133 286.238 275.336 285.328C272.533 284.819 269.844 283.81 267.397 282.35C267.397 282.35 267.189 269.785 266.569 263.122C265.949 256.459 267.174 255.748 265.494 255.968C261.747 253.839 255.607 246.986 255.607 246.986L261.31 245.876L273.592 253.073C276.982 253.975 280.274 255.209 283.421 256.759V256.759Z" fill="#FF7B00"/>
<path d="M276.463 240.093L273.5 243.019C272.881 243.63 272.426 244.388 272.18 245.222C271.933 246.056 271.903 246.94 272.091 247.789L272.438 249.352L276.463 240.093Z" fill="#F7A57A"/>
<path d="M280.05 238.985C287.246 238.985 284.184 252.798 284.184 252.798C284.184 252.798 282.903 261.758 280.05 265.355C277.581 268.469 272.695 267.533 270.379 266.038C269.255 265.3 267.978 264.828 266.644 264.658C264.683 264.423 262.351 263.557 262.351 260.02C262.351 256.692 266.326 254.118 268.941 252.278C270.64 251.072 271.844 249.291 272.332 247.265C273.168 243.856 275.211 238.985 280.05 238.985Z" fill="#122043"/>
<path d="M270.241 331.973L264.659 331.963C263.918 332.067 263.089 332.349 262.95 333.206C262.891 333.582 262.864 333.962 262.87 334.342C263.068 334.652 270.469 334.3 270.469 334.3L270.501 334.264C270.719 333.908 270.811 333.489 270.764 333.074C270.717 332.659 270.533 332.272 270.241 331.973Z" fill="#2995F5"/>
<path d="M262.868 334.342L270.466 334.301L270.401 334.695H262.856L262.868 334.342Z" fill="#002F4C"/>
<path d="M268.029 331.967H267.526L267.683 332.881H268.171L268.029 331.967Z" fill="white"/>
<path d="M266.952 331.967H266.45L266.607 332.881H267.094L266.952 331.967Z" fill="white"/>
<path d="M270.621 329.491L270.239 331.973C270.019 332.121 269.762 332.204 269.497 332.212C269.233 332.22 268.971 332.154 268.742 332.02L268.658 331.97L268.389 329.491H270.621Z" fill="#F7A57A"/>
<path d="M263.013 227.848C263.247 227.75 263.508 227.738 263.75 227.814C263.992 227.889 264.2 228.048 264.336 228.262L261.86 229.528C261.826 229.513 261.793 229.497 261.758 229.482C261.227 229.243 260.679 229.043 260.118 228.885C261.056 228.468 262.024 228.122 263.013 227.848V227.848Z" fill="#F7A57A"/>
<path d="M24.9702 365.029L32.6591 365.02C33.6795 365.127 34.8202 365.416 35.0082 366.302C35.0902 366.687 35.1274 367.08 35.119 367.473C34.8475 367.793 24.6517 367.431 24.6517 367.431L24.6113 367.391C24.4695 367.217 24.3658 367.014 24.3068 366.797C24.2478 366.58 24.2348 366.353 24.2686 366.131C24.3024 365.909 24.3822 365.696 24.503 365.506C24.6239 365.316 24.783 365.154 24.9702 365.029V365.029Z" fill="#002B49"/>
<path d="M35.1229 367.474L24.6555 367.431L24.7495 367.838H35.1417L35.1229 367.474Z" fill="#122043"/>
<path d="M28.0138 365.02L28.7063 365.024L28.4912 365.964H27.8193L28.0138 365.02Z" fill="white"/>
<path d="M29.4982 365.02L30.1907 365.024L29.9755 365.964H29.3037L29.4982 365.02Z" fill="white"/>
<path d="M24.4419 362.468L24.97 365.029C25.2901 365.184 25.6396 365.268 25.995 365.276C26.3504 365.285 26.7034 365.217 27.0306 365.078L27.148 365.026L27.5182 362.468H24.4419Z" fill="#F7A57A"/>
<path d="M6.99852 365.029L14.6874 365.02C15.7079 365.127 16.8486 365.416 17.0365 366.302C17.1186 366.687 17.1558 367.08 17.1474 367.473C16.8758 367.793 6.67999 367.431 6.67999 367.431L6.63959 367.391C6.49785 367.217 6.39416 367.014 6.33514 366.797C6.27613 366.58 6.2631 366.353 6.29689 366.131C6.33068 365.909 6.41055 365.696 6.53137 365.506C6.65219 365.316 6.81131 365.154 6.99852 365.029V365.029Z" fill="#122043"/>
<path d="M17.1512 367.474L6.68384 367.431L6.7778 367.838H17.17L17.1512 367.474Z" fill="#122043"/>
<path d="M10.0422 365.02L10.7347 365.024L10.5195 365.964H9.84766L10.0422 365.02Z" fill="white"/>
<path d="M11.5265 365.02L12.219 365.024L12.0039 365.964H11.332L11.5265 365.02Z" fill="white"/>
<path d="M7.33454 362.468L7.00098 365.029C7.32113 365.184 7.67061 365.268 8.02599 365.276C8.38137 365.285 8.73445 365.217 9.06157 365.078L9.17902 365.026L10.4109 362.468H7.33454Z" fill="#F7A57A"/>
<path d="M18.8072 276.337L12.4751 280.465L14.4295 285.47C14.4568 285.54 14.4943 285.606 14.5235 285.675C14.6625 285.666 14.8054 285.658 14.9416 285.658C14.9651 285.658 14.9876 285.658 15.0102 285.658C15.0327 285.658 15.0544 285.658 15.0769 285.658C15.9011 285.691 16.7035 285.933 17.4091 286.36C18.1148 286.787 18.7008 287.386 19.1126 288.101C20.1485 288.029 21.1622 287.765 22.1024 287.325C22.666 287.114 23.1559 286.743 23.5119 286.258C24.1903 282.713 18.8072 276.337 18.8072 276.337Z" fill="#F7A57A"/>
<path d="M26.8619 277.631C26.8619 277.631 27.6371 284.981 26.0764 289.659C26.8009 290.288 29.4591 293.14 30.2991 289.443C31.1391 285.747 29.3595 276.334 29.3595 276.334L26.8619 277.631Z" fill="#F7A57A"/>
<path d="M23.0618 277.111L21.5725 278.069L22.1043 279.182L23.7017 278.477L23.0618 277.111Z" fill="#122043"/>
<path d="M22.1816 278.449C22.3301 278.788 22.3414 279.112 22.2051 279.172C22.0689 279.232 21.8377 279.005 21.6883 278.665C21.5389 278.324 21.5286 278 21.6648 277.94C21.8011 277.88 22.036 278.108 22.1816 278.449Z" fill="#122043"/>
<path d="M41.0394 271.69C41.0394 271.676 41.0441 271.663 41.045 271.648C40.6517 270.741 40.1692 269.875 39.6046 269.063C39.0673 268.358 38.6036 267.601 38.2205 266.802L22.8398 276.871L23.8358 278.75L41.045 272.39C41.0258 272.157 41.0239 271.923 41.0394 271.69V271.69Z" fill="#002F4C"/>
<path d="M17.4099 288.107L16.8564 291.562H21.7519L22.1042 287.328L17.4099 288.107Z" fill="#F18C72"/>
<path d="M30.0524 296.681C30.0524 296.681 35.8348 294.839 37.6464 292.359C39.458 289.878 36.392 276.332 36.392 276.332L36.7885 273.889C36.8405 273.566 36.8221 273.236 36.7347 272.921C36.6472 272.606 36.4927 272.313 36.2818 272.063C36.0709 271.814 35.8085 271.612 35.5126 271.473C35.2166 271.334 34.8942 271.261 34.5672 271.258L33.0225 271.244C32.8742 271.242 32.7279 271.278 32.5971 271.348C32.4663 271.418 32.3551 271.519 32.2739 271.644C32.1927 271.768 32.144 271.91 32.1323 272.058C32.1205 272.206 32.1462 272.354 32.2069 272.49L34.2393 277.061C34.2393 277.061 35.7643 287.324 33.6285 288.103C31.868 288.687 30.0459 289.065 28.1985 289.231L30.0524 296.681Z" fill="#F7A57A"/>
<path d="M19.1895 288.107L17.7021 284.808L18.668 284.202C19.0142 283.984 19.2768 283.655 19.4132 283.27C19.5496 282.884 19.5519 282.463 19.4197 282.076L18.3608 278.967C18.3608 278.967 21.3732 278.598 21.282 275.791C21.282 274.346 19.2938 274.338 19.2938 274.338C19.045 274.769 18.6895 275.128 18.2616 275.381C17.8337 275.634 17.3478 275.773 16.8508 275.783C16.0587 275.684 13.8835 275.971 12.4167 278.536C11.4292 280.259 11.8623 282.953 12.7212 284.981C13.4917 286.796 15.4564 287.809 17.4042 288.107H19.1895Z" fill="#002B49"/>
<path d="M13.3095 315.819C13.5861 320.741 14.197 325.638 15.138 330.477C15.5798 332.725 15.4242 335.049 14.687 337.218C11.2339 347.472 6.39575 362.899 6.39575 362.899H10.702C10.702 362.899 20.4581 344.67 22.9716 335.627C25.4851 326.584 25.9164 323.714 25.9164 323.714L22.9246 315.821L13.3095 315.819Z" fill="#2372B8"/>
<path d="M16.9014 283.272C16.8433 283.581 16.8906 283.9 17.0358 284.179C17.181 284.457 17.4156 284.679 17.702 284.808C18.3212 285.137 18.9667 284.983 19.1433 284.464C19.202 284.155 19.155 283.835 19.0099 283.556C18.8649 283.278 18.6302 283.056 18.3437 282.926C17.7245 282.597 17.079 282.753 16.9014 283.272Z" fill="#F7A57A"/>
<path d="M27.3494 315.818H13.3096V297.806C13.3091 295.902 14.0196 294.066 15.3019 292.658C16.5843 291.25 18.346 290.372 20.2421 290.195L30.0057 289.013C30.0057 289.013 31.1539 290.77 34.3524 294.854C31.759 296.383 28.9684 297.551 26.0583 298.324L27.3494 315.818Z" fill="#CF5B1A"/>
<path d="M13.3096 315.819C13.3096 315.819 15.2931 322.996 22.6118 331.041C23.564 331.993 24.3005 333.139 24.7716 334.401C25.2427 335.663 25.4373 337.011 25.3424 338.355L23.8333 362.899H28.195C28.195 362.899 33.518 342.517 32.3698 332.47C31.7665 326.651 30.0614 321.001 27.3456 315.82L13.3096 315.819Z" fill="#1E5A91"/>
<path d="M38.6817 270.021C39.4334 271.588 40.4614 272.659 40.9706 272.414C41.4799 272.168 41.2798 270.7 40.5243 269.133C39.7689 267.565 38.7447 266.495 38.2354 266.74C37.7261 266.986 37.9272 268.455 38.6817 270.021Z" fill="#53B6B9"/>
<path d="M26.2546 274.633L26.3843 274.695C26.8419 274.915 27.3672 274.949 27.8492 274.789L27.9366 274.76C28.3277 274.629 28.6823 274.408 28.9715 274.114C29.2608 273.82 29.4763 273.462 29.6006 273.069C29.6266 272.988 29.6308 272.901 29.6128 272.818C29.5948 272.735 29.5553 272.658 29.4982 272.595C29.4411 272.532 29.3684 272.485 29.2874 272.459C29.2064 272.433 29.12 272.429 29.0369 272.447L28.0634 272.65C27.6847 272.73 27.3529 272.956 27.1407 273.28L26.2546 274.633Z" fill="#F7A57A"/>
<path d="M209.333 97.4282L209.765 100.007C209.373 100.28 208.911 100.434 208.434 100.451C207.957 100.467 207.485 100.346 207.075 100.101L206.924 100.007L206.287 97.4282H209.333Z" fill="#F7A57A"/>
<path d="M188.664 37.7654C190.955 45.3265 198.643 56.9337 198.643 56.9337L192.571 54.4484L188.279 44.5325C188.279 44.5325 186.373 30.2043 188.664 37.7654Z" fill="#A4D1BB"/>
<path d="M205.167 68.1225L209.959 97.6548H205.699C205.699 97.6548 196.137 71.0842 195.133 63.2722C195.133 58.8475 204.799 63.2722 204.799 63.2722L205.167 68.1225Z" fill="#CF5B1A"/>
<path d="M189.308 25.8318L187.719 29.9445L184.279 27.4555L186.601 22.6061L189.308 25.8318Z" fill="#F18C72"/>
<path d="M190.604 26.514C191.045 26.6333 191.511 26.6209 191.946 26.4783C193.94 24.5746 193.454 18.2153 193.454 18.2153L191.225 16.6743L187.715 17.9616L186.696 21.9418C186.566 22.4789 186.572 23.0398 186.713 23.5741C186.854 24.1083 187.125 24.5991 187.503 25.0022V25.0022C188.381 25.7767 189.453 26.2991 190.604 26.514V26.514Z" fill="#F7A57A"/>
<path d="M188.334 19.3008C188.483 18.9917 188.743 18.7499 189.062 18.6232C189.381 18.4966 189.736 18.4943 190.057 18.6167C190.592 18.827 191.143 18.9954 191.704 19.1203C193.082 19.4088 195.65 19.3834 196.088 17.2881C196.526 15.1927 193.802 15.3713 193.802 15.3713L190.181 15.6212C189.109 15.6837 188.038 15.4874 187.058 15.049C186.687 14.9364 186.286 14.9749 185.943 15.1561C185.6 15.3374 185.343 15.6467 185.227 16.0168C184.819 17.1998 185.245 19.2218 185.603 20.5185C185.81 21.2681 186.148 21.975 186.602 22.6063V22.6063L188.334 19.3008Z" fill="#122043"/>
<path d="M186.298 20.2018C186.52 20.1141 186.766 20.1043 186.994 20.1739C187.223 20.2435 187.421 20.3884 187.557 20.5852C187.889 21.0033 187.863 21.5107 187.5 21.7174C187.277 21.8046 187.031 21.8137 186.802 21.7432C186.573 21.6728 186.374 21.5269 186.239 21.3293C185.908 20.9131 185.934 20.4066 186.298 20.2018Z" fill="#F7A57A"/>
<path d="M209.843 99.7341C209.843 99.7341 209.856 102.476 215.363 104.121C216.49 104.459 216.125 104.793 216.337 105.268H209.999L207.518 102.479L206.746 103.142L204.961 101.384C204.961 101.384 205.271 98.8395 206.634 98.8179C207.757 99.2004 209.843 99.7341 209.843 99.7341Z" fill="#122043"/>
<path d="M194.195 96.625L193.162 98.9985C192.703 99.1295 192.216 99.1254 191.759 98.9868C191.302 98.8482 190.895 98.5808 190.586 98.2167L190.472 98.0824L191.305 95.6394L194.195 96.625Z" fill="#F7A57A"/>
<path d="M188.475 28.7938C188.475 28.7938 188.913 28.1182 185.018 26.1046C178.535 31.4774 177.219 54.4492 177.219 54.4492H192.57C193.089 41.6252 188.475 28.7938 188.475 28.7938Z" fill="#2995F5"/>
<path d="M203.642 53.8402C203.675 53.6987 203.662 53.5503 203.605 53.4169C203.547 53.2834 203.448 53.1719 203.323 53.0989L200.821 51.6481C200.201 51.2899 199.472 51.1722 198.771 51.3173L196.059 51.4254L195.703 51.8539L195.14 54.2518C195.685 54.1212 196.004 54.0375 196.004 54.0375L197.726 54.0855C197.726 54.0855 200.978 57.1045 202.588 54.4782C202.655 57.2727 203.474 57.0575 203.474 57.0575L203.642 53.8402Z" fill="#F7A57A"/>
<path d="M177.219 54.4491L176.987 56.3528L176.979 56.4298C176.802 58.198 177.258 59.9716 178.266 61.435C179.274 62.8984 180.769 63.9569 182.484 64.4222C187.623 65.9789 192.929 66.9179 198.29 67.2195C192.501 74.6528 190.899 95.5115 190.899 95.5115L194.629 96.8654L209.035 62.5543C209.251 62.04 209.351 61.4843 209.327 60.927C209.304 60.3696 209.157 59.8243 208.899 59.33C208.641 58.8357 208.276 58.4045 207.832 58.0672C207.387 57.7299 206.874 57.4949 206.329 57.3788L192.57 54.4491H177.219Z" fill="#FF7B00"/>
<path d="M186.817 36.1349C185.108 37.7242 183.585 39.5024 182.277 41.4353C182.049 41.7984 181.943 42.2252 181.975 42.653C182.007 43.0807 182.176 43.4868 182.456 43.8116C185.651 47.493 197.045 51.0288 197.045 51.0288L196.307 55.1838C196.307 55.1838 180.146 52.0051 174.414 46.2574C168.539 40.365 183.727 28.0569 183.727 28.0569" fill="#1E5A91"/>
<path d="M209.681 58.8523L214.466 41.7465L213.588 41.5003L209.025 57.8121L195.289 55.4255L195.133 56.3238L209.681 58.8523Z" fill="#2A2E2F"/>
<path d="M193.393 98.4723C193.393 98.4723 193.177 101.238 198.684 102.883C199.812 103.221 199.446 103.555 199.658 104.03H193.321L190.84 101.24L190.068 101.904L188.282 100.146C188.282 100.146 189.118 97.6012 190.48 97.5796C191.596 97.963 193.393 98.4723 193.393 98.4723Z" fill="#122043"/>
<path d="M367.36 363.036C367.36 363.036 368.037 363.976 371.231 364.788C371.934 364.967 372.692 365.089 372.692 366.249H369.54L366.316 365.691V366.249H364.579C364.579 366.249 364.094 363.402 365.111 363.036H367.36Z" fill="#122043"/>
<path d="M367.526 360.992L367.36 363.036C367.049 363.252 366.683 363.373 366.304 363.386C365.926 363.399 365.552 363.302 365.227 363.109L365.108 363.036V360.992H367.526Z" fill="#F7A57A"/>
<path d="M351.191 363.445C351.191 363.445 351.869 364.385 355.062 365.197C355.765 365.375 356.523 365.497 356.523 366.658H353.371L350.147 366.1V366.658H348.407C348.407 366.658 347.922 363.811 348.939 363.445H351.191Z" fill="#122043"/>
<path d="M351.356 361.4L351.191 363.444C350.88 363.66 350.513 363.782 350.135 363.794C349.757 363.807 349.383 363.71 349.058 363.516L348.939 363.444V361.4H351.356Z" fill="#F7A57A"/>
<path d="M368.807 310.733L368.022 362.099H364.28C364.28 362.099 358.584 320.628 359.8 310.733C361.015 300.838 368.807 310.733 368.807 310.733Z" fill="#122043"/>
<path d="M364.855 310.724C364.855 310.724 363.552 326.504 360.56 335.239C357.568 343.974 352.165 362.102 352.165 362.102H348.292C348.292 362.102 354.76 324.218 353.28 310.724H364.855V310.724Z" fill="#002B49"/>
<path d="M368.228 284.579C368.228 284.579 372.839 295.335 374.01 295.335C374.95 295.335 373.659 286.552 373.659 286.552H377.521C377.521 286.552 382.379 301.605 378.516 304.355C374.654 307.106 366.167 296.572 366.167 296.572L368.228 284.579Z" fill="#6DB6F7"/>
<path d="M354.474 312.09L355.873 315.546C356.545 316.903 359.019 316.938 360.665 316.507C360.722 316.491 360.774 316.462 360.816 316.42C360.858 316.379 360.889 316.327 360.905 316.27C360.921 316.214 360.923 316.153 360.909 316.096C360.895 316.039 360.866 315.986 360.825 315.943C359.558 314.498 358.204 313.131 356.771 311.851L354.474 312.09Z" fill="#F7A57A"/>
<path d="M366.167 282.356C366.167 282.356 368.576 283.989 368.576 285.863V310.721H354.462V287.483C354.462 287.483 354.751 282.315 359.803 282.315C364.854 282.315 366.167 282.356 366.167 282.356Z" fill="#9CCDF8"/>
<path d="M361.052 276.812V282.675C361.381 283.085 361.797 283.417 362.27 283.649C362.743 283.88 363.261 284.004 363.787 284.013C365.548 284.013 365.548 282.743 365.548 282.743V278.985L362.942 278.306L361.052 276.812Z" fill="#F18C72"/>
<path d="M365.772 280.095C366.233 280.123 366.691 280.004 367.08 279.755C368.644 277.263 366.862 270.547 366.862 270.547L361.188 271.564L361.008 276.061C360.984 276.653 361.1 277.243 361.347 277.783C361.593 278.322 361.963 278.796 362.426 279.166V279.166C363.427 279.795 364.59 280.118 365.772 280.095V280.095Z" fill="#F7A57A"/>
<path d="M363.857 271.681C365.137 271.888 366.442 271.888 367.723 271.681C369.704 271.329 368.436 269.144 368.436 269.144C367.127 269.598 365.722 269.695 364.363 269.426C362.605 269.166 362.131 268.825 361.003 269.426C359.472 270.242 359.842 273.012 359.842 273.012L360.688 278.872H361.003C361.003 278.872 361.081 275.388 361.081 274.201C361.413 273.662 361.772 273.662 362.048 273.796C362.194 273.873 362.315 273.99 362.398 274.132C362.48 274.274 362.522 274.437 362.518 274.601V280.685C362.518 280.685 366.392 282.355 367.379 282.053C368.365 281.75 367.706 277.242 367.706 277.242C367.359 277.107 366.98 277.082 366.619 277.17C366.258 277.259 365.933 277.456 365.687 277.735C364.815 278.712 363.756 277.695 363.756 277.695L363.857 271.681Z" fill="#122043"/>
<path d="M376.78 286.552L376.643 285.81C376.429 284.889 376.007 284.03 375.408 283.298C374.81 282.566 374.051 281.981 373.191 281.588H371.552L372.06 285.091L374.373 286.551L376.78 286.552Z" fill="#F7A57A"/>
<path d="M361.557 273.647C361.8 273.66 362.029 273.762 362.201 273.934C362.373 274.106 362.477 274.335 362.491 274.578C362.522 274.69 362.53 274.807 362.514 274.922C362.498 275.037 362.459 275.148 362.398 275.247C362.338 275.347 362.258 275.433 362.164 275.5C362.069 275.568 361.962 275.615 361.848 275.64C361.605 275.626 361.376 275.524 361.203 275.352C361.031 275.18 360.928 274.951 360.914 274.708C360.883 274.596 360.875 274.479 360.891 274.364C360.907 274.249 360.946 274.138 361.006 274.039C361.067 273.939 361.146 273.853 361.241 273.786C361.336 273.718 361.443 273.671 361.557 273.647V273.647Z" fill="#F7A57A"/>
<path d="M372.736 284.705L375.93 286.554C375.93 286.554 373.926 286.533 373.893 286.554L370.511 283.725C370.511 283.725 370.756 283.231 371.522 283.648C371.996 283.912 372.409 284.272 372.736 284.705Z" fill="#F7A57A"/>
<path d="M355.964 283.87C355.964 283.87 347.985 292.735 347.985 298.048C347.985 303.36 354.462 312.725 354.462 312.725L357.657 311.785C357.657 311.785 354.769 300.197 354.769 297.114C354.769 294.031 360.7 289.512 360.7 289.512" fill="#6DB6F7"/>
<path d="M370.598 278.901C370.262 281.076 370.786 283.297 372.06 285.092C372.209 285.275 372.422 285.394 372.657 285.424C373.034 285.453 373.412 285.39 373.76 285.242C373.898 285.212 374.029 285.154 374.144 285.072C374.259 284.99 374.356 284.884 374.428 284.762C374.464 284.689 374.478 284.606 374.47 284.525C374.462 284.443 374.431 284.365 374.382 284.3C373.951 283.659 372.623 281.457 373.228 279.508C372.852 279.236 372.426 279.042 371.974 278.938C371.523 278.834 371.055 278.821 370.598 278.901Z" fill="#F4872E"/>
<path d="M374.054 285.121C374.137 285.089 374.213 285.041 374.278 284.979C374.342 284.918 374.394 284.844 374.43 284.762C374.466 284.688 374.48 284.606 374.472 284.525C374.464 284.443 374.434 284.365 374.384 284.3C373.953 283.659 372.625 281.457 373.23 279.508C372.864 279.218 372.434 279.02 371.976 278.931C371.908 281.071 372.365 282.502 374.054 285.121Z" fill="#FDA630"/>
<path d="M372.491 281.733C372.592 282.225 372.831 282.59 373.024 282.551C373.216 282.512 373.291 282.081 373.191 281.589C373.09 281.096 372.852 280.732 372.658 280.771C372.465 280.811 372.39 281.241 372.491 281.733Z" fill="#F4872E"/>
<path d="M372.62 280.785L372.823 280.737L372.808 280.839L372.672 280.893L372.62 280.785Z" fill="#F4872E"/>
<path d="M372.977 282.551L373.224 282.503L372.942 282.462L372.977 282.551Z" fill="#DE1D4C"/>
<path d="M372.66 281.698C372.76 282.19 372.999 282.556 373.192 282.516C373.386 282.477 373.46 282.047 373.359 281.554C373.257 281.062 373.02 280.697 372.826 280.737C372.632 280.776 372.555 281.207 372.66 281.698Z" fill="#FFC630"/>
<path d="M369.736 276.007H369.36C369.02 276 368.691 276.127 368.445 276.362C368.198 276.597 368.055 276.919 368.045 277.259V278.253C368.055 278.594 368.198 278.916 368.445 279.151C368.691 279.385 369.02 279.513 369.36 279.506H369.736V276.007Z" fill="#FFC630"/>
<path d="M381.304 276.992C381.304 279.707 380.679 281.908 379.91 281.908C379.14 281.908 378.515 279.707 378.515 276.992C378.515 274.276 379.14 272.076 379.91 272.076C380.679 272.076 381.304 274.275 381.304 276.992Z" fill="#122043"/>
<path d="M378.451 275.18L379.553 275.897V277.488L378.417 278.521L378.024 276.454L378.451 275.18Z" fill="white"/>
<path d="M378.511 276.992C378.511 274.71 378.953 272.797 379.551 272.243C376.563 274.301 373.121 275.606 369.519 276.045V279.515C369.519 279.515 376.841 279.103 379.551 281.747H379.555C378.955 281.189 378.511 279.275 378.511 276.992Z" fill="#F99200"/>
<path d="M379.706 276.689C379.706 277.13 379.639 277.488 379.556 277.488C379.473 277.488 379.405 277.13 379.405 276.689C379.405 276.248 379.472 275.89 379.556 275.89C379.64 275.89 379.706 276.248 379.706 276.689Z" fill="#FFC630"/>
<path d="M375.009 284.008C374.446 284.249 373.833 284.349 373.223 284.299C372.294 284.299 371.876 283.158 371.72 282.536C371.665 282.318 371.616 282.007 371.888 281.867L373.381 281.661L375.009 284.008Z" fill="#F7A57A"/>
<defs>
<linearGradient id="paint0_linear" x1="348.161" y1="25.1072" x2="351.244" y2="13.1863" gradientUnits="userSpaceOnUse">
<stop offset="0.00309044" stop-color="#FF7B00"/>
<stop offset="1" stop-color="#FFA653"/>
</linearGradient>
<linearGradient id="paint1_linear" x1="348.535" y1="27.6941" x2="349.312" y2="21.5205" gradientUnits="userSpaceOnUse">
<stop offset="0.00309044" stop-color="#FF7B00"/>
<stop offset="1" stop-color="#FFA653"/>
</linearGradient>
<linearGradient id="paint2_linear" x1="457.981" y1="95.0816" x2="459.164" y2="92.259" gradientUnits="userSpaceOnUse">
<stop offset="0.00309044" stop-color="#FF7B00"/>
<stop offset="1" stop-color="#FFA653"/>
</linearGradient>
<linearGradient id="paint3_linear" x1="382.234" y1="15.9951" x2="382.713" y2="14.0518" gradientUnits="userSpaceOnUse">
<stop offset="0.00309044" stop-color="#FF7B00"/>
<stop offset="1" stop-color="#FFA653"/>
</linearGradient>
<linearGradient id="paint4_linear" x1="391.02" y1="14.7659" x2="391.242" y2="13.4139" gradientUnits="userSpaceOnUse">
<stop offset="0.00309044" stop-color="#FF7B00"/>
<stop offset="1" stop-color="#FFA653"/>
</linearGradient>
<linearGradient id="paint5_linear" x1="450.382" y1="91.3583" x2="452.639" y2="88.1279" gradientUnits="userSpaceOnUse">
<stop offset="0.00309044" stop-color="#FF7B00"/>
<stop offset="1" stop-color="#FFA653"/>
</linearGradient>
<linearGradient id="paint6_linear" x1="444.394" y1="85.4594" x2="447.353" y2="82.7946" gradientUnits="userSpaceOnUse">
<stop offset="0.00309044" stop-color="#FF7B00"/>
<stop offset="1" stop-color="#FFA653"/>
</linearGradient>
<linearGradient id="paint7_linear" x1="440.51" y1="77.9079" x2="443.292" y2="76.408" gradientUnits="userSpaceOnUse">
<stop offset="0.00309044" stop-color="#FF7B00"/>
<stop offset="1" stop-color="#FFA653"/>
</linearGradient>
<linearGradient id="paint8_linear" x1="429.03" y1="35.371" x2="431.958" y2="32.6092" gradientUnits="userSpaceOnUse">
<stop offset="0.00309044" stop-color="#FF7B00"/>
<stop offset="1" stop-color="#FFA653"/>
</linearGradient>
<linearGradient id="paint9_linear" x1="433.354" y1="43.3167" x2="436.319" y2="41.3628" gradientUnits="userSpaceOnUse">
<stop offset="0.00309044" stop-color="#FF7B00"/>
<stop offset="1" stop-color="#FFA653"/>
</linearGradient>
<linearGradient id="paint10_linear" x1="423.233" y1="28.3901" x2="425.698" y2="25.2058" gradientUnits="userSpaceOnUse">
<stop offset="0.00309044" stop-color="#FF7B00"/>
<stop offset="1" stop-color="#FFA653"/>
</linearGradient>
<linearGradient id="paint11_linear" x1="408.351" y1="18.2198" x2="409.426" y2="15.4862" gradientUnits="userSpaceOnUse">
<stop offset="0.00309044" stop-color="#FF7B00"/>
<stop offset="1" stop-color="#FFA653"/>
</linearGradient>
<linearGradient id="paint12_linear" x1="437.347" y1="60.6648" x2="439.379" y2="60.001" gradientUnits="userSpaceOnUse">
<stop offset="0.00309044" stop-color="#FF7B00"/>
<stop offset="1" stop-color="#FFA653"/>
</linearGradient>
<linearGradient id="paint13_linear" x1="416.256" y1="22.6024" x2="418.054" y2="19.4298" gradientUnits="userSpaceOnUse">
<stop offset="0.00309044" stop-color="#FF7B00"/>
<stop offset="1" stop-color="#FFA653"/>
</linearGradient>
<linearGradient id="paint14_linear" x1="438.492" y1="69.4235" x2="440.683" y2="68.6354" gradientUnits="userSpaceOnUse">
<stop offset="0.00309044" stop-color="#FF7B00"/>
<stop offset="1" stop-color="#FFA653"/>
</linearGradient>
<linearGradient id="paint15_linear" x1="466.506" y1="96.5483" x2="466.915" y2="94.7419" gradientUnits="userSpaceOnUse">
<stop offset="0.00309044" stop-color="#FF7B00"/>
<stop offset="1" stop-color="#FFA653"/>
</linearGradient>
<linearGradient id="paint16_linear" x1="435.981" y1="51.8934" x2="438.425" y2="50.8611" gradientUnits="userSpaceOnUse">
<stop offset="0.00309044" stop-color="#FF7B00"/>
<stop offset="1" stop-color="#FFA653"/>
</linearGradient>
<linearGradient id="paint17_linear" x1="399.832" y1="15.4728" x2="400.27" y2="13.6089" gradientUnits="userSpaceOnUse">
<stop offset="0.00309044" stop-color="#FF7B00"/>
<stop offset="1" stop-color="#FFA653"/>
</linearGradient>
<linearGradient id="paint18_linear" x1="7.72894" y1="184.836" x2="8.7531" y2="180.984" gradientUnits="userSpaceOnUse">
<stop offset="0.00309044" stop-color="#FF7B00"/>
<stop offset="1" stop-color="#FFA653"/>
</linearGradient>
<linearGradient id="paint19_linear" x1="17.183" y1="177.543" x2="18.7527" y2="169.771" gradientUnits="userSpaceOnUse">
<stop offset="0.00309044" stop-color="#FF7B00"/>
<stop offset="1" stop-color="#FFA653"/>
</linearGradient>
<linearGradient id="paint20_linear" x1="20.8078" y1="191.171" x2="31.3409" y2="176.916" gradientUnits="userSpaceOnUse">
<stop offset="0.00309044" stop-color="#FF7B00"/>
<stop offset="1" stop-color="#FFA653"/>
</linearGradient>
<linearGradient id="paint21_linear" x1="6.3439" y1="191.182" x2="8.03414" y2="189.16" gradientUnits="userSpaceOnUse">
<stop offset="0.00309044" stop-color="#FF7B00"/>
<stop offset="1" stop-color="#FFA653"/>
</linearGradient>
<linearGradient id="paint22_linear" x1="19.0874" y1="254.465" x2="48.4337" y2="234.409" gradientUnits="userSpaceOnUse">
<stop offset="0.00309044" stop-color="#FF7B00"/>
<stop offset="1" stop-color="#FFA653"/>
</linearGradient>
<linearGradient id="paint23_linear" x1="29.7914" y1="253.97" x2="30.1079" y2="252.722" gradientUnits="userSpaceOnUse">
<stop offset="0.00309044" stop-color="#FF7B00"/>
<stop offset="1" stop-color="#FFA653"/>
</linearGradient>
</defs>
</svg>
