<svg width="40" height="40" viewBox="0 0 40 40" fill="none" xmlns="http://www.w3.org/2000/svg">
<path fill-rule="evenodd" clip-rule="evenodd" d="M39.488 24.4244C41.0778 17.5554 38.8659 10.6519 34.2347 5.95746L36.9304 4.40416C38.0018 3.81736 38.3474 2.47118 37.7599 1.40113C37.1724 0.3656 35.8245 -0.0140938 34.7531 0.572706L30.5712 3.02346C28.7395 1.88438 26.7004 1.02144 24.4539 0.503671C13.7054 -1.94708 2.95691 4.78386 0.503076 15.5188C-1.08673 22.4914 1.1943 29.4295 5.8946 34.1239L2.81867 35.8843C1.74727 36.4711 1.40166 37.8172 1.9892 38.8873C2.30025 39.4051 2.78411 39.7847 3.30252 39.9228C3.8555 40.0609 4.44304 40.0264 4.96145 39.7157L9.59264 37.0924C11.1479 38.0243 12.8414 38.7837 14.6386 39.267C14.915 39.336 15.1915 39.4051 15.5026 39.4741C20.7213 40.6477 26.0783 39.7502 30.6058 36.9198C35.1678 34.0548 38.3129 29.6366 39.488 24.4244ZM4.75443 16.4853C6.65529 8.09754 15.0536 2.85085 23.452 4.74933C23.6939 4.78384 23.9013 4.85288 24.1086 4.92191C24.7653 5.0945 25.3874 5.33612 25.9749 5.57775L11.1137 14.0691C8.27965 15.6914 7.27738 19.3158 8.90175 22.1462C10.5261 24.9767 14.155 25.9777 16.989 24.3553L25.1455 19.6955C25.8712 19.2813 26.8044 19.5229 27.2537 20.2823C27.461 20.6274 27.4956 21.0417 27.3919 21.4559C27.2882 21.8356 27.0117 22.1807 26.6661 22.3878L9.93859 31.8802C5.58389 28.2213 3.44111 22.3533 4.75443 16.4853ZM16.5062 35.1592C20.5845 36.0912 24.7663 35.3663 28.2916 33.1572C31.8168 30.9481 34.2706 27.4963 35.1692 23.4232C36.5171 17.6243 34.4089 11.8598 30.227 8.20094L13.2575 17.8314C12.4972 18.2801 12.2552 19.2121 12.67 19.9369C13.1193 20.6963 14.0524 20.938 14.7782 20.5237L22.9346 15.8639C25.7686 14.2415 29.3975 15.2425 31.0219 18.073C32.6463 20.9034 31.644 24.5278 28.81 26.1501L14.2252 34.4344C14.7436 34.6415 15.2966 34.8486 15.8496 34.9866C16.057 35.0557 16.2643 35.1247 16.5062 35.1592Z" fill="white"/>
</svg>
