<svg width="270" height="36" viewBox="0 0 270 36" fill="none" xmlns="http://www.w3.org/2000/svg">
<path fill-rule="evenodd" clip-rule="evenodd" d="M50.7011 26.2902C49.3732 25.9098 48.2913 25.4344 47.5044 24.8164L48.9306 21.7738C49.7175 22.3443 50.6028 22.7721 51.6847 23.1049C52.7667 23.4377 53.7995 23.5803 54.8814 23.5803C56.0618 23.5803 56.947 23.3902 57.488 23.0574C58.0782 22.7246 58.3241 22.2492 58.3241 21.6787C58.3241 21.2508 58.1765 20.918 57.8323 20.6328C57.488 20.3475 57.0454 20.1574 56.5536 19.9672C56.0126 19.8246 55.3241 19.6344 54.4388 19.3967C53.0618 19.0639 51.9306 18.7787 51.0454 18.4459C50.1601 18.1131 49.4224 17.6377 48.7831 16.9246C48.1437 16.2115 47.8487 15.3082 47.8487 14.1197C47.8487 13.1213 48.1437 12.1705 48.6847 11.3623C49.2749 10.5541 50.111 9.88852 51.2421 9.41311C52.3732 8.9377 53.7995 8.7 55.4224 8.7C56.5536 8.7 57.6847 8.84262 58.8159 9.08032C59.8978 9.36557 60.8814 9.7459 61.7175 10.2213L60.4388 13.3115C58.7667 12.4082 57.0946 11.9328 55.4224 11.9328C54.2421 11.9328 53.406 12.1229 52.8159 12.5033C52.2749 12.8836 51.9798 13.359 51.9798 13.9295C51.9798 14.5475 52.3241 14.9754 52.9634 15.2607C53.6028 15.5459 54.5864 15.8311 55.9142 16.1164C57.2913 16.4492 58.4224 16.7344 59.3077 17.0672C60.1929 17.4 60.9306 17.8754 61.57 18.541C62.2093 19.2066 62.5044 20.1574 62.5044 21.2984C62.5044 22.2967 62.2093 23.2 61.6191 24.0082C61.029 24.8164 60.1929 25.482 59.0126 25.9574C57.8814 26.4328 56.4552 26.6705 54.8323 26.6705C53.406 26.8131 52.029 26.6705 50.7011 26.2902Z" fill="#4B4B4B"/>
<path fill-rule="evenodd" clip-rule="evenodd" d="M83.9506 23.2951V26.5279H69.9834V9.08032H83.6064V12.3131H74.1145V16.1164H82.4752V19.2541H74.1145V23.2951H83.9506Z" fill="#4B4B4B"/>
<path fill-rule="evenodd" clip-rule="evenodd" d="M95.5537 25.6721C94.0783 24.9115 92.898 23.818 92.0619 22.4393C91.2258 21.0607 90.7832 19.5393 90.7832 17.7803C90.7832 16.0689 91.2258 14.5 92.0619 13.1213C92.898 11.7426 94.0783 10.6967 95.5537 9.88853C97.0291 9.12787 98.7012 8.74754 100.57 8.74754C102.144 8.74754 103.57 9.03279 104.8 9.55574C106.078 10.0787 107.111 10.8393 107.996 11.8377L105.291 14.2148C104.062 12.8361 102.537 12.1705 100.767 12.1705C99.6357 12.1705 98.6521 12.4082 97.7668 12.8836C96.8816 13.359 96.193 14.0246 95.7012 14.8803C95.2094 15.7361 94.9635 16.6869 94.9635 17.7803C94.9635 18.8738 95.2094 19.8246 95.7012 20.6803C96.193 21.5361 96.8816 22.2016 97.7668 22.6771C98.6521 23.1525 99.6357 23.3902 100.767 23.3902C102.586 23.3902 104.062 22.6771 105.291 21.2984L107.996 23.6754C107.16 24.6738 106.078 25.482 104.8 26.0049C103.521 26.5279 102.095 26.8131 100.521 26.8131C98.7012 26.8131 97.0291 26.4328 95.5537 25.6721Z" fill="#4B4B4B"/>
<path fill-rule="evenodd" clip-rule="evenodd" d="M117.293 24.7688C115.867 23.3902 115.129 21.441 115.129 18.8738V9.08032H119.309V18.6836C119.309 21.8213 120.637 23.3902 123.342 23.3902C124.67 23.3902 125.654 23.0098 126.342 22.2492C127.031 21.4885 127.375 20.3 127.375 18.6836V9.08032H131.506V18.8738C131.506 21.441 130.768 23.3902 129.342 24.7688C127.916 26.1475 125.899 26.8607 123.342 26.8607C120.785 26.8607 118.719 26.1475 117.293 24.7688Z" fill="#4B4B4B"/>
<path fill-rule="evenodd" clip-rule="evenodd" d="M148.277 21.6787L151.769 26.5279H156.195L152.162 20.918C153.343 20.4426 154.277 19.7295 154.916 18.7787C155.556 17.8279 155.9 16.6869 155.9 15.4033C155.9 14.1197 155.605 12.9787 154.966 12.0279C154.326 11.077 153.441 10.3639 152.261 9.84098C151.08 9.31803 149.703 9.08032 148.08 9.08032H140.261V26.5279H144.441V21.6787H148.08H148.277ZM147.835 12.3606C149.065 12.3606 150.049 12.6459 150.688 13.1688C151.376 13.6918 151.671 14.4525 151.671 15.4033C151.671 16.3541 151.327 17.1147 150.688 17.6377C150.049 18.1607 149.114 18.4459 147.835 18.4459H144.442V12.3606H147.835Z" fill="#4B4B4B"/>
<path fill-rule="evenodd" clip-rule="evenodd" d="M177.836 23.2951V26.5279H163.869V9.08032H177.492V12.3131H168V16.1164H176.36V19.2541H168V23.2951H177.836Z" fill="#4B4B4B"/>
<path fill-rule="evenodd" clip-rule="evenodd" d="M188.26 22.1541H197.85L199.867 26.5279H202.572L194.358 9.08032H191.801L183.637 26.5279H186.293L188.26 22.1541ZM193.081 11.6L196.966 20.1574H189.196L193.081 11.6Z" fill="#4B4B4B"/>
<path fill-rule="evenodd" clip-rule="evenodd" d="M211.377 24.7213C210.049 23.3902 209.36 21.4885 209.36 18.9689V9.08032H211.918V18.9213C211.918 22.677 213.59 24.5311 216.983 24.5311C218.655 24.5311 219.885 24.0557 220.77 23.1525C221.655 22.2492 222.098 20.8229 222.098 18.9213V9.08032H224.606V19.0164C224.606 21.5361 223.918 23.4377 222.59 24.7689C221.262 26.1 219.393 26.7656 216.983 26.7656C214.573 26.718 212.705 26.0525 211.377 24.7213Z" fill="#4B4B4B"/>
<path fill-rule="evenodd" clip-rule="evenodd" d="M237.783 11.2672H231.635V9.08032H246.586V11.2672H240.389V26.5754H237.832V11.2672H237.783Z" fill="#4B4B4B"/>
<path fill-rule="evenodd" clip-rule="evenodd" d="M269.557 9.08032V26.5279H267V18.7787H256.623V26.5754H254.065V9.08032H256.623V16.5918H267V9.08032H269.557Z" fill="#4B4B4B"/>
<path fill-rule="evenodd" clip-rule="evenodd" d="M36.2472 21.7262C37.6734 15.6885 35.657 9.60328 31.4767 5.46721L33.9357 4.13606C34.9193 3.61311 35.2144 2.42459 34.6734 1.52131C34.1324 0.618032 32.9029 0.285245 31.9685 0.808196L28.0833 2.85246C26.4603 1.8541 24.5914 1.09344 22.5259 0.665573C12.739 -1.47377 2.9521 4.42131 0.738988 13.882C-0.687241 20.0148 1.37833 26.1475 5.65702 30.2836L2.85374 31.8049C1.87014 32.3279 1.57505 33.5164 2.11604 34.4197C2.41112 34.8951 2.85374 35.1803 3.34555 35.323C3.83735 35.4656 4.37833 35.418 4.87014 35.1328L9.09964 32.8033C10.5259 33.6115 12.0505 34.2771 13.6734 34.7049C13.7964 34.7287 13.9316 34.7643 14.0669 34.8C14.2021 34.8357 14.3373 34.8713 14.4603 34.8951C19.1816 35.941 24.0996 35.1328 28.1816 32.6607C32.2636 30.1885 35.1652 26.2902 36.2472 21.7262ZM4.6255 14.7377C6.39599 7.36885 14.0189 2.70984 21.6419 4.42131L22.2321 4.56393C22.8222 4.70656 23.4124 4.89672 23.9534 5.13442L10.3796 12.5984C7.77304 14.0246 6.88779 17.2098 8.3632 19.682C9.83861 22.2016 13.1337 23.0574 15.7403 21.6311L23.1665 17.5426C23.855 17.1623 24.6911 17.4 25.0845 18.0656C25.2812 18.3984 25.3304 18.7311 25.2321 19.1115C25.1337 19.4443 24.8878 19.7295 24.5927 19.9197L9.34681 28.2869C5.41238 25.0541 3.44517 19.9197 4.6255 14.7377ZM15.3454 31.1869C19.0339 31.9951 22.87 31.377 26.0667 29.4279C29.2634 27.4787 31.4765 24.4361 32.3618 20.8229C33.5421 15.7361 31.6241 10.6492 27.8372 7.41639L12.3945 15.9262C11.706 16.3066 11.4601 17.1148 11.8536 17.7803C12.247 18.4459 13.0831 18.6836 13.7716 18.3033L21.1978 14.2148C23.8044 12.7885 27.0995 13.6443 28.5749 16.1639C30.0503 18.6361 29.165 21.8213 26.5585 23.2475L13.2798 30.5688C13.7716 30.759 14.2634 30.9016 14.7552 31.0443L15.3454 31.1869Z" fill="url(#paint0_linear)"/>
<defs>
<linearGradient id="paint0_linear" x1="12.6384" y1="44.6934" x2="49.3584" y2="23.3717" gradientUnits="userSpaceOnUse">
<stop stop-color="#FF7B00"/>
<stop offset="1" stop-color="#FFA653" stop-opacity="0.9673"/>
</linearGradient>
</defs>
</svg>
