<svg width="162" height="22" viewBox="0 0 162 22" fill="none" xmlns="http://www.w3.org/2000/svg">
<path fill-rule="evenodd" clip-rule="evenodd" d="M20.7225 13.447C21.5445 9.67059 20.3824 5.86446 17.9732 3.27749L19.3904 2.4449C19.9573 2.11781 20.1273 1.37442 19.8155 0.809451C19.5038 0.244479 18.7952 0.0363316 18.2566 0.363421L16.0175 1.64204C15.0822 1.0176 14.0051 0.541833 12.8147 0.274215C7.17429 -1.06388 1.53392 2.62331 0.258457 8.54064C-0.563507 12.3765 0.626924 16.2124 3.09282 18.7993L1.47723 19.7509C0.91036 20.078 0.740298 20.8213 1.05208 21.3863C1.22214 21.6837 1.47723 21.8621 1.76067 21.9513C2.0441 22.0405 2.35588 22.0108 2.63932 21.8323L5.07687 20.3753C5.89883 20.8808 6.77748 21.2971 7.71282 21.5647C7.78368 21.5796 7.86163 21.6019 7.93957 21.6242L7.93965 21.6242C8.01757 21.6465 8.09549 21.6688 8.16632 21.6837C10.8873 22.3378 13.7217 21.8323 16.0742 20.2861C18.4267 18.7399 20.099 16.3016 20.7225 13.447ZM2.49818 9.07611C3.51855 4.46713 7.91181 1.55307 12.3051 2.62354L12.6452 2.71275C12.9853 2.80195 13.3254 2.92089 13.6372 3.06957L5.81438 7.73802C4.31217 8.63008 3.80199 10.6224 4.6523 12.1686C5.50261 13.7446 7.40163 14.2798 8.90384 13.3877L13.1837 10.8305C13.5805 10.5926 14.0624 10.7413 14.2891 11.1576C14.4025 11.3657 14.4308 11.5739 14.3742 11.8118C14.3175 12.0199 14.1757 12.1983 14.0057 12.3173L5.21917 17.5507C2.95168 15.5287 1.81794 12.3173 2.49818 9.07611ZM8.67585 19.3644C10.8016 19.8699 13.0124 19.4833 14.8548 18.2641C16.6971 17.045 17.9726 15.1419 18.4827 12.882C19.163 9.70037 18.0576 6.51868 15.8751 4.49668L6.97524 9.81931C6.57843 10.0572 6.43671 10.5627 6.66346 10.979C6.89021 11.3953 7.37205 11.544 7.76886 11.3061L12.0487 8.74883C13.551 7.85677 15.45 8.39201 16.3003 9.96798C17.1506 11.5142 16.6404 13.5065 15.1382 14.3986L7.48542 18.9778C7.76884 19.0967 8.05226 19.1859 8.33568 19.2751L8.33573 19.2751L8.67585 19.3644Z" fill="white"/>
<path d="M30.1107 16.6527C29.288 16.6527 28.4901 16.5371 27.717 16.3059C26.9538 16.0641 26.3393 15.7541 25.8734 15.3757L26.6911 13.4522C27.1372 13.7991 27.6675 14.0776 28.282 14.2878C28.8965 14.498 29.5111 14.6032 30.1256 14.6032C30.8095 14.6032 31.315 14.498 31.6421 14.2878C31.9692 14.0671 32.1327 13.7781 32.1327 13.4207C32.1327 13.1579 32.0336 12.9425 31.8354 12.7743C31.647 12.5956 31.3993 12.4537 31.092 12.3486C30.7946 12.2435 30.3882 12.1279 29.8728 12.0018C29.0799 11.802 28.4307 11.6023 27.9252 11.4026C27.4197 11.2029 26.9835 10.8824 26.6168 10.4409C26.26 9.99946 26.0816 9.41086 26.0816 8.67511C26.0816 8.03395 26.2451 7.45586 26.5722 6.94084C26.8993 6.4153 27.3899 6.00013 28.0441 5.69531C28.7082 5.3905 29.516 5.2381 30.4675 5.2381C31.1316 5.2381 31.7809 5.32218 32.4152 5.49036C33.0496 5.65853 33.6046 5.90027 34.0804 6.2156L33.337 8.15482C32.3756 7.57674 31.4141 7.28769 30.4527 7.28769C29.7787 7.28769 29.2781 7.40331 28.951 7.63454C28.6339 7.86578 28.4753 8.17059 28.4753 8.54898C28.4753 8.92736 28.6586 9.21115 29.0254 9.40035C29.402 9.57903 29.972 9.75771 30.7352 9.93639C31.5281 10.1361 32.1773 10.3358 32.6828 10.5355C33.1883 10.7352 33.6195 11.0505 33.9763 11.4815C34.3431 11.9124 34.5264 12.4958 34.5264 13.2315C34.5264 13.8622 34.3579 14.4402 34.0209 14.9658C33.6938 15.4808 33.1982 15.8907 32.5342 16.1955C31.8701 16.5003 31.0623 16.6527 30.1107 16.6527Z" fill="white"/>
<path d="M46.758 14.414V16.4636H38.6997V5.42729H46.5648V7.47688H41.0934V9.87333H45.9254V11.8599H41.0934V14.414H46.758Z" fill="white"/>
<path d="M56.1536 16.6527C55.0931 16.6527 54.1316 16.411 53.2693 15.9275C52.4169 15.4335 51.7429 14.7556 51.2473 13.8937C50.7616 13.0213 50.5188 12.0385 50.5188 10.9454C50.5188 9.85231 50.7616 8.87481 51.2473 8.01293C51.7429 7.14054 52.4169 6.4626 53.2693 5.9791C54.1316 5.4851 55.098 5.2381 56.1685 5.2381C57.0705 5.2381 57.8832 5.40627 58.6068 5.74261C59.3403 6.07896 59.9548 6.56245 60.4504 7.19309L58.9042 8.70664C58.2004 7.84476 57.3282 7.41382 56.2874 7.41382C55.6432 7.41382 55.0683 7.56622 54.5628 7.87104C54.0573 8.16534 53.6608 8.58051 53.3734 9.11656C53.0958 9.6526 52.9571 10.2622 52.9571 10.9454C52.9571 11.6286 53.0958 12.2382 53.3734 12.7743C53.6608 13.3103 54.0573 13.7308 54.5628 14.0356C55.0683 14.3299 55.6432 14.477 56.2874 14.477C57.3282 14.477 58.2004 14.0408 58.9042 13.1684L60.4504 14.682C59.9548 15.3231 59.3403 15.8119 58.6068 16.1482C57.8733 16.4846 57.0556 16.6527 56.1536 16.6527Z" fill="white"/>
<path d="M69.1412 16.6527C67.6544 16.6527 66.4947 16.2166 65.6621 15.3442C64.8394 14.4718 64.4281 13.2263 64.4281 11.6076V5.42729H66.8367V11.513C66.8367 13.489 67.6098 14.477 69.156 14.477C69.9093 14.477 70.4842 14.2405 70.8807 13.7676C71.2772 13.2841 71.4754 12.5325 71.4754 11.513V5.42729H73.8542V11.6076C73.8542 13.2263 73.4379 14.4718 72.6054 15.3442C71.7827 16.2166 70.6279 16.6527 69.1412 16.6527Z" fill="white"/>
<path d="M85.3929 16.4636L83.3857 13.3892H83.2668H81.1704V16.4636H78.7619V5.42729H83.2668C84.1886 5.42729 84.9865 5.59021 85.6605 5.91604C86.3444 6.24187 86.8697 6.70434 87.2365 7.30346C87.6032 7.90257 87.7866 8.61204 87.7866 9.43188C87.7866 10.2517 87.5983 10.9612 87.2216 11.5603C86.8549 12.1489 86.3295 12.6009 85.6456 12.9162L87.9799 16.4636H85.3929ZM85.3483 9.43188C85.3483 8.81175 85.16 8.33876 84.7833 8.01293C84.4067 7.67659 83.8565 7.50841 83.133 7.50841H81.1704V11.3553H83.133C83.8565 11.3553 84.4067 11.1872 84.7833 10.8508C85.16 10.5145 85.3483 10.0415 85.3483 9.43188Z" fill="white"/>
<path d="M100.281 14.414V16.4636H92.2224V5.42729H100.087V7.47688H94.6161V9.87333H99.4481V11.8599H94.6161V14.414H100.281Z" fill="white"/>
<path d="M111.953 13.7044H106.422L105.277 16.4634H103.746L108.459 5.42719H109.931L114.659 16.4634H113.097L111.953 13.7044ZM111.432 12.4431L109.187 7.03533L106.942 12.4431H111.432Z" fill="white"/>
<path d="M122.609 16.5896C121.222 16.5896 120.141 16.1691 119.368 15.3283C118.595 14.4874 118.209 13.2787 118.209 11.7021V5.42719H119.695V11.639C119.695 14.0039 120.672 15.1864 122.624 15.1864C123.576 15.1864 124.304 14.8974 124.81 14.3193C125.315 13.7307 125.568 12.8372 125.568 11.639V5.42719H127.01V11.7021C127.01 13.2892 126.624 14.5032 125.851 15.3441C125.077 16.1744 123.997 16.5896 122.609 16.5896Z" fill="white"/>
<path d="M134.241 6.79883H130.672V5.42719H139.281V6.79883H135.713V16.4634H134.241V6.79883Z" fill="white"/>
<path d="M152.155 5.42719V16.4634H150.668V11.5444H144.691V16.4634H143.205V5.42719H144.691V10.1728H150.668V5.42719H152.155Z" fill="white"/>
</svg>
