<svg width="207" height="216" viewBox="0 0 207 216" fill="none" xmlns="http://www.w3.org/2000/svg">
<path d="M93.9054 8.47265C89.4227 9.06227 85.1277 10.6379 81.3311 13.0854C74.8167 17.1983 69.6446 23.0809 64.7921 29.0525C42.7606 56.4641 25.0469 87.0602 12.2602 119.788C2.33257 144.842 -8.43286 179.814 10.1241 203.631C10.2892 203.846 10.4559 204.059 10.6271 204.269C31.5565 230.119 62.5908 207.364 81.4584 192.167C97.8883 178.931 115.079 164.65 136.879 162.245C159.784 159.718 201.281 167.134 206.585 135.733C210.563 112.178 185.033 96.1599 168.967 82.8864C156.08 72.2462 137.746 66.3742 133.143 49.2776C130.545 39.6233 126.727 29.196 120.86 21.0244C114.158 11.6993 104.122 7.20585 93.9054 8.47265Z" fill="#D0E4F7"/>
<path d="M127.334 88.5473C124.746 99.923 151.274 101.385 162.203 101.509C165.23 101.542 168.252 101.252 171.219 100.643C180.463 98.7457 200.697 93.7678 197.858 86.9996C194.197 78.2666 183.199 84.3552 183.199 84.3552C183.199 84.3552 184.579 77.7631 165.865 73.4077C147.15 69.0523 147.225 83.5636 147.225 83.5636C147.225 83.5636 130.585 74.2571 127.334 88.5473Z" fill="#9CCDF8"/>
<path d="M70.641 127.108C70.641 127.108 70.8039 91.84 46.8442 82.0364C16.2287 114.341 48.1485 144.299 48.1485 144.299L70.641 127.108Z" fill="#535EC1"/>
<path d="M46.8435 82.0363C46.737 82.1484 46.6341 82.2611 46.5294 82.3732L56.7471 122.661L33.5778 110.947C33.5711 111.236 33.5682 111.524 33.569 111.81L56.9994 123.656L59.9474 135.282L60.6178 134.77L54.7371 111.594L64.8225 100.439C64.7049 100.185 64.5873 99.9311 64.4656 99.6764L54.5078 110.69L47.2898 82.2288C47.1399 82.1648 46.9958 82.0974 46.8411 82.0352L46.8435 82.0363Z" fill="#BEC4F5"/>
<path d="M59.5475 113.139C59.5475 113.139 37.6478 85.5802 13.2241 89.884C3.40805 117.989 33.1561 133.677 33.1561 133.677L63.8487 136.503L59.5475 113.139Z" fill="url(#paint0_linear)"/>
<path d="M40.0028 96.1659L37.4294 111.55L13.8031 89.793C13.6102 89.8235 13.4173 89.8517 13.2239 89.8839C13.1851 89.9943 13.1521 90.1028 13.1151 90.2131L25.7686 101.866L11.3262 103.365C11.3368 103.502 11.3515 103.637 11.3638 103.775L11.402 104.137L26.5284 102.567L47.616 121.986L22.3525 125.424C22.5877 125.658 22.8194 125.886 23.0523 126.11L48.3552 122.667L63.3298 136.458L63.8484 136.505L63.7097 135.753L38.1116 112.179L40.7197 96.6025C40.4817 96.4558 40.2427 96.3103 40.0028 96.1659Z" fill="#9CCDF8"/>
<path d="M55.9084 129.572C55.9084 129.572 27.6581 121.379 15.6509 137.038C29.9757 174.677 78.9648 159.151 78.9648 159.151L55.9084 129.572Z" fill="#535EC1"/>
<path d="M15.6509 137.038C15.7062 137.183 15.7632 137.325 15.8197 137.468L54.8216 145.593L38.1075 159.383C38.3925 159.486 38.6785 159.583 38.9655 159.677L55.7943 145.792L71.0253 148.966L70.289 148.021L40.6321 141.845L31.5293 128.126C31.2541 128.176 30.9795 128.23 30.706 128.286L39.553 141.62L15.9237 136.698C15.8338 136.812 15.7409 136.921 15.6526 137.037L15.6509 137.038Z" fill="#BEC4F5"/>
<path d="M123.278 28.3304C131.105 28.3304 137.448 34.3706 137.448 41.8204V167.73C137.448 175.181 131.103 181.221 123.278 181.221H73.3125C65.4857 181.221 59.1431 175.181 59.1431 167.73V41.8187C59.1431 34.3689 65.4883 28.3286 73.3125 28.3286L123.278 28.3304Z" fill="#C7CCCE"/>
<path d="M124.888 30.7349C132.285 30.7349 135.296 36.4428 135.296 43.4834V166.066C135.296 173.107 132.285 178.814 124.888 178.814H72.6968C65.3004 178.814 61.2939 174.006 61.2939 166.965V42.5847C61.2939 35.5432 65.3004 30.7349 72.6968 30.7349H124.888Z" fill="white"/>
<path d="M133.98 49.4648H62.6108V160.087H133.98V49.4648Z" fill="#838586"/>
<path d="M98.9583 174.887C99.9176 174.887 100.855 174.603 101.653 174.072C102.451 173.54 103.072 172.784 103.439 171.899C103.807 171.015 103.903 170.042 103.715 169.103C103.528 168.164 103.066 167.302 102.388 166.625C101.71 165.948 100.845 165.487 99.9045 165.3C98.9637 165.113 97.9884 165.209 97.1021 165.575C96.2158 165.942 95.4583 166.562 94.9253 167.358C94.3924 168.154 94.1079 169.09 94.1079 170.047C94.1079 171.331 94.6189 172.562 95.5285 173.47C96.4382 174.377 97.6719 174.887 98.9583 174.887Z" fill="#C7CCCE"/>
<path d="M111.763 40.9271C111.923 40.9271 112.051 40.6999 112.051 40.4207C112.051 40.1414 111.923 39.9143 111.763 39.9143H85.2034C85.044 39.9143 84.9165 40.1414 84.9165 40.4207C84.9165 40.6999 85.044 40.9271 85.2034 40.9271H111.763Z" fill="#2A2E2F"/>
<path d="M128.768 55.8044H67.061V153.972H128.768V55.8044Z" fill="#F2F2F2"/>
<path d="M128.768 55.8044H67.061V66.8342H128.768V55.8044Z" fill="#2995F5"/>
<path d="M118.916 61.3198C118.916 61.7864 119.055 62.2426 119.315 62.6306C119.574 63.0187 119.944 63.3211 120.376 63.4997C120.808 63.6783 121.283 63.725 121.742 63.634C122.201 63.5429 122.622 63.3182 122.953 62.9882C123.283 62.6582 123.508 62.2378 123.6 61.7801C123.691 61.3224 123.644 60.848 123.465 60.4168C123.286 59.9857 122.983 59.6171 122.594 59.3579C122.205 59.0986 121.748 58.9602 121.281 58.9602C120.97 58.9601 120.662 59.0211 120.376 59.1396C120.089 59.2581 119.828 59.4319 119.608 59.651C119.389 59.8702 119.215 60.1303 119.096 60.4167C118.977 60.703 118.916 61.0099 118.916 61.3198V61.3198Z" fill="#F2F2F2"/>
<path d="M111.498 61.3198C111.498 61.7864 111.636 62.2426 111.896 62.6306C112.156 63.0187 112.525 63.3211 112.957 63.4997C113.389 63.6783 113.865 63.725 114.323 63.634C114.782 63.5429 115.203 63.3182 115.534 62.9882C115.865 62.6582 116.09 62.2378 116.181 61.7801C116.272 61.3224 116.226 60.848 116.047 60.4168C115.868 59.9857 115.565 59.6171 115.176 59.3579C114.787 59.0986 114.33 58.9602 113.862 58.9602C113.552 58.9602 113.244 59.0212 112.957 59.1398C112.67 59.2584 112.41 59.4322 112.19 59.6513C111.971 59.8704 111.796 60.1305 111.678 60.4168C111.559 60.7031 111.498 61.0099 111.498 61.3198V61.3198Z" fill="#F2F2F2"/>
<path d="M94.2346 59.4695H70.6406V63.1705H94.2346V59.4695Z" fill="white"/>
<g style="mix-blend-mode:multiply">
<path d="M74.9672 86.3473H79.231C79.324 86.3472 79.4132 86.3103 79.4791 86.2447C79.5449 86.1791 79.5819 86.0901 79.5821 85.9973V82.5784C79.5819 82.4855 79.5449 82.3965 79.4791 82.3308C79.4133 82.2651 79.3241 82.2282 79.231 82.228H76.0037V81.8646C76.0105 81.5854 76.1277 81.3203 76.3298 81.1272C76.5319 80.934 76.8024 80.8286 77.0822 80.8339C77.31 80.8324 77.5325 80.9028 77.7179 81.035C77.9033 81.1672 78.042 81.3545 78.1143 81.5701C78.1267 81.6088 78.1475 81.6443 78.1754 81.674C78.2032 81.7036 78.2374 81.7266 78.2754 81.7414C78.3133 81.7561 78.3541 81.7622 78.3947 81.7591C78.4353 81.756 78.4747 81.7439 78.51 81.7237L78.6499 81.6431C78.7044 81.6117 78.7464 81.5623 78.7685 81.5035C78.7907 81.4446 78.7917 81.3799 78.7713 81.3205C78.6316 80.9286 78.3591 80.5977 78.0008 80.3852C77.6426 80.1726 77.2211 80.0917 76.8094 80.1565C76.3977 80.2214 76.0216 80.4278 75.7463 80.74C75.471 81.0523 75.3138 81.4508 75.3018 81.8666V82.23H74.9665C74.8735 82.2302 74.7843 82.2672 74.7185 82.3328C74.6528 82.3985 74.6158 82.4875 74.6157 82.5804V85.9973C74.6158 86.0433 74.6249 86.0889 74.6426 86.1314C74.6603 86.1738 74.6862 86.2124 74.7188 86.2449C74.7514 86.2775 74.7902 86.3032 74.8328 86.3208C74.8754 86.3384 74.9211 86.3474 74.9672 86.3473ZM76.7482 83.7676C76.7482 83.6747 76.7851 83.5856 76.851 83.5199C76.9168 83.4542 77.0061 83.4173 77.0993 83.4173C77.1924 83.4173 77.2817 83.4542 77.3475 83.5199C77.4134 83.5856 77.4504 83.6747 77.4504 83.7676V84.808C77.4504 84.9009 77.4134 84.9901 77.3475 85.0558C77.2817 85.1215 77.1924 85.1584 77.0993 85.1584C77.0061 85.1584 76.9168 85.1215 76.851 85.0558C76.7851 84.9901 76.7482 84.9009 76.7482 84.808V83.7676Z" fill="url(#paint1_linear)"/>
</g>
<g style="mix-blend-mode:multiply">
<path d="M82.3298 78.3958C82.293 78.3624 82.2504 78.336 82.204 78.3179L82.0028 78.2386C78.8515 77.0054 75.3498 77.0054 72.1985 78.2386L72.1515 78.257C71.9778 78.3236 71.8284 78.4414 71.7233 78.5947C71.6182 78.748 71.5623 78.9296 71.563 79.1153V86.7045C71.5628 86.8449 71.5975 86.9831 71.664 87.1069C71.7304 87.2306 71.8266 87.336 71.9439 87.4135L76.6474 90.531C76.7814 90.6205 76.9389 90.6683 77.1001 90.6683C77.2613 90.6683 77.4189 90.6205 77.5528 90.531L82.2409 87.4236C82.3627 87.343 82.4626 87.2336 82.5318 87.1052C82.601 86.9767 82.6372 86.8332 82.6373 86.6874V78.79C82.6374 78.6995 82.6072 78.6116 82.5515 78.5401C82.4958 78.4687 82.4177 78.4179 82.3298 78.3958V78.3958ZM72.3738 79.0939C72.3739 79.078 72.3787 79.0625 72.3877 79.0494C72.3966 79.0362 72.4093 79.0261 72.4241 79.0203C75.4293 77.8446 78.7686 77.8446 81.7738 79.0203L81.8244 79.04V86.6844C81.8246 86.6977 81.8215 86.7108 81.8152 86.7225C81.8089 86.7342 81.7997 86.7441 81.7885 86.7513L77.1431 89.8299C77.13 89.8384 77.1147 89.843 77.0991 89.843C77.0835 89.843 77.0683 89.8384 77.0552 89.8299L72.4094 86.7513C72.3983 86.744 72.3892 86.7341 72.383 86.7224C72.3768 86.7107 72.3736 86.6976 72.3738 86.6844V79.0939Z" fill="url(#paint2_linear)"/>
</g>
<path d="M112.774 82.7766L112.394 82.1193C112.354 82.0499 112.406 81.975 112.425 81.9565C112.592 81.7618 112.747 81.5567 112.888 81.3423C112.9 81.3209 112.917 81.3035 112.938 81.2922C112.96 81.2808 112.984 81.2762 113.008 81.2787L113.755 81.4856C114.032 81.5617 114.326 81.5246 114.573 81.3823C114.82 81.2401 114.999 81.0043 115.072 80.7267L115.49 79.1144C115.559 78.8365 115.517 78.5408 115.372 78.2911V78.2911C115.228 78.0406 114.992 77.8559 114.716 77.7772L113.962 77.5678C113.939 77.5585 113.92 77.5423 113.907 77.5215C113.893 77.5007 113.887 77.4763 113.888 77.4517C113.867 77.1935 113.832 76.9366 113.78 76.6824C113.775 76.6575 113.764 76.572 113.83 76.534L114.493 76.152C114.74 76.0091 114.919 75.7727 114.991 75.4946C115.063 75.2164 115.022 74.9192 114.877 74.6681L114.033 73.2096C113.888 72.9589 113.65 72.775 113.373 72.6982C113.095 72.6215 112.801 72.658 112.553 72.7998L111.89 73.1819C111.826 73.2187 111.758 73.1669 111.737 73.1503C111.542 72.979 111.337 72.8198 111.123 72.6734C111.104 72.6607 111.042 72.6131 111.059 72.5507L111.255 71.795C111.325 71.5172 111.282 71.2215 111.137 70.9717V70.9717C110.993 70.7214 110.757 70.5368 110.482 70.4579L108.868 70.0117C108.591 69.9363 108.297 69.9737 108.051 70.1158C107.804 70.258 107.624 70.4933 107.551 70.7706L107.357 71.5179C107.348 71.5404 107.332 71.5594 107.312 71.5725C107.292 71.5857 107.268 71.5924 107.243 71.5918C106.986 71.6061 106.731 71.6367 106.478 71.6833C106.45 71.6882 106.361 71.699 106.321 71.6291L105.937 70.9656C105.791 70.7147 105.554 70.5306 105.276 70.4539C104.998 70.3772 104.703 70.4141 104.456 70.5565L103.02 71.384C102.773 71.5272 102.595 71.7636 102.523 72.0413C102.452 72.3191 102.493 72.6157 102.638 72.8664L103.011 73.5123C103.024 73.5322 103.031 73.5555 103.03 73.5791C103.029 73.6027 103.021 73.6252 103.006 73.6435C102.817 73.8585 102.644 74.0869 102.488 74.327C102.476 74.3424 102.459 74.3536 102.44 74.3593C102.422 74.3649 102.402 74.3646 102.383 74.3585L101.659 74.1583C101.382 74.0832 101.088 74.1208 100.842 74.2629C100.595 74.405 100.415 74.6401 100.342 74.9172L99.9228 76.5336C99.8537 76.8114 99.8962 77.107 100.041 77.3569V77.3569C100.185 77.607 100.421 77.7915 100.696 77.8708L101.413 78.0686C101.433 78.0727 101.451 78.0828 101.464 78.0975C101.478 78.1122 101.487 78.1307 101.489 78.1505C101.508 78.4395 101.547 78.7273 101.605 79.0115C101.609 79.0365 101.605 79.0619 101.593 79.0842C101.582 79.1066 101.564 79.1248 101.542 79.1362L100.921 79.4938C100.674 79.6367 100.495 79.8731 100.423 80.1513C100.351 80.4295 100.392 80.7268 100.537 80.978L101.38 82.4365C101.526 82.6874 101.763 82.8713 102.041 82.9481C102.319 83.0249 102.613 82.9881 102.861 82.8459L103.477 82.4907C103.499 82.4774 103.523 82.471 103.548 82.4725C103.573 82.4739 103.597 82.4831 103.617 82.4987C103.835 82.6913 104.065 82.8686 104.307 83.0293C104.322 83.0415 104.334 83.0583 104.34 83.0774C104.346 83.0964 104.346 83.1168 104.34 83.1357L104.154 83.8545C104.084 84.1323 104.126 84.4282 104.271 84.6781V84.6781C104.416 84.9282 104.651 85.1127 104.927 85.1919L106.538 85.6353C106.815 85.7112 107.109 85.674 107.356 85.5318C107.603 85.3896 107.782 85.1539 107.855 84.8764L108.043 84.1508C108.047 84.1314 108.056 84.1137 108.071 84.1004C108.085 84.087 108.104 84.0787 108.123 84.0766C108.409 84.0604 108.694 84.0245 108.975 83.9692C108.998 83.9662 109.022 83.9707 109.043 83.9819C109.064 83.9931 109.081 84.0105 109.091 84.0316L109.465 84.6771C109.61 84.9279 109.848 85.1118 110.125 85.1885C110.403 85.2652 110.698 85.2283 110.945 85.086L112.381 84.2585C112.629 84.1171 112.81 83.8817 112.884 83.6039C112.957 83.326 112.918 83.0285 112.774 82.7766V82.7766ZM109.239 80.4722C108.723 80.7694 108.128 80.9047 107.53 80.8607C106.933 80.8168 106.359 80.5957 105.881 80.2253C105.404 79.855 105.044 79.352 104.847 78.7801C104.651 78.2081 104.626 77.5928 104.777 77.012C104.927 76.4312 105.246 75.9109 105.694 75.517C106.141 75.1231 106.696 74.8732 107.289 74.7989C107.882 74.7246 108.486 74.8293 109.025 75.0996C109.563 75.37 110.013 75.794 110.316 76.318C110.722 77.021 110.837 77.8532 110.635 78.6321C110.433 79.4109 109.931 80.0727 109.239 80.4722V80.4722ZM123.029 88.1888L122.768 87.7372C122.741 87.6894 122.779 87.6386 122.79 87.6253C122.904 87.4913 123.01 87.3501 123.107 87.2027C123.115 87.1881 123.127 87.1762 123.142 87.1686C123.157 87.1609 123.173 87.1578 123.19 87.1596L123.703 87.3015C123.894 87.3541 124.096 87.3287 124.266 87.2309C124.436 87.133 124.559 86.9707 124.609 86.7796L124.897 85.6692C124.945 85.477 124.915 85.2726 124.813 85.1004C124.715 84.9282 124.553 84.8011 124.363 84.7466L123.845 84.6031C123.803 84.5916 123.795 84.5393 123.793 84.5237C123.78 84.346 123.756 84.1692 123.721 83.9943C123.718 83.977 123.709 83.9186 123.753 83.8932L124.209 83.6305C124.379 83.5325 124.503 83.3701 124.553 83.1788C124.602 82.9875 124.574 82.7831 124.474 82.6104L123.895 81.6086C123.795 81.4362 123.631 81.3098 123.441 81.2571C123.25 81.2044 123.047 81.2297 122.877 81.3275L122.421 81.5902C122.377 81.6156 122.331 81.5799 122.317 81.5679C122.183 81.45 122.041 81.3407 121.894 81.2405C121.881 81.2319 121.839 81.1991 121.851 81.1564L121.986 80.6374C122.033 80.4462 122.004 80.2429 121.904 80.0712C121.805 79.8992 121.643 79.7723 121.454 79.7179L120.346 79.4109C120.155 79.3586 119.953 79.3842 119.783 79.482C119.613 79.5798 119.49 79.7419 119.44 79.9328L119.306 80.4463C119.3 80.4617 119.289 80.4747 119.275 80.4836C119.261 80.4926 119.244 80.4971 119.228 80.4966C119.051 80.5066 118.875 80.5279 118.702 80.5603C118.684 80.5631 118.622 80.5706 118.594 80.5228L118.335 80.0743C118.235 79.9019 118.071 79.7754 117.881 79.7227C117.69 79.6699 117.487 79.6952 117.317 79.793L116.33 80.3616C116.161 80.4597 116.038 80.6222 115.988 80.8133C115.938 81.0045 115.967 81.2088 116.066 81.3814L116.323 81.8247C116.332 81.8383 116.336 81.8545 116.336 81.8708C116.335 81.8871 116.33 81.9027 116.32 81.9155C116.19 82.0634 116.071 82.2202 115.963 82.3849C115.955 82.3955 115.944 82.4033 115.931 82.4071C115.918 82.4109 115.904 82.4106 115.892 82.4062L115.392 82.2681C115.202 82.2158 114.999 82.2414 114.829 82.3392C114.66 82.437 114.536 82.5991 114.486 82.79L114.198 83.9001C114.15 84.0913 114.18 84.2951 114.28 84.4669V84.4669C114.379 84.6394 114.541 84.7665 114.731 84.8207L115.223 84.9568C115.237 84.9594 115.249 84.9662 115.258 84.9762C115.268 84.9863 115.273 84.999 115.275 85.0126C115.288 85.2113 115.315 85.409 115.355 85.6044C115.357 85.6217 115.354 85.6393 115.346 85.6546C115.338 85.67 115.326 85.6825 115.311 85.6902L114.884 85.9357C114.715 86.0339 114.592 86.1963 114.542 86.3875C114.492 86.5786 114.52 86.7829 114.62 86.9555L115.2 87.9574C115.3 88.1298 115.463 88.2563 115.654 88.309C115.844 88.3618 116.047 88.3365 116.217 88.2387L116.643 87.9932C116.658 87.9839 116.675 87.9794 116.692 87.9804C116.709 87.9813 116.726 87.9876 116.74 87.9984C116.889 88.1309 117.048 88.2528 117.214 88.3632C117.225 88.3715 117.233 88.383 117.237 88.396C117.241 88.4091 117.241 88.4231 117.236 88.4359L117.109 88.9295C117.06 89.1204 117.089 89.3239 117.189 89.4956C117.288 89.6693 117.451 89.7974 117.642 89.8519L118.749 90.1582C118.94 90.2108 119.143 90.1854 119.312 90.0875C119.482 89.9897 119.606 89.8274 119.655 89.6363L119.785 89.1362C119.788 89.1229 119.795 89.1108 119.804 89.1016C119.814 89.0924 119.827 89.0865 119.84 89.0848C120.037 89.0741 120.232 89.0496 120.425 89.0116C120.441 89.0095 120.457 89.0125 120.472 89.0201C120.486 89.0277 120.498 89.0396 120.505 89.054L120.762 89.4974C120.862 89.6698 121.025 89.7962 121.216 89.849C121.406 89.9017 121.609 89.8765 121.779 89.7787L122.766 89.2098C122.851 89.1611 122.924 89.0961 122.983 89.0185C123.042 88.9408 123.084 88.8521 123.109 88.7573C123.133 88.6625 123.139 88.5634 123.125 88.4659C123.112 88.3684 123.079 88.2742 123.029 88.1888ZM120.601 86.6056C120.246 86.8098 119.838 86.9027 119.428 86.8725C119.017 86.8423 118.623 86.6904 118.295 86.436C117.967 86.1816 117.72 85.8361 117.585 85.4432C117.45 85.0503 117.433 84.6277 117.536 84.2287C117.64 83.8298 117.859 83.4724 118.166 83.2018C118.473 82.9312 118.854 82.7595 119.262 82.7085C119.669 82.6575 120.084 82.7293 120.454 82.915C120.824 83.1007 121.133 83.3919 121.341 83.7518C121.62 84.2348 121.699 84.8065 121.56 85.3415C121.421 85.8765 121.076 86.3311 120.601 86.6056V86.6056Z" fill="url(#paint3_linear)"/>
<path d="M123.953 148.038L124.764 148.881C124.803 148.921 124.85 148.951 124.903 148.968C124.956 148.986 125.012 148.99 125.067 148.981C125.121 148.972 125.173 148.949 125.217 148.916C125.261 148.882 125.296 148.838 125.32 148.788C125.785 147.791 126.008 146.699 125.97 145.6C125.947 144.665 125.739 143.744 125.357 142.891C124.976 142.037 124.429 141.267 123.747 140.625C123.066 139.983 122.264 139.482 121.388 139.151C120.512 138.82 119.579 138.666 118.643 138.696C117.706 138.727 116.785 138.943 115.933 139.33C115.08 139.718 114.313 140.27 113.676 140.956C113.038 141.641 112.543 142.445 112.219 143.322C111.894 144.199 111.747 145.132 111.786 146.066C111.82 147.164 112.114 148.24 112.644 149.204C112.67 149.253 112.709 149.294 112.755 149.325C112.801 149.355 112.855 149.374 112.91 149.379C112.965 149.385 113.021 149.376 113.072 149.355C113.124 149.334 113.169 149.301 113.205 149.258L113.958 148.364C113.999 148.315 114.025 148.255 114.033 148.192C114.042 148.128 114.032 148.064 114.005 148.006C113.72 147.376 113.561 146.697 113.537 146.006C113.51 145.218 113.658 144.435 113.971 143.711C114.283 142.988 114.753 142.342 115.345 141.821C115.938 141.3 116.639 140.917 117.397 140.699C118.156 140.481 118.954 140.433 119.733 140.559C120.513 140.685 121.254 140.982 121.905 141.429C122.555 141.875 123.099 142.46 123.496 143.141C123.893 143.823 124.133 144.583 124.201 145.368C124.268 146.153 124.16 146.943 123.885 147.682C123.861 147.742 123.855 147.807 123.867 147.87C123.879 147.933 123.909 147.991 123.953 148.038V148.038Z" fill="url(#paint4_linear)"/>
<path d="M125.046 154.646L124.95 151.737C124.96 151.52 124.905 151.306 124.791 151.121C124.678 150.936 124.511 150.789 124.314 150.699C124.07 150.622 123.806 150.642 123.577 150.757L123.527 150.761H123.511C123.47 150.594 123.379 150.444 123.251 150.331C123.122 150.217 122.962 150.145 122.791 150.124C122.634 150.095 122.472 150.1 122.316 150.137C122.16 150.174 122.013 150.242 121.885 150.338C121.79 150.151 121.637 150 121.449 149.908C121.26 149.816 121.047 149.788 120.841 149.828C120.68 149.847 120.524 149.899 120.383 149.98C120.243 150.061 120.121 150.17 120.024 150.3L119.942 147.821C119.926 147.332 119.894 146.847 119.894 146.36C119.864 146.109 119.743 145.878 119.553 145.71C119.364 145.542 119.119 145.45 118.865 145.45C118.714 145.453 118.566 145.488 118.428 145.552C118.291 145.615 118.169 145.707 118.069 145.82C117.892 146.056 117.811 146.351 117.843 146.644V147.833L117.848 151.128C117.827 151.231 117.89 153.519 117.89 153.519C117.689 153.328 117.466 153.109 117.264 152.9C116.75 152.424 116.095 152.128 115.397 152.054C115.169 152.016 114.933 152.065 114.74 152.193C114.693 152.231 114.648 152.273 114.606 152.317C114.453 152.445 114.345 152.618 114.298 152.811C114.25 153.005 114.265 153.208 114.34 153.392C114.447 153.532 114.585 153.645 114.743 153.722C115.059 153.864 115.345 154.064 115.586 154.312C116.047 154.862 117.111 156.088 117.764 156.741C117.898 156.818 118.184 157.085 118.317 157.15C118.622 157.317 118.908 157.516 119.17 157.743C119.366 157.876 119.574 157.992 119.79 158.089C120.433 158.419 121.152 158.572 121.874 158.535C122.756 158.506 123.558 158.531 124.133 157.991H124.164L124.179 157.951C124.475 157.67 124.708 157.33 124.864 156.953C125.02 156.577 125.095 156.172 125.084 155.764C125.074 155.558 125.05 154.79 125.046 154.646Z" fill="url(#paint5_linear)"/>
<path d="M118.796 143.209C118.305 143.239 117.833 143.41 117.438 143.703C117.043 143.995 116.742 144.397 116.571 144.857C116.401 145.318 116.369 145.818 116.479 146.297C116.589 146.776 116.837 147.212 117.191 147.552V146.52C117.191 146.076 117.368 145.651 117.682 145.337C117.997 145.023 118.423 144.847 118.868 144.847C119.313 144.847 119.739 145.023 120.054 145.337C120.368 145.651 120.545 146.076 120.545 146.52L120.551 147.598C120.92 147.247 121.176 146.795 121.285 146.298C121.394 145.802 121.351 145.284 121.163 144.812C120.974 144.339 120.647 143.935 120.225 143.649C119.804 143.364 119.306 143.212 118.796 143.212V143.209Z" fill="url(#paint6_linear)"/>
<path d="M97.1782 139.233C92.6847 139.212 88.2985 137.86 84.5745 135.351C80.8505 132.841 77.9558 129.286 76.2565 125.135C74.5572 120.984 74.1296 116.423 75.0279 112.03C75.9261 107.636 78.1098 103.607 81.3028 100.452C84.4958 97.2964 88.5547 95.1569 92.9662 94.3036C97.3778 93.4504 101.944 93.9217 106.087 95.658C110.23 97.3943 113.764 100.318 116.242 104.058C118.72 107.799 120.031 112.189 120.009 116.673C119.973 122.684 117.549 128.435 113.269 132.664C108.988 136.894 103.202 139.256 97.1782 139.233ZM97.3888 96.3349C93.3794 96.3153 89.4541 97.4826 86.1095 99.6891C82.7649 101.896 80.1511 105.042 78.5988 108.731C77.0464 112.42 76.6252 116.486 77.3883 120.414C78.1515 124.342 80.0647 127.956 82.8862 130.798C85.7076 133.641 89.3105 135.585 93.2391 136.385C97.1678 137.184 101.246 136.803 104.957 135.289C108.669 133.776 111.847 131.198 114.091 127.882C116.334 124.566 117.542 120.66 117.561 116.659C117.581 111.297 115.468 106.145 111.687 102.334C107.905 98.5238 102.763 96.3656 97.3892 96.3332L97.3888 96.3349Z" fill="#2995F5"/>
<path d="M97.1543 144.004C89.8633 143.96 82.8876 141.032 77.7573 135.862C72.6271 130.692 69.7614 123.703 69.7888 116.427L71.8986 116.438C71.8744 121.449 73.3399 126.354 76.1096 130.534C78.8793 134.714 82.829 137.981 87.4591 139.921C92.0892 141.861 97.1918 142.388 102.122 141.434C107.052 140.48 111.587 138.089 115.156 134.563C118.724 131.037 121.164 126.534 122.168 121.624C123.171 116.714 122.693 111.617 120.794 106.978C118.895 102.339 115.66 98.3662 111.499 95.5618C107.337 92.7574 102.435 91.2474 97.4136 91.2228L97.4236 89.1174C104.717 89.1531 111.698 92.0785 116.83 97.2502C121.962 102.422 124.825 109.416 124.789 116.694C124.754 123.972 121.822 130.938 116.639 136.06C111.457 141.181 104.448 144.038 97.1543 144.002V144.004Z" fill="#2995F5"/>
<path d="M88.5853 92.7889L87.8489 90.7717C84.1767 92.1119 80.8317 94.2152 78.0354 96.9425C75.2391 99.6698 73.0554 102.959 71.6289 106.592L73.6328 107.372C74.948 104.023 76.9611 100.992 79.5388 98.4775C82.1166 95.9634 85.2001 94.0244 88.5853 92.7889V92.7889Z" fill="#2995F5"/>
<g style="mix-blend-mode:multiply">
<g style="mix-blend-mode:multiply">
<path d="M84.4657 122.089C84.3322 122.088 84.2017 122.049 84.0905 121.976C83.9792 121.902 83.8922 121.797 83.8402 121.675C83.0902 119.906 82.7054 118.005 82.709 116.085C82.709 115.905 82.7806 115.733 82.908 115.606C83.0353 115.478 83.2081 115.407 83.3883 115.407C83.5684 115.407 83.7412 115.478 83.8685 115.606C83.9959 115.733 84.0675 115.905 84.0675 116.085C84.064 117.824 84.4123 119.545 85.0915 121.147C85.1353 121.25 85.1527 121.362 85.1424 121.473C85.132 121.585 85.0942 121.692 85.0323 121.785C84.9703 121.878 84.8862 121.955 84.7874 122.008C84.6886 122.061 84.5782 122.089 84.4661 122.089H84.4657Z" fill="#535EC1"/>
</g>
<g style="mix-blend-mode:multiply">
<path d="M109.316 123.682C109.202 123.682 109.089 123.653 108.989 123.598C108.889 123.543 108.804 123.464 108.743 123.368C108.682 123.271 108.646 123.161 108.639 123.047C108.631 122.933 108.653 122.819 108.702 122.716C109.282 121.486 109.665 120.172 109.835 118.823C109.846 118.735 109.875 118.649 109.919 118.572C109.963 118.495 110.022 118.427 110.092 118.372C110.163 118.317 110.243 118.277 110.329 118.254C110.415 118.23 110.505 118.224 110.594 118.235C110.682 118.246 110.768 118.274 110.845 118.318C110.923 118.362 110.991 118.421 111.045 118.492C111.1 118.562 111.141 118.642 111.164 118.728C111.188 118.814 111.194 118.904 111.183 118.992C110.995 120.482 110.573 121.934 109.932 123.293C109.877 123.409 109.79 123.508 109.681 123.577C109.572 123.646 109.445 123.682 109.316 123.682V123.682Z" fill="#535EC1"/>
</g>
<g style="mix-blend-mode:multiply">
<path d="M110.811 116.763C110.631 116.763 110.458 116.691 110.331 116.564C110.203 116.437 110.132 116.265 110.132 116.085C110.135 113.527 109.381 111.026 107.965 108.894C106.549 106.762 104.534 105.095 102.172 104.102C102.013 104.027 101.89 103.894 101.827 103.73C101.764 103.567 101.768 103.385 101.836 103.224C101.904 103.063 102.033 102.934 102.194 102.865C102.355 102.796 102.537 102.792 102.701 102.853C105.309 103.95 107.534 105.791 109.098 108.145C110.661 110.499 111.494 113.261 111.49 116.085C111.49 116.265 111.419 116.437 111.291 116.564C111.164 116.691 110.991 116.763 110.811 116.763V116.763Z" fill="#535EC1"/>
</g>
<g style="mix-blend-mode:multiply">
<path d="M84.146 112.265C84.0376 112.265 83.9309 112.239 83.8346 112.189C83.7383 112.14 83.6554 112.068 83.5926 111.98C83.5298 111.892 83.489 111.79 83.4737 111.683C83.4583 111.576 83.4688 111.466 83.5043 111.364C84.4883 108.549 86.3252 106.109 88.7607 104.382C91.1961 102.655 94.1096 101.726 97.0974 101.724C97.2775 101.724 97.4503 101.796 97.5777 101.923C97.7051 102.05 97.7766 102.222 97.7766 102.402C97.7766 102.582 97.7051 102.754 97.5777 102.881C97.4503 103.009 97.2775 103.08 97.0974 103.08C94.3913 103.081 91.7524 103.922 89.5465 105.486C87.3406 107.05 85.6768 109.26 84.7856 111.81C84.7393 111.942 84.6529 112.057 84.5383 112.139C84.4238 112.221 84.2867 112.265 84.146 112.265V112.265Z" fill="#535EC1"/>
</g>
<g style="mix-blend-mode:multiply">
<path d="M86.2101 118.097C86.0443 118.097 85.8843 118.036 85.7603 117.926C85.6363 117.816 85.5569 117.665 85.5371 117.501C85.2608 115.241 85.6544 112.951 86.6693 110.912C87.6842 108.874 89.2757 107.177 91.247 106.033C91.3241 105.988 91.4093 105.959 91.4977 105.947C91.5861 105.935 91.676 105.94 91.7623 105.963C91.8486 105.986 91.9295 106.025 92.0005 106.079C92.0715 106.133 92.1311 106.2 92.176 106.277C92.2209 106.354 92.2502 106.439 92.2622 106.527C92.2742 106.616 92.2686 106.705 92.2458 106.791C92.2231 106.877 92.1835 106.958 92.1295 107.029C92.0754 107.1 92.0079 107.159 91.9308 107.204C90.189 108.216 88.7827 109.715 87.886 111.516C86.9892 113.317 86.6414 115.341 86.8856 117.337C86.9072 117.516 86.857 117.695 86.7459 117.837C86.6348 117.979 86.4719 118.07 86.293 118.092C86.2655 118.095 86.2378 118.097 86.2101 118.097V118.097Z" fill="#535EC1"/>
</g>
<g style="mix-blend-mode:multiply">
<path d="M103.84 108.127C103.689 108.127 103.542 108.077 103.423 107.984C101.62 106.572 99.392 105.809 97.1001 105.817C96.6021 105.817 96.1048 105.853 95.6119 105.924C95.4336 105.949 95.2524 105.903 95.1081 105.796C94.9638 105.688 94.8682 105.528 94.8424 105.35C94.8167 105.172 94.8628 104.991 94.9707 104.847C95.0785 104.703 95.2393 104.607 95.4176 104.582C95.9749 104.502 96.5371 104.461 97.1001 104.461C99.6952 104.453 102.217 105.318 104.259 106.916C104.37 107.003 104.452 107.123 104.492 107.258C104.532 107.393 104.529 107.537 104.483 107.671C104.438 107.804 104.351 107.92 104.236 108.002C104.121 108.084 103.983 108.128 103.842 108.128L103.84 108.127Z" fill="#535EC1"/>
</g>
<g style="mix-blend-mode:multiply">
<path d="M104.311 128.4C104.182 128.4 104.056 128.364 103.948 128.295C103.839 128.226 103.753 128.128 103.698 128.012C103.643 127.896 103.622 127.767 103.637 127.64C103.653 127.512 103.705 127.392 103.786 127.293C107.316 122.997 109.011 115.543 105.737 110.505C105.687 110.431 105.653 110.347 105.636 110.259C105.618 110.171 105.619 110.08 105.637 109.992C105.655 109.904 105.691 109.821 105.742 109.747C105.792 109.673 105.857 109.609 105.933 109.561C106.008 109.512 106.093 109.478 106.181 109.462C106.27 109.446 106.36 109.448 106.448 109.467C106.536 109.486 106.619 109.523 106.693 109.575C106.766 109.626 106.829 109.692 106.877 109.768C108.549 112.341 109.191 115.714 108.683 119.267C108.214 122.516 106.887 125.583 104.837 128.152C104.773 128.23 104.693 128.292 104.602 128.335C104.511 128.378 104.412 128.401 104.311 128.4V128.4Z" fill="#535EC1"/>
</g>
<g style="mix-blend-mode:multiply">
<path d="M97.8019 120.884C97.6262 120.884 97.4573 120.816 97.3308 120.694C97.2043 120.572 97.13 120.406 97.1235 120.231C97.0797 118.961 96.8937 117.7 96.569 116.471C96.5459 116.385 96.5401 116.295 96.5518 116.207C96.5634 116.119 96.5924 116.033 96.6371 115.956C96.6817 115.879 96.7411 115.812 96.8119 115.758C96.8827 115.703 96.9635 115.664 97.0497 115.641C97.1359 115.618 97.2258 115.612 97.3143 115.624C97.4027 115.635 97.488 115.664 97.5652 115.709C97.6425 115.753 97.7102 115.812 97.7644 115.883C97.8187 115.954 97.8585 116.034 97.8816 116.12C98.2326 117.447 98.4337 118.809 98.4812 120.18C98.4879 120.36 98.4229 120.535 98.3004 120.667C98.1779 120.799 98.0079 120.877 97.8278 120.883L97.8019 120.884Z" fill="#535EC1"/>
</g>
<g style="mix-blend-mode:multiply">
<path d="M96.2241 130.446C96.1131 130.445 96.0039 130.418 95.9058 130.366C95.8078 130.314 95.7241 130.239 95.6618 130.147C95.5996 130.056 95.5608 129.95 95.5489 129.84C95.5369 129.73 95.5522 129.618 95.5933 129.516C96.4902 127.288 97.0396 124.937 97.2224 122.544C97.2287 122.455 97.2524 122.369 97.2923 122.289C97.3322 122.209 97.3874 122.138 97.4547 122.08C97.5221 122.022 97.6003 121.977 97.6849 121.949C97.7696 121.921 97.8589 121.909 97.9479 121.916C98.0369 121.922 98.1237 121.946 98.2035 121.986C98.2833 122.025 98.3545 122.08 98.413 122.148C98.4714 122.215 98.516 122.293 98.5443 122.377C98.5725 122.462 98.5838 122.551 98.5775 122.64C98.3846 125.173 97.8038 127.662 96.8554 130.019C96.8049 130.145 96.7177 130.253 96.6052 130.329C96.4927 130.405 96.36 130.446 96.2241 130.446V130.446Z" fill="#535EC1"/>
</g>
<g style="mix-blend-mode:multiply">
<path d="M86.3713 125.283C86.2661 125.283 86.1624 125.258 86.0683 125.211C85.9742 125.164 85.8923 125.096 85.829 125.012C85.7657 124.929 85.7227 124.831 85.7034 124.728C85.6841 124.625 85.6891 124.519 85.7179 124.418C86.0949 123.072 86.1986 121.664 86.0227 120.277C86.0006 120.099 86.0504 119.919 86.1612 119.777C86.272 119.635 86.4347 119.543 86.6136 119.521C86.7924 119.499 86.9727 119.549 87.1147 119.659C87.2568 119.77 87.3491 119.932 87.3712 120.111C87.569 121.679 87.451 123.27 87.0239 124.791C86.9832 124.933 86.8976 125.057 86.7799 125.146C86.6622 125.235 86.5188 125.283 86.3713 125.283V125.283Z" fill="#535EC1"/>
</g>
<g style="mix-blend-mode:multiply">
<path d="M105.408 116.763C105.319 116.763 105.231 116.745 105.148 116.711C105.065 116.677 104.99 116.627 104.927 116.564C104.864 116.502 104.814 116.427 104.78 116.344C104.745 116.262 104.728 116.174 104.728 116.085C104.727 114.847 104.425 113.628 103.847 112.534C103.268 111.439 102.431 110.501 101.408 109.802C101.26 109.7 101.158 109.544 101.125 109.367C101.092 109.19 101.13 109.008 101.232 108.859C101.334 108.711 101.491 108.609 101.668 108.576C101.845 108.543 102.028 108.582 102.177 108.684C103.382 109.508 104.368 110.612 105.049 111.902C105.73 113.192 106.086 114.627 106.087 116.085C106.086 116.265 106.015 116.437 105.888 116.564C105.761 116.691 105.588 116.762 105.408 116.763V116.763Z" fill="#535EC1"/>
</g>
<g style="mix-blend-mode:multiply">
<path d="M88.7906 116.763C88.6104 116.763 88.4377 116.691 88.3103 116.564C88.1829 116.437 88.1113 116.265 88.1113 116.085C88.1124 114.83 88.3772 113.589 88.8888 112.442C89.4003 111.295 90.1472 110.268 91.0811 109.427C92.0151 108.586 93.1154 107.95 94.311 107.56C95.5066 107.17 96.7708 107.035 98.0222 107.162C98.1115 107.171 98.1984 107.196 98.2776 107.238C98.3569 107.28 98.4271 107.338 98.4841 107.407C98.5411 107.476 98.5838 107.556 98.6097 107.641C98.6357 107.727 98.6443 107.817 98.6352 107.906C98.6261 107.995 98.5994 108.082 98.5566 108.16C98.5138 108.239 98.4559 108.308 98.386 108.365C98.3162 108.421 98.2359 108.463 98.1498 108.488C98.0636 108.513 97.9734 108.521 97.8842 108.511C97.6235 108.484 97.3616 108.47 97.0995 108.469C95.0764 108.471 93.1367 109.274 91.7062 110.702C90.2757 112.129 89.4711 114.065 89.469 116.084C89.4692 116.263 89.3979 116.436 89.2706 116.563C89.1434 116.691 88.9707 116.762 88.7906 116.763Z" fill="#535EC1"/>
</g>
<g style="mix-blend-mode:multiply">
<path d="M88.578 127.482C88.4682 127.482 88.3601 127.455 88.2628 127.405C88.1655 127.354 88.082 127.28 88.0195 127.19C87.9569 127.1 87.9172 126.997 87.9036 126.888C87.8901 126.779 87.9032 126.669 87.9417 126.566C88.8561 124.116 89.0201 121.45 88.4129 118.907C88.3906 118.82 88.386 118.729 88.3991 118.64C88.4123 118.551 88.443 118.466 88.4895 118.389C88.536 118.312 88.5974 118.245 88.6701 118.192C88.7427 118.139 88.8253 118.101 88.9128 118.08C89.0004 118.059 89.0912 118.056 89.1801 118.07C89.2689 118.084 89.354 118.116 89.4304 118.164C89.5068 118.211 89.573 118.274 89.6251 118.347C89.6772 118.42 89.7141 118.503 89.7338 118.591C90.4048 121.397 90.2239 124.339 89.2143 127.042C89.1656 127.171 89.0786 127.283 88.9649 127.361C88.8512 127.44 88.7163 127.482 88.578 127.482V127.482Z" fill="#535EC1"/>
</g>
<g style="mix-blend-mode:multiply">
<path d="M98.9046 130.491C98.7596 130.491 98.6185 130.445 98.5017 130.359C98.385 130.274 98.2988 130.153 98.2557 130.015C98.2127 129.877 98.2151 129.729 98.2625 129.592C98.3099 129.455 98.3999 129.337 98.5193 129.255C100.21 128.098 101.636 126.596 102.703 124.849C103.77 123.101 104.454 121.148 104.709 119.118C104.721 119.03 104.75 118.945 104.795 118.868C104.84 118.791 104.899 118.723 104.97 118.669C105.041 118.615 105.122 118.576 105.208 118.553C105.295 118.53 105.384 118.525 105.473 118.537C105.561 118.548 105.646 118.578 105.724 118.622C105.801 118.667 105.868 118.726 105.922 118.797C105.976 118.868 106.016 118.949 106.039 119.035C106.062 119.121 106.067 119.21 106.056 119.299C105.776 121.517 105.028 123.65 103.862 125.559C102.696 127.468 101.137 129.108 99.289 130.372C99.1761 130.45 99.0419 130.492 98.9046 130.491V130.491Z" fill="#535EC1"/>
</g>
<g style="mix-blend-mode:multiply">
<path d="M92.2118 114.221C92.095 114.221 91.9803 114.191 91.8787 114.134C91.7771 114.077 91.6919 113.994 91.6315 113.894C91.571 113.795 91.5373 113.681 91.5336 113.565C91.5298 113.449 91.5562 113.333 91.6101 113.23C92.0481 112.392 92.6731 111.665 93.437 111.106C94.2008 110.546 95.0831 110.169 96.0159 110.004C96.9486 109.839 97.907 109.889 98.8172 110.151C99.7274 110.414 100.565 110.881 101.266 111.517C101.332 111.577 101.385 111.65 101.423 111.73C101.461 111.811 101.483 111.898 101.487 111.987C101.491 112.076 101.478 112.165 101.447 112.248C101.417 112.332 101.371 112.409 101.311 112.475C101.251 112.541 101.178 112.594 101.097 112.632C101.017 112.67 100.929 112.691 100.84 112.696C100.751 112.7 100.662 112.686 100.578 112.656C100.494 112.626 100.417 112.58 100.351 112.52C99.804 112.023 99.1501 111.658 98.4396 111.454C97.7292 111.249 96.9811 111.21 96.253 111.339C95.525 111.468 94.8363 111.762 94.2402 112.199C93.644 112.635 93.1562 113.203 92.8143 113.857C92.757 113.967 92.6704 114.059 92.5642 114.123C92.4579 114.188 92.336 114.222 92.2118 114.221Z" fill="#535EC1"/>
</g>
<g style="mix-blend-mode:multiply">
<path d="M92.4555 123.311C92.2757 123.311 92.1032 123.24 91.9758 123.113C91.8485 122.987 91.7767 122.815 91.7763 122.635C91.7726 120.7 91.5091 118.774 90.9928 116.909C90.9448 116.736 90.9678 116.551 91.0566 116.394C91.1455 116.238 91.293 116.123 91.4667 116.075C91.6404 116.027 91.826 116.05 91.9827 116.139C92.1395 116.227 92.2545 116.375 92.3025 116.548C92.8514 118.53 93.1319 120.576 93.1364 122.633C93.1366 122.722 93.1193 122.81 93.0853 122.892C93.0514 122.975 93.0015 123.05 92.9385 123.113C92.8755 123.176 92.8007 123.226 92.7184 123.26C92.636 123.294 92.5477 123.312 92.4584 123.312L92.4555 123.311Z" fill="#535EC1"/>
</g>
<g style="mix-blend-mode:multiply">
<path d="M91.1646 129.083C91.0679 129.084 90.9723 129.063 90.8844 129.023C90.8031 128.986 90.7299 128.933 90.669 128.868C90.6081 128.803 90.5606 128.727 90.5292 128.644C90.4978 128.56 90.4832 128.472 90.4862 128.383C90.4892 128.294 90.5097 128.206 90.5466 128.125C90.9914 127.148 91.305 126.116 91.4794 125.057C91.4932 124.969 91.5244 124.884 91.5712 124.808C91.618 124.732 91.6795 124.665 91.7521 124.613C91.8247 124.56 91.907 124.523 91.9942 124.502C92.0815 124.482 92.1719 124.479 92.2604 124.493C92.3488 124.508 92.4335 124.539 92.5096 124.587C92.5857 124.634 92.6516 124.696 92.7037 124.769C92.7557 124.841 92.7927 124.924 92.8127 125.011C92.8326 125.098 92.8351 125.188 92.8199 125.277C92.6263 126.454 92.2779 127.6 91.7838 128.686C91.7297 128.805 91.6426 128.905 91.5328 128.976C91.4229 129.046 91.2951 129.084 91.1646 129.083V129.083Z" fill="#535EC1"/>
</g>
<g style="mix-blend-mode:multiply">
<path d="M103.188 120.275C103.174 120.275 103.159 120.275 103.145 120.275C103.055 120.27 102.968 120.247 102.888 120.207C102.808 120.168 102.737 120.114 102.678 120.047C102.619 119.98 102.573 119.902 102.545 119.818C102.516 119.734 102.504 119.645 102.509 119.556C102.613 117.975 102.395 116.39 101.87 114.896C101.839 114.811 101.825 114.722 101.829 114.632C101.833 114.542 101.854 114.454 101.893 114.372C101.931 114.291 101.985 114.218 102.052 114.158C102.119 114.097 102.198 114.051 102.283 114.021C102.368 113.991 102.458 113.979 102.548 113.984C102.638 113.989 102.726 114.013 102.807 114.052C102.888 114.092 102.96 114.147 103.019 114.215C103.078 114.283 103.124 114.362 103.152 114.447C103.737 116.112 103.98 117.878 103.865 119.639C103.855 119.811 103.779 119.973 103.653 120.091C103.527 120.209 103.361 120.275 103.188 120.275Z" fill="#535EC1"/>
</g>
<g style="mix-blend-mode:multiply">
<path d="M93.5585 129.984C93.4452 129.984 93.3338 129.956 93.2343 129.902C93.1348 129.848 93.0504 129.77 92.9887 129.675C92.9271 129.581 92.8902 129.472 92.8814 129.359C92.8727 129.247 92.8922 129.134 92.9384 129.03C93.2584 128.313 93.5286 127.575 93.7473 126.821C93.8008 126.653 93.918 126.512 94.074 126.428C94.23 126.345 94.4125 126.325 94.5826 126.374C94.7526 126.423 94.8969 126.536 94.9847 126.69C95.0725 126.843 95.0968 127.024 95.0525 127.195C94.8163 128.009 94.5246 128.806 94.1793 129.58C94.1261 129.7 94.0391 129.802 93.9289 129.874C93.8187 129.946 93.69 129.984 93.5585 129.984V129.984Z" fill="#535EC1"/>
</g>
<g style="mix-blend-mode:multiply">
<path d="M94.8456 125.567C94.8113 125.568 94.777 125.565 94.743 125.56C94.5649 125.533 94.4048 125.437 94.2979 125.292C94.1911 125.147 94.1461 124.966 94.1731 124.788C94.4104 123.207 94.3976 121.598 94.1351 120.02C94.1103 119.845 94.1551 119.667 94.2601 119.524C94.365 119.381 94.5217 119.285 94.6967 119.256C94.8717 119.227 95.0512 119.268 95.1967 119.369C95.3423 119.47 95.4424 119.624 95.4757 119.798C95.5678 120.353 95.6318 120.913 95.6675 121.474C95.7424 122.649 95.6918 123.827 95.5165 124.991C95.4922 125.151 95.4112 125.297 95.2881 125.403C95.165 125.509 95.0081 125.567 94.8456 125.567Z" fill="#535EC1"/>
</g>
<g style="mix-blend-mode:multiply">
<path d="M100.808 121.139C100.628 121.139 100.455 121.067 100.328 120.94C100.201 120.813 100.129 120.641 100.129 120.461C100.129 118.187 99.4956 113.889 97.0993 113.889C96.5158 113.889 95.9564 114.121 95.5438 114.533C95.1312 114.944 94.8992 115.503 94.8985 116.085C94.8985 116.126 94.8985 116.168 94.9018 116.207C94.9069 116.296 94.8943 116.385 94.8648 116.469C94.8354 116.553 94.7896 116.63 94.7302 116.697C94.6708 116.763 94.5988 116.817 94.5184 116.856C94.4381 116.895 94.3509 116.917 94.2618 116.922C94.1727 116.927 94.0836 116.914 93.9994 116.885C93.9152 116.856 93.8376 116.81 93.7711 116.751C93.7046 116.691 93.6504 116.62 93.6117 116.539C93.573 116.459 93.5505 116.372 93.5455 116.283C93.5417 116.218 93.54 116.151 93.54 116.085C93.541 115.143 93.9163 114.24 94.5836 113.574C95.2508 112.908 96.1556 112.534 97.0993 112.533C100.338 112.533 101.488 116.803 101.488 120.461C101.488 120.641 101.416 120.813 101.289 120.94C101.161 121.067 100.988 121.139 100.808 121.139V121.139Z" fill="#535EC1"/>
</g>
<g style="mix-blend-mode:multiply">
<path d="M99.5121 127.242C99.4169 127.242 99.3228 127.222 99.2361 127.183C99.1544 127.147 99.0807 127.095 99.0191 127.03C98.9575 126.966 98.9092 126.89 98.8771 126.807C98.8449 126.724 98.8295 126.635 98.8318 126.546C98.834 126.457 98.8538 126.369 98.89 126.288C99.4049 125.135 99.7637 123.919 99.957 122.672C99.9847 122.494 100.082 122.335 100.227 122.229C100.373 122.122 100.555 122.078 100.733 122.106C100.911 122.134 101.07 122.231 101.177 122.376C101.283 122.521 101.327 122.702 101.3 122.88C101.088 124.246 100.695 125.577 100.132 126.84C100.079 126.959 99.9918 127.061 99.8817 127.132C99.7717 127.204 99.6433 127.242 99.5121 127.242V127.242Z" fill="#535EC1"/>
</g>
</g>
<path d="M137.51 173.446C136.515 174.215 135.357 174.746 134.124 174.999C133.606 175.132 133.047 174.955 133.047 175.808H135.904L138.28 175.397V175.808H139.563C139.563 175.808 139.92 173.714 139.17 173.446H137.51Z" fill="#2A2E2F"/>
<path d="M137.655 171.944L137.51 173.448C137.739 173.606 138.01 173.696 138.288 173.705C138.567 173.715 138.843 173.644 139.082 173.501L139.17 173.448L139.704 171.944H137.655Z" fill="#FFC996"/>
<path d="M148.928 173.446C147.933 174.215 146.774 174.746 145.542 174.999C145.023 175.132 144.464 174.955 144.464 175.808H147.32L149.696 175.397V175.808H150.979C150.979 175.808 151.337 173.714 150.587 173.446H148.928Z" fill="#2A2E2F"/>
<path d="M149.072 171.944L148.928 173.448C149.157 173.606 149.427 173.696 149.706 173.705C149.985 173.715 150.26 173.644 150.5 173.501L150.588 173.448L151.121 171.944H149.072Z" fill="#FFC996"/>
<path d="M142.061 134.292H138.774L137.619 172.301H139.84L146.364 141.366L142.061 134.292Z" fill="#2A2E2F"/>
<path d="M140.995 134.292L148.677 172.301H151.121L150.121 134.292H140.995Z" fill="#2A2E2F"/>
<path d="M147.669 142.649L148.405 142.597C148.4 142.266 148.523 141.945 148.747 141.701C148.934 141.542 149.151 141.422 149.385 141.347C149.619 141.272 149.865 141.244 150.11 141.265C150.637 141.216 151.163 141.371 151.58 141.697C151.748 141.86 151.845 142.083 151.849 142.316L152.586 142.358C152.591 142.148 152.553 141.939 152.474 141.743C152.395 141.548 152.278 141.371 152.128 141.223C151.854 140.982 151.534 140.8 151.187 140.686C150.84 140.571 150.474 140.528 150.111 140.558C149.763 140.533 149.415 140.58 149.087 140.695C148.759 140.81 148.457 140.991 148.202 141.226C148.023 141.416 147.884 141.64 147.793 141.884C147.701 142.129 147.659 142.389 147.669 142.649Z" fill="#2A2E2F"/>
<path d="M144.525 150.565H155.524V143.503H144.525V150.565Z" fill="#2A2E2F"/>
<path d="M149.622 148.264C149.622 148.695 149.828 148.744 150.081 148.744C150.334 148.744 150.54 148.695 150.54 148.264V146.769C152.225 146.62 153.893 146.322 155.524 145.878V151.449C155.524 151.946 155.331 152.35 155.038 152.35H145.011C144.717 152.35 144.525 151.946 144.525 151.449V145.897C146.199 146.317 147.903 146.605 149.622 146.758V148.264Z" fill="#FFA653"/>
<path d="M146.743 146.37C147.234 147.372 147.804 148.334 148.448 149.246C149.258 150.335 150.138 151.37 151.082 152.345H145.011C144.717 152.345 144.525 151.941 144.525 151.444V145.892C145.556 146.132 146.156 146.266 146.743 146.37Z" fill="#FFC996"/>
<path d="M145.011 141.988H155.038C155.332 141.988 155.524 142.391 155.524 142.889V145.589C153.914 146.116 152.234 146.401 150.54 146.434V146.068C150.54 145.637 150.334 145.589 150.081 145.589C149.828 145.589 149.622 145.637 149.622 146.068V146.432C147.891 146.403 146.173 146.119 144.525 145.589V142.889C144.525 142.391 144.718 141.988 145.011 141.988Z" fill="#FF7B00"/>
<path d="M149.479 147.617V147.152C149.479 147.1 149.5 147.05 149.537 147.012C149.575 146.975 149.625 146.954 149.678 146.954H150.473C150.526 146.954 150.577 146.975 150.614 147.012C150.652 147.049 150.673 147.1 150.673 147.152V147.617C150.673 147.669 150.652 147.72 150.614 147.757C150.577 147.794 150.526 147.815 150.473 147.815H149.678C149.625 147.815 149.575 147.794 149.537 147.757C149.5 147.72 149.479 147.669 149.479 147.617V147.617ZM149.678 147.011C149.64 147.011 149.604 147.026 149.578 147.052C149.551 147.079 149.536 147.115 149.536 147.152V147.617C149.536 147.654 149.551 147.69 149.578 147.717C149.604 147.743 149.64 147.758 149.678 147.759H150.473C150.511 147.759 150.547 147.744 150.574 147.717C150.601 147.69 150.616 147.654 150.616 147.617V147.152C150.616 147.134 150.612 147.115 150.605 147.098C150.598 147.081 150.587 147.065 150.574 147.052C150.561 147.039 150.545 147.029 150.528 147.022C150.511 147.015 150.492 147.011 150.473 147.011H149.678Z" fill="white"/>
<path d="M150.025 147.332C150.026 147.338 150.027 147.345 150.03 147.351C150.033 147.357 150.036 147.362 150.041 147.366C150.046 147.371 150.051 147.374 150.058 147.376C150.064 147.379 150.07 147.38 150.077 147.38C150.083 147.38 150.09 147.379 150.096 147.376C150.102 147.374 150.107 147.371 150.112 147.366C150.117 147.362 150.121 147.357 150.123 147.351C150.126 147.345 150.127 147.338 150.128 147.332V146.686C150.127 146.68 150.126 146.674 150.123 146.668C150.121 146.662 150.117 146.657 150.112 146.652C150.107 146.648 150.102 146.644 150.096 146.642C150.09 146.64 150.083 146.639 150.077 146.639V146.639C150.07 146.639 150.064 146.64 150.058 146.642C150.051 146.644 150.046 146.648 150.041 146.652C150.036 146.657 150.033 146.662 150.03 146.668C150.027 146.674 150.026 146.68 150.025 146.686V147.332Z" fill="white"/>
<path d="M122.965 128.641C122.501 128.935 121.963 129.09 121.413 129.09C120.499 129.166 118.552 128.768 118.923 129.67C119.799 130.139 120.77 130.799 120.77 130.799C121.492 130.955 122.245 130.857 122.903 130.523L124.608 129.484C124.608 129.484 124.755 128.528 124.77 128.484L124.379 128.325C123.927 128.503 123.45 128.61 122.965 128.641Z" fill="#FFC996"/>
<path d="M122.652 129.042C122.622 129.082 122.588 129.119 122.551 129.152C122.672 129.201 122.786 129.256 122.904 129.314C123.383 129.327 123.861 129.354 124.339 129.372C124.309 129.097 124.269 128.71 124.271 128.682L121.161 127.943C121.161 127.943 120.91 128.27 121.478 128.622C121.838 128.838 122.237 128.981 122.652 129.042V129.042Z" fill="#FFC996"/>
<path d="M149.601 138.716L148.567 140.984C148.668 141.603 148.899 142.193 149.247 142.716C149.315 142.787 149.404 142.835 149.5 142.855C149.597 142.874 149.697 142.864 149.788 142.825C150.356 142.624 150.891 142.34 151.376 141.983C151.414 141.924 151.439 141.856 151.448 141.787C151.456 141.717 151.449 141.646 151.426 141.579L151.125 140.581L151.088 138.253L149.601 138.716Z" fill="#FFC996"/>
<path d="M143.514 111.447L143.479 114.486L146.192 114.34L146.363 109.629L143.514 111.447Z" fill="#FFC996"/>
<path d="M143.062 111.728C142.742 111.747 142.425 111.671 142.148 111.511C141.054 109.927 142.3 105.647 142.3 105.647L144.047 104.913L146.268 106.295L146.394 109.162C146.406 109.547 146.322 109.93 146.149 110.275C145.976 110.62 145.719 110.917 145.403 111.139C144.69 111.542 143.881 111.746 143.062 111.728V111.728Z" fill="#FFC996"/>
<path d="M145.652 107.921C145.529 107.439 145.86 106.328 145.368 106.408C145.01 106.466 143.78 106.517 143.369 106.517C142.384 106.517 140.628 106.133 140.628 104.639C140.622 104.35 140.707 104.067 140.873 103.83C141.038 103.593 141.275 103.415 141.549 103.321C142.001 103.133 142.511 103.673 142.973 103.835C144.233 104.232 145.549 104.423 146.869 104.401C147.171 104.375 147.472 104.452 147.723 104.62C147.974 104.788 148.161 105.036 148.251 105.325C148.361 106.192 147.78 107.513 147.348 108.348C147.099 108.831 146.766 109.266 146.365 109.632V109.632L145.652 107.921Z" fill="#2A2E2F"/>
<path d="M146.917 108.028C146.777 107.936 146.61 107.895 146.444 107.909C146.277 107.924 146.12 107.995 145.999 108.11C145.712 108.348 145.656 108.696 145.876 108.892C146.016 108.984 146.183 109.025 146.349 109.011C146.516 108.996 146.673 108.925 146.794 108.81C147.081 108.571 147.136 108.221 146.917 108.028Z" fill="#FFC996"/>
<path d="M144.922 113.533C146.017 113.524 147.102 113.746 148.106 114.184C149.182 114.675 150.129 115.408 150.873 116.325C151.617 117.243 152.138 118.32 152.396 119.472C153.258 123.13 154.706 131.808 151.388 139.416C150.648 139.466 149.907 139.466 149.167 139.416L148.814 121.482L149.065 134.292H138.774V126.031C138.774 126.031 138.508 127.897 136.021 129.619C133.534 131.342 124.207 130.197 124.207 130.197V128.255C124.207 128.255 132.381 126.541 133.711 125.533C135.041 124.524 137.921 117.254 137.921 117.254C138.361 116.374 138.994 115.603 139.774 115C140.553 114.397 141.458 113.976 142.422 113.769C143.245 113.606 144.083 113.527 144.922 113.533Z" fill="#2372B8"/>
<path d="M148.921 134.363L148.679 122.019L148.945 122.012L149.19 134.364L148.921 134.363Z" fill="#9CCDF8"/>
<path d="M146.244 112.667L146.411 113.664L143.294 113.659L143.498 112.666L146.244 112.667Z" fill="white"/>
<path d="M66.2633 137.275L69.3601 143.095L65.9493 142.931L65.71 137.087L66.2633 137.275Z" fill="#FFC996"/>
<path d="M61.4004 134.693L64.2614 134.688L65.4469 153.14H60.3184L61.4004 134.693Z" fill="#2995F5"/>
<path d="M56.148 188.857C55.9567 189.005 55.8043 189.197 55.7038 189.417C55.6034 189.637 55.5578 189.877 55.5711 190.119C55.7005 190.823 55.884 192.481 55.884 192.481H56.6132L56.5908 190.937C56.5908 190.836 58.1498 192.481 58.4138 192.481H62.2586C62.2586 192.481 62.5144 191.44 60.2551 191.104C57.9957 190.769 56.148 188.857 56.148 188.857Z" fill="#2A2E2F"/>
<path d="M57.8158 188.153L58.3369 189.507C58.4653 189.878 58.7156 190.195 59.0472 190.407C59.6033 190.763 60.2082 191.037 60.8432 191.22C59.7982 192.111 58.1346 191.181 57.1831 190.524C56.7202 190.202 56.3897 189.724 56.2527 189.179L56.0352 188.153H57.8158Z" fill="#FFC996"/>
<path d="M63.4766 188.857C63.2854 189.005 63.1329 189.197 63.0324 189.417C62.9318 189.637 62.8861 189.877 62.8992 190.119C63.0285 190.823 63.212 192.481 63.212 192.481H63.9389L63.9171 190.937C63.9171 190.836 65.4761 192.481 65.7401 192.481H69.5873C69.5873 192.481 69.8425 191.44 67.5837 191.104C65.325 190.769 63.4766 188.857 63.4766 188.857Z" fill="#2A2E2F"/>
<path d="M65.144 188.153L65.6656 189.507C65.7936 189.878 66.044 190.196 66.376 190.407C66.9319 190.763 67.5369 191.037 68.1719 191.22C67.1263 192.111 65.4627 191.181 64.5112 190.524C64.0485 190.202 63.7181 189.724 63.5815 189.179L63.3633 188.153H65.144Z" fill="#FFC996"/>
<path d="M59.2063 153.142C59.2063 153.142 58.7258 155.9 61.4898 169.456C59.2522 176.52 62.8353 188.34 62.8353 188.34H65.4469L67.2246 153.143L59.2063 153.142Z" fill="#1E5A91"/>
<path d="M63.9473 134.693L64.8752 157.08L67.9491 155.766C67.0156 152.504 66.5927 149.117 66.6953 145.726C66.2249 141.5 68.626 143.73 65.685 135.599C64.59 134.693 63.9473 134.693 63.9473 134.693Z" fill="#CF5B1A"/>
<path d="M64.3482 132.382L63.9883 134.27C63.9518 134.462 63.8688 134.643 63.7466 134.796C63.6243 134.948 63.4665 135.069 63.2869 135.147C63.1072 135.226 62.9111 135.259 62.7157 135.244C62.5202 135.23 62.3313 135.168 62.1653 135.064L60.9033 134.274L63.1562 129.193L64.3482 132.382Z" fill="#FFC996"/>
<path d="M56.6934 153.142C56.6934 153.142 53.2714 155.9 56.0353 169.456C53.8007 176.52 55.7719 188.34 55.7719 188.34H58.1165L64.7117 153.143L56.6934 153.142Z" fill="#2372B8"/>
<path d="M61.4002 132.798C61.4002 132.798 58.5122 134.417 57.6148 135.864C56.7592 137.242 56.4628 140.382 56.3799 143.172C56.267 147.007 54.4116 157.08 54.4116 157.08H62.1536L62.347 135.148L61.4002 132.798Z" fill="#CF5B1A"/>
<path d="M67.1004 126.72C65.3492 126.278 63.6649 128.07 63.6649 128.07L62.3477 135.151L60.3212 132.035C60.3212 132.035 60.2036 127.801 62.1642 124.998C63.5667 123.299 66.2583 123.787 67.6191 125.438C68.2238 126.29 68.4865 127.337 68.3554 128.372C68.2689 129.742 67.8802 137.604 67.8802 137.604L63.8684 134.639C63.9819 133.879 64.1421 133.126 64.3483 132.386C65.0093 129.881 68.2766 127.018 67.1004 126.72Z" fill="#2A2E2F"/>
<path d="M63.1412 127.96C63.292 127.922 63.4515 127.941 63.5893 128.013C63.7271 128.085 63.8337 128.205 63.8886 128.35C63.9288 128.412 63.9559 128.482 63.9682 128.555C63.9804 128.628 63.9776 128.703 63.9599 128.775C63.9422 128.847 63.9099 128.915 63.8651 128.974C63.8203 129.033 63.7638 129.082 63.6992 129.119C63.5484 129.157 63.3889 129.138 63.251 129.066C63.113 128.995 63.0063 128.875 62.9512 128.73C62.911 128.667 62.8839 128.597 62.8717 128.524C62.8595 128.451 62.8623 128.376 62.8801 128.304C62.8979 128.232 62.9302 128.165 62.9751 128.105C63.02 128.046 63.0765 127.997 63.1412 127.96Z" fill="#FFC996"/>
<path d="M65.0191 132.714C65.2857 132.841 65.5857 132.88 65.8759 132.825C67.399 131.724 67.9488 127.324 67.9488 127.324L66.7427 126.046L64.341 126.574L63.1572 129.195C63.0015 129.539 62.9292 129.916 62.9463 130.294C62.9634 130.672 63.0693 131.04 63.2554 131.37C63.6996 131.98 64.3126 132.447 65.0191 132.714V132.714Z" fill="#FFC996"/>
<path d="M67.5012 126.629C67.3766 127.96 63.6647 128.069 63.6647 128.069L63.4712 126.267L65.6353 125.079L67.3483 126.107C67.4409 126.266 67.4934 126.446 67.5012 126.629Z" fill="#2A2E2F"/>
<path d="M67.421 126.888C67.4164 127.367 67.5479 127.838 67.8003 128.246L68.0944 127.713L68.0861 127.253L67.7921 126.893C67.7921 126.893 67.5439 126.392 67.421 126.888Z" fill="#2A2E2F"/>
<path d="M58.4041 135.866C54.6581 136.302 56.4276 145.947 57.2321 149.906C57.2784 150.136 57.3727 150.354 57.5089 150.546C57.645 150.738 57.82 150.898 58.0225 151.018C58.225 151.138 58.4505 151.214 58.6842 151.241C58.918 151.269 59.155 151.246 59.3797 151.177C62.6388 150.151 67.4015 145.89 67.4015 145.89L66.6465 144.942L60.3182 146.414C60.3182 146.414 62.7476 135.358 58.4041 135.866Z" fill="#FFC996"/>
<path d="M65.8991 142.673L64.6759 150.229C64.6677 150.281 64.6707 150.334 64.6848 150.384C64.6989 150.434 64.7238 150.48 64.7577 150.52C64.7915 150.56 64.8336 150.592 64.881 150.613C64.9285 150.635 64.9801 150.647 65.0323 150.647H69.8756C69.9614 150.647 70.0443 150.616 70.1096 150.56C70.1748 150.505 70.218 150.428 70.2314 150.343L71.4328 142.791C71.441 142.739 71.4379 142.687 71.4237 142.637C71.4096 142.587 71.3847 142.54 71.3508 142.501C71.3169 142.461 71.2749 142.429 71.2275 142.408C71.1801 142.386 71.1286 142.375 71.0765 142.375H66.2543C66.1693 142.375 66.0871 142.405 66.0222 142.46C65.9572 142.514 65.9136 142.59 65.8991 142.673V142.673Z" fill="#FF7B00"/>
<path d="M71.2743 146.018C71.2958 145.689 71.2674 145.358 71.1902 145.037C71.0726 144.322 71.1049 143.202 70.3734 143.76C69.9604 144.276 69.6939 144.893 69.6018 145.546C69.5682 145.829 69.5916 146.116 69.6709 146.39C69.7502 146.664 69.8837 146.92 70.0635 147.142L70.5663 148.235C71.0762 147.613 71.3293 146.82 71.2743 146.018Z" fill="#FFC996"/>
<path d="M68.106 145.308C68.1058 145.381 68.1275 145.453 68.1681 145.514C68.2087 145.574 68.2664 145.622 68.334 145.65C68.4016 145.678 68.4761 145.685 68.5479 145.671C68.6197 145.657 68.6857 145.621 68.7374 145.57C68.7892 145.518 68.8244 145.452 68.8387 145.381C68.8529 145.309 68.8456 145.235 68.8175 145.167C68.7894 145.1 68.7419 145.042 68.681 145.002C68.6201 144.961 68.5485 144.94 68.4753 144.94C68.3774 144.94 68.2835 144.979 68.2143 145.048C68.1451 145.117 68.1061 145.211 68.106 145.308V145.308Z" fill="white"/>
<path d="M136.212 4.68869L140.668 6.57424L136.475 8.72508L121.248 15.0369L136.212 4.68869Z" fill="#2995F5"/>
<path d="M140.668 6.57529L134.383 11.2199L135.218 9.24687L140.668 6.57529Z" fill="url(#paint7_linear)"/>
<path d="M136.212 4.68884L134.546 0.604643L121.25 15.0377L136.212 4.68884Z" fill="url(#paint8_linear)"/>
<path d="M121.249 15.0365L136.477 8.7243L138.592 14.8518L121.249 15.0365Z" fill="url(#paint9_linear)"/>
<path d="M142.151 10.9953C142.174 10.94 142.183 10.8799 142.178 10.8202C142.172 10.7605 142.152 10.7031 142.119 10.653C142.086 10.6029 142.041 10.5615 141.988 10.5326C141.935 10.5037 141.876 10.4881 141.816 10.4871C141.179 10.4756 140.542 10.5229 139.914 10.6284C139.867 10.6365 139.821 10.6538 139.781 10.6794C139.74 10.705 139.705 10.7383 139.677 10.7776C139.649 10.8168 139.629 10.8612 139.618 10.9081C139.608 10.955 139.607 11.0036 139.615 11.0511C139.623 11.0985 139.641 11.1439 139.666 11.1847C139.692 11.2255 139.726 11.2608 139.765 11.2887C139.805 11.3165 139.849 11.3364 139.896 11.3471C139.943 11.3579 139.992 11.3592 140.04 11.3512C140.623 11.2527 141.215 11.2084 141.807 11.2188C141.88 11.2202 141.952 11.1997 142.014 11.1598C142.075 11.12 142.123 11.0627 142.151 10.9953V10.9953Z" fill="url(#paint10_linear)"/>
<path d="M164.196 45.1623L164.204 45.1403C164.619 43.9292 164.819 42.6549 164.796 41.3742C164.795 41.2768 164.756 41.1837 164.686 41.1153C164.616 41.047 164.522 41.009 164.424 41.0097C164.327 41.0105 164.233 41.0499 164.165 41.1193C164.097 41.1887 164.059 41.2824 164.06 41.3798C164.083 42.5749 163.897 43.7643 163.511 44.8948C163.481 44.9843 163.487 45.0821 163.527 45.1678C163.567 45.2535 163.639 45.3205 163.728 45.3547C163.816 45.389 163.914 45.3879 164.002 45.3517C164.089 45.3155 164.159 45.247 164.197 45.1605L164.196 45.1623ZM164.546 39.3081C164.574 39.2418 164.582 39.1685 164.568 39.0976C164.334 37.8479 163.928 36.636 163.361 35.4958C163.341 35.4511 163.312 35.411 163.275 35.3778C163.239 35.3446 163.196 35.3189 163.15 35.3024C163.104 35.2859 163.054 35.2788 163.005 35.2815C162.956 35.2843 162.908 35.2968 162.864 35.3185C162.82 35.3401 162.78 35.3703 162.748 35.4074C162.716 35.4445 162.692 35.4876 162.677 35.5343C162.662 35.581 162.656 35.6302 162.66 35.6791C162.665 35.728 162.679 35.7756 162.702 35.819C163.238 36.8995 163.622 38.0478 163.845 39.2317C163.86 39.3093 163.899 39.3802 163.957 39.4339C164.015 39.4876 164.089 39.5212 164.167 39.5298C164.246 39.5384 164.325 39.5215 164.393 39.4815C164.461 39.4416 164.515 39.3808 164.545 39.3082L164.546 39.3081ZM162.216 33.8997C162.241 33.8414 162.25 33.7776 162.242 33.7146C162.235 33.6516 162.211 33.5916 162.174 33.5402L162.068 33.3975C161.335 32.438 160.507 31.5553 159.595 30.763C159.521 30.7024 159.427 30.6728 159.331 30.6805C159.236 30.6882 159.148 30.7325 159.085 30.8041C159.022 30.8757 158.99 30.9689 158.995 31.0641C158.999 31.1593 159.041 31.249 159.111 31.3142C159.985 32.0732 160.779 32.919 161.481 33.8385L161.58 33.9715C161.618 34.0239 161.67 34.0654 161.73 34.0915C161.789 34.1176 161.855 34.1276 161.919 34.1203C161.984 34.113 162.046 34.0887 162.098 34.05C162.15 34.0113 162.191 33.9594 162.216 33.8997V33.8997ZM157.937 29.8115C157.969 29.7343 157.974 29.6482 157.951 29.5675C157.928 29.4869 157.877 29.4166 157.808 29.3684C156.775 28.6522 155.694 28.0074 154.573 27.4387C154.53 27.4166 154.483 27.4031 154.435 27.3991C154.386 27.3951 154.338 27.4007 154.292 27.4154C154.246 27.4301 154.203 27.4538 154.167 27.485C154.13 27.5161 154.1 27.5543 154.078 27.5972C154.034 27.6839 154.027 27.7842 154.057 27.8766C154.087 27.969 154.152 28.0461 154.238 28.0913C155.329 28.6449 156.381 29.2725 157.386 29.9696C157.426 29.9974 157.47 30.0171 157.517 30.0277C157.564 30.0383 157.613 30.0395 157.661 30.0313C157.708 30.023 157.754 30.0055 157.794 29.9797C157.835 29.9539 157.87 29.9203 157.898 29.8808C157.913 29.8593 157.926 29.836 157.937 29.8115ZM152.727 26.9503C152.765 26.8616 152.766 26.7616 152.73 26.672C152.694 26.5824 152.624 26.5103 152.536 26.4715C152.453 26.4355 152.371 26.399 152.288 26.3634C152.547 25.8089 152.763 25.2352 152.935 24.6473C152.958 24.555 152.945 24.457 152.898 24.374C152.85 24.291 152.773 24.2296 152.681 24.2027C152.589 24.1759 152.49 24.1858 152.406 24.2302C152.321 24.2747 152.258 24.3503 152.228 24.4409C152.066 25.0017 151.859 25.5486 151.61 26.0765C150.819 25.75 149.979 25.4279 149.053 25.0937C148.962 25.0607 148.86 25.0654 148.772 25.1068C148.729 25.1272 148.69 25.1561 148.657 25.1917C148.625 25.2273 148.6 25.2689 148.584 25.3141C148.567 25.3594 148.56 25.4074 148.563 25.4555C148.565 25.5036 148.577 25.5507 148.598 25.5943C148.618 25.6378 148.647 25.6769 148.683 25.7093C148.719 25.7417 148.761 25.7668 148.806 25.7831C149.698 26.1037 150.51 26.4141 151.274 26.728C151.097 27.0488 150.905 27.3613 150.696 27.6652C150.644 27.7455 150.625 27.8431 150.644 27.9372C150.663 28.0313 150.718 28.1144 150.798 28.1686C150.877 28.2229 150.975 28.2441 151.069 28.2276C151.164 28.2111 151.248 28.1583 151.304 28.0805C151.54 27.7365 151.757 27.3806 151.957 27.0144C152.052 27.0552 152.146 27.0965 152.241 27.1381C152.331 27.1773 152.432 27.1795 152.523 27.1442C152.613 27.109 152.686 27.0391 152.725 26.9501L152.727 26.9503ZM153.311 22.5049C153.327 22.468 153.336 22.4286 153.339 22.3885C153.432 21.1061 153.276 19.817 152.879 18.5922C152.864 18.5463 152.841 18.5037 152.809 18.4669C152.778 18.4301 152.74 18.3997 152.697 18.3776C152.654 18.3556 152.607 18.3421 152.559 18.3381C152.51 18.3341 152.462 18.3396 152.416 18.3542C152.37 18.3689 152.327 18.3925 152.29 18.4236C152.254 18.4547 152.223 18.4928 152.201 18.5356C152.179 18.5785 152.166 18.6252 152.162 18.6733C152.158 18.7213 152.164 18.7697 152.179 18.8156C152.548 19.9507 152.693 21.1458 152.606 22.3347C152.601 22.4204 152.627 22.5051 152.678 22.5741C152.73 22.643 152.804 22.6918 152.888 22.7118C152.971 22.7319 153.059 22.7221 153.136 22.684C153.214 22.6459 153.275 22.5819 153.309 22.5034L153.311 22.5049ZM149.921 29.7283C149.954 29.65 149.959 29.5626 149.934 29.4811C149.91 29.3995 149.857 29.3289 149.787 29.2814C149.716 29.2338 149.631 29.2121 149.546 29.2201C149.461 29.2281 149.382 29.2653 149.321 29.3253C148.477 30.1742 147.496 30.8758 146.419 31.4008C146.335 31.4453 146.271 31.5206 146.242 31.6109C146.212 31.7013 146.219 31.7996 146.261 31.8851C146.303 31.9707 146.376 32.0369 146.466 32.0697C146.555 32.1025 146.654 32.0994 146.741 32.0611C147.894 31.5011 148.943 30.752 149.846 29.845C149.879 29.8118 149.905 29.7726 149.922 29.7295L149.921 29.7283ZM151.959 16.8223C151.981 16.7697 151.99 16.7128 151.987 16.6559C151.983 16.599 151.966 16.5437 151.937 16.4943C151.289 15.391 150.466 14.399 149.5 13.5565C149.427 13.4921 149.331 13.4592 149.234 13.4652C149.137 13.4711 149.046 13.5154 148.982 13.5882C148.917 13.6611 148.885 13.7565 148.891 13.8535C148.897 13.9506 148.942 14.0413 149.015 14.1057C149.921 14.8962 150.693 15.8272 151.302 16.8625C151.336 16.9216 151.386 16.9699 151.447 17.0021C151.507 17.0344 151.575 17.0493 151.643 17.0451C151.712 17.0409 151.777 17.0178 151.833 16.9785C151.889 16.9391 151.932 16.885 151.959 16.8223V16.8223ZM144.825 32.6149C144.852 32.5524 144.86 32.4836 144.85 32.4163C144.84 32.349 144.811 32.2857 144.767 32.2336C144.723 32.1814 144.666 32.1425 144.601 32.1211C144.536 32.0998 144.466 32.0968 144.4 32.1125C144.1 32.1812 143.797 32.2346 143.492 32.2726C142.623 32.3769 141.742 32.3205 140.893 32.1062C140.845 32.0924 140.795 32.0883 140.746 32.094C140.697 32.0998 140.65 32.1154 140.607 32.1398C140.564 32.1643 140.527 32.1971 140.497 32.2363C140.467 32.2755 140.446 32.3203 140.433 32.3681C140.421 32.4159 140.419 32.4656 140.427 32.5143C140.435 32.563 140.452 32.6097 140.478 32.6517C140.504 32.6936 140.539 32.7298 140.579 32.7583C140.619 32.7867 140.665 32.8068 140.713 32.8172C141.651 33.0537 142.624 33.1157 143.584 33C143.914 32.9594 144.243 32.9013 144.567 32.8262C144.624 32.8137 144.677 32.7881 144.722 32.7514C144.766 32.7146 144.802 32.6679 144.825 32.6149V32.6149ZM147.156 24.8743L147.169 24.8386C147.197 24.7456 147.187 24.6451 147.141 24.5591C147.096 24.4731 147.018 24.4087 146.924 24.3799C145.716 23.9774 144.459 23.737 143.188 23.665C143.138 23.6613 143.089 23.6677 143.042 23.6836C142.995 23.6995 142.952 23.7248 142.915 23.7577C142.878 23.7907 142.848 23.8308 142.828 23.8756C142.807 23.9204 142.795 23.9689 142.794 24.0183C142.792 24.0677 142.801 24.1169 142.818 24.163C142.836 24.2091 142.864 24.2512 142.898 24.2867C142.933 24.3221 142.974 24.3503 143.02 24.3694C143.066 24.3885 143.115 24.3983 143.164 24.398C144.371 24.4683 145.563 24.6979 146.709 25.0807C146.797 25.1079 146.891 25.1017 146.974 25.0633C147.056 25.0249 147.122 24.957 147.157 24.873L147.156 24.8743ZM147.797 12.6607C147.831 12.5793 147.835 12.4883 147.807 12.4043C147.779 12.3203 147.723 12.2489 147.647 12.2033C147.147 11.9043 146.627 11.6403 146.091 11.4132C145.45 11.1414 144.786 10.9259 144.107 10.7691C144.06 10.7568 144.01 10.7541 143.962 10.7612C143.913 10.7683 143.866 10.7851 143.824 10.8105C143.782 10.836 143.746 10.8695 143.717 10.9093C143.689 10.949 143.668 10.9941 143.657 11.0419C143.646 11.0896 143.645 11.1391 143.654 11.1874C143.662 11.2357 143.681 11.2819 143.707 11.3231C143.734 11.3643 143.769 11.3998 143.809 11.4275C143.85 11.4551 143.896 11.4744 143.944 11.4841C144.581 11.6313 145.204 11.8334 145.806 12.0882C146.31 12.3022 146.799 12.5508 147.269 12.8322C147.353 12.8822 147.453 12.8971 147.548 12.8737C147.642 12.8502 147.723 12.7903 147.774 12.707C147.782 12.692 147.79 12.6766 147.797 12.6607V12.6607ZM139.123 31.6938C139.155 31.6175 139.161 31.5324 139.138 31.4525C139.116 31.3725 139.067 31.3025 138.999 31.254C138.306 30.7845 137.815 30.0717 137.624 29.2583C137.562 28.9782 137.541 28.6908 137.561 28.4049C137.568 28.3078 137.536 28.2119 137.472 28.1383C137.408 28.0646 137.317 28.0193 137.22 28.0123C137.122 28.0053 137.026 28.0371 136.953 28.1008C136.879 28.1645 136.834 28.2548 136.827 28.3519C136.802 28.7079 136.829 29.0658 136.906 29.4145C137.138 30.4027 137.731 31.2703 138.569 31.8475C138.608 31.8758 138.653 31.8961 138.7 31.9073C138.747 31.9185 138.795 31.9204 138.843 31.9128C138.891 31.9052 138.936 31.8883 138.978 31.8631C139.019 31.8378 139.054 31.8048 139.083 31.7657C139.099 31.7435 139.112 31.7193 139.123 31.6938V31.6938ZM141.308 24.4028C141.34 24.3271 141.345 24.2426 141.323 24.1633C141.31 24.1168 141.288 24.0732 141.259 24.0351C141.229 23.997 141.192 23.965 141.15 23.9411C141.108 23.9171 141.062 23.9017 141.014 23.8956C140.966 23.8895 140.918 23.8929 140.871 23.9056C139.586 24.2618 138.46 25.0395 137.675 26.1134C137.618 26.1925 137.595 26.2909 137.611 26.387C137.627 26.4831 137.681 26.569 137.76 26.6259C137.84 26.6828 137.939 26.7059 138.035 26.6903C138.131 26.6747 138.217 26.6215 138.274 26.5425C138.964 25.6084 139.946 24.93 141.066 24.6135C141.12 24.5988 141.169 24.5723 141.211 24.5358C141.253 24.4993 141.286 24.4538 141.308 24.4028V24.4028Z" fill="url(#paint11_linear)"/>
<path d="M163.194 47.1799C163.229 47.0961 163.231 47.0022 163.201 46.9165C163.17 46.8307 163.109 46.7592 163.029 46.7158C162.949 46.6724 162.855 46.6602 162.767 46.6816C162.678 46.7029 162.601 46.7563 162.55 46.8313C162.223 47.3161 161.844 47.7629 161.418 48.1632C161.347 48.2297 161.305 48.3216 161.303 48.4187C161.3 48.5158 161.336 48.6102 161.403 48.6811C161.469 48.752 161.562 48.7935 161.659 48.7966C161.757 48.7997 161.851 48.7641 161.922 48.6976C162.388 48.26 162.803 47.7719 163.161 47.2425C163.174 47.2227 163.185 47.2017 163.194 47.1799V47.1799Z" fill="url(#paint12_linear)"/>
<defs>
<linearGradient id="paint0_linear" x1="37.543" y1="89.4277" x2="37.543" y2="136.503" gradientUnits="userSpaceOnUse">
<stop stop-color="#5083B3"/>
<stop offset="1" stop-color="#0D3255"/>
</linearGradient>
<linearGradient id="paint1_linear" x1="77.3354" y1="86.4952" x2="80.5885" y2="83.3262" gradientUnits="userSpaceOnUse">
<stop offset="0.00309044" stop-color="#FF7B00"/>
<stop offset="1" stop-color="#FFA653"/>
</linearGradient>
<linearGradient id="paint2_linear" x1="77.6275" y1="90.9863" x2="84.6223" y2="83.9178" gradientUnits="userSpaceOnUse">
<stop offset="0.00309044" stop-color="#FF7B00"/>
<stop offset="1" stop-color="#FFA653"/>
</linearGradient>
<linearGradient id="paint3_linear" x1="103.523" y1="87.0859" x2="121.034" y2="87.948" gradientUnits="userSpaceOnUse">
<stop offset="0.00309044" stop-color="#FF7B00"/>
<stop offset="1" stop-color="#FFA653"/>
</linearGradient>
<linearGradient id="paint4_linear" x1="119.553" y1="149.635" x2="124.56" y2="141.532" gradientUnits="userSpaceOnUse">
<stop offset="0.00309044" stop-color="#FF7B00"/>
<stop offset="1" stop-color="#FFA653"/>
</linearGradient>
<linearGradient id="paint5_linear" x1="120.193" y1="158.852" x2="127.049" y2="151.949" gradientUnits="userSpaceOnUse">
<stop offset="0.00309044" stop-color="#FF7B00"/>
<stop offset="1" stop-color="#FFA653"/>
</linearGradient>
<linearGradient id="paint6_linear" x1="119.114" y1="147.702" x2="121.304" y2="144.705" gradientUnits="userSpaceOnUse">
<stop offset="0.00309044" stop-color="#FF7B00"/>
<stop offset="1" stop-color="#FFA653"/>
</linearGradient>
<linearGradient id="paint7_linear" x1="136.337" y1="7.908" x2="138.23" y2="9.49092" gradientUnits="userSpaceOnUse">
<stop stop-color="#5083B3"/>
<stop offset="1" stop-color="#0D3255"/>
</linearGradient>
<linearGradient id="paint8_linear" x1="127.536" y1="7.51972" x2="131.249" y2="10.6243" gradientUnits="userSpaceOnUse">
<stop stop-color="#5083B3"/>
<stop offset="1" stop-color="#0D3255"/>
</linearGradient>
<linearGradient id="paint9_linear" x1="125.93" y1="9.43829" x2="136.046" y2="17.897" gradientUnits="userSpaceOnUse">
<stop stop-color="#5083B3"/>
<stop offset="1" stop-color="#0D3255"/>
</linearGradient>
<linearGradient id="paint10_linear" x1="140.104" y1="10.2642" x2="141.681" y2="11.5826" gradientUnits="userSpaceOnUse">
<stop stop-color="#5083B3"/>
<stop offset="1" stop-color="#0D3255"/>
</linearGradient>
<linearGradient id="paint11_linear" x1="138.028" y1="17.7122" x2="166.948" y2="41.8931" gradientUnits="userSpaceOnUse">
<stop stop-color="#5083B3"/>
<stop offset="1" stop-color="#0D3255"/>
</linearGradient>
<linearGradient id="paint12_linear" x1="161.974" y1="47.494" x2="162.583" y2="48.0036" gradientUnits="userSpaceOnUse">
<stop stop-color="#5083B3"/>
<stop offset="1" stop-color="#0D3255"/>
</linearGradient>
</defs>
</svg>
