<svg width="225" height="150" viewBox="0 0 225 150" fill="none" xmlns="http://www.w3.org/2000/svg">
<path d="M195.385 33.08C194.832 33.08 194.338 32.94 193.905 32.66C193.478 32.3733 193.142 31.96 192.895 31.42C192.648 30.88 192.525 30.24 192.525 29.5C192.525 28.76 192.648 28.12 192.895 27.58C193.142 27.04 193.478 26.63 193.905 26.35C194.338 26.0633 194.832 25.92 195.385 25.92C195.932 25.92 196.418 26.0633 196.845 26.35C197.278 26.63 197.618 27.04 197.865 27.58C198.112 28.12 198.235 28.76 198.235 29.5C198.235 30.24 198.112 30.88 197.865 31.42C197.618 31.96 197.278 32.3733 196.845 32.66C196.418 32.94 195.932 33.08 195.385 33.08ZM195.385 32.19C195.945 32.19 196.392 31.96 196.725 31.5C197.065 31.04 197.235 30.3733 197.235 29.5C197.235 28.6267 197.065 27.96 196.725 27.5C196.392 27.04 195.945 26.81 195.385 26.81C194.818 26.81 194.365 27.04 194.025 27.5C193.692 27.96 193.525 28.6267 193.525 29.5C193.525 30.3733 193.692 31.04 194.025 31.5C194.365 31.96 194.818 32.19 195.385 32.19ZM201.97 29.84H204.66V30.67H201.97V29.84ZM210.564 26V33H209.574V26.87H207.994V26H210.564ZM214.955 33.08C214.402 33.08 213.909 32.94 213.475 32.66C213.049 32.3733 212.712 31.96 212.465 31.42C212.219 30.88 212.095 30.24 212.095 29.5C212.095 28.76 212.219 28.12 212.465 27.58C212.712 27.04 213.049 26.63 213.475 26.35C213.909 26.0633 214.402 25.92 214.955 25.92C215.502 25.92 215.989 26.0633 216.415 26.35C216.849 26.63 217.189 27.04 217.435 27.58C217.682 28.12 217.805 28.76 217.805 29.5C217.805 30.24 217.682 30.88 217.435 31.42C217.189 31.96 216.849 32.3733 216.415 32.66C215.989 32.94 215.502 33.08 214.955 33.08ZM214.955 32.19C215.515 32.19 215.962 31.96 216.295 31.5C216.635 31.04 216.805 30.3733 216.805 29.5C216.805 28.6267 216.635 27.96 216.295 27.5C215.962 27.04 215.515 26.81 214.955 26.81C214.389 26.81 213.935 27.04 213.595 27.5C213.262 27.96 213.095 28.6267 213.095 29.5C213.095 30.3733 213.262 31.04 213.595 31.5C213.935 31.96 214.389 32.19 214.955 32.19ZM221.625 33.08C221.072 33.08 220.578 32.94 220.145 32.66C219.718 32.3733 219.382 31.96 219.135 31.42C218.888 30.88 218.765 30.24 218.765 29.5C218.765 28.76 218.888 28.12 219.135 27.58C219.382 27.04 219.718 26.63 220.145 26.35C220.578 26.0633 221.072 25.92 221.625 25.92C222.172 25.92 222.658 26.0633 223.085 26.35C223.518 26.63 223.858 27.04 224.105 27.58C224.352 28.12 224.475 28.76 224.475 29.5C224.475 30.24 224.352 30.88 224.105 31.42C223.858 31.96 223.518 32.3733 223.085 32.66C222.658 32.94 222.172 33.08 221.625 33.08ZM221.625 32.19C222.185 32.19 222.632 31.96 222.965 31.5C223.305 31.04 223.475 30.3733 223.475 29.5C223.475 28.6267 223.305 27.96 222.965 27.5C222.632 27.04 222.185 26.81 221.625 26.81C221.058 26.81 220.605 27.04 220.265 27.5C219.932 27.96 219.765 28.6267 219.765 29.5C219.765 30.3733 219.932 31.04 220.265 31.5C220.605 31.96 221.058 32.19 221.625 32.19Z" fill="#48824E"/>
<path d="M2.58254 50.79C3.58254 50.79 4.31587 50.98 4.78254 51.36C5.25587 51.7333 5.49254 52.2467 5.49254 52.9C5.49254 53.3133 5.39254 53.6867 5.19254 54.02C4.99921 54.3467 4.70254 54.6067 4.30254 54.8C3.90921 54.9867 3.42254 55.08 2.84254 55.08C2.34921 55.08 1.87254 55.0067 1.41254 54.86C0.952539 54.7067 0.572539 54.4967 0.272539 54.23L0.732539 53.44C0.972539 53.6667 1.27921 53.85 1.65254 53.99C2.02587 54.1233 2.41921 54.19 2.83254 54.19C3.35921 54.19 3.76587 54.08 4.05254 53.86C4.34587 53.6333 4.49254 53.3267 4.49254 52.94C4.49254 52.52 4.33254 52.2033 4.01254 51.99C3.69254 51.77 3.14587 51.66 2.37254 51.66H0.782539L1.15254 48H5.10254V48.87H1.99254L1.80254 50.79H2.58254ZM9.18473 55.08C8.63139 55.08 8.13806 54.94 7.70473 54.66C7.27806 54.3733 6.94139 53.96 6.69473 53.42C6.44806 52.88 6.32473 52.24 6.32473 51.5C6.32473 50.76 6.44806 50.12 6.69473 49.58C6.94139 49.04 7.27806 48.63 7.70473 48.35C8.13806 48.0633 8.63139 47.92 9.18473 47.92C9.73139 47.92 10.2181 48.0633 10.6447 48.35C11.0781 48.63 11.4181 49.04 11.6647 49.58C11.9114 50.12 12.0347 50.76 12.0347 51.5C12.0347 52.24 11.9114 52.88 11.6647 53.42C11.4181 53.96 11.0781 54.3733 10.6447 54.66C10.2181 54.94 9.73139 55.08 9.18473 55.08ZM9.18473 54.19C9.74473 54.19 10.1914 53.96 10.5247 53.5C10.8647 53.04 11.0347 52.3733 11.0347 51.5C11.0347 50.6267 10.8647 49.96 10.5247 49.5C10.1914 49.04 9.74473 48.81 9.18473 48.81C8.61806 48.81 8.16473 49.04 7.82473 49.5C7.49139 49.96 7.32473 50.6267 7.32473 51.5C7.32473 52.3733 7.49139 53.04 7.82473 53.5C8.16473 53.96 8.61806 54.19 9.18473 54.19ZM15.1354 48V55H14.1454V48.87H12.5654V48H15.1354ZM19.4421 51.84H22.1321V52.67H19.4421V51.84ZM28.1357 47.92C29.0757 47.92 29.7991 48.2233 30.3057 48.83C30.8191 49.4367 31.0757 50.2967 31.0757 51.41C31.0757 52.19 30.9357 52.8567 30.6557 53.41C30.3824 53.9567 29.9957 54.3733 29.4957 54.66C29.0024 54.94 28.4257 55.08 27.7657 55.08C27.4257 55.08 27.1057 55.0467 26.8057 54.98C26.5057 54.9067 26.2457 54.8033 26.0257 54.67L26.4057 53.89C26.7457 54.11 27.1957 54.22 27.7557 54.22C28.4824 54.22 29.0491 53.9967 29.4557 53.55C29.8691 53.0967 30.0757 52.44 30.0757 51.58V51.33C29.8757 51.63 29.5991 51.86 29.2457 52.02C28.8924 52.1733 28.4957 52.25 28.0557 52.25C27.5957 52.25 27.1824 52.1633 26.8157 51.99C26.4557 51.8167 26.1724 51.57 25.9657 51.25C25.7657 50.9233 25.6657 50.55 25.6657 50.13C25.6657 49.69 25.7724 49.3033 25.9857 48.97C26.2057 48.6367 26.5024 48.38 26.8757 48.2C27.2491 48.0133 27.6691 47.92 28.1357 47.92ZM28.2257 51.44C28.5391 51.44 28.8191 51.38 29.0657 51.26C29.3124 51.14 29.5024 50.9767 29.6357 50.77C29.7757 50.5633 29.8457 50.3333 29.8457 50.08C29.8457 49.8333 29.7791 49.61 29.6457 49.41C29.5191 49.2033 29.3291 49.04 29.0757 48.92C28.8291 48.7933 28.5291 48.73 28.1757 48.73C27.7157 48.73 27.3424 48.8533 27.0557 49.1C26.7757 49.3467 26.6357 49.6767 26.6357 50.09C26.6357 50.5033 26.7791 50.8333 27.0657 51.08C27.3524 51.32 27.7391 51.44 28.2257 51.44ZM34.8976 55.08C34.3443 55.08 33.851 54.94 33.4176 54.66C32.991 54.3733 32.6543 53.96 32.4076 53.42C32.161 52.88 32.0376 52.24 32.0376 51.5C32.0376 50.76 32.161 50.12 32.4076 49.58C32.6543 49.04 32.991 48.63 33.4176 48.35C33.851 48.0633 34.3443 47.92 34.8976 47.92C35.4443 47.92 35.931 48.0633 36.3576 48.35C36.791 48.63 37.131 49.04 37.3776 49.58C37.6243 50.12 37.7476 50.76 37.7476 51.5C37.7476 52.24 37.6243 52.88 37.3776 53.42C37.131 53.96 36.791 54.3733 36.3576 54.66C35.931 54.94 35.4443 55.08 34.8976 55.08ZM34.8976 54.19C35.4576 54.19 35.9043 53.96 36.2376 53.5C36.5776 53.04 36.7476 52.3733 36.7476 51.5C36.7476 50.6267 36.5776 49.96 36.2376 49.5C35.9043 49.04 35.4576 48.81 34.8976 48.81C34.331 48.81 33.8776 49.04 33.5376 49.5C33.2043 49.96 33.0376 50.6267 33.0376 51.5C33.0376 52.3733 33.2043 53.04 33.5376 53.5C33.8776 53.96 34.331 54.19 34.8976 54.19ZM41.5675 55.08C41.0142 55.08 40.5209 54.94 40.0875 54.66C39.6609 54.3733 39.3242 53.96 39.0775 53.42C38.8309 52.88 38.7075 52.24 38.7075 51.5C38.7075 50.76 38.8309 50.12 39.0775 49.58C39.3242 49.04 39.6609 48.63 40.0875 48.35C40.5209 48.0633 41.0142 47.92 41.5675 47.92C42.1142 47.92 42.6009 48.0633 43.0275 48.35C43.4609 48.63 43.8009 49.04 44.0475 49.58C44.2942 50.12 44.4175 50.76 44.4175 51.5C44.4175 52.24 44.2942 52.88 44.0475 53.42C43.8009 53.96 43.4609 54.3733 43.0275 54.66C42.6009 54.94 42.1142 55.08 41.5675 55.08ZM41.5675 54.19C42.1275 54.19 42.5742 53.96 42.9075 53.5C43.2475 53.04 43.4175 52.3733 43.4175 51.5C43.4175 50.6267 43.2475 49.96 42.9075 49.5C42.5742 49.04 42.1275 48.81 41.5675 48.81C41.0009 48.81 40.5475 49.04 40.2075 49.5C39.8742 49.96 39.7075 50.6267 39.7075 51.5C39.7075 52.3733 39.8742 53.04 40.2075 53.5C40.5475 53.96 41.0009 54.19 41.5675 54.19Z" fill="#AD3838"/>
<path d="M178.988 138.056V145.056H177.998V138.926H176.418V138.056H178.988ZM183.379 145.136C182.826 145.136 182.332 144.996 181.899 144.716C181.472 144.429 181.136 144.016 180.889 143.476C180.642 142.936 180.519 142.296 180.519 141.556C180.519 140.816 180.642 140.176 180.889 139.636C181.136 139.096 181.472 138.686 181.899 138.406C182.332 138.119 182.826 137.976 183.379 137.976C183.926 137.976 184.412 138.119 184.839 138.406C185.272 138.686 185.612 139.096 185.859 139.636C186.106 140.176 186.229 140.816 186.229 141.556C186.229 142.296 186.106 142.936 185.859 143.476C185.612 144.016 185.272 144.429 184.839 144.716C184.412 144.996 183.926 145.136 183.379 145.136ZM183.379 144.246C183.939 144.246 184.386 144.016 184.719 143.556C185.059 143.096 185.229 142.429 185.229 141.556C185.229 140.682 185.059 140.016 184.719 139.556C184.386 139.096 183.939 138.866 183.379 138.866C182.812 138.866 182.359 139.096 182.019 139.556C181.686 140.016 181.519 140.682 181.519 141.556C181.519 142.429 181.686 143.096 182.019 143.556C182.359 144.016 182.812 144.246 183.379 144.246ZM189.33 138.056V145.056H188.34V138.926H186.76V138.056H189.33ZM193.636 141.896H196.326V142.726H193.636V141.896ZM202.06 140.846C203.06 140.846 203.793 141.036 204.26 141.416C204.733 141.789 204.97 142.302 204.97 142.956C204.97 143.369 204.87 143.742 204.67 144.076C204.477 144.402 204.18 144.662 203.78 144.856C203.387 145.042 202.9 145.136 202.32 145.136C201.827 145.136 201.35 145.062 200.89 144.916C200.43 144.762 200.05 144.552 199.75 144.286L200.21 143.496C200.45 143.722 200.757 143.906 201.13 144.046C201.503 144.179 201.897 144.246 202.31 144.246C202.837 144.246 203.243 144.136 203.53 143.916C203.823 143.689 203.97 143.382 203.97 142.996C203.97 142.576 203.81 142.259 203.49 142.046C203.17 141.826 202.623 141.716 201.85 141.716H200.26L200.63 138.056H204.58V138.926H201.47L201.28 140.846H202.06ZM208.662 145.136C208.109 145.136 207.616 144.996 207.182 144.716C206.756 144.429 206.419 144.016 206.172 143.476C205.926 142.936 205.802 142.296 205.802 141.556C205.802 140.816 205.926 140.176 206.172 139.636C206.419 139.096 206.756 138.686 207.182 138.406C207.616 138.119 208.109 137.976 208.662 137.976C209.209 137.976 209.696 138.119 210.122 138.406C210.556 138.686 210.896 139.096 211.142 139.636C211.389 140.176 211.512 140.816 211.512 141.556C211.512 142.296 211.389 142.936 211.142 143.476C210.896 144.016 210.556 144.429 210.122 144.716C209.696 144.996 209.209 145.136 208.662 145.136ZM208.662 144.246C209.222 144.246 209.669 144.016 210.002 143.556C210.342 143.096 210.512 142.429 210.512 141.556C210.512 140.682 210.342 140.016 210.002 139.556C209.669 139.096 209.222 138.866 208.662 138.866C208.096 138.866 207.642 139.096 207.302 139.556C206.969 140.016 206.802 140.682 206.802 141.556C206.802 142.429 206.969 143.096 207.302 143.556C207.642 144.016 208.096 144.246 208.662 144.246ZM215.332 145.136C214.779 145.136 214.286 144.996 213.852 144.716C213.426 144.429 213.089 144.016 212.842 143.476C212.596 142.936 212.472 142.296 212.472 141.556C212.472 140.816 212.596 140.176 212.842 139.636C213.089 139.096 213.426 138.686 213.852 138.406C214.286 138.119 214.779 137.976 215.332 137.976C215.879 137.976 216.366 138.119 216.792 138.406C217.226 138.686 217.566 139.096 217.812 139.636C218.059 140.176 218.182 140.816 218.182 141.556C218.182 142.296 218.059 142.936 217.812 143.476C217.566 144.016 217.226 144.429 216.792 144.716C216.366 144.996 215.879 145.136 215.332 145.136ZM215.332 144.246C215.892 144.246 216.339 144.016 216.672 143.556C217.012 143.096 217.182 142.429 217.182 141.556C217.182 140.682 217.012 140.016 216.672 139.556C216.339 139.096 215.892 138.866 215.332 138.866C214.766 138.866 214.312 139.096 213.972 139.556C213.639 140.016 213.472 140.682 213.472 141.556C213.472 142.429 213.639 143.096 213.972 143.556C214.312 144.016 214.766 144.246 215.332 144.246Z" fill="#A98A3C"/>
<path fill-rule="evenodd" clip-rule="evenodd" d="M53.731 55.2962L63.3072 58.6857L63.0957 59.2831L53.5195 55.8936L53.731 55.2962Z" fill="#AD3838"/>
<circle cx="52.6363" cy="55.0409" r="1.50506" transform="rotate(-103.414 52.6363 55.0409)" fill="#AD3838"/>
<path fill-rule="evenodd" clip-rule="evenodd" d="M127.371 119.498C151.233 119.498 170.577 100.154 170.577 76.2916C170.577 52.4295 151.233 33.0855 127.371 33.0855C103.509 33.0855 84.1654 52.4295 84.1654 76.2916C84.1654 100.154 103.509 119.498 127.371 119.498ZM127.371 124.567C154.033 124.567 175.647 102.954 175.647 76.2916C175.647 49.6296 154.033 28.0159 127.371 28.0159C100.709 28.0159 79.0957 49.6296 79.0957 76.2916C79.0957 102.954 100.709 124.567 127.371 124.567Z" fill="#F2F2F2"/>
<path fill-rule="evenodd" clip-rule="evenodd" d="M127.37 135.438C160.036 135.438 186.516 108.957 186.516 76.2916C186.516 43.6261 160.036 17.1455 127.37 17.1455C94.7046 17.1455 68.224 43.6261 68.224 76.2916C68.224 108.957 94.7046 135.438 127.37 135.438ZM127.37 140.507C162.836 140.507 191.586 111.757 191.586 76.2916C191.586 40.8262 162.836 12.0758 127.37 12.0758C91.9047 12.0758 63.1543 40.8262 63.1543 76.2916C63.1543 111.757 91.9047 140.507 127.37 140.507Z" fill="#F2F2F2"/>
<path fill-rule="evenodd" clip-rule="evenodd" d="M70.6641 85.0739C72.1226 95.0348 76.178 104.43 82.4228 112.316L75.4673 117.824C68.2538 108.714 63.5701 97.8623 61.8858 86.3592C60.2016 74.8562 61.5761 63.1072 65.8698 52.2915C70.1635 41.4759 77.2256 31.9737 86.3465 24.7382C95.4674 17.5027 106.327 12.7878 117.836 11.0673L118.492 15.4545L117.836 11.0673C120.481 10.6719 123.138 10.4379 125.795 10.3636L126.043 19.232C123.742 19.2964 121.439 19.4992 119.148 19.8417C109.176 21.3324 99.765 25.4179 91.8602 31.6887C83.9554 37.9595 77.8359 46.1941 74.1157 55.5651C70.3955 64.936 69.2057 75.1129 70.6641 85.0739Z" fill="#E04545"/>
<path fill-rule="evenodd" clip-rule="evenodd" d="M127.371 105.835C143.687 105.835 156.914 92.6078 156.914 76.2916C156.914 59.9754 143.687 46.7485 127.371 46.7485C111.054 46.7485 97.8275 59.9754 97.8275 76.2916C97.8275 92.6078 111.054 105.835 127.371 105.835ZM127.371 110.904C146.487 110.904 161.983 95.4077 161.983 76.2916C161.983 57.1755 146.487 41.6788 127.371 41.6788C108.254 41.6788 92.7578 57.1755 92.7578 76.2916C92.7578 95.4077 108.254 110.904 127.371 110.904Z" fill="#F2F2F2"/>
<path fill-rule="evenodd" clip-rule="evenodd" d="M150.002 48.46C156.732 53.7919 161.35 61.3374 163.034 69.7553L154.334 71.4953C153.063 65.1393 149.576 59.4412 144.493 55.4141C139.41 51.3869 133.058 49.2912 126.567 49.5015L126.28 40.6342C134.866 40.356 143.272 43.1283 150.002 48.46L147.248 51.9371L150.002 48.46Z" fill="#65B76D"/>
<path fill-rule="evenodd" clip-rule="evenodd" d="M96.3082 104.587C102.346 111.23 110.353 115.764 119.156 117.526C127.958 119.287 137.094 118.184 145.223 114.376C153.353 110.568 160.049 104.257 164.331 96.3668C168.613 88.4768 170.256 79.4228 169.018 70.5314L177.805 69.3082C179.304 80.0769 177.315 91.0427 172.129 100.599C166.943 110.155 158.832 117.798 148.986 122.41C139.14 127.022 128.076 128.359 117.415 126.225C106.754 124.092 97.0562 118.6 89.7431 110.554L96.3082 104.587Z" fill="#E9C262"/>
<path fill-rule="evenodd" clip-rule="evenodd" d="M175.958 133.193L158.846 116.638L159.287 116.182L176.399 132.738L175.958 133.193Z" fill="#A98A3C"/>
<circle cx="176.165" cy="132.98" r="1.50506" transform="rotate(101.113 176.165 132.98)" fill="#A98A3C"/>
<path fill-rule="evenodd" clip-rule="evenodd" d="M187.091 33.1203L155.239 53.4925L154.895 52.9655L186.746 32.5933L187.091 33.1203Z" fill="#48824E"/>
<ellipse cx="187.185" cy="32.4355" rx="1.50009" ry="1.48355" transform="rotate(24.9548 187.185 32.4355)" fill="#48824E"/>
</svg>
