<svg width="382" height="261" viewBox="0 0 382 261" fill="none" xmlns="http://www.w3.org/2000/svg">
<path d="M299.93 123.564C297.233 135.196 324.879 136.691 336.27 136.817C339.424 136.852 342.574 136.555 345.666 135.932C355.299 133.993 376.386 128.903 373.429 121.982C369.613 113.054 358.151 119.278 358.151 119.278C358.151 119.278 359.59 112.537 340.086 108.084C320.582 103.632 320.659 118.466 320.659 118.466C320.659 118.466 303.318 108.952 299.93 123.564Z" fill="#D0E4F7"/>
<path d="M16.3604 38.9482H138.327C138.327 38.9482 144.941 30.6465 138.327 25.0603C134.676 21.9771 130.366 22.2964 127.237 23.2022C126.751 23.3295 126.244 23.3561 125.748 23.2803C125.252 23.2045 124.777 23.028 124.352 22.7617C123.928 22.4955 123.563 22.1453 123.281 21.7329C123 21.3206 122.807 20.855 122.714 20.3653C121.973 16.9526 119.687 12.4863 113.122 9.84654C106.663 7.2509 102.577 11.2155 100.213 15.2889C100.035 15.5894 99.7746 15.833 99.4614 15.9907C99.1483 16.1483 98.7961 16.2135 98.4468 16.1785C98.0974 16.1434 97.7655 16.0096 97.4905 15.7929C97.2155 15.5763 97.009 15.2858 96.8955 14.9561C94.8471 8.52503 87.7115 0 64.2667 0C34.4484 0 37.7617 15.7285 40.4266 22.2653C40.534 22.5196 40.569 22.7982 40.5278 23.0708C40.4867 23.3435 40.3709 23.5997 40.1932 23.8116C40.0156 24.0235 39.7827 24.183 39.52 24.2728C39.2573 24.3625 38.9748 24.379 38.7033 24.3206C34.1036 23.345 25.5663 22.0806 21.7385 25.063C16.3603 29.252 16.3604 38.9482 16.3604 38.9482Z" fill="#9CCDF8"/>
<path d="M97.3401 42.8362C100.301 55.6025 69.9572 57.2438 57.4538 57.3805C53.9911 57.4188 50.5341 57.0933 47.1405 56.4093C36.5669 54.2805 13.4219 48.6937 16.6699 41.0969C20.8578 31.2961 33.4386 38.1297 33.4386 38.1297C33.4386 38.1297 31.8596 30.7301 53.267 25.8433C74.6744 20.9566 74.5887 37.2413 74.5887 37.2413C74.5887 37.2413 93.621 26.7983 97.3401 42.8362Z" fill="#D0E4F7"/>
<path d="M324.005 53.9153H72.9614C69.7763 53.9153 67.1943 56.4771 67.1943 59.6373V232.636C67.1943 235.796 69.7763 238.358 72.9614 238.358H324.005C327.191 238.358 329.773 235.796 329.773 232.636V59.6373C329.773 56.4771 327.191 53.9153 324.005 53.9153Z" fill="#FAFAFA"/>
<path d="M170.22 89.9235H82.5361C82.1403 89.9225 81.761 89.7661 81.4811 89.4884C81.2012 89.2108 81.0434 88.8345 81.0422 88.4418V88.4418C81.0434 88.0491 81.2012 87.6728 81.4811 87.3952C81.761 87.1176 82.1403 86.9612 82.5361 86.9601H170.22C170.615 86.9613 170.994 87.1178 171.274 87.3954C171.554 87.673 171.712 88.0492 171.713 88.4418C171.712 88.8344 171.554 89.2106 171.274 89.4882C170.994 89.7659 170.615 89.9223 170.22 89.9235V89.9235Z" fill="#6DB6F7"/>
<path d="M178.714 108.97H91.0302C90.6344 108.969 90.2552 108.812 89.9753 108.534C89.6955 108.257 89.5379 107.88 89.5369 107.488V107.488C89.538 107.095 89.6957 106.719 89.9755 106.441C90.2553 106.164 90.6345 106.007 91.0302 106.006H178.714C179.109 106.007 179.489 106.164 179.768 106.441C180.048 106.719 180.206 107.095 180.207 107.488C180.206 107.88 180.049 108.257 179.769 108.535C179.489 108.812 179.109 108.969 178.714 108.97Z" fill="#6DB6F7"/>
<path d="M197.864 89.9235H177.859C177.463 89.9223 177.084 89.7658 176.804 89.4882C176.524 89.2106 176.367 88.8344 176.366 88.4418V88.4418C176.367 88.0493 176.524 87.673 176.804 87.3954C177.084 87.1178 177.463 86.9613 177.859 86.9601H197.864C198.259 86.9613 198.639 87.1178 198.918 87.3954C199.198 87.673 199.356 88.0492 199.357 88.4418V88.4418C199.356 88.8344 199.198 89.2106 198.918 89.4882C198.639 89.7659 198.259 89.9223 197.864 89.9235V89.9235Z" fill="#6DB6F7"/>
<path d="M82.5356 98.1482H102.539C102.935 98.1472 103.314 97.9908 103.594 97.7133C103.873 97.4357 104.031 97.0596 104.032 96.6671V96.6671C104.031 96.2745 103.873 95.8983 103.594 95.6207C103.314 95.3431 102.935 95.1866 102.539 95.1854H82.5356C82.1399 95.1866 81.7607 95.343 81.4809 95.6207C81.2011 95.8983 81.0434 96.2745 81.0422 96.6671V96.6671C81.0434 97.0596 81.2011 97.4358 81.4809 97.7133C81.7608 97.9909 82.1399 98.1472 82.5356 98.1482V98.1482Z" fill="#6DB6F7"/>
<path d="M109.417 98.1483H164.815C165.202 98.1472 165.571 97.9945 165.844 97.7236C166.117 97.4527 166.271 97.0857 166.273 96.7026V96.7026C166.271 96.3195 166.117 95.9525 165.844 95.6816C165.571 95.4107 165.202 95.258 164.815 95.2569H109.417C109.03 95.2579 108.66 95.4105 108.387 95.6814C108.114 95.9524 107.96 96.3195 107.959 96.7026V96.7026C107.96 97.0857 108.114 97.4529 108.387 97.7238C108.66 97.9947 109.03 98.1473 109.417 98.1483V98.1483Z" fill="#6DB6F7"/>
<path d="M175.354 96.7647C175.354 97.1218 175.247 97.4709 175.047 97.7678C174.848 98.0647 174.563 98.2962 174.231 98.4329C173.899 98.5696 173.533 98.6055 173.18 98.5359C172.827 98.4663 172.502 98.2944 172.248 98.0419C171.993 97.7895 171.82 97.4678 171.75 97.1176C171.68 96.7674 171.716 96.4044 171.853 96.0746C171.991 95.7447 172.224 95.4627 172.523 95.2643C172.823 95.0659 173.174 94.96 173.534 94.96C174.017 94.96 174.479 95.1501 174.821 95.4886C175.162 95.827 175.354 96.286 175.354 96.7647Z" fill="#6DB6F7"/>
<path d="M84.5458 107.636C84.5457 107.993 84.4389 108.342 84.239 108.638C84.039 108.935 83.7549 109.166 83.4225 109.303C83.0902 109.439 82.7245 109.475 82.3717 109.405C82.0189 109.336 81.6948 109.164 81.4405 108.911C81.1862 108.659 81.013 108.337 80.9429 107.987C80.8727 107.637 80.9088 107.274 81.0465 106.945C81.1841 106.615 81.4173 106.333 81.7164 106.135C82.0155 105.937 82.3671 105.831 82.7269 105.831C83.2093 105.831 83.672 106.021 84.0131 106.36C84.3541 106.698 84.5458 107.157 84.5458 107.636V107.636Z" fill="#6DB6F7"/>
<path d="M206.437 32.0881C203.815 43.393 230.685 44.8458 241.755 44.9687C244.821 45.0021 247.882 44.7138 250.887 44.1084C260.25 42.2231 280.745 37.2762 277.869 30.5501C274.161 21.8715 263.021 27.9222 263.021 27.9222C263.021 27.9222 264.419 21.3712 245.464 17.0429C226.508 12.7146 226.584 27.1355 226.584 27.1355C226.584 27.1355 209.73 17.887 206.437 32.0881Z" fill="#D0E4F7"/>
<path d="M115.691 51.9517H220.269C220.269 51.9517 225.94 44.8338 220.269 40.0434C217.14 37.3998 213.444 37.6735 210.759 38.4503C210.343 38.5595 209.908 38.5823 209.483 38.5174C209.057 38.4524 208.65 38.3011 208.286 38.0728C207.922 37.8446 207.61 37.5443 207.368 37.1908C207.126 36.8373 206.961 36.4382 206.882 36.0183C206.246 33.0918 204.286 29.2621 198.657 26.9988C193.118 24.7732 189.616 28.1728 187.589 31.6651C187.436 31.9227 187.212 32.1313 186.943 32.2662C186.674 32.4012 186.372 32.4566 186.073 32.4261C185.773 32.3956 185.489 32.2803 185.253 32.094C185.018 31.9077 184.841 31.6582 184.744 31.3752C182.991 25.8614 176.87 18.5515 156.768 18.5515C131.201 18.5515 134.042 32.0373 136.326 37.6422C136.418 37.8602 136.448 38.0991 136.413 38.3329C136.378 38.5667 136.279 38.7865 136.126 38.9682C135.974 39.15 135.774 39.2868 135.549 39.3637C135.324 39.4406 135.081 39.4548 134.849 39.4046C130.905 38.568 123.584 37.4839 120.3 40.0423C115.691 43.6343 115.691 51.9517 115.691 51.9517Z" fill="#D0E4F7"/>
<path d="M280.464 35.5308L292.338 29.03L298.398 27.8273L302.978 28.4957L280.464 35.5308Z" fill="#CF5B1A"/>
<path d="M280.464 35.5308L302.693 29.8585L302.975 28.4929" fill="url(#paint0_linear)"/>
<path d="M303.327 33.645L303.299 33.6913L302.366 37.1154L280.52 35.5324L303.327 33.645Z" fill="url(#paint1_linear)"/>
<path d="M307.572 31.6382L304.4 29.0839L280.608 35.4938L301.086 34.8897L307.572 31.6382Z" fill="#CF5B1A"/>
<path d="M357.574 75.3365C356.84 75.0796 356.126 74.772 355.435 74.4159C355.36 74.3804 355.273 74.3754 355.194 74.402C355.115 74.4285 355.049 74.4845 355.01 74.5583C354.972 74.632 354.963 74.7176 354.987 74.7972C355.011 74.8769 355.065 74.9442 355.138 74.9851C355.855 75.3549 356.597 75.6744 357.36 75.9411C357.633 76.037 357.908 76.1258 358.183 76.2075C358.224 76.2197 358.266 76.2238 358.309 76.2196C358.351 76.2154 358.392 76.203 358.429 76.1832C358.466 76.1633 358.499 76.1363 358.526 76.1037C358.553 76.0712 358.573 76.0337 358.585 75.9934C358.597 75.9532 358.601 75.9109 358.597 75.869C358.593 75.8272 358.58 75.7866 358.56 75.7495C358.54 75.7125 358.513 75.6797 358.48 75.6532C358.447 75.6266 358.409 75.6067 358.369 75.5947C358.103 75.5144 357.838 75.4284 357.574 75.3365Z" fill="url(#paint2_linear)"/>
<path d="M314.067 29.2505C313.06 29.3786 312.011 29.5431 310.86 29.7539C310.777 29.7712 310.705 29.8198 310.658 29.8893C310.611 29.9589 310.594 30.0438 310.609 30.1261C310.624 30.2083 310.671 30.2814 310.74 30.3297C310.809 30.378 310.894 30.3977 310.977 30.3847C312.116 30.1755 313.154 30.0126 314.15 29.8862C314.192 29.8809 314.232 29.8673 314.269 29.8464C314.306 29.8255 314.338 29.7976 314.364 29.7643C314.39 29.7309 314.409 29.6929 314.42 29.6523C314.431 29.6117 314.434 29.5693 314.429 29.5275C314.423 29.4858 314.41 29.4455 314.389 29.409C314.368 29.3725 314.34 29.3405 314.306 29.3147C314.272 29.289 314.234 29.2701 314.193 29.2591C314.152 29.2481 314.109 29.2452 314.067 29.2505V29.2505Z" fill="url(#paint3_linear)"/>
<path d="M319.454 29.4958C319.509 29.4558 319.549 29.3998 319.57 29.3357C319.591 29.2717 319.591 29.2027 319.57 29.1388C319.549 29.0748 319.508 29.0191 319.453 28.9794C319.398 28.9397 319.332 28.9182 319.264 28.9178C318.229 28.9085 317.133 28.9516 316.009 29.0453C315.924 29.0525 315.845 29.093 315.789 29.158C315.734 29.223 315.707 29.3071 315.715 29.3917C315.722 29.4764 315.763 29.5547 315.828 29.6095C315.894 29.6642 315.978 29.6909 316.064 29.6837C317.168 29.5922 318.244 29.5497 319.261 29.5584C319.33 29.5591 319.399 29.5371 319.454 29.4958V29.4958Z" fill="url(#paint4_linear)"/>
<path d="M351.343 71.476C351.313 71.4461 351.277 71.4225 351.237 71.4066C351.198 71.3906 351.156 71.3827 351.113 71.3832C351.071 71.3837 351.029 71.3927 350.99 71.4095C350.951 71.4264 350.916 71.4509 350.886 71.4814C350.857 71.5115 350.833 71.5471 350.817 71.5862C350.802 71.6253 350.794 71.6671 350.794 71.7092C350.795 71.7513 350.804 71.7929 350.82 71.8316C350.837 71.8703 350.861 71.9053 350.892 71.9347C351.677 72.6949 352.53 73.3825 353.441 73.9888C353.476 74.0123 353.516 74.0286 353.557 74.0369C353.599 74.0451 353.642 74.0452 353.683 74.037C353.725 74.0289 353.764 74.0127 353.8 73.9894C353.835 73.9661 353.865 73.9361 353.889 73.9011C353.913 73.8662 353.929 73.827 353.937 73.7857C353.946 73.7445 353.946 73.702 353.938 73.6607C353.929 73.6194 353.913 73.5802 353.89 73.5452C353.866 73.5101 353.836 73.4801 353.801 73.4566C352.922 72.8718 352.1 72.2088 351.343 71.476V71.476Z" fill="url(#paint5_linear)"/>
<path d="M350.011 70.5352C350.044 70.5086 350.071 70.4757 350.091 70.4386C350.111 70.4015 350.124 70.3609 350.128 70.319C350.132 70.2771 350.128 70.2348 350.116 70.1945C350.103 70.1542 350.083 70.1167 350.056 70.0842C349.873 69.863 349.696 69.6377 349.525 69.4082C349.067 68.7954 348.653 68.1522 348.284 67.4831C348.264 67.4459 348.236 67.4131 348.203 67.3866C348.17 67.36 348.132 67.3402 348.091 67.3283C348.05 67.3164 348.008 67.3126 347.965 67.3172C347.923 67.3218 347.882 67.3347 347.845 67.3551C347.77 67.3963 347.714 67.4651 347.69 67.5467C347.666 67.6283 347.675 67.716 347.716 67.7909C348.098 68.4864 348.529 69.1547 349.004 69.7911C349.181 70.0294 349.364 70.2629 349.553 70.4916C349.606 70.5548 349.68 70.5956 349.762 70.6057C349.844 70.6159 349.926 70.5945 349.992 70.5461L350.011 70.5352Z" fill="url(#paint6_linear)"/>
<path d="M347.294 66.1971C347.319 66.187 347.342 66.174 347.363 66.1584C347.421 66.1158 347.463 66.055 347.483 65.9859C347.502 65.9168 347.497 65.8432 347.469 65.7771C347.069 64.8021 346.741 63.7997 346.487 62.7778C346.466 62.6954 346.413 62.6246 346.34 62.581C346.266 62.5373 346.178 62.5245 346.095 62.5452C346.012 62.5659 345.941 62.6186 345.897 62.6915C345.853 62.7644 345.84 62.8517 345.861 62.9341C346.122 63.9861 346.46 65.0178 346.872 66.0211C346.888 66.0602 346.912 66.0958 346.942 66.1258C346.972 66.1558 347.007 66.1796 347.046 66.196C347.086 66.2123 347.128 66.2208 347.17 66.221C347.213 66.2212 347.255 66.2131 347.294 66.1971V66.1971Z" fill="url(#paint7_linear)"/>
<path d="M338.73 38.8559C338.999 39.1827 339.259 39.5144 339.512 39.8511C339.893 40.3615 340.256 40.8893 340.592 41.421C340.615 41.4567 340.644 41.4876 340.679 41.512C340.714 41.5365 340.753 41.5539 340.794 41.5633C340.836 41.5727 340.878 41.5739 340.92 41.5669C340.962 41.5599 341.002 41.5447 341.038 41.5223C341.045 41.518 341.052 41.5136 341.059 41.5082C341.124 41.46 341.168 41.3893 341.183 41.3102C341.198 41.231 341.182 41.1492 341.139 41.0811C340.795 40.5364 340.422 39.9916 340.031 39.4698C339.773 39.1233 339.505 38.7832 339.229 38.4495C339.203 38.4151 339.171 38.3864 339.133 38.3652C339.096 38.3441 339.054 38.331 339.011 38.3268C338.968 38.3226 338.925 38.3274 338.884 38.3408C338.843 38.3542 338.806 38.3761 338.774 38.4048C338.708 38.4588 338.666 38.5367 338.658 38.6212C338.649 38.7058 338.675 38.7902 338.73 38.8559V38.8559Z" fill="url(#paint8_linear)"/>
<path d="M341.544 43.0666C342.036 44.0006 342.464 44.9664 342.825 45.9575C342.839 45.9972 342.861 46.0337 342.889 46.0649C342.918 46.0962 342.952 46.1215 342.991 46.1395C343.029 46.1575 343.071 46.1677 343.113 46.1697C343.156 46.1716 343.198 46.1652 343.238 46.1509C343.268 46.1403 343.295 46.1255 343.32 46.1068C343.376 46.0657 343.417 46.0079 343.436 45.9421C343.456 45.8762 343.454 45.8058 343.43 45.7412C343.059 44.7223 342.619 43.7295 342.113 42.7697C342.093 42.7324 342.066 42.6993 342.033 42.6723C342.001 42.6453 341.963 42.6249 341.923 42.6123C341.882 42.5997 341.84 42.5952 341.798 42.5989C341.755 42.6027 341.714 42.6146 341.677 42.6341C341.639 42.6536 341.606 42.6802 341.578 42.7125C341.551 42.7448 341.531 42.7821 341.518 42.8223C341.505 42.8624 341.501 42.9047 341.504 42.9466C341.508 42.9885 341.52 43.0293 341.54 43.0666H341.544Z" fill="url(#paint9_linear)"/>
<path d="M335.123 35.2836C335.945 35.9531 336.726 36.6715 337.461 37.4347C337.515 37.4914 337.588 37.5264 337.667 37.5332C337.745 37.5401 337.823 37.5182 337.886 37.4718C337.897 37.4636 337.908 37.4549 337.918 37.4456C337.98 37.3869 338.016 37.3061 338.017 37.2212C338.019 37.1362 337.987 37.0539 337.928 36.9924C337.176 36.2103 336.376 35.4741 335.533 34.7879C335.467 34.7346 335.382 34.7095 335.297 34.7181C335.212 34.7266 335.134 34.7681 335.08 34.8335C335.026 34.899 335 34.983 335.008 35.0673C335.016 35.1516 335.057 35.2293 335.123 35.2836V35.2836Z" fill="url(#paint10_linear)"/>
<path d="M329.169 31.6366C329.247 31.671 329.336 31.673 329.416 31.6423C329.496 31.6116 329.56 31.5507 329.595 31.4729C329.629 31.3952 329.631 31.307 329.6 31.2278C329.569 31.1486 329.508 31.0848 329.43 31.0505C328.432 30.6125 327.408 30.2384 326.362 29.9305C326.28 29.9064 326.192 29.9156 326.117 29.9562C326.041 29.9968 325.985 30.0653 325.961 30.1468C325.937 30.2283 325.946 30.316 325.987 30.3907C326.028 30.4654 326.097 30.5209 326.179 30.545C327.198 30.8456 328.197 31.2102 329.169 31.6366V31.6366Z" fill="url(#paint11_linear)"/>
<path d="M345.081 56.2192C345.124 56.2144 345.164 56.2015 345.202 56.1811C345.239 56.1607 345.271 56.1333 345.298 56.1004C345.324 56.0674 345.344 56.0296 345.355 55.9892C345.367 55.9487 345.371 55.9064 345.366 55.8646L345.318 55.4609C345.211 54.5322 345.104 53.6023 344.98 52.6763C344.966 52.5945 344.921 52.5214 344.854 52.4722C344.786 52.423 344.702 52.4016 344.619 52.4124C344.537 52.4233 344.461 52.4656 344.409 52.5304C344.357 52.5952 344.332 52.6776 344.34 52.7601C344.463 53.6824 344.569 54.6084 344.676 55.5334L344.722 55.9365C344.726 55.9786 344.74 56.0193 344.76 56.0564C344.781 56.0935 344.809 56.1261 344.842 56.1524C344.876 56.1787 344.914 56.1982 344.955 56.2096C344.996 56.2211 345.039 56.2243 345.081 56.2192V56.2192Z" fill="url(#paint12_linear)"/>
<path d="M333.601 34.1325C333.656 34.1713 333.723 34.1918 333.791 34.191C333.859 34.1902 333.925 34.1682 333.979 34.1281C334.007 34.1075 334.031 34.0829 334.051 34.0551C334.1 33.9857 334.12 33.8996 334.105 33.8159C334.091 33.7322 334.043 33.6576 333.973 33.6084C333.082 32.9853 332.154 32.4165 331.193 31.9051C331.118 31.8677 331.031 31.861 330.951 31.8863C330.87 31.9116 330.803 31.9669 330.763 32.0406C330.724 32.1142 330.714 32.2003 330.738 32.2806C330.761 32.3609 330.815 32.429 330.888 32.4705C331.826 32.9688 332.731 33.5238 333.601 34.1325V34.1325Z" fill="url(#paint13_linear)"/>
<path d="M345.233 57.4928C345.191 57.4979 345.15 57.5112 345.113 57.532C345.076 57.5529 345.044 57.5808 345.018 57.6141C344.992 57.6474 344.973 57.6855 344.962 57.7262C344.951 57.7669 344.948 57.8094 344.954 57.8512C345.112 59.0992 345.268 60.1118 345.443 61.0384C345.459 61.1219 345.508 61.1957 345.579 61.2435C345.649 61.2914 345.736 61.3095 345.821 61.2939C345.868 61.2848 345.914 61.2652 345.953 61.2367C346.002 61.2008 346.039 61.1521 346.061 61.096C346.084 61.0399 346.089 60.9788 346.078 60.9197C345.905 60.0067 345.749 59.006 345.594 57.7706C345.583 57.6863 345.539 57.6098 345.471 57.5577C345.404 57.5056 345.318 57.4823 345.233 57.4928V57.4928Z" fill="url(#paint14_linear)"/>
<path d="M360.219 76.0456C360.135 76.0292 360.048 76.0466 359.977 76.0939C359.906 76.1413 359.857 76.2147 359.84 76.2981C359.824 76.3814 359.841 76.4679 359.889 76.5384C359.937 76.609 360.011 76.6578 360.095 76.6742C361.165 76.8795 362.247 77.0181 363.334 77.0893C363.411 77.0951 363.487 77.073 363.549 77.0272C363.602 76.9883 363.642 76.9341 363.663 76.8719C363.684 76.8098 363.686 76.7427 363.667 76.6797C363.649 76.6167 363.611 76.5609 363.56 76.5198C363.508 76.4786 363.445 76.4542 363.379 76.4498C362.318 76.3802 361.263 76.2452 360.219 76.0456V76.0456Z" fill="url(#paint15_linear)"/>
<path d="M343.622 47.3749C343.539 47.3971 343.468 47.4509 343.426 47.5245C343.383 47.5981 343.371 47.6856 343.393 47.7677C343.648 48.7106 343.866 49.7249 344.059 50.8699C344.066 50.9114 344.081 50.9511 344.104 50.9868C344.126 51.0225 344.156 51.0534 344.19 51.0778C344.225 51.1023 344.264 51.1197 344.305 51.1292C344.346 51.1387 344.389 51.14 344.431 51.133C344.473 51.1261 344.513 51.111 344.549 51.0888C344.585 51.0665 344.616 51.0374 344.64 51.0031C344.665 50.9689 344.683 50.9302 344.692 50.8892C344.702 50.8482 344.703 50.8057 344.696 50.7642C344.5 49.5985 344.277 48.5641 344.017 47.6021C343.995 47.52 343.941 47.45 343.867 47.4074C343.792 47.3648 343.704 47.3531 343.622 47.3749V47.3749Z" fill="url(#paint16_linear)"/>
<path d="M322.354 29.1079C321.977 29.0632 321.599 29.0269 321.222 28.999C321.138 28.9954 321.056 29.0243 320.993 29.0796C320.93 29.1349 320.892 29.2122 320.885 29.2952C320.879 29.3783 320.905 29.4605 320.959 29.5246C321.013 29.5886 321.089 29.6295 321.173 29.6385C321.541 29.6657 321.909 29.7011 322.277 29.7447C322.96 29.8248 323.65 29.9375 324.326 30.0797C324.37 30.0894 324.416 30.0895 324.461 30.0801C324.506 30.0708 324.548 30.052 324.585 30.0252C324.648 29.9792 324.693 29.9112 324.708 29.8346C324.717 29.7933 324.718 29.7507 324.711 29.7091C324.703 29.6675 324.687 29.6278 324.664 29.5924C324.641 29.5569 324.611 29.5263 324.576 29.5025C324.541 29.4786 324.501 29.4619 324.46 29.4533C323.764 29.3062 323.055 29.1907 322.354 29.1079Z" fill="url(#paint17_linear)"/>
<path d="M314.171 91.8924H294.168C293.772 91.8913 293.393 91.7348 293.113 91.4572C292.833 91.1795 292.676 90.8033 292.675 90.4107V90.4107C292.676 90.0181 292.833 89.6419 293.113 89.3643C293.393 89.0867 293.772 88.9302 294.168 88.9291H314.171C314.567 88.9304 314.946 89.0869 315.226 89.3645C315.505 89.6421 315.663 90.0182 315.664 90.4107V90.4107C315.663 90.8033 315.505 91.1794 315.226 91.457C314.946 91.7346 314.567 91.8911 314.171 91.8924Z" fill="#6DB6F7"/>
<path d="M288.925 90.2195C288.925 90.8983 288.722 91.5618 288.342 92.1261C287.962 92.6905 287.422 93.1304 286.79 93.3901C286.158 93.6498 285.462 93.7178 284.791 93.5854C284.12 93.453 283.504 93.1261 283.02 92.6462C282.536 92.1662 282.207 91.5547 282.074 90.889C281.94 90.2233 282.009 89.5333 282.27 88.9062C282.532 88.2791 282.975 87.7432 283.544 87.3661C284.113 86.989 284.782 86.7877 285.466 86.7877C286.383 86.7877 287.263 87.1493 287.912 87.7929C288.56 88.4365 288.925 89.3094 288.925 90.2195V90.2195Z" fill="#6DB6F7"/>
<path d="M314.171 102.749H294.168C293.772 102.748 293.393 102.592 293.113 102.314C292.834 102.037 292.676 101.661 292.675 101.268C292.676 100.876 292.833 100.5 293.113 100.222C293.393 99.9443 293.772 99.7878 294.168 99.7867H314.171C314.567 99.788 314.946 99.9445 315.226 100.222C315.505 100.5 315.663 100.876 315.664 101.268V101.268C315.663 101.661 315.505 102.037 315.226 102.314C314.946 102.592 314.567 102.748 314.171 102.749V102.749Z" fill="#6DB6F7"/>
<path d="M288.925 101.075C288.925 101.754 288.722 102.417 288.342 102.982C287.962 103.546 287.422 103.986 286.79 104.245C286.158 104.505 285.462 104.573 284.791 104.441C284.12 104.308 283.504 103.982 283.02 103.502C282.536 103.022 282.207 102.41 282.074 101.744C281.94 101.079 282.009 100.389 282.27 99.7616C282.532 99.1346 282.975 98.5986 283.544 98.2215C284.113 97.8444 284.782 97.6431 285.466 97.6431C286.383 97.6431 287.263 98.0047 287.912 98.6483C288.56 99.2919 288.925 100.165 288.925 101.075V101.075Z" fill="#6DB6F7"/>
<path d="M314.171 113.605H294.168C293.772 113.604 293.393 113.447 293.113 113.17C292.833 112.892 292.676 112.516 292.675 112.123V112.123C292.676 111.731 292.833 111.354 293.113 111.077C293.393 110.799 293.772 110.643 294.168 110.642H314.171C314.567 110.643 314.946 110.8 315.226 111.077C315.505 111.355 315.663 111.731 315.664 112.123V112.123C315.663 112.516 315.505 112.892 315.226 113.169C314.946 113.447 314.567 113.604 314.171 113.605Z" fill="#6DB6F7"/>
<path d="M288.925 111.93C288.925 112.609 288.722 113.273 288.342 113.837C287.962 114.401 287.422 114.841 286.79 115.101C286.158 115.361 285.462 115.429 284.791 115.296C284.12 115.164 283.504 114.837 283.02 114.357C282.536 113.877 282.207 113.266 282.074 112.6C281.94 111.934 282.009 111.244 282.27 110.617C282.532 109.99 282.975 109.454 283.544 109.077C284.113 108.7 284.782 108.499 285.466 108.499C285.92 108.499 286.37 108.587 286.79 108.76C287.209 108.932 287.59 109.185 287.912 109.504C288.233 109.822 288.488 110.201 288.661 110.617C288.835 111.033 288.925 111.48 288.925 111.93V111.93Z" fill="#6DB6F7"/>
<path d="M269.719 85.8007H222.618V119.719H269.719V85.8007Z" fill="#FF7B00"/>
<path d="M268.411 135.078H241.9V168.996H268.411V135.078Z" fill="#FF7B00"/>
<path d="M161.427 137.397H86.9005C86.5379 137.397 86.1788 137.345 85.8438 137.243C85.5088 137.141 85.2043 136.992 84.9479 136.803C84.6915 136.615 84.4881 136.392 84.3493 136.146C84.2106 135.9 84.1392 135.636 84.1392 135.37V135.37C84.1392 134.832 84.4299 134.316 84.9476 133.935C85.4653 133.555 86.1676 133.34 86.9005 133.339H161.427C162.16 133.34 162.862 133.555 163.38 133.935C163.897 134.316 164.188 134.832 164.188 135.37V135.37C164.188 135.908 163.897 136.423 163.379 136.803C162.862 137.183 162.159 137.397 161.427 137.397V137.397Z" fill="#6DB6F7"/>
<path d="M161.427 144.934H86.9005C86.5379 144.934 86.1788 144.889 85.8438 144.801C85.5088 144.714 85.2043 144.586 84.9479 144.424C84.6915 144.263 84.4881 144.071 84.3493 143.86C84.2106 143.649 84.1392 143.423 84.1392 143.194V143.194C84.1392 142.733 84.4301 142.291 84.9479 141.965C85.4658 141.638 86.1681 141.455 86.9005 141.455H161.427C162.159 141.455 162.862 141.638 163.379 141.965C163.897 142.291 164.188 142.733 164.188 143.194V143.194C164.188 143.656 163.897 144.098 163.379 144.424C162.862 144.75 162.159 144.934 161.427 144.934V144.934Z" fill="#6DB6F7"/>
<path d="M77.8113 48.06H318.607C321.495 48.06 324.266 49.1985 326.308 51.2251C328.351 53.2516 329.498 56.0002 329.498 58.8662V64.7158H66.9199V58.872C66.9192 57.4525 67.2003 56.0466 67.7473 54.7349C68.2943 53.4231 69.0964 52.2312 70.1079 51.2271C71.1193 50.2231 72.3202 49.4266 73.642 48.8831C74.9638 48.3397 76.3805 48.06 77.8113 48.06Z" fill="#1E5A91"/>
<path d="M288.726 60.646C290.943 60.646 292.74 58.8629 292.74 56.6633C292.74 54.4636 290.943 52.6805 288.726 52.6805C286.509 52.6805 284.712 54.4636 284.712 56.6633C284.712 58.8629 286.509 60.646 288.726 60.646Z" fill="white"/>
<path d="M301.008 60.646C303.225 60.646 305.022 58.8629 305.022 56.6633C305.022 54.4636 303.225 52.6805 301.008 52.6805C298.791 52.6805 296.994 54.4636 296.994 56.6633C296.994 58.8629 298.791 60.646 301.008 60.646Z" fill="white"/>
<path d="M313.284 60.646C315.501 60.646 317.298 58.8629 317.298 56.6633C317.298 54.4636 315.501 52.6805 313.284 52.6805C311.067 52.6805 309.27 54.4636 309.27 56.6633C309.27 58.8629 311.067 60.646 313.284 60.646Z" fill="white"/>
<path d="M0.0163297 178.038C70.9614 152.947 95.7205 222.027 95.7205 222.027L70.6493 235.671C67.2511 235.456 63.844 235.313 60.4241 235.291C55.19 235.258 50.1632 237.698 46.0311 240.981C30.9678 232.651 -0.820971 211.11 0.0163297 178.038Z" fill="#1E5A91"/>
<path d="M0.0163063 178.038C0.263465 177.95 0.507694 177.868 0.7531 177.783L56.3001 220.598L53.8922 177.223C54.3452 177.408 54.7932 177.597 55.2361 177.791L57.6709 221.656L73.7 234.011L72.4496 234.691L40.4971 210.062L16.3305 217.981C16.0156 217.634 15.7018 217.279 15.3921 216.922L39.2526 209.103L0.011046 178.856C0.011046 178.583 0.00811779 178.313 0.0151294 178.038H0.0163063Z" fill="white"/>
<path d="M42.9927 145.686C93.2938 142.057 105.912 196.93 105.912 196.93L99.0246 236.488C96.807 236.146 94.5653 235.98 92.321 235.994C90.272 236.011 88.2395 236.358 86.3027 237.022C78.8996 236.299 71.4995 235.586 64.0409 235.365C55.5943 223.513 26.1701 178.341 42.9927 145.686Z" fill="#242D80"/>
<path d="M67.8266 194.208L42.5902 146.583C42.7246 146.283 42.8519 145.984 42.9927 145.686C43.1908 145.672 43.3831 145.667 43.58 145.654L57.096 171.162L65.8868 148.486C66.1065 148.562 66.3215 148.645 66.5394 148.724L67.1144 148.943L57.9076 172.693L80.4317 215.2L97.1427 175.89C97.4214 176.369 97.6948 176.845 97.9607 177.319L81.2217 216.689L91.4668 236.024C90.9923 236.047 90.5202 236.089 90.0504 236.149L68.5547 195.581L41.9229 193.015C41.7862 192.569 41.6524 192.121 41.5215 191.671L67.8266 194.208Z" fill="#FAFAFA"/>
<path d="M121.782 239.894C118.057 238.418 114.043 237.803 110.043 238.096C109.967 238.102 109.891 238.105 109.816 238.112C109.42 238.102 109.024 238.096 108.625 238.096C107.699 238.099 106.775 238.173 105.86 238.318H105.809C105.656 238.288 105.502 238.268 105.348 238.243C101.302 236.584 96.9304 235.991 92.3209 235.991C90.272 236.008 88.2394 236.355 86.3026 237.019L85.8013 236.97L82.1599 231.467C82.1599 231.467 88.6714 181.526 121.133 173.701C143.451 195.413 143.435 220.747 136.887 241.813C132.128 239.8 126.899 239.136 121.782 239.894V239.894Z" fill="#9CCDF8"/>
<path d="M106.672 238.218L111.592 215.195L96.502 192.005C96.7673 191.619 97.0372 191.234 97.3119 190.85L111.979 213.389L120.419 173.89C120.656 173.827 120.889 173.76 121.13 173.702C121.317 173.885 121.498 174.068 121.682 174.251L108.035 238.118C107.578 238.132 107.124 238.165 106.672 238.218Z" fill="white"/>
<path d="M110.523 238.07L140.516 223.156C140.481 223.662 140.439 224.167 140.392 224.671L113.456 238.063C112.479 238.008 111.5 238.01 110.523 238.07V238.07Z" fill="white"/>
<path d="M31.1724 241.17H141.739C141.739 241.17 140.571 232.613 127.056 228.45C115.095 224.763 103.509 232.381 103.509 232.381C103.509 232.381 93.0613 215.261 71.0975 215.261C39.1305 215.261 31.1724 241.17 31.1724 241.17Z" fill="#6DB6F7"/>
<path d="M381.984 176.878C311.039 151.788 286.28 220.867 286.28 220.867L311.351 234.512C314.749 234.296 318.156 234.154 321.576 234.132C326.81 234.098 331.837 236.539 335.969 239.822C351.032 231.492 382.821 209.95 381.984 176.878Z" fill="#1E5A91"/>
<path d="M381.984 176.878C381.737 176.791 381.493 176.709 381.247 176.624L325.7 219.439L328.108 176.063C327.655 176.248 327.207 176.438 326.764 176.632L324.329 220.496L308.3 232.851L309.551 233.532L341.503 208.903L365.67 216.822C365.985 216.474 366.298 216.119 366.608 215.762L342.748 207.943L381.989 177.696C381.989 177.423 381.992 177.153 381.985 176.878H381.984Z" fill="white"/>
<path d="M339.008 144.526C288.706 140.897 276.088 195.771 276.088 195.771L282.976 235.329C285.193 234.986 287.435 234.821 289.679 234.835C291.728 234.852 293.761 235.199 295.698 235.862C303.101 235.139 310.501 234.426 317.959 234.205C326.406 222.353 355.83 177.181 339.008 144.526Z" fill="#242D80"/>
<path d="M314.174 193.049L339.41 145.423C339.276 145.124 339.148 144.824 339.007 144.526C338.809 144.512 338.617 144.507 338.42 144.494L324.904 170.003L316.113 147.326C315.894 147.403 315.679 147.486 315.461 147.565L314.886 147.783L324.093 171.533L301.569 214.041L284.858 174.731C284.579 175.209 284.305 175.686 284.04 176.159L300.779 215.53L290.533 234.864C291.008 234.888 291.48 234.929 291.95 234.99L313.446 194.422L340.077 191.855C340.214 191.41 340.348 190.962 340.479 190.512L314.174 193.049Z" fill="#FAFAFA"/>
<path d="M260.218 238.734C263.943 237.258 267.957 236.644 271.957 236.937C272.033 236.943 272.109 236.946 272.184 236.952C272.58 236.943 272.976 236.937 273.375 236.937C274.301 236.939 275.225 237.013 276.14 237.158H276.191C276.344 237.129 276.498 237.109 276.652 237.083C280.698 235.425 285.07 234.832 289.679 234.832C291.728 234.849 293.761 235.196 295.697 235.859L296.199 235.811L299.84 230.307C299.84 230.307 293.329 180.367 260.867 172.542C238.549 194.253 238.565 219.588 245.113 240.653C249.872 238.641 255.101 237.977 260.218 238.734V238.734Z" fill="#9CCDF8"/>
<path d="M275.328 237.058L270.408 214.035L285.498 190.846C285.233 190.459 284.963 190.074 284.688 189.691L270.021 212.229L261.581 172.73C261.344 172.668 261.111 172.6 260.87 172.543C260.683 172.726 260.502 172.909 260.318 173.091L273.965 236.959C274.422 236.973 274.876 237.006 275.328 237.058Z" fill="white"/>
<path d="M271.477 236.911L241.484 221.997C241.519 222.503 241.561 223.008 241.608 223.512L268.544 236.903C269.521 236.848 270.5 236.851 271.477 236.911V236.911Z" fill="white"/>
<path d="M238.979 240.41H349.505C349.505 240.41 348.336 231.853 334.815 227.691C322.855 224.004 311.268 231.621 311.268 231.621C311.268 231.621 300.821 214.502 278.863 214.502C246.931 214.502 238.979 240.41 238.979 240.41Z" fill="#6DB6F7"/>
<path d="M178.866 209.829L181.355 217.957H213.491L215.706 210.6L178.866 209.829Z" fill="#C65A4B"/>
<path d="M152.502 229.662H243.91C245.061 229.662 246.166 230.116 246.98 230.923C247.794 231.731 248.251 232.827 248.251 233.969V240.01H148.167V233.963C148.168 232.823 148.626 231.73 149.438 230.923C150.251 230.117 151.353 229.663 152.502 229.662V229.662Z" fill="#646464"/>
<path d="M137.708 240.01H262.888C263.441 240.01 263.972 240.228 264.363 240.616C264.754 241.004 264.974 241.531 264.974 242.08V249.947H135.622V242.074C135.623 241.526 135.844 241.001 136.235 240.614C136.626 240.227 137.156 240.01 137.708 240.01V240.01Z" fill="#A9A9A9"/>
<path d="M236.922 81.1339C236.748 77.4494 236.285 73.7841 235.537 70.1711C228.42 35.9668 198.019 21.6589 197.926 21.7691L197.75 21.8328C195.448 22.83 166.782 37.4857 160.186 70.7856C159.513 74.2002 159.092 77.6587 158.924 81.1339C158.035 99.4129 160.583 124.51 163.902 147.803C168.693 181.335 175.085 211.07 175.085 211.07H220.754C220.754 211.07 227.135 181.393 231.932 147.879C235.256 124.573 237.816 99.4361 236.922 81.1339Z" fill="#FFA653"/>
<path d="M218.814 109.871C218.817 114.558 217.418 119.141 214.796 123.039C212.173 126.938 208.445 129.977 204.081 131.773C199.718 133.569 194.916 134.041 190.282 133.13C185.648 132.218 181.391 129.963 178.048 126.651C174.706 123.339 172.429 119.118 171.504 114.521C170.579 109.925 171.049 105.16 172.854 100.828C174.659 96.4966 177.718 92.7934 181.644 90.1866C185.57 87.5799 190.187 86.1867 194.911 86.1833C198.053 86.1625 201.168 86.7608 204.076 87.9435C206.984 89.1263 209.626 90.8698 211.849 93.0732C214.073 95.2766 215.833 97.896 217.029 100.779C218.225 103.663 218.831 106.753 218.814 109.871V109.871Z" fill="#E5CFA5"/>
<path d="M220.696 108.051C220.696 112.523 219.359 116.894 216.855 120.612C214.351 124.33 210.792 127.228 206.629 128.94C202.465 130.651 197.883 131.099 193.462 130.226C189.042 129.354 184.982 127.2 181.795 124.038C178.608 120.876 176.437 116.848 175.558 112.462C174.679 108.076 175.13 103.53 176.855 99.3986C178.58 95.2672 181.5 91.7361 185.248 89.2517C188.995 86.7673 193.401 85.4413 197.908 85.4413C200.905 85.4244 203.876 85.9976 206.649 87.1279C209.421 88.2581 211.94 89.9229 214.059 92.0258C216.179 94.1287 217.857 96.6278 218.996 99.3786C220.135 102.129 220.713 105.077 220.696 108.051V108.051Z" fill="#FFAB26"/>
<path fill-rule="evenodd" clip-rule="evenodd" d="M161.315 227.075C160.456 222.251 158.959 211.925 160.712 206.49C160.795 206.229 160.888 205.977 160.989 205.731C161.824 203.698 163.225 202.152 164.764 200.987C168.217 198.375 172.363 197.684 172.363 197.684L172.36 197.671C172.377 197.668 172.386 197.666 172.386 197.666L168.88 177.984C168.872 177.99 168.864 177.996 168.857 178.002L167.104 168.001L166.204 162.946C159.11 168.462 152.37 174.412 146.022 180.761C139.981 186.895 145.14 204.803 149.756 217.157C152.45 224.363 154.962 229.679 154.962 229.679H161.816C161.816 229.679 161.802 229.617 161.778 229.498C161.704 229.143 161.529 228.281 161.315 227.075Z" fill="#C65A4B"/>
<path fill-rule="evenodd" clip-rule="evenodd" d="M240.93 229.639C244.383 222.141 247.311 214.416 249.694 206.519C252.709 196.153 254.334 185.254 249.887 180.732C243.539 174.371 236.797 168.409 229.7 162.882L229.115 166.123L223.512 197.62C223.512 197.62 223.517 197.621 223.526 197.622L223.518 197.666C223.518 197.666 230.831 198.892 234.148 204.177C234.573 204.864 234.931 205.619 235.198 206.449C237.535 213.719 234.094 229.639 234.094 229.639H234.132C234.126 229.665 234.123 229.679 234.123 229.679H238.149C238.154 229.666 238.16 229.652 238.166 229.639H240.93Z" fill="#C65A4B"/>
<path fill-rule="evenodd" clip-rule="evenodd" d="M212.779 114.452C213.663 112.433 214.119 110.253 214.116 108.051C214.118 104.392 212.861 100.842 210.553 97.9881C208.245 95.1343 205.024 93.148 201.423 92.3576C197.822 91.5672 194.057 92.0201 190.751 93.6415C187.445 95.2628 184.796 97.9554 183.242 101.274C183.247 101.28 183.252 101.286 183.257 101.292C181.691 104.665 181.351 108.472 182.295 112.066C183.24 115.666 185.416 118.829 188.451 121.015C191.485 123.2 195.191 124.273 198.934 124.05C202.677 123.826 206.226 122.321 208.975 119.79C208.975 119.79 208.975 119.79 208.975 119.79C210.599 118.29 211.894 116.472 212.779 114.452Z" fill="#FFF5DF"/>
<path d="M215.828 122.011C212.118 126.518 206.798 129.432 200.977 130.146C195.156 130.861 189.281 129.32 184.575 125.846C179.87 122.371 176.696 117.23 175.714 111.493C174.732 105.755 176.018 99.8625 179.304 95.0416C180.353 97.2679 181.67 99.3605 183.225 101.274C182.222 103.394 181.705 105.709 181.711 108.051C181.711 111.182 182.632 114.245 184.363 116.863C186.094 119.482 188.558 121.541 191.453 122.788C194.347 124.036 197.546 124.416 200.656 123.884C203.766 123.351 206.651 121.928 208.957 119.79C211.182 120.718 213.48 121.461 215.828 122.011Z" fill="#DD9122"/>
<path fill-rule="evenodd" clip-rule="evenodd" d="M231.932 147.861C227.135 181.364 220.754 211.052 220.754 211.052H184.75L184.748 211.041H175.068C175.068 211.041 168.676 181.306 163.884 147.774C167.972 146.823 172.117 146.138 176.295 145.722C177.241 154.169 178.241 162.529 179.216 170.338C179.24 170.524 179.265 170.711 179.291 170.897C178.289 162.927 177.264 154.376 176.312 145.734C183.494 144.991 190.711 144.633 197.931 144.661C205.217 144.619 212.498 145.006 219.737 145.821L219.734 145.85C222.328 146.122 224.623 146.464 226.626 146.806C225.455 158.594 223.608 172.924 222.254 179.355C223.61 172.938 225.47 158.582 226.632 146.777C228.706 147.166 230.471 147.525 231.932 147.861Z" fill="#E04545"/>
<path fill-rule="evenodd" clip-rule="evenodd" d="M198.784 18.8703L199.053 21.0501L202.81 24.4567C211.721 30.0248 230.193 44.4923 235.537 70.171C233.433 69.2724 230.973 68.3275 228.186 67.4231C225.732 66.6231 223.021 65.8578 220.076 65.1737C212.812 63.5137 205.38 62.6774 197.925 62.6809C189.993 62.6527 182.091 63.6407 174.413 65.6201C169.512 66.8765 164.747 68.6066 160.186 70.7856C165.438 44.3029 184.651 29.6056 193.447 24.2009L197.072 21.0327L197.365 18.8703C197.092 18.7151 196.879 18.475 196.758 18.1873C196.638 17.8995 196.616 17.5803 196.697 17.2791C196.778 16.978 196.957 16.7118 197.206 16.5219C197.455 16.332 197.76 16.2291 198.074 16.2291C198.389 16.2291 198.694 16.332 198.943 16.5219C199.192 16.7118 199.371 16.978 199.452 17.2791C199.533 17.5803 199.511 17.8995 199.391 18.1873C199.27 18.475 199.057 18.7151 198.784 18.8703Z" fill="#E04545"/>
<path d="M253.3 248.781L259.768 250.086L259.3 254.677L253.364 254.011L253.3 248.781Z" fill="#FFCCA4"/>
<path d="M258.26 249.779C258.26 249.779 260.352 248.428 261.398 248.312C262.444 248.196 265.301 252.37 265.301 252.37C265.301 252.37 269.765 254.816 269.502 256.648C269.152 259.077 259.3 254.677 259.3 254.677L258.26 249.779Z" fill="#2A2E2F"/>
<path d="M246.668 182.674L246.755 174.245C246.766 173.178 246.44 172.134 245.824 171.259C245.208 170.384 244.333 169.722 243.32 169.364C242.748 169.162 242.162 169.004 241.567 168.888C241.444 168.859 241.321 168.842 241.199 168.824C240.509 168.741 239.81 168.798 239.143 168.991C238.476 169.184 237.856 169.51 237.32 169.949C236.785 170.388 236.345 170.93 236.027 171.543C235.709 172.156 235.521 172.827 235.473 173.514L235.087 178.425C234.991 179.654 235.355 180.874 236.109 181.853C236.864 182.832 237.957 183.5 239.177 183.729L240.182 183.921L240.901 188.843L243.752 190.414L247.258 187.683L246.668 182.674Z" fill="#FFCCA4"/>
<path d="M227.76 180.106C227.76 180.106 226.854 175.677 226.533 175.677C226.211 175.677 226.363 177.271 226.363 177.271C226.363 177.271 225.779 174.581 225.399 174.668C225.02 174.755 225.341 177.184 225.341 177.184C225.341 177.184 224.757 173.827 224.231 173.914C223.705 174.001 224.348 177.352 224.348 177.352C224.348 177.352 223.535 174.204 223.214 174.523C222.893 174.842 223.722 179.984 223.722 179.984C223.722 179.984 222.25 178.28 221.899 178.454C221.549 178.628 222.63 181.057 223.477 181.608C224.205 182.032 224.963 182.404 225.744 182.721C226.042 183.057 232.89 190.796 234.766 191.417C236.641 192.037 239.171 188.483 239.171 188.483L227.76 180.106Z" fill="#FFCCA4"/>
<path d="M258.845 214.049C258.658 215.968 258.471 217.168 258.471 217.168L241.923 219.383L241.17 219.487V219.435L236.53 207.794C236.533 207.837 236.533 207.879 236.53 207.922C235.806 212.56 235.122 216.473 235.122 216.473L228.21 215.087C228.21 215.087 229.963 195.423 231.605 192.072C232.485 190.149 234.059 188.623 236.016 187.793C236.016 187.793 242.444 186.472 247.34 185.787C248.695 185.597 250.076 185.774 251.338 186.299C252.6 186.823 253.696 187.676 254.509 188.767C256.496 191.467 257.857 194.569 258.494 197.852C259.599 203.504 259.225 210.206 258.845 214.049Z" fill="#FF7B00"/>
<path d="M236.08 171.456C237.35 172.309 238.689 173.055 240.083 173.688C240.083 173.688 239.469 176.204 240.346 177.167C240.346 177.167 240.638 175.955 241.602 176.1C242.566 176.245 242.771 178.819 242.297 179.915C242.186 180.215 242.003 180.485 241.765 180.702C241.528 180.919 241.241 181.076 240.93 181.161L242.239 182.703L246.668 182.355C246.668 182.355 249.204 175.851 249.262 174.117C249.321 172.384 248.304 171.833 248.304 171.833C248.304 171.833 248.795 170.03 246.294 168.772C243.793 167.514 238.336 167.265 237.372 167.375C236.408 167.485 236.647 168.772 236.647 168.772C236.647 168.772 235.391 168.679 234.865 169.462C234.339 170.245 236.08 171.456 236.08 171.456Z" fill="#00363F"/>
<path d="M211.82 213.064L214.777 224.919H216.763L214.52 213.006C215.094 212.339 215.44 211.509 215.507 210.635C215.595 209.22 213.877 208.698 213.877 208.698L214.134 210.438L213.088 211.655L211.809 210.901L211.224 209.313C210.862 209.517 210.572 209.825 210.39 210.197C210.208 210.569 210.145 210.986 210.208 211.394C210.241 211.814 210.42 212.21 210.714 212.515C211.008 212.819 211.398 213.013 211.82 213.064V213.064Z" fill="#1E5A91"/>
<path d="M247.153 219.482C247.153 219.482 235.116 233.395 233.252 241.575C231.389 249.755 237.81 251.234 240.556 251.866C244.138 252.695 255.508 254.185 255.508 254.185L256.502 247.228L245.003 242.967C245.003 242.967 255.298 234.23 257.343 231.07C261.597 224.496 257.98 217.157 257.98 217.157L247.153 219.482Z" fill="#122043"/>
<path d="M228.163 215.087L217.324 216.479V216.531L213.637 215.087C213.637 215.087 211.581 215.992 211.3 216.479C211.02 216.965 211.493 217.499 211.493 217.499C211.454 217.7 211.466 217.907 211.527 218.102C211.588 218.297 211.697 218.474 211.844 218.618C211.862 218.789 211.916 218.955 212.004 219.104C212.091 219.253 212.21 219.382 212.352 219.482C212.605 219.964 213.036 220.332 213.556 220.508C213.993 220.677 214.479 220.677 214.917 220.508C215.896 220.788 216.923 220.863 217.932 220.728V220.734C217.932 220.734 231.57 222.195 233.065 220.734C234.561 219.273 235.064 216.455 235.064 216.455L228.163 215.087Z" fill="#FFCCA4"/>
<path d="M224.722 252.005L226.042 256.399H230.471L229.77 252.7L224.722 252.005Z" fill="#FFCCA4"/>
<path d="M225.966 256.156C225.966 256.156 222.542 258.474 220.97 258.985C219.399 259.495 219.334 260.602 220.444 260.892C221.555 261.182 231.108 260.834 231.809 260.486C232.51 260.138 231.108 255.848 230.471 255.686C229.834 255.524 225.966 256.156 225.966 256.156Z" fill="#2A2E2F"/>
<path d="M241.17 219.482C241.17 219.482 226.276 224.322 220.836 228.798C215.396 233.273 223.722 252.695 223.722 252.695H231.903L230.056 239.697C230.056 239.697 247.848 232.81 252.826 230.589C259.838 227.43 258.471 217.192 258.471 217.192L241.17 219.482Z" fill="#002B49"/>
<path d="M239.756 187.057C240.997 185.815 242.567 184.947 244.284 184.553C247.404 183.718 248.304 184.269 248.304 184.269L248.859 185.729L239.756 187.057Z" fill="#FFA653"/>
<path d="M75.15 236.409C75.15 236.409 76.0002 237.579 80.0085 238.59C80.8906 238.813 81.8423 238.965 81.8423 240.409H77.8859L73.8399 239.715V240.409H71.6594C71.6594 240.409 71.0509 236.864 72.3269 236.409H75.15Z" fill="#122043"/>
<path d="M75.358 233.863L75.1504 236.409C74.7599 236.677 74.2999 236.828 73.8253 236.844C73.3507 236.86 72.8814 236.74 72.4735 236.499L72.3237 236.409V233.863H75.358Z" fill="#F7A57A"/>
<path d="M54.8574 236.918C54.8574 236.918 55.7077 238.088 59.716 239.099C60.598 239.321 61.5497 239.473 61.5497 240.918H57.5933L53.5472 240.224V240.918H51.3633C51.3633 240.918 50.7548 237.373 52.0307 236.918H54.8574Z" fill="#122043"/>
<path d="M55.065 234.371L54.8574 236.917C54.4671 237.186 54.007 237.337 53.5322 237.353C53.0574 237.369 52.588 237.248 52.1805 237.006L52.0308 236.917V234.371H55.065Z" fill="#F7A57A"/>
<path d="M76.966 171.279L75.9813 235.242H71.2843C71.2843 235.242 64.1357 183.6 65.6616 171.279C67.1876 158.957 76.966 171.279 76.966 171.279Z" fill="#122043"/>
<path d="M72.0062 171.268C72.0062 171.268 70.3706 190.918 66.6158 201.795C62.8611 212.671 56.0792 235.245 56.0792 235.245H51.2183C51.2183 235.245 59.3363 188.071 57.479 171.268H72.0062V171.268Z" fill="#002B49"/>
<path d="M76.2389 138.712C76.2389 138.712 82.0267 152.105 83.4961 152.105C84.6753 152.105 83.0551 141.169 83.0551 141.169H87.903C87.903 141.169 93.9998 159.913 89.1518 163.338C84.3039 166.762 73.6528 153.645 73.6528 153.645L76.2389 138.712Z" fill="#6DB6F7"/>
<path d="M58.9783 172.969L60.733 177.273C61.5774 178.962 64.6824 179.006 66.7472 178.469C66.819 178.45 66.8845 178.413 66.9374 178.361C66.9903 178.31 67.0289 178.245 67.0492 178.175C67.0696 178.104 67.071 178.029 67.0534 177.957C67.0358 177.886 66.9998 177.82 66.9489 177.767C65.3586 175.967 63.6593 174.265 61.8604 172.671L58.9783 172.969Z" fill="#F7A57A"/>
<path d="M73.6529 135.943C73.6529 135.943 76.6765 137.977 76.6765 140.31V171.265H58.9629V142.327C58.9629 142.327 59.3261 135.892 65.6658 135.892C72.0055 135.892 73.6529 135.943 73.6529 135.943Z" fill="#9CCDF8"/>
<path d="M67.2329 129.04V136.34C67.6467 136.851 68.1687 137.265 68.762 137.553C69.3554 137.841 70.0053 137.996 70.6657 138.006C72.8757 138.006 72.8757 136.426 72.8757 136.426V131.745L69.6056 130.901L67.2329 129.04Z" fill="#F18C72"/>
<path d="M73.1572 133.128C73.7357 133.162 74.3103 133.014 74.7987 132.705C76.761 129.602 74.5252 121.238 74.5252 121.238L67.4036 122.504L67.1784 128.104C67.1484 128.842 67.2939 129.577 67.603 130.248C67.9121 130.92 68.3763 131.51 68.9579 131.971V131.971C70.2141 132.755 71.6737 133.157 73.1572 133.128V133.128Z" fill="#F7A57A"/>
<path d="M70.7538 122.65C72.3606 122.908 73.9985 122.908 75.6053 122.65C78.0924 122.212 76.5004 119.491 76.5004 119.491C74.8583 120.056 73.0943 120.178 71.3894 119.842C69.1819 119.518 68.5875 119.094 67.1724 119.842C65.2502 120.859 65.7149 124.308 65.7149 124.308L66.7762 131.605H67.1724C67.1724 131.605 67.2703 127.266 67.2703 125.789C67.6866 125.117 68.1371 125.117 68.4838 125.284C68.6662 125.381 68.8179 125.525 68.9221 125.702C69.0262 125.88 69.0786 126.082 69.0734 126.287V133.863C69.0734 133.863 73.9355 135.942 75.1737 135.565C76.4119 135.189 75.5841 129.575 75.5841 129.575C75.1493 129.407 74.6731 129.376 74.22 129.486C73.7669 129.596 73.3588 129.841 73.051 130.189C71.9567 131.406 70.6265 130.14 70.6265 130.14L70.7538 122.65Z" fill="#122043"/>
<path d="M86.972 141.169L86.8011 140.244C86.5325 139.098 86.0022 138.027 85.251 137.116C84.4999 136.205 83.5479 135.476 82.4684 134.987H80.4106L81.0486 139.349L83.952 141.168L86.972 141.169Z" fill="#F7A57A"/>
<path d="M67.8669 125.098C68.1717 125.115 68.4596 125.242 68.6758 125.456C68.892 125.67 69.0213 125.955 69.0391 126.258C69.078 126.397 69.0878 126.543 69.0679 126.686C69.048 126.83 68.9987 126.968 68.9232 127.091C68.8477 127.215 68.7474 127.322 68.6287 127.406C68.5099 127.49 68.3751 127.549 68.2325 127.58C67.9276 127.563 67.6395 127.436 67.4233 127.222C67.2071 127.008 67.0778 126.723 67.0603 126.42C67.0214 126.281 67.0116 126.135 67.0315 125.992C67.0515 125.848 67.1007 125.71 67.1762 125.587C67.2517 125.463 67.352 125.356 67.4707 125.272C67.5895 125.188 67.7243 125.129 67.8669 125.098V125.098Z" fill="#F7A57A"/>
<path d="M81.897 138.868L85.9064 141.171C85.9064 141.171 83.3911 141.145 83.3498 141.171L79.1045 137.648C79.1045 137.648 79.4123 137.032 80.3734 137.552C80.9682 137.881 81.4872 138.329 81.897 138.868Z" fill="#F7A57A"/>
<path d="M60.8482 137.828C60.8482 137.828 50.834 148.868 50.834 155.483C50.834 162.099 58.9626 173.759 58.9626 173.759L62.9721 172.589C62.9721 172.589 59.3482 158.159 59.3482 154.32C59.3482 150.481 66.7917 144.854 66.7917 144.854" fill="#6DB6F7"/>
<path d="M79.2137 131.641C78.7919 134.35 79.4501 137.115 81.0487 139.35C81.2357 139.578 81.5038 139.726 81.7975 139.764C82.2706 139.8 82.7456 139.722 83.1819 139.537C83.3557 139.5 83.5199 139.428 83.6642 139.325C83.8085 139.223 83.9298 139.091 84.0204 138.94C84.0653 138.848 84.0837 138.746 84.0735 138.644C84.0633 138.542 84.025 138.445 83.9626 138.364C83.4225 137.566 81.755 134.824 82.5145 132.397C82.0432 132.058 81.5083 131.817 80.9413 131.687C80.3744 131.557 79.7869 131.542 79.2137 131.641Z" fill="#F4872E"/>
<path d="M83.5513 139.386C83.6558 139.347 83.7513 139.286 83.8323 139.21C83.9133 139.133 83.9781 139.041 84.023 138.939C84.068 138.848 84.0864 138.745 84.0762 138.644C84.066 138.542 84.0276 138.445 83.9652 138.364C83.4251 137.566 81.7577 134.823 82.5171 132.397C82.0577 132.036 81.5179 131.79 80.9428 131.678C80.8579 134.344 81.431 136.125 83.5513 139.386Z" fill="#FDA630"/>
<path d="M81.5894 135.167C81.7168 135.78 82.0163 136.235 82.2581 136.186C82.4998 136.137 82.5941 135.601 82.468 134.988C82.3418 134.375 82.0423 133.921 81.7993 133.97C81.5564 134.019 81.4632 134.555 81.5894 135.167Z" fill="#F4872E"/>
<path d="M81.7515 133.987L82.0062 133.927L81.9873 134.055L81.8175 134.122L81.7515 133.987Z" fill="#F4872E"/>
<path d="M82.2001 136.187L82.509 136.127L82.1553 136.075L82.2001 136.187Z" fill="#DE1D4C"/>
<path d="M81.8015 135.124C81.9277 135.737 82.2272 136.192 82.4701 136.143C82.713 136.094 82.8062 135.558 82.6788 134.945C82.5515 134.332 82.2531 133.878 82.0102 133.927C81.7673 133.976 81.6706 134.512 81.8015 135.124Z" fill="#FFC630"/>
<path d="M78.1324 128.037H77.6607C77.2338 128.028 76.8207 128.187 76.5114 128.479C76.2021 128.772 76.0218 129.173 76.0098 129.597V130.835C76.0218 131.258 76.2021 131.66 76.5114 131.952C76.8207 132.244 77.2338 132.403 77.6607 132.394H78.1324V128.037Z" fill="#FFC630"/>
<path d="M92.6502 129.263C92.6502 132.645 91.866 135.385 90.9002 135.385C89.9344 135.385 89.1501 132.645 89.1501 129.263C89.1501 125.882 89.9344 123.142 90.9002 123.142C91.866 123.142 92.6502 125.881 92.6502 129.263Z" fill="#122043"/>
<path d="M89.0691 127.008L90.4524 127.9V129.881L89.0266 131.168L88.5337 128.594L89.0691 127.008Z" fill="white"/>
<path d="M89.1456 129.263C89.1456 126.423 89.6999 124.04 90.4499 123.35C86.7 125.913 82.3804 127.538 77.8601 128.084V132.405C77.8601 132.405 87.0489 131.893 90.4499 135.185H90.4558C89.7022 134.49 89.1456 132.107 89.1456 129.263Z" fill="#F99200"/>
<path d="M90.6454 128.887C90.6454 129.435 90.5605 129.881 90.4567 129.881C90.3529 129.881 90.2668 129.435 90.2668 128.887C90.2668 128.338 90.3518 127.892 90.4567 127.892C90.5617 127.892 90.6454 128.338 90.6454 128.887Z" fill="#FFC630"/>
<path d="M84.7495 138C84.0436 138.3 83.2744 138.425 82.5089 138.363C81.3427 138.363 80.8179 136.941 80.6221 136.168C80.5525 135.895 80.4912 135.509 80.8332 135.335L82.7071 135.078L84.7495 138Z" fill="#F7A57A"/>
<path d="M182.515 218.287L180.183 224.41C180.011 224.825 179.983 225.285 180.104 225.717C180.225 226.149 180.487 226.53 180.849 226.798C181.239 227.018 181.648 227.205 182.07 227.355C182.495 227.266 185.186 218.998 185.186 218.998L185.16 218.949C184.856 218.562 184.431 218.287 183.951 218.168C183.472 218.048 182.967 218.09 182.515 218.287V218.287Z" fill="#2995F5"/>
<path d="M182.069 227.356L185.185 218.998L185.595 219.233L182.457 227.513L182.069 227.356Z" fill="#122043"/>
<path d="M181.586 220.709L181.381 221.26L182.456 221.465L182.66 220.93L181.586 220.709Z" fill="white"/>
<path d="M181.137 221.892L180.933 222.443L182.008 222.648L182.211 222.113L181.137 221.892Z" fill="white"/>
<path d="M179.928 216.843L182.514 218.287C182.586 218.59 182.571 218.906 182.47 219.2C182.37 219.494 182.187 219.754 181.945 219.95L181.853 220.022L179 219.293L179.928 216.843Z" fill="#F7A57A"/>
<path d="M159.28 178.21C161.054 180.377 162.171 183.001 162.5 185.774C162.944 188.985 161.729 194.072 161.597 198.063C161.543 199.778 161.922 201.48 162.7 203.014C163.478 204.547 164.63 205.863 166.051 206.842L179.923 216.843L178.995 219.293C178.995 219.293 160.006 216.468 155.023 208.031C150.04 199.593 148.856 180.493 148.856 180.493L159.28 178.21Z" fill="#1E5A91"/>
<path d="M170.325 167.813L177.46 183.621C177.46 183.621 180.392 183.96 181.663 185.075C181.952 185.461 182.145 185.91 182.224 186.385C182.303 186.86 182.266 187.347 182.117 187.804C182.086 187.974 182.01 188.132 181.898 188.263C181.785 188.394 181.64 188.493 181.476 188.55C181.312 188.607 181.136 188.62 180.966 188.588C180.796 188.556 180.637 188.48 180.506 188.368C179.808 187.683 178.969 187.156 178.046 186.825C177.569 186.773 177.111 186.608 176.713 186.342C176.314 186.075 175.987 185.717 175.759 185.298L165.523 169.369L170.325 167.813Z" fill="#F7A57A"/>
<path d="M134.352 136.022L130.696 132.921L133.53 117.598L137.929 115.367C137.767 115.116 137.522 114.93 137.236 114.841C136.95 114.753 136.641 114.767 136.365 114.882C135.722 115.097 135.034 115.147 134.366 115.028C134.366 115.028 133.543 114.017 135.103 113.334C135.98 112.749 136.566 113.334 139.107 113.234C139.107 112.846 135.759 111.925 135.759 111.925C134.714 111.594 132.048 113.639 132.048 113.639C131.87 113.882 131.753 114.165 131.709 114.462L131.288 117.307C131.288 117.307 125.624 132.733 125.624 134.375C125.624 136.018 128.8 138.278 128.8 138.278L134.352 136.022Z" fill="#F7A57A"/>
<path d="M154.007 179.8C154.007 179.8 156.206 182.429 154.886 188.538C154.045 192.438 150.346 197.346 147.86 200.727C146.083 203.151 146.042 206.198 146.578 209.15C148.612 220.371 145.356 234.07 145.356 234.07H142.718C142.718 234.07 138.759 213.995 137.586 199.885C136.943 192.188 138.519 184.469 142.131 177.628L154.007 179.8Z" fill="#2372B8"/>
<path d="M139.05 112.644L130.763 113.85L131.084 116.023L139.372 114.816L139.05 112.644Z" fill="#F99200"/>
<path d="M130.286 113.92L130.607 116.092L131.364 115.982L131.043 113.81L130.286 113.92Z" fill="white"/>
<path d="M130.767 116.069C130.159 116.154 129.647 116.113 129.502 115.13C129.344 114.057 129.835 113.962 130.441 113.87L130.767 116.069Z" fill="#122043"/>
<path d="M139.373 114.816L140.981 113.856L140.864 113.065L139.051 112.642L139.373 114.816Z" fill="white"/>
<path d="M140.982 113.857L141.681 113.356L140.865 113.065L140.982 113.857Z" fill="#002F4C"/>
<path d="M139.251 113.988L131.241 115.152L131.314 115.646L139.324 114.482L139.251 113.988Z" fill="#EF7100"/>
<path d="M139.092 112.941L131.086 114.106L131.159 114.599L139.165 113.435L139.092 112.941Z" fill="#EF7100"/>
<path d="M160.478 148.783C165.193 152.219 170.743 168.742 170.743 168.742L166.603 171.046L159.866 161.872C159.866 161.872 159.208 172.493 160.822 180.639C160.088 183.694 156.591 183.35 150.922 182.283C147.609 181.686 144.431 180.504 141.539 178.792C141.539 178.792 141.294 164.057 140.561 156.244C139.828 148.431 141.276 147.597 139.291 147.855C134.862 145.359 127.605 137.323 127.605 137.323L134.346 136.022L148.861 144.46C152.867 145.518 156.758 146.966 160.478 148.783V148.783Z" fill="#FF7B00"/>
<path d="M152.254 129.24L148.753 132.671C148.02 133.387 147.483 134.276 147.192 135.254C146.901 136.233 146.864 137.269 147.087 138.265L147.498 140.097L152.254 129.24Z" fill="#F7A57A"/>
<path d="M156.493 127.941C164.998 127.941 161.38 144.137 161.38 144.137C161.38 144.137 159.865 154.644 156.493 158.862C153.575 162.514 147.8 161.416 145.064 159.663C143.736 158.798 142.226 158.245 140.65 158.046C138.332 157.769 135.576 156.754 135.576 152.607C135.576 148.705 140.274 145.686 143.364 143.528C145.372 142.114 146.795 140.025 147.372 137.65C148.36 133.653 150.774 127.941 156.493 127.941Z" fill="#122043"/>
<path d="M144.9 236.98L138.303 236.969C137.428 237.09 136.448 237.42 136.284 238.426C136.214 238.866 136.182 239.312 136.189 239.757C136.423 240.121 145.17 239.709 145.17 239.709L145.208 239.667C145.465 239.249 145.574 238.758 145.519 238.271C145.463 237.784 145.245 237.33 144.9 236.98Z" fill="#2995F5"/>
<path d="M136.186 239.758L145.167 239.71L145.089 240.172H136.173L136.186 239.758Z" fill="#002F4C"/>
<path d="M142.286 236.974H141.692L141.878 238.045H142.454L142.286 236.974Z" fill="white"/>
<path d="M141.014 236.974H140.42L140.605 238.045H141.181L141.014 236.974Z" fill="white"/>
<path d="M145.35 234.069L144.898 236.98C144.638 237.153 144.335 237.25 144.022 237.26C143.709 237.27 143.4 237.192 143.129 237.035L143.029 236.977L142.712 234.069H145.35Z" fill="#F7A57A"/>
<path d="M136.359 114.882C136.635 114.767 136.944 114.753 137.23 114.841C137.516 114.93 137.761 115.116 137.922 115.367L134.996 116.851C134.955 116.834 134.916 116.815 134.875 116.798C134.247 116.517 133.6 116.283 132.937 116.097C134.046 115.608 135.189 115.202 136.359 114.882V114.882Z" fill="#F7A57A"/>
<path d="M313.999 144.132L315.941 148.437L319.102 145.611L316.872 139.34L313.999 144.132Z" fill="#F18C72"/>
<path d="M312.875 144.405C312.431 144.505 311.966 144.463 311.548 144.285C309.625 142.124 310.285 135.762 310.285 135.762L312.534 133.838L315.975 135.431L316.872 138.927C317.112 140.34 316.795 141.791 315.988 142.979V142.979C315.113 143.745 314.031 144.241 312.875 144.405V144.405Z" fill="#F7A57A"/>
<path d="M312.358 167.225C311.761 167.99 310.95 168.564 310.026 168.875C308.472 169.405 296.897 166.995 296.897 166.995L294.572 167.237C293.355 167.565 292.065 167.499 290.89 167.048L287.485 165.742L307.456 165.333L315.1 155.913L312.358 167.225Z" fill="#F7A57A"/>
<path d="M319.1 145.611C319.1 145.611 323.714 151.475 324.792 155.331C325.869 159.186 326.258 169.815 326.258 169.815H316.548C316.548 169.815 313.76 164.801 311.596 160.252C311.274 159.578 311.102 158.843 311.092 158.097C311.081 157.351 311.233 156.612 311.535 155.929C313.12 152.367 315.501 147.467 315.501 147.467L319.1 145.611Z" fill="#2372B8"/>
<path d="M314.173 233.965L313.403 235.953C313.213 236.498 312.843 236.964 312.353 237.274C311.533 237.798 310.64 238.201 309.702 238.469C311.247 239.776 313.701 238.411 315.107 237.447C315.79 236.975 316.278 236.274 316.48 235.473L316.801 233.966L314.173 233.965Z" fill="#F7A57A"/>
<path d="M316.634 234.999C316.917 235.216 317.142 235.498 317.29 235.82C317.439 236.143 317.506 236.496 317.487 236.85C317.296 237.889 317.025 240.318 317.025 240.318H315.952L315.984 238.052C315.984 237.904 313.683 240.318 313.292 240.318H307.613C307.613 240.318 307.236 238.786 310.57 238.298C312.868 237.796 314.973 236.651 316.634 234.999V234.999Z" fill="#002F4C"/>
<path d="M325.213 233.965L324.443 235.953C324.254 236.498 323.884 236.964 323.394 237.274C322.573 237.798 321.68 238.2 320.742 238.469C322.287 239.776 324.742 238.411 326.147 237.447C326.831 236.976 327.319 236.274 327.52 235.473L327.842 233.966L325.213 233.965Z" fill="#F7A57A"/>
<path d="M327.674 234.999C327.957 235.216 328.182 235.498 328.331 235.82C328.479 236.143 328.547 236.496 328.527 236.85C328.335 237.889 328.065 240.318 328.065 240.318H326.991L327.024 238.052C327.024 237.904 324.723 240.318 324.333 240.318H318.654C318.654 240.318 318.277 238.786 321.611 238.298C323.909 237.796 326.013 236.651 327.674 234.999V234.999Z" fill="#002F4C"/>
<path d="M316.55 169.983C316.55 169.983 311.732 177.149 315.856 205.715C315.208 216.512 314.002 234.281 314.002 234.281H316.731C316.731 234.281 324.313 215.355 321.768 205.927C321.164 196.59 323.495 169.815 323.495 169.815L316.55 169.983Z" fill="#8B96FA"/>
<path d="M326.261 169.815C326.261 169.815 331.307 173.84 331.307 179.816C331.307 184.504 329.029 194.216 327.724 200.574C327.378 202.911 327.604 205.297 328.383 207.529C331.05 216.75 327.809 234.281 327.809 234.281H325.089C325.089 234.281 324.939 225.265 321.218 205.049C316.944 181.831 316.553 169.815 316.553 169.815H326.261Z" fill="#242D80"/>
<path d="M286.939 165.742H302.799V164.585H287.644L280.909 151.881L279.879 152.419L286.939 165.742Z" fill="#0F787A"/>
<path d="M323.498 156.36C323.498 156.36 318.432 168.061 315.998 168.061C313.563 168.061 300.082 162.339 300.082 162.339L300.44 160.343L314.204 162.656C315.032 160.391 315.723 158.078 316.271 155.73C316.425 155.007 316.787 154.344 317.315 153.822C317.842 153.3 318.511 152.941 319.24 152.789C322.498 152.18 323.498 156.36 323.498 156.36Z" fill="#F7A57A"/>
<path d="M316.774 137.786C316.774 137.786 315.273 138.687 310.674 135.762C309.969 135.945 311.094 129.367 317.044 131.299C321.209 132.651 321.009 136.653 320.818 138.861C320.612 141.252 321.865 142.83 323.521 144.583C324.911 146.05 324.89 148.748 325.816 150.203C326.955 151.989 328.163 151.885 329.066 153.697C329.581 154.606 329.835 155.638 329.801 156.681C329.767 157.724 329.447 158.738 328.874 159.613C328.153 160.581 326.478 162.914 323.828 162.083C322.338 161.616 321.936 159.036 321.871 156.86C321.837 155.904 321.593 154.966 321.156 154.113C320.719 153.26 320.099 152.512 319.341 151.921C317.909 150.79 316.346 149.239 315.928 147.623C315.1 144.447 316.774 137.786 316.774 137.786Z" fill="#122043"/>
<path d="M317.315 137.914C317.101 137.806 316.854 137.78 316.622 137.841C316.39 137.903 316.188 138.046 316.056 138.246C315.975 138.326 315.91 138.421 315.867 138.527C315.824 138.632 315.803 138.745 315.805 138.859C315.808 138.973 315.834 139.085 315.881 139.189C315.929 139.292 315.997 139.385 316.082 139.462C316.296 139.569 316.543 139.594 316.775 139.533C317.007 139.471 317.208 139.327 317.34 139.128C317.422 139.049 317.486 138.953 317.529 138.848C317.573 138.743 317.594 138.629 317.592 138.516C317.589 138.402 317.564 138.29 317.516 138.186C317.468 138.083 317.4 137.99 317.315 137.914V137.914Z" fill="#F7A57A"/>
<path d="M292.898 161.368C292.882 161.229 292.911 161.088 292.982 160.966C293.053 160.844 293.161 160.748 293.291 160.692L295.88 159.576C296.521 159.3 297.241 159.268 297.904 159.486L300.471 160.332L300.818 160.346L301.094 162.715C300.579 162.527 300.28 162.409 300.28 162.409L298.657 161.823C298.657 161.823 295.114 164.803 293.849 162.097C293.469 164.777 292.699 164.48 292.699 164.48L292.898 161.368Z" fill="#F7A57A"/>
<path d="M319.058 135.483C318.544 137.314 315.927 138.191 313.201 137.444C310.475 136.698 308.997 134.667 309.184 132.778C309.436 130.297 312.316 130.069 315.041 130.816C317.766 131.563 319.567 133.653 319.058 135.483Z" fill="#122043"/>
<path d="M40.503 75.2058L39.1914 79.4863L43.247 77.7873L56.8978 70.7276L40.503 75.2058Z" fill="#CF5B1A"/>
<path d="M39.1914 79.4862L46.2919 77.7823L44.3742 77.2038L39.1914 79.4862Z" fill="url(#paint18_linear)"/>
<path d="M40.5029 75.2062L38.5637 71.6011L56.8977 70.7296L40.5029 75.2062Z" fill="url(#paint19_linear)"/>
<path d="M56.8972 70.7276L43.2463 77.7873L46.3851 82.923L56.8972 70.7276Z" fill="url(#paint20_linear)"/>
<path d="M41.4814 83.1595C41.4279 83.143 41.3793 83.1137 41.3398 83.0743C41.3004 83.0348 41.2712 82.9864 41.255 82.9332C41.2387 82.88 41.2359 82.8237 41.2466 82.7691C41.2574 82.7146 41.2814 82.6635 41.3167 82.6203C41.6897 82.1614 42.1047 81.7378 42.5564 81.3548C42.5906 81.3259 42.6303 81.3039 42.6731 81.2901C42.7159 81.2764 42.761 81.2711 42.8059 81.2746C42.8507 81.2782 42.8945 81.2904 42.9346 81.3108C42.9746 81.3311 43.0103 81.359 43.0395 81.393C43.0687 81.427 43.0909 81.4663 43.1047 81.5088C43.1186 81.5513 43.1239 81.596 43.1203 81.6406C43.1168 81.6851 43.1044 81.7284 43.0839 81.7682C43.0635 81.808 43.0353 81.8434 43.0011 81.8723C42.581 82.228 42.195 82.6215 41.8481 83.0479C41.8052 83.1007 41.7474 83.1396 41.682 83.1595C41.6166 83.1794 41.5468 83.1794 41.4814 83.1595V83.1595Z" fill="url(#paint21_linear)"/>
<path d="M52.8494 119.063L52.8285 119.056C51.7099 118.632 50.6741 118.018 49.7672 117.242C49.6978 117.184 49.6547 117.1 49.6473 117.01C49.6399 116.92 49.6689 116.831 49.7279 116.762C49.7869 116.693 49.871 116.65 49.9617 116.643C50.0525 116.636 50.1425 116.665 50.2119 116.723C51.0573 117.448 52.0233 118.022 53.0668 118.419C53.1492 118.45 53.2161 118.513 53.2535 118.592C53.291 118.671 53.2961 118.762 53.2677 118.845C53.2394 118.928 53.1799 118.997 53.1015 119.038C53.0232 119.079 52.9321 119.088 52.8472 119.063H52.8494ZM48.4319 115.839C48.3673 115.82 48.3099 115.782 48.2672 115.73C47.5095 114.822 46.8813 113.815 46.4006 112.737C46.3807 112.696 46.3694 112.652 46.3673 112.606C46.3652 112.561 46.3722 112.515 46.3881 112.472C46.404 112.43 46.4283 112.391 46.4597 112.357C46.4911 112.324 46.5289 112.298 46.5708 112.279C46.6128 112.261 46.658 112.251 46.7039 112.25C46.7498 112.249 46.7954 112.257 46.838 112.274C46.8805 112.291 46.9193 112.317 46.9518 112.349C46.9844 112.381 47.0101 112.419 47.0275 112.461C47.4836 113.482 48.0788 114.436 48.7965 115.296C48.8436 115.353 48.8711 115.423 48.8749 115.496C48.8788 115.569 48.8588 115.641 48.8179 115.702C48.777 115.763 48.7174 115.809 48.648 115.833C48.5786 115.858 48.503 115.86 48.4325 115.838L48.4319 115.839ZM45.9388 110.978C45.8821 110.961 45.8309 110.929 45.79 110.887C45.7491 110.844 45.72 110.792 45.7055 110.735L45.6665 110.575C45.4152 109.486 45.2765 108.375 45.2526 107.258C45.2533 107.169 45.2886 107.085 45.3511 107.022C45.4136 106.959 45.4984 106.922 45.5875 106.92C45.6765 106.918 45.7629 106.95 45.8284 107.01C45.8939 107.07 45.9333 107.153 45.9383 107.241C45.9609 108.312 46.0938 109.377 46.3347 110.42L46.3709 110.569C46.3856 110.628 46.3845 110.689 46.3676 110.747C46.3507 110.804 46.3187 110.857 46.2748 110.898C46.2308 110.94 46.1766 110.969 46.1176 110.983C46.0586 110.997 45.9969 110.995 45.9388 110.978V110.978ZM45.5611 105.517C45.4861 105.494 45.4212 105.447 45.3772 105.382C45.3332 105.318 45.3129 105.24 45.3195 105.163C45.423 104.005 45.6064 102.856 45.8686 101.723C45.8784 101.679 45.8969 101.638 45.9228 101.601C45.9488 101.565 45.9818 101.534 46.0199 101.51C46.058 101.486 46.1004 101.47 46.1448 101.462C46.1893 101.455 46.2347 101.456 46.2787 101.466C46.367 101.486 46.4436 101.541 46.492 101.617C46.5405 101.693 46.5569 101.785 46.5378 101.873C46.283 102.975 46.1047 104.093 46.0042 105.22C46.0005 105.264 45.988 105.308 45.9674 105.348C45.9468 105.387 45.9185 105.423 45.8841 105.451C45.8498 105.48 45.81 105.502 45.7671 105.516C45.7242 105.529 45.679 105.534 45.6341 105.53C45.6094 105.529 45.5849 105.524 45.5611 105.517ZM46.6218 100.124C46.5356 100.098 46.4631 100.039 46.4202 99.9608C46.3772 99.8821 46.3672 99.7899 46.3923 99.704C46.4159 99.6239 46.439 99.5439 46.4632 99.4638C45.9093 99.319 45.3675 99.1321 44.8424 98.9049C44.7619 98.867 44.6993 98.7995 44.668 98.7166C44.6367 98.6338 44.6392 98.5421 44.6749 98.461C44.7106 98.3799 44.7767 98.3158 44.8592 98.2822C44.9417 98.2486 45.0342 98.2483 45.117 98.2812C45.6171 98.4987 46.1339 98.6765 46.6624 98.8128C46.9013 98.0578 47.1725 97.2707 47.486 96.416C47.5172 96.3314 47.5811 96.2625 47.6635 96.2245C47.7043 96.2057 47.7484 96.1951 47.7934 96.1932C47.8383 96.1914 47.8832 96.1983 47.9255 96.2137C47.9677 96.229 48.0065 96.2524 48.0396 96.2827C48.0727 96.3129 48.0995 96.3493 48.1185 96.3898C48.1374 96.4303 48.1481 96.4741 48.15 96.5187C48.1519 96.5633 48.1449 96.6078 48.1294 96.6497C47.8264 97.4723 47.5634 98.2327 47.3317 98.961C47.6681 99.026 48.0079 99.0747 48.3512 99.107C48.4403 99.1175 48.5216 99.1621 48.5779 99.2313C48.6342 99.3006 48.6609 99.3889 48.6524 99.4775C48.6439 99.5661 48.6007 99.6478 48.5322 99.7052C48.4637 99.7626 48.3753 99.7911 48.2859 99.7846C47.8977 99.7476 47.5116 99.6911 47.1291 99.6152C47.1017 99.7067 47.0746 99.7984 47.0479 99.8903C47.0225 99.977 46.9635 100.05 46.8838 100.094C46.8041 100.137 46.7103 100.147 46.6229 100.122L46.6218 100.124ZM43.0774 97.901C43.0413 97.8903 43.0074 97.8737 42.9769 97.8519C41.9993 97.1574 41.1662 96.2819 40.5233 95.2737C40.4992 95.236 40.4828 95.1938 40.4751 95.1498C40.4674 95.1057 40.4685 95.0606 40.4784 95.017C40.4882 94.9733 40.5067 94.9321 40.5326 94.8955C40.5585 94.859 40.5915 94.8278 40.6295 94.8039C40.6676 94.78 40.7101 94.7637 40.7545 94.7561C40.7989 94.7484 40.8443 94.7495 40.8883 94.7593C40.9323 94.7691 40.9739 94.7874 41.0107 94.8131C41.0476 94.8388 41.079 94.8715 41.1031 94.9093C41.6982 95.8445 42.4705 96.6562 43.3771 97.2996C43.4415 97.3471 43.487 97.4156 43.5057 97.4931C43.5245 97.5705 43.5151 97.652 43.4795 97.7234C43.4438 97.7947 43.384 97.8514 43.3105 97.8834C43.237 97.9155 43.1545 97.9209 43.0774 97.8988V97.901ZM50.2981 99.7808C50.222 99.7577 50.1564 99.7091 50.1125 99.6434C50.0686 99.5776 50.049 99.4988 50.0572 99.4203C50.0654 99.3418 50.1008 99.2686 50.1573 99.2132C50.2139 99.1577 50.2881 99.1234 50.3672 99.1162C51.4825 99.021 52.5739 98.7412 53.596 98.2883C53.6783 98.255 53.7704 98.2546 53.8529 98.2873C53.9355 98.3201 54.002 98.3833 54.0385 98.4637C54.075 98.5441 54.0786 98.6354 54.0486 98.7184C54.0186 98.8014 53.9573 98.8696 53.8777 98.9087C52.7854 99.3942 51.6189 99.6945 50.4265 99.7972C50.3831 99.8006 50.3395 99.7956 50.2981 99.7824V99.7808ZM39.8019 93.5709C39.751 93.5554 39.7043 93.5284 39.6657 93.492C39.627 93.4556 39.5973 93.4108 39.579 93.3612C39.1743 92.2464 38.9536 91.0742 38.9257 89.8896C38.9232 89.7995 38.9569 89.712 39.0194 89.6465C39.0819 89.5811 39.1681 89.5429 39.2589 89.5404C39.3498 89.538 39.4379 89.5714 39.5039 89.6334C39.5699 89.6954 39.6084 89.7809 39.6108 89.8711C39.6371 90.9826 39.8441 92.0826 40.2241 93.1286C40.2459 93.188 40.2506 93.2523 40.2377 93.3142C40.2248 93.3762 40.1947 93.4333 40.1508 93.4793C40.107 93.5252 40.0511 93.5581 39.9895 93.5743C39.9279 93.5905 39.8629 93.5893 39.8019 93.5709V93.5709ZM55.4226 97.8775C55.3616 97.8595 55.3069 97.825 55.2646 97.7779C55.2222 97.7307 55.1939 97.6729 55.1828 97.6107C55.1717 97.5485 55.1782 97.4845 55.2017 97.4258C55.2251 97.3671 55.2645 97.3161 55.3155 97.2783C55.5444 97.1063 55.7643 96.9229 55.9744 96.7287C56.5692 96.1743 57.0559 95.5157 57.4101 94.7862C57.4285 94.7443 57.4553 94.7065 57.4888 94.6752C57.5223 94.6438 57.5619 94.6194 57.6051 94.6035C57.6483 94.5876 57.6943 94.5805 57.7403 94.5826C57.7863 94.5847 57.8315 94.596 57.873 94.6158C57.9145 94.6356 57.9516 94.6635 57.9821 94.6979C58.0125 94.7322 58.0356 94.7723 58.0501 94.8157C58.0646 94.8591 58.0701 94.9049 58.0664 94.9505C58.0626 94.996 58.0497 95.0404 58.0283 95.0809C57.637 95.8865 57.0993 96.6135 56.4421 97.2255C56.2149 97.4361 55.9767 97.6346 55.7284 97.8203C55.6856 97.8531 55.6356 97.8754 55.5824 97.8853C55.5293 97.8952 55.4745 97.8926 55.4226 97.8775V97.8775ZM48.4638 94.9398L48.4303 94.9278C48.3465 94.8927 48.2802 94.8261 48.2459 94.7426C48.2115 94.6591 48.2119 94.5655 48.2469 94.4822C48.681 93.386 49.2601 92.3519 49.9692 91.4072C49.9961 91.37 50.0304 91.3385 50.0699 91.3147C50.1094 91.2909 50.1533 91.2753 50.1991 91.2688C50.2448 91.2623 50.2914 91.2649 50.336 91.2767C50.3807 91.2885 50.4225 91.3091 50.4589 91.3373C50.4954 91.3655 50.5257 91.4007 50.5481 91.4408C50.5705 91.4809 50.5845 91.525 50.5892 91.5706C50.594 91.6162 50.5895 91.6623 50.5758 91.7061C50.5622 91.7499 50.5398 91.7906 50.51 91.8256C49.8387 92.723 49.2904 93.7048 48.8794 94.7453C48.8467 94.8234 48.7858 94.8867 48.7087 94.9226C48.6315 94.9586 48.5436 94.9647 48.4621 94.9398H48.4638ZM39.3012 88.1497C39.2223 88.1257 39.1547 88.0743 39.1108 88.0048C39.067 87.9354 39.0498 87.8527 39.0624 87.7717C39.1464 87.2399 39.2677 86.7146 39.4253 86.1996C39.6137 85.5834 39.856 84.9846 40.1494 84.4102C40.1691 84.3691 40.1968 84.3323 40.231 84.302C40.2653 84.2717 40.3052 84.2486 40.3486 84.2339C40.392 84.2192 40.4379 84.2133 40.4837 84.2165C40.5294 84.2197 40.574 84.232 40.6149 84.2526C40.6557 84.2732 40.692 84.3017 40.7216 84.3364C40.7512 84.3712 40.7735 84.4115 40.7871 84.4549C40.8007 84.4983 40.8054 84.544 40.8009 84.5893C40.7965 84.6346 40.7829 84.6785 40.761 84.7185C40.4858 85.2575 40.2584 85.8192 40.0814 86.3973C39.9334 86.8821 39.8194 87.3764 39.7404 87.8768C39.7262 87.966 39.677 88.0459 39.6035 88.0991C39.53 88.1523 39.4383 88.1744 39.3484 88.1606C39.3325 88.1579 39.3167 88.1543 39.3012 88.1497V88.1497ZM58.1726 93.286C58.0984 93.2638 58.034 93.2172 57.9899 93.1538C57.9459 93.0905 57.925 93.0141 57.9305 92.9374C58.008 92.1669 57.7896 91.3957 57.3189 90.7781C57.1546 90.568 56.9606 90.3825 56.743 90.2273C56.6692 90.1745 56.6195 90.0948 56.6049 90.0057C56.5904 89.9165 56.6121 89.8253 56.6653 89.7521C56.7185 89.6788 56.7989 89.6295 56.8887 89.6151C56.9786 89.6006 57.0705 89.6222 57.1443 89.675C57.4152 89.8684 57.6565 90.0995 57.8608 90.3613C58.4324 91.112 58.7012 92.0473 58.6146 92.9842C58.6115 93.0288 58.5995 93.0724 58.5794 93.1124C58.5593 93.1524 58.5315 93.1881 58.4975 93.2174C58.4635 93.2468 58.424 93.2692 58.3812 93.2834C58.3385 93.2976 58.2934 93.3033 58.2484 93.3002C58.2227 93.2986 58.1972 93.2938 58.1726 93.286V93.286ZM51.6245 90.5111C51.5508 90.4891 51.4869 90.4428 51.4433 90.3799C51.4175 90.3433 51.3992 90.302 51.3895 90.2583C51.3798 90.2147 51.3789 90.1696 51.3868 90.1257C51.3947 90.0817 51.4113 90.0397 51.4356 90.0021C51.4599 89.9644 51.4914 89.932 51.5284 89.9065C52.5533 89.2062 53.7861 88.8689 55.0279 88.9488C55.1186 88.9554 55.2031 88.9975 55.2626 89.0659C55.3221 89.1342 55.3518 89.2232 55.3452 89.3133C55.3386 89.4034 55.2961 89.4871 55.2273 89.5462C55.1584 89.6052 55.0687 89.6347 54.9779 89.6281C53.8935 89.5637 52.8182 89.8579 51.9204 90.4648C51.8778 90.4942 51.8291 90.5136 51.7778 90.5217C51.7266 90.5297 51.6741 90.5261 51.6245 90.5111V90.5111Z" fill="url(#paint22_linear)"/>
<path d="M54.9005 119.547C54.8193 119.522 54.7503 119.468 54.707 119.395C54.6636 119.323 54.6489 119.237 54.6657 119.154C54.6825 119.072 54.7297 118.998 54.798 118.948C54.8663 118.898 54.951 118.875 55.0355 118.883C55.5793 118.939 56.1277 118.935 56.6705 118.87C56.7607 118.859 56.8516 118.884 56.9231 118.94C56.9946 118.995 57.0409 119.077 57.0518 119.166C57.0627 119.256 57.0374 119.346 56.9813 119.417C56.9252 119.488 56.8431 119.534 56.7529 119.545C56.1594 119.616 55.5599 119.621 54.9653 119.56C54.9433 119.558 54.9216 119.553 54.9005 119.547V119.547Z" fill="url(#paint23_linear)"/>
<defs>
<linearGradient id="paint0_linear" x1="292.791" y1="35.6983" x2="294.566" y2="28.7806" gradientUnits="userSpaceOnUse">
<stop offset="0.00309044" stop-color="#FF7B00"/>
<stop offset="1" stop-color="#FFA653"/>
</linearGradient>
<linearGradient id="paint1_linear" x1="293.01" y1="37.1981" x2="293.457" y2="33.6181" gradientUnits="userSpaceOnUse">
<stop offset="0.00309044" stop-color="#FF7B00"/>
<stop offset="1" stop-color="#FFA653"/>
</linearGradient>
<linearGradient id="paint2_linear" x1="356.959" y1="76.2649" x2="357.641" y2="74.6248" gradientUnits="userSpaceOnUse">
<stop offset="0.00309044" stop-color="#FF7B00"/>
<stop offset="1" stop-color="#FFA653"/>
</linearGradient>
<linearGradient id="paint3_linear" x1="312.7" y1="30.4158" x2="312.976" y2="29.2882" gradientUnits="userSpaceOnUse">
<stop offset="0.00309044" stop-color="#FF7B00"/>
<stop offset="1" stop-color="#FFA653"/>
</linearGradient>
<linearGradient id="paint4_linear" x1="317.834" y1="29.7031" x2="317.961" y2="28.9191" gradientUnits="userSpaceOnUse">
<stop offset="0.00309044" stop-color="#FF7B00"/>
<stop offset="1" stop-color="#FFA653"/>
</linearGradient>
<linearGradient id="paint5_linear" x1="352.519" y1="74.1064" x2="353.824" y2="72.224" gradientUnits="userSpaceOnUse">
<stop offset="0.00309044" stop-color="#FF7B00"/>
<stop offset="1" stop-color="#FFA653"/>
</linearGradient>
<linearGradient id="paint6_linear" x1="349.02" y1="70.6866" x2="350.737" y2="69.1283" gradientUnits="userSpaceOnUse">
<stop offset="0.00309044" stop-color="#FF7B00"/>
<stop offset="1" stop-color="#FFA653"/>
</linearGradient>
<linearGradient id="paint7_linear" x1="346.751" y1="66.3088" x2="348.371" y2="65.4286" gradientUnits="userSpaceOnUse">
<stop offset="0.00309044" stop-color="#FF7B00"/>
<stop offset="1" stop-color="#FFA653"/>
</linearGradient>
<linearGradient id="paint8_linear" x1="340.043" y1="41.6487" x2="341.741" y2="40.0342" gradientUnits="userSpaceOnUse">
<stop offset="0.00309044" stop-color="#FF7B00"/>
<stop offset="1" stop-color="#FFA653"/>
</linearGradient>
<linearGradient id="paint9_linear" x1="342.569" y1="46.2551" x2="344.294" y2="45.1099" gradientUnits="userSpaceOnUse">
<stop offset="0.00309044" stop-color="#FF7B00"/>
<stop offset="1" stop-color="#FFA653"/>
</linearGradient>
<linearGradient id="paint10_linear" x1="336.655" y1="37.6015" x2="338.082" y2="35.7447" gradientUnits="userSpaceOnUse">
<stop offset="0.00309044" stop-color="#FF7B00"/>
<stop offset="1" stop-color="#FFA653"/>
</linearGradient>
<linearGradient id="paint11_linear" x1="327.96" y1="31.7055" x2="328.579" y2="30.1174" gradientUnits="userSpaceOnUse">
<stop offset="0.00309044" stop-color="#FF7B00"/>
<stop offset="1" stop-color="#FFA653"/>
</linearGradient>
<linearGradient id="paint12_linear" x1="344.902" y1="56.3123" x2="346.088" y2="55.922" gradientUnits="userSpaceOnUse">
<stop offset="0.00309044" stop-color="#FF7B00"/>
<stop offset="1" stop-color="#FFA653"/>
</linearGradient>
<linearGradient id="paint13_linear" x1="332.579" y1="34.2462" x2="333.617" y2="32.4" gradientUnits="userSpaceOnUse">
<stop offset="0.00309044" stop-color="#FF7B00"/>
<stop offset="1" stop-color="#FFA653"/>
</linearGradient>
<linearGradient id="paint14_linear" x1="345.571" y1="61.3901" x2="346.849" y2="60.9268" gradientUnits="userSpaceOnUse">
<stop offset="0.00309044" stop-color="#FF7B00"/>
<stop offset="1" stop-color="#FFA653"/>
</linearGradient>
<linearGradient id="paint15_linear" x1="361.94" y1="77.1152" x2="362.175" y2="76.0672" gradientUnits="userSpaceOnUse">
<stop offset="0.00309044" stop-color="#FF7B00"/>
<stop offset="1" stop-color="#FFA653"/>
</linearGradient>
<linearGradient id="paint16_linear" x1="344.104" y1="51.2272" x2="345.529" y2="50.6208" gradientUnits="userSpaceOnUse">
<stop offset="0.00309044" stop-color="#FF7B00"/>
<stop offset="1" stop-color="#FFA653"/>
</linearGradient>
<linearGradient id="paint17_linear" x1="322.983" y1="30.113" x2="323.235" y2="29.0315" gradientUnits="userSpaceOnUse">
<stop offset="0.00309044" stop-color="#FF7B00"/>
<stop offset="1" stop-color="#FFA653"/>
</linearGradient>
<linearGradient id="paint18_linear" x1="43.0798" y1="79.5406" x2="43.6695" y2="77.305" gradientUnits="userSpaceOnUse">
<stop offset="0.00309044" stop-color="#FF7B00"/>
<stop offset="1" stop-color="#FFA653"/>
</linearGradient>
<linearGradient id="paint19_linear" x1="48.6037" y1="75.3127" x2="49.5072" y2="70.804" gradientUnits="userSpaceOnUse">
<stop offset="0.00309044" stop-color="#FF7B00"/>
<stop offset="1" stop-color="#FFA653"/>
</linearGradient>
<linearGradient id="paint20_linear" x1="50.7218" y1="83.2134" x2="56.8139" y2="74.9035" gradientUnits="userSpaceOnUse">
<stop offset="0.00309044" stop-color="#FF7B00"/>
<stop offset="1" stop-color="#FFA653"/>
</linearGradient>
<linearGradient id="paint21_linear" x1="42.2704" y1="83.2197" x2="43.2489" y2="82.0397" gradientUnits="userSpaceOnUse">
<stop offset="0.00309044" stop-color="#FF7B00"/>
<stop offset="1" stop-color="#FFA653"/>
</linearGradient>
<linearGradient id="paint22_linear" x1="49.7164" y1="119.907" x2="66.7775" y2="108.155" gradientUnits="userSpaceOnUse">
<stop offset="0.00309044" stop-color="#FF7B00"/>
<stop offset="1" stop-color="#FFA653"/>
</linearGradient>
<linearGradient id="paint23_linear" x1="55.9707" y1="119.62" x2="56.1529" y2="118.896" gradientUnits="userSpaceOnUse">
<stop offset="0.00309044" stop-color="#FF7B00"/>
<stop offset="1" stop-color="#FFA653"/>
</linearGradient>
</defs>
</svg>
