<svg width="24" height="25" viewBox="0 0 24 25" fill="none" xmlns="http://www.w3.org/2000/svg">
<path d="M12 5.8208C12.9283 5.8208 13.8185 6.18955 14.4749 6.84593C15.1313 7.5023 15.5 8.39254 15.5 9.3208C15.5 10.2491 15.1313 11.1393 14.4749 11.7957C13.8185 12.4521 12.9283 12.8208 12 12.8208C11.0717 12.8208 10.1815 12.4521 9.52513 11.7957C8.86875 11.1393 8.5 10.2491 8.5 9.3208C8.5 8.39254 8.86875 7.5023 9.52513 6.84593C10.1815 6.18955 11.0717 5.8208 12 5.8208ZM5 8.3208C5.56 8.3208 6.08 8.4708 6.53 8.7408C6.38 10.1708 6.8 11.5908 7.66 12.7008C7.16 13.6608 6.16 14.3208 5 14.3208C4.20435 14.3208 3.44129 14.0047 2.87868 13.4421C2.31607 12.8795 2 12.1165 2 11.3208C2 10.5252 2.31607 9.76209 2.87868 9.19948C3.44129 8.63687 4.20435 8.3208 5 8.3208ZM19 8.3208C19.7956 8.3208 20.5587 8.63687 21.1213 9.19948C21.6839 9.76209 22 10.5252 22 11.3208C22 12.1165 21.6839 12.8795 21.1213 13.4421C20.5587 14.0047 19.7956 14.3208 19 14.3208C17.84 14.3208 16.84 13.6608 16.34 12.7008C17.2 11.5908 17.62 10.1708 17.47 8.7408C17.92 8.4708 18.44 8.3208 19 8.3208ZM5.5 18.5708C5.5 16.5008 8.41 14.8208 12 14.8208C15.59 14.8208 18.5 16.5008 18.5 18.5708V20.3208H5.5V18.5708ZM0 20.3208V18.8208C0 17.4308 1.89 16.2608 4.45 15.9208C3.86 16.6008 3.5 17.5408 3.5 18.5708V20.3208H0ZM24 20.3208H20.5V18.5708C20.5 17.5408 20.14 16.6008 19.55 15.9208C22.11 16.2608 24 17.4308 24 18.8208V20.3208Z" fill="#2A2E2F"/>
</svg>
