<svg width="24" height="25" viewBox="0 0 24 25" fill="none" xmlns="http://www.w3.org/2000/svg">
<path d="M16 11.3208H14V9.3208H16V11.3208ZM3 5.3208C3 4.79037 3.21071 4.28166 3.58579 3.90659C3.96086 3.53151 4.46957 3.3208 5 3.3208H19C19.5304 3.3208 20.0391 3.53151 20.4142 3.90659C20.7893 4.28166 21 4.79037 21 5.3208V19.3208C21 19.8512 20.7893 20.3599 20.4142 20.735C20.0391 21.1101 19.5304 21.3208 19 21.3208H5C3.89 21.3208 3 20.4208 3 19.3208V5.3208ZM10 7.3208H8V17.3208H10V7.3208ZM12 17.3208H14V13.3208H16C16.5304 13.3208 17.0391 13.1101 17.4142 12.735C17.7893 12.3599 18 11.8512 18 11.3208V9.3208C18 8.79037 17.7893 8.28166 17.4142 7.90659C17.0391 7.53151 16.5304 7.3208 16 7.3208H12V17.3208Z" fill="#2A2E2F"/>
</svg>
