<svg width="24" height="25" viewBox="0 0 24 25" fill="none" xmlns="http://www.w3.org/2000/svg">
<path d="M12 11.8208C11.337 11.8208 10.7011 11.5574 10.2322 11.0886C9.76339 10.6197 9.5 9.98384 9.5 9.3208C9.5 8.65776 9.76339 8.02187 10.2322 7.55303C10.7011 7.08419 11.337 6.8208 12 6.8208C12.663 6.8208 13.2989 7.08419 13.7678 7.55303C14.2366 8.02187 14.5 8.65776 14.5 9.3208C14.5 9.64911 14.4353 9.9742 14.3097 10.2775C14.1841 10.5808 13.9999 10.8564 13.7678 11.0886C13.5356 11.3207 13.26 11.5049 12.9567 11.6305C12.6534 11.7561 12.3283 11.8208 12 11.8208ZM12 2.3208C10.1435 2.3208 8.36301 3.0583 7.05025 4.37105C5.7375 5.68381 5 7.46429 5 9.3208C5 14.5708 12 22.3208 12 22.3208C12 22.3208 19 14.5708 19 9.3208C19 7.46429 18.2625 5.68381 16.9497 4.37105C15.637 3.0583 13.8565 2.3208 12 2.3208Z" fill="#2A2E2F"/>
</svg>
