<svg width="24" height="25" viewBox="0 0 24 25" fill="none" xmlns="http://www.w3.org/2000/svg">
<path d="M12 1.3208L3 5.3208V11.3208C3 16.8708 6.84 22.0608 12 23.3208C17.16 22.0608 21 16.8708 21 11.3208V5.3208L12 1.3208ZM12 5.3208C12.7956 5.3208 13.5587 5.63687 14.1213 6.19948C14.6839 6.76209 15 7.52515 15 8.3208C15 9.11645 14.6839 9.87951 14.1213 10.4421C13.5587 11.0047 12.7956 11.3208 12 11.3208C11.2044 11.3208 10.4413 11.0047 9.87868 10.4421C9.31607 9.87951 9 9.11645 9 8.3208C9 7.52515 9.31607 6.76209 9.87868 6.19948C10.4413 5.63687 11.2044 5.3208 12 5.3208ZM17.13 17.3208C15.92 19.1708 14.11 20.5608 12 21.2408C9.89 20.5608 8.08 19.1708 6.87 17.3208C6.53 16.8208 6.24 16.3208 6 15.7908C6 14.1408 8.71 12.7908 12 12.7908C15.29 12.7908 18 14.1108 18 15.7908C17.76 16.3208 17.47 16.8208 17.13 17.3208Z" fill="#2A2E2F"/>
</svg>
