<svg width="24" height="25" viewBox="0 0 24 25" fill="none" xmlns="http://www.w3.org/2000/svg">
<path d="M17.9 17.7108C17.64 16.9108 16.89 16.3208 16 16.3208H15V13.3208C15 13.0556 14.8946 12.8012 14.7071 12.6137C14.5196 12.4262 14.2652 12.3208 14 12.3208H8V10.3208H10C10.2652 10.3208 10.5196 10.2154 10.7071 10.0279C10.8946 9.84037 11 9.58602 11 9.3208V7.3208H13C13.5304 7.3208 14.0391 7.11009 14.4142 6.73501C14.7893 6.35994 15 5.85123 15 5.3208V4.9108C17.93 6.0908 20 8.9608 20 12.3208C20 14.4008 19.2 16.2908 17.9 17.7108ZM11 20.2508C7.05 19.7608 4 16.4008 4 12.3208C4 11.7008 4.08 11.1008 4.21 10.5308L9 15.3208V16.3208C9 16.8512 9.21071 17.3599 9.58579 17.735C9.96086 18.1101 10.4696 18.3208 11 18.3208V20.2508ZM12 2.3208C10.6868 2.3208 9.38642 2.57946 8.17317 3.08201C6.95991 3.58455 5.85752 4.32115 4.92893 5.24973C3.05357 7.1251 2 9.66864 2 12.3208C2 14.973 3.05357 17.5165 4.92893 19.3919C5.85752 20.3205 6.95991 21.0571 8.17317 21.5596C9.38642 22.0621 10.6868 22.3208 12 22.3208C14.6522 22.3208 17.1957 21.2672 19.0711 19.3919C20.9464 17.5165 22 14.973 22 12.3208C22 11.0076 21.7413 9.70722 21.2388 8.49397C20.7362 7.28071 19.9997 6.17832 19.0711 5.24973C18.1425 4.32115 17.0401 3.58455 15.8268 3.08201C14.6136 2.57946 13.3132 2.3208 12 2.3208Z" fill="#2A2E2F"/>
</svg>
