<svg width="207" height="252" viewBox="0 0 207 252" fill="none" xmlns="http://www.w3.org/2000/svg">
<circle cx="167.5" cy="78.5" r="38.5" stroke="#A9A9A9" stroke-width="2" stroke-dasharray="5 5"/>
<circle cx="167.5" cy="78.5" r="33.5" fill="#C7CCCE"/>
<circle cx="167.5" cy="78.5" r="29.5" fill="#FAFAFA"/>
<path d="M167 65.0833C168.702 65.0833 170.334 65.7593 171.537 66.9627C172.741 68.166 173.417 69.7981 173.417 71.4999C173.417 73.2017 172.741 74.8338 171.537 76.0372C170.334 77.2405 168.702 77.9166 167 77.9166C165.298 77.9166 163.666 77.2405 162.463 76.0372C161.259 74.8338 160.583 73.2017 160.583 71.4999C160.583 69.7981 161.259 68.166 162.463 66.9627C163.666 65.7593 165.298 65.0833 167 65.0833ZM154.167 69.6666C155.193 69.6666 156.147 69.9416 156.972 70.4366C156.697 73.0583 157.467 75.6616 159.043 77.6966C158.127 79.4566 156.293 80.6666 154.167 80.6666C152.708 80.6666 151.309 80.0871 150.278 79.0557C149.246 78.0242 148.667 76.6253 148.667 75.1666C148.667 73.7079 149.246 72.3089 150.278 71.2775C151.309 70.246 152.708 69.6666 154.167 69.6666ZM179.833 69.6666C181.292 69.6666 182.691 70.246 183.722 71.2775C184.754 72.3089 185.333 73.7079 185.333 75.1666C185.333 76.6253 184.754 78.0242 183.722 79.0557C182.691 80.0871 181.292 80.6666 179.833 80.6666C177.707 80.6666 175.873 79.4566 174.957 77.6966C176.533 75.6616 177.303 73.0583 177.028 70.4366C177.853 69.9416 178.807 69.6666 179.833 69.6666ZM155.083 88.4583C155.083 84.6632 160.418 81.5833 167 81.5833C173.582 81.5833 178.917 84.6632 178.917 88.4583V91.6666H155.083V88.4583ZM145 91.6666V88.9166C145 86.3682 148.465 84.2233 153.158 83.5999C152.077 84.8466 151.417 86.5699 151.417 88.4583V91.6666H145ZM189 91.6666H182.583V88.4583C182.583 86.5699 181.923 84.8466 180.842 83.5999C185.535 84.2233 189 86.3682 189 88.9166V91.6666Z" fill="#2A2E2F"/>
<circle cx="164.5" cy="212.5" r="38.5" stroke="#A9A9A9" stroke-width="2" stroke-dasharray="5 5"/>
<circle cx="164.5" cy="212.5" r="33.5" fill="#C7CCCE"/>
<circle cx="164.5" cy="212.5" r="29.5" fill="#FAFAFA"/>
<path fill-rule="evenodd" clip-rule="evenodd" d="M151.5 206.667V203H177.167V204.985C176.57 204.885 175.958 204.833 175.333 204.833C173.084 204.833 170.993 205.508 169.251 206.667H151.5ZM165.805 221.333C165.161 220.22 164.706 218.983 164.485 217.667H151.5V221.333H165.805ZM164.485 214C164.706 212.684 165.161 211.447 165.805 210.333H151.5V214H164.485ZM174.417 206.713C172.322 206.923 170.353 207.85 168.852 209.352C167.132 211.071 166.167 213.402 166.167 215.833C166.167 218.264 167.132 220.596 168.852 222.315C170.571 224.034 172.902 225 175.333 225C177.764 225 180.096 224.034 181.815 222.315C183.534 220.596 184.5 218.264 184.5 215.833C184.5 213.402 183.534 211.071 181.815 209.352C180.096 207.632 177.764 206.667 175.333 206.667H174.417V206.713ZM175.333 209.875C174.551 209.875 173.776 210.029 173.053 210.329C172.33 210.628 171.673 211.067 171.12 211.62C170.003 212.738 169.375 214.253 169.375 215.833C169.375 216.895 169.654 217.892 170.143 218.758L178.258 210.643C177.392 210.154 176.395 209.875 175.333 209.875ZM175.333 221.792C176.914 221.792 178.429 221.164 179.547 220.047C180.664 218.929 181.292 217.414 181.292 215.833C181.292 214.771 181.013 213.775 180.523 212.909L172.409 221.023C173.275 221.513 174.271 221.792 175.333 221.792Z" fill="#2A2E2F"/>
<circle cx="39.5" cy="167.5" r="38.5" stroke="#A9A9A9" stroke-width="2" stroke-dasharray="5 5"/>
<circle cx="39.5" cy="167.5" r="33.5" fill="#C7CCCE"/>
<circle cx="39.5" cy="167.5" r="29.5" fill="#FAFAFA"/>
<path d="M39 149.833L22.5 157.167V168.167C22.5 178.342 29.54 187.857 39 190.167C48.46 187.857 55.5 178.342 55.5 168.167V157.167L39 149.833ZM39 157.167C40.4587 157.167 41.8576 157.746 42.8891 158.777C43.9205 159.809 44.5 161.208 44.5 162.667C44.5 164.125 43.9205 165.524 42.8891 166.556C41.8576 167.587 40.4587 168.167 39 168.167C37.5413 168.167 36.1424 167.587 35.1109 166.556C34.0795 165.524 33.5 164.125 33.5 162.667C33.5 161.208 34.0795 159.809 35.1109 158.777C36.1424 157.746 37.5413 157.167 39 157.167ZM48.405 179.167C46.1867 182.558 42.8683 185.107 39 186.353C35.1317 185.107 31.8133 182.558 29.595 179.167C28.9717 178.25 28.44 177.333 28 176.362C28 173.337 32.9683 170.862 39 170.862C45.0317 170.862 50 173.282 50 176.362C49.56 177.333 49.0283 178.25 48.405 179.167Z" fill="#2A2E2F"/>
<circle cx="41.5" cy="39.5" r="38.5" stroke="#A9A9A9" stroke-width="2" stroke-dasharray="5 5"/>
<circle cx="41.5" cy="39.5" r="33.5" fill="#C7CCCE"/>
<circle cx="41.5" cy="39.5" r="29.5" fill="#FAFAFA"/>
<path d="M41.0007 38.9999C45.0523 38.9999 48.334 35.7183 48.334 31.6666C48.334 27.6149 45.0523 24.3333 41.0007 24.3333C36.949 24.3333 33.6673 27.6149 33.6673 31.6666C33.6673 35.7183 36.949 38.9999 41.0007 38.9999ZM41.0007 42.6666C36.1057 42.6666 26.334 45.1233 26.334 49.9999V53.6666H55.6673V49.9999C55.6673 45.1233 45.8957 42.6666 41.0007 42.6666Z" fill="#2A2E2F"/>
<path d="M79.5 43.0001C93.3333 40.1668 123.1 40.3001 131.5 63.5001" stroke="#A9A9A9" stroke-width="2" stroke-dasharray="5 5"/>
<path d="M131.02 101.241C113.577 96.7481 76.4066 98.1999 67.2669 139.949" stroke="#A9A9A9" stroke-width="2" stroke-dasharray="5 5"/>
<path d="M79.0196 164.226C93.5163 160.778 124.808 160.505 134 187" stroke="#A9A9A9" stroke-width="2" stroke-dasharray="5 5"/>
</svg>
