<svg width="218" height="237" viewBox="0 0 218 237" fill="none" xmlns="http://www.w3.org/2000/svg">
<circle cx="150.5" cy="169.5" r="66.5" stroke="#A9A9A9" stroke-width="2" stroke-dasharray="5 5"/>
<circle cx="150.247" cy="169.247" r="57.2468" fill="#C7CCCE"/>
<circle cx="150.411" cy="169.411" r="50.4114" fill="#FAFAFA"/>
<g clip-path="url(#clip0)">
<path d="M168.528 175.295C169.584 175.295 170.609 175.42 171.633 175.577V165.885C171.633 162.435 168.87 159.613 165.423 159.613H162.318V153.34C162.318 144.684 155.362 137.658 146.791 137.658C138.221 137.658 131.265 144.684 131.265 153.34V159.613H128.16C124.744 159.613 121.949 162.404 121.949 165.885V197.249C121.949 200.73 124.713 203.522 128.16 203.522H152.412C150.828 200.762 149.897 197.563 149.897 194.113C149.897 183.731 158.25 175.295 168.528 175.295ZM137.476 153.34C137.476 148.134 141.637 143.931 146.791 143.931C151.946 143.931 156.107 148.134 156.107 153.34V159.613H137.476V153.34ZM146.791 187.84C143.376 187.84 140.581 185.049 140.581 181.567C140.581 178.086 143.376 175.295 146.791 175.295C150.207 175.295 153.002 178.086 153.002 181.567C153.002 185.049 150.238 187.84 146.791 187.84ZM180.949 190.976V197.249H171.633V206.658H165.423V197.249H156.107V190.976H165.423V181.567H171.633V190.976H180.949Z" fill="#2A2E2F"/>
</g>
<circle cx="52.5" cy="52.5" r="51.5" stroke="#A9A9A9" stroke-width="2" stroke-dasharray="5 5"/>
<circle cx="52.4999" cy="52.4999" r="44.5253" fill="#C7CCCE"/>
<circle cx="52.4999" cy="52.5001" r="39.2089" fill="#FAFAFA"/>
<path d="M31 34.9633L33.9867 32L73 71.0133L70.0367 74L61.4733 65.4367C60.0267 67 57.9267 68.2833 55.5 68.9133V74H48.5V68.9133C43.7633 67.7233 40.3333 64.1767 40.3333 60H45C45 62.52 48.1967 64.6667 52 64.6667C54.6367 64.6667 56.9933 63.64 58.1833 62.1467L51.2533 55.2167C46.3533 53.98 40.3333 52.4167 40.3333 46C40.3333 45.4633 40.3333 44.95 40.4967 44.46L31 34.9633ZM48.5 37.0867V32H55.5V37.0867C60.2367 38.2767 63.6667 41.8233 63.6667 46H59C59 43.48 55.8033 41.3333 52 41.3333C51.1367 41.3333 50.32 41.45 49.55 41.6367L45.9333 38.02L48.5 37.0867Z" fill="#65B76D"/>
<path d="M105.275 69.2132C118.51 69.8057 145.388 77.101 147.013 101.542" stroke="#A9A9A9" stroke-width="2" stroke-dasharray="5 5"/>
<defs>
<clipPath id="clip0">
<rect width="75.1899" height="75.1899" fill="white" transform="translate(113 131)"/>
</clipPath>
</defs>
</svg>
