<svg width="205" height="258" viewBox="0 0 205 258" fill="none" xmlns="http://www.w3.org/2000/svg">
<circle cx="165.5" cy="78.5" r="38.5" stroke="#A9A9A9" stroke-width="2" stroke-dasharray="5 5"/>
<circle cx="165.5" cy="78.5" r="33.5" fill="#C7CCCE"/>
<circle cx="165.5" cy="78.5" r="29.5" fill="#FAFAFA"/>
<path d="M159.499 84.3333V73.3333H152.166L164.999 60.5L177.833 73.3333H170.499V84.3333H159.499ZM152.166 91.6667V88H177.833V91.6667H152.166Z" fill="#2A2E2F"/>
<circle cx="39.5" cy="39.5" r="38.5" stroke="#A9A9A9" stroke-width="2" stroke-dasharray="5 5"/>
<circle cx="39.5" cy="39.5" r="33.5" fill="#C7CCCE"/>
<circle cx="39.5" cy="39.5" r="29.5" fill="#FAFAFA"/>
<path d="M42.6673 20.6667H28.0007C25.9657 20.6667 24.334 22.3167 24.334 24.3334V53.6667C24.334 55.7017 25.9657 57.3334 28.0007 57.3334H50.0006C52.0356 57.3334 53.6673 55.7017 53.6673 53.6667V31.6667L42.6673 20.6667ZM50.0006 53.6667H28.0007V24.3334H40.834V33.5001H50.0006V53.6667ZM40.6506 43.5834L45.9673 51.8334H42.6673L39.0006 45.6001L35.334 51.8334H32.034L37.3507 43.5834L32.034 35.3334H35.334L39.0006 41.5667L42.6673 35.3334H45.9673L40.6506 43.5834Z" fill="black"/>
<path d="M77 43.0965C90.8333 40.622 120.6 40.7385 129 61" stroke="#A9A9A9" stroke-width="2" stroke-dasharray="5 5"/>
<path d="M82.076 111.212C86.776 97.8965 102.229 72.4547 126.44 77.2105" stroke="#A9A9A9" stroke-width="2" stroke-dasharray="5 5"/>
<path d="M33.1289 137.06H123.459C123.459 137.06 128.358 130.866 123.459 126.698C120.756 124.397 117.563 124.636 115.246 125.311C114.886 125.406 114.511 125.426 114.143 125.37C113.776 125.313 113.424 125.181 113.109 124.983C112.795 124.784 112.525 124.523 112.316 124.215C112.108 123.908 111.965 123.56 111.896 123.195C111.347 120.649 109.654 117.316 104.792 115.347C100.008 113.41 96.9826 116.368 95.2317 119.407C95.1001 119.631 94.9068 119.813 94.6749 119.931C94.443 120.048 94.1822 120.097 93.9234 120.071C93.6647 120.045 93.4189 119.945 93.2152 119.783C93.0116 119.622 92.8586 119.405 92.7746 119.159C91.2575 114.361 85.9727 108 68.6091 108C46.5252 108 48.9791 119.735 50.9528 124.612C51.0323 124.802 51.0582 125.01 51.0277 125.213C50.9972 125.417 50.9115 125.608 50.7799 125.766C50.6483 125.924 50.4759 126.043 50.2813 126.11C50.0867 126.177 49.8775 126.19 49.6764 126.146C46.2698 125.418 39.947 124.475 37.1121 126.7C33.1289 129.825 33.1289 137.06 33.1289 137.06Z" fill="#9CCDF8"/>
<path d="M71.5117 254.856H108.776C105.136 250.516 99.9258 241.294 103.314 226.313C106.542 212.04 98.3937 208.133 90.1439 212.359C81.893 208.132 73.746 212.04 76.9737 226.313C80.3616 241.294 75.1521 250.516 71.5117 254.856Z" fill="#2A2E2F"/>
<path d="M111.155 252.488H67.9404C65.4686 252.488 63.4648 254.898 63.4648 257.87H115.628C115.628 254.898 113.626 252.488 111.155 252.488Z" fill="#2A2E2F"/>
<path d="M182.682 151.285C184.875 160.81 162.402 162.034 153.142 162.136C150.577 162.165 148.017 161.922 145.503 161.412C137.672 159.823 120.531 155.655 122.936 149.987C126.038 142.674 135.355 147.773 135.355 147.773C135.355 147.773 134.186 142.252 150.041 138.606C165.895 134.96 165.832 147.11 165.832 147.11C165.832 147.11 179.928 139.319 182.682 151.285Z" fill="#D0E4F7"/>
<path d="M153.598 133.404H25.1579C23.9661 133.404 23 134.37 23 135.561V227.073C23 228.264 23.9661 229.23 25.1579 229.23H153.598C154.79 229.23 155.756 228.264 155.756 227.073V135.561C155.756 134.37 154.79 133.404 153.598 133.404Z" fill="#A9A9A9"/>
<path d="M28.0494 135.561H150.707C151.254 135.561 151.778 135.778 152.164 136.165C152.551 136.551 152.768 137.075 152.768 137.621V225.012C152.768 225.283 152.714 225.55 152.611 225.8C152.507 226.05 152.355 226.278 152.164 226.469C151.973 226.66 151.745 226.812 151.495 226.915C151.245 227.019 150.977 227.072 150.707 227.072H28.0494C27.5028 227.072 26.9785 226.855 26.592 226.469C26.2054 226.082 25.9883 225.558 25.9883 225.012V137.621C25.9883 137.075 26.2054 136.551 26.592 136.165C26.9785 135.778 27.5028 135.561 28.0494 135.561V135.561Z" fill="#646464"/>
<path d="M87.7793 134.497C87.7793 134.655 87.8261 134.809 87.9139 134.94C88.0016 135.071 88.1264 135.174 88.2723 135.234C88.4182 135.295 88.5788 135.31 88.7337 135.28C88.8886 135.249 89.0309 135.173 89.1426 135.061C89.2543 134.95 89.3303 134.807 89.3611 134.652C89.392 134.498 89.3761 134.337 89.3157 134.191C89.2553 134.045 89.1529 133.921 89.0216 133.833C88.8902 133.745 88.7358 133.698 88.5779 133.698C88.3661 133.698 88.163 133.783 88.0132 133.932C87.8634 134.082 87.7793 134.285 87.7793 134.497Z" fill="white"/>
<path d="M147.593 140.179H31.4805V222.701H147.593V140.179Z" fill="#FAFAFA"/>
<path d="M147.593 140.179H31.4805V150.206H147.593V140.179Z" fill="#2372B8"/>
<path d="M105.562 213.103H40.622C40.3289 213.102 40.048 212.985 39.8406 212.778C39.6333 212.571 39.5165 212.29 39.5156 211.997C39.5165 211.704 39.6333 211.424 39.8406 211.216C40.048 211.009 40.3289 210.893 40.622 210.892H105.562C105.855 210.893 106.136 211.009 106.343 211.217C106.55 211.424 106.667 211.704 106.668 211.997C106.667 212.29 106.55 212.571 106.343 212.778C106.136 212.985 105.855 213.102 105.562 213.103Z" fill="#6DB6F7"/>
<path d="M137.836 145.262C137.836 145.838 138.007 146.4 138.327 146.879C138.647 147.358 139.102 147.731 139.634 147.951C140.166 148.171 140.752 148.229 141.316 148.116C141.881 148.004 142.4 147.727 142.807 147.32C143.215 146.912 143.492 146.394 143.604 145.829C143.717 145.265 143.659 144.679 143.439 144.147C143.218 143.616 142.845 143.161 142.366 142.841C141.887 142.521 141.324 142.351 140.748 142.351C140.366 142.351 139.987 142.426 139.634 142.572C139.28 142.718 138.959 142.933 138.689 143.203C138.418 143.474 138.204 143.794 138.057 144.148C137.911 144.501 137.836 144.88 137.836 145.262Z" fill="#122043"/>
<path d="M128.699 145.262C128.699 145.838 128.87 146.4 129.19 146.879C129.51 147.357 129.965 147.731 130.497 147.951C131.029 148.171 131.615 148.229 132.18 148.116C132.744 148.004 133.263 147.727 133.671 147.32C134.078 146.913 134.355 146.394 134.468 145.829C134.58 145.265 134.522 144.68 134.302 144.148C134.082 143.616 133.708 143.161 133.23 142.841C132.751 142.521 132.188 142.351 131.612 142.351C131.229 142.351 130.851 142.426 130.497 142.572C130.144 142.718 129.823 142.933 129.552 143.203C129.282 143.474 129.067 143.794 128.921 144.148C128.774 144.501 128.699 144.88 128.699 145.262Z" fill="white"/>
<path d="M71.3353 142.351H34.2852V148.173H71.3353V142.351Z" fill="white"/>
<path d="M43.4238 190.002C43.4235 190.297 43.5106 190.585 43.6742 190.831C43.8378 191.076 44.0704 191.267 44.3428 191.38C44.6151 191.493 44.9149 191.523 45.2042 191.466C45.4935 191.409 45.7593 191.267 45.9681 191.059C46.1768 190.851 46.3191 190.585 46.377 190.296C46.4348 190.007 46.4056 189.708 46.293 189.435C46.1805 189.163 45.9896 188.93 45.7446 188.766C45.4996 188.602 45.2114 188.514 44.9165 188.514C44.7207 188.513 44.5268 188.552 44.3458 188.626C44.1648 188.701 44.0003 188.811 43.8617 188.949C43.7231 189.087 43.6131 189.251 43.538 189.432C43.4628 189.613 43.424 189.807 43.4238 190.002Z" fill="white"/>
<path d="M105.562 159.503H40.622C40.3289 159.502 40.048 159.385 39.8406 159.178C39.6333 158.971 39.5165 158.69 39.5156 158.397C39.5165 158.104 39.6333 157.823 39.8406 157.616C40.048 157.409 40.3289 157.292 40.622 157.292H105.562C105.855 157.293 106.136 157.409 106.343 157.616C106.55 157.824 106.667 158.104 106.668 158.397C106.667 158.69 106.55 158.971 106.343 159.178C106.136 159.385 105.855 159.502 105.562 159.503Z" fill="#6DB6F7"/>
<path d="M111.854 173.714H46.9146C46.6214 173.713 46.3406 173.596 46.1333 173.389C45.9261 173.181 45.8093 172.901 45.8086 172.608C45.8095 172.315 45.9262 172.034 46.1335 171.827C46.3407 171.62 46.6215 171.503 46.9146 171.502H111.854C112.147 171.503 112.428 171.62 112.636 171.827C112.843 172.034 112.96 172.315 112.961 172.608C112.96 172.901 112.843 173.182 112.636 173.389C112.428 173.596 112.147 173.713 111.854 173.714Z" fill="#6DB6F7"/>
<path d="M126.037 159.503H111.221C110.928 159.502 110.647 159.385 110.44 159.178C110.233 158.971 110.116 158.69 110.115 158.397C110.116 158.104 110.233 157.824 110.44 157.617C110.647 157.409 110.928 157.293 111.221 157.292H126.037C126.33 157.293 126.611 157.409 126.818 157.616C127.025 157.824 127.142 158.104 127.143 158.397C127.142 158.69 127.025 158.971 126.818 159.178C126.611 159.385 126.33 159.502 126.037 159.503Z" fill="#6DB6F7"/>
<path d="M40.6216 165.64H55.4366C55.7296 165.639 56.0103 165.522 56.2175 165.315C56.4247 165.108 56.5414 164.827 56.5421 164.534C56.5414 164.242 56.4247 163.961 56.2175 163.754C56.0104 163.547 55.7296 163.43 55.4366 163.429H40.6216C40.3286 163.43 40.0477 163.547 39.8405 163.754C39.6333 163.961 39.5165 164.242 39.5156 164.534C39.5165 164.827 39.6333 165.108 39.8405 165.315C40.0478 165.522 40.3286 165.639 40.6216 165.64Z" fill="#6DB6F7"/>
<path d="M60.5303 165.64H101.56C101.846 165.639 102.12 165.525 102.322 165.323C102.524 165.121 102.638 164.847 102.639 164.561C102.638 164.275 102.524 164.001 102.322 163.799C102.12 163.597 101.846 163.483 101.56 163.482H60.5303C60.2443 163.483 59.9703 163.597 59.7681 163.799C59.5659 164.001 59.4519 164.275 59.4512 164.561C59.4519 164.847 59.5659 165.121 59.7681 165.323C59.9703 165.525 60.2443 165.639 60.5303 165.64Z" fill="#6DB6F7"/>
<path d="M109.365 164.607C109.365 164.874 109.286 165.134 109.138 165.356C108.99 165.577 108.78 165.75 108.533 165.852C108.287 165.954 108.016 165.981 107.755 165.929C107.493 165.877 107.253 165.749 107.065 165.56C106.876 165.372 106.748 165.132 106.696 164.871C106.644 164.609 106.67 164.338 106.772 164.092C106.874 163.846 107.047 163.636 107.269 163.488C107.49 163.34 107.751 163.261 108.017 163.261C108.375 163.261 108.717 163.403 108.97 163.655C109.223 163.908 109.365 164.25 109.365 164.607Z" fill="#6DB6F7"/>
<path d="M112.639 213.375C113.383 213.375 113.986 212.772 113.986 212.029C113.986 211.285 113.383 210.682 112.639 210.682C111.894 210.682 111.291 211.285 111.291 212.029C111.291 212.772 111.894 213.375 112.639 213.375Z" fill="#6DB6F7"/>
<path d="M136.032 185.262H121.217C120.924 185.261 120.643 185.145 120.436 184.938C120.229 184.73 120.112 184.45 120.111 184.157C120.112 183.864 120.229 183.583 120.436 183.376C120.643 183.169 120.924 183.052 121.217 183.051H136.032C136.325 183.052 136.606 183.169 136.813 183.376C137.02 183.583 137.137 183.864 137.138 184.157C137.137 184.45 137.02 184.73 136.813 184.937C136.606 185.144 136.325 185.261 136.032 185.262Z" fill="#6DB6F7"/>
<path d="M117.334 184.014C117.334 184.521 117.184 185.016 116.903 185.437C116.621 185.858 116.221 186.186 115.753 186.38C115.285 186.574 114.77 186.624 114.273 186.525C113.776 186.427 113.319 186.183 112.961 185.825C112.603 185.467 112.359 185.01 112.26 184.514C112.161 184.017 112.212 183.502 112.406 183.034C112.6 182.566 112.928 182.166 113.349 181.885C113.771 181.604 114.266 181.454 114.773 181.454C115.452 181.454 116.104 181.723 116.584 182.204C117.064 182.684 117.334 183.335 117.334 184.014Z" fill="#6DB6F7"/>
<path d="M136.032 193.363H121.217C120.924 193.362 120.644 193.245 120.436 193.038C120.229 192.831 120.112 192.551 120.111 192.258C120.112 191.965 120.229 191.684 120.436 191.477C120.643 191.27 120.924 191.153 121.217 191.152H136.032C136.325 191.153 136.606 191.27 136.813 191.477C137.02 191.684 137.137 191.965 137.138 192.258C137.137 192.551 137.02 192.831 136.813 193.038C136.606 193.245 136.325 193.362 136.032 193.363Z" fill="#6DB6F7"/>
<path d="M117.334 192.113C117.334 192.62 117.184 193.115 116.903 193.536C116.621 193.957 116.221 194.285 115.753 194.479C115.285 194.673 114.77 194.724 114.273 194.625C113.776 194.526 113.319 194.282 112.961 193.924C112.603 193.566 112.359 193.11 112.26 192.613C112.161 192.116 112.212 191.602 112.406 191.134C112.6 190.666 112.928 190.266 113.349 189.985C113.771 189.703 114.266 189.553 114.773 189.553C115.452 189.553 116.104 189.823 116.584 190.303C117.064 190.783 117.334 191.434 117.334 192.113Z" fill="#6DB6F7"/>
<path d="M136.032 201.462H121.217C120.924 201.461 120.643 201.345 120.436 201.138C120.229 200.93 120.112 200.65 120.111 200.357C120.112 200.064 120.229 199.783 120.436 199.576C120.643 199.369 120.924 199.252 121.217 199.252H136.032C136.325 199.253 136.606 199.369 136.813 199.576C137.02 199.783 137.137 200.064 137.138 200.357C137.137 200.65 137.02 200.93 136.813 201.137C136.606 201.345 136.325 201.461 136.032 201.462Z" fill="#6DB6F7"/>
<path d="M117.334 200.213C117.334 200.719 117.184 201.214 116.903 201.635C116.621 202.056 116.221 202.385 115.753 202.578C115.285 202.772 114.77 202.823 114.273 202.724C113.776 202.625 113.319 202.381 112.961 202.023C112.603 201.665 112.359 201.209 112.26 200.712C112.161 200.216 112.212 199.701 112.406 199.233C112.6 198.765 112.928 198.365 113.349 198.084C113.771 197.803 114.266 197.652 114.773 197.652C115.109 197.652 115.442 197.719 115.753 197.847C116.064 197.976 116.346 198.165 116.584 198.402C116.822 198.64 117.011 198.922 117.139 199.233C117.268 199.544 117.334 199.877 117.334 200.213Z" fill="#6DB6F7"/>
<path d="M42.1122 172.718C42.1121 172.985 42.033 173.245 41.885 173.466C41.7369 173.688 41.5265 173.86 41.2803 173.962C41.0342 174.064 40.7633 174.09 40.502 174.038C40.2407 173.986 40.0007 173.858 39.8124 173.67C39.624 173.481 39.4958 173.242 39.4438 172.98C39.3919 172.719 39.4186 172.448 39.5205 172.202C39.6225 171.956 39.7952 171.746 40.0167 171.598C40.2382 171.45 40.4987 171.371 40.7651 171.371C41.1224 171.371 41.465 171.513 41.7177 171.766C41.9703 172.019 42.1122 172.361 42.1122 172.718Z" fill="#6DB6F7"/>
<path d="M103.11 180.717H68.2266V206.024H103.11V180.717Z" fill="#FF7B00"/>
<path d="M106.994 244.699L106.14 246.957C106.077 247.111 106.067 247.28 106.111 247.44C106.155 247.599 106.251 247.739 106.384 247.838C106.527 247.92 106.676 247.988 106.831 248.044C106.986 248.011 107.972 244.961 107.972 244.961L107.962 244.943C107.851 244.8 107.695 244.699 107.52 244.655C107.344 244.611 107.159 244.626 106.994 244.699Z" fill="#2995F5"/>
<path d="M106.83 248.044L107.971 244.961L108.121 245.048L106.972 248.102L106.83 248.044Z" fill="#122043"/>
<path d="M106.653 245.592L106.578 245.795L106.972 245.871L107.046 245.674L106.653 245.592Z" fill="white"/>
<path d="M106.489 246.028L106.414 246.232L106.808 246.307L106.882 246.11L106.489 246.028Z" fill="white"/>
<path d="M106.047 244.166L106.994 244.699C107.02 244.81 107.015 244.927 106.978 245.035C106.941 245.144 106.874 245.24 106.785 245.312L106.752 245.339L105.707 245.07L106.047 244.166Z" fill="#F7A57A"/>
<path d="M98.4864 229.916C99.1362 230.715 99.5452 231.683 99.6656 232.706C99.8282 233.89 99.3834 235.766 99.335 237.239C99.3152 237.871 99.454 238.499 99.7389 239.065C100.024 239.631 100.446 240.116 100.966 240.477L106.045 244.166L105.705 245.07C105.705 245.07 98.7523 244.028 96.9279 240.916C95.1034 237.803 94.6699 230.758 94.6699 230.758L98.4864 229.916Z" fill="#1E5A91"/>
<path d="M102.53 226.08L105.142 231.911C105.142 231.911 106.216 232.037 106.681 232.448C106.787 232.59 106.858 232.756 106.887 232.931C106.915 233.106 106.902 233.286 106.847 233.455C106.836 233.517 106.808 233.575 106.767 233.624C106.726 233.672 106.673 233.708 106.613 233.73C106.553 233.751 106.488 233.755 106.426 233.744C106.364 233.732 106.306 233.704 106.257 233.662C106.002 233.41 105.695 233.215 105.357 233.093C105.182 233.074 105.015 233.013 104.869 232.915C104.723 232.817 104.603 232.685 104.52 232.53L100.771 226.654L102.53 226.08Z" fill="#F7A57A"/>
<path d="M89.3596 214.353L88.0211 213.209L89.0587 207.557L90.6693 206.734C90.6103 206.642 90.5205 206.573 90.4157 206.54C90.311 206.508 90.198 206.513 90.0968 206.555C89.8613 206.635 89.6095 206.653 89.3649 206.609C89.3649 206.609 89.0636 206.236 89.6349 205.984C89.9557 205.769 90.1704 205.984 91.1007 205.947C91.1007 205.804 89.8748 205.465 89.8748 205.465C89.4922 205.343 88.5163 206.097 88.5163 206.097C88.4509 206.187 88.4082 206.291 88.3919 206.401L88.2378 207.45C88.2378 207.45 86.1641 213.14 86.1641 213.746C86.1641 214.352 87.327 215.185 87.327 215.185L89.3596 214.353Z" fill="#F7A57A"/>
<path d="M96.5562 230.502C96.5562 230.502 97.3613 231.472 96.8782 233.725C96.57 235.164 95.2156 236.974 94.3056 238.221C93.655 239.115 93.64 240.239 93.836 241.328C94.5809 245.467 93.3887 250.52 93.3887 250.52H92.4226C92.4226 250.52 90.973 243.115 90.5436 237.911C90.308 235.072 90.8852 232.224 92.2079 229.701L96.5562 230.502Z" fill="#2372B8"/>
<path d="M91.0815 205.73L88.0469 206.175L88.1645 206.976L91.1991 206.531L91.0815 205.73Z" fill="#F99200"/>
<path d="M87.8727 206.201L87.9902 207.002L88.2673 206.961L88.1498 206.16L87.8727 206.201Z" fill="white"/>
<path d="M88.0483 206.993C87.8258 207.025 87.6384 207.01 87.5851 206.647C87.5274 206.251 87.7071 206.216 87.9291 206.182L88.0483 206.993Z" fill="#122043"/>
<path d="M91.2 206.531L91.7887 206.177L91.746 205.885L91.082 205.729L91.2 206.531Z" fill="white"/>
<path d="M91.7888 206.177L92.0449 205.993L91.7461 205.885L91.7888 206.177Z" fill="#002F4C"/>
<path d="M91.1556 206.226L88.2227 206.655L88.2493 206.837L91.1823 206.408L91.1556 206.226Z" fill="#EF7100"/>
<path d="M91.0976 205.839L88.166 206.269L88.1927 206.451L91.1243 206.022L91.0976 205.839Z" fill="#EF7100"/>
<path d="M98.9272 219.061C100.654 220.328 102.686 226.423 102.686 226.423L101.17 227.273L98.7031 223.889C98.7031 223.889 98.4624 227.807 99.0532 230.812C98.7845 231.938 97.504 231.811 95.4283 231.418C94.2152 231.198 93.0516 230.762 91.9928 230.13C91.9928 230.13 91.9029 224.695 91.6346 221.813C91.3662 218.931 91.8964 218.623 91.1694 218.718C89.5478 217.798 86.8906 214.833 86.8906 214.833L89.3588 214.353L94.6736 217.466C96.1406 217.856 97.5654 218.39 98.9272 219.061Z" fill="#FF7B00"/>
<path d="M95.9153 211.852L94.6332 213.117C94.3651 213.381 94.1685 213.709 94.0618 214.07C93.9552 214.431 93.9419 214.813 94.0233 215.181L94.1738 215.857L95.9153 211.852Z" fill="#F7A57A"/>
<path d="M97.4656 211.373C100.579 211.373 99.2547 217.347 99.2547 217.347C99.2547 217.347 98.7001 221.223 97.4656 222.779C96.397 224.125 94.2826 223.721 93.2807 223.074C92.7943 222.755 92.2416 222.551 91.6645 222.477C90.8159 222.375 89.8066 222.001 89.8066 220.471C89.8066 219.032 91.5266 217.918 92.6582 217.122C93.3934 216.6 93.9147 215.83 94.1257 214.954C94.4876 213.479 95.3715 211.373 97.4656 211.373Z" fill="#122043"/>
<path d="M93.2214 251.594L90.8057 251.59C90.4853 251.635 90.1267 251.756 90.0665 252.128C90.0408 252.29 90.0291 252.454 90.0316 252.619C90.1174 252.753 93.3202 252.601 93.3202 252.601L93.3341 252.585C93.4282 252.431 93.4682 252.25 93.4478 252.07C93.4274 251.891 93.3477 251.723 93.2214 251.594Z" fill="#2995F5"/>
<path d="M90.0303 252.619L93.3185 252.601L93.2901 252.772H90.0254L90.0303 252.619Z" fill="#002F4C"/>
<path d="M92.2644 251.592H92.0469L92.1148 251.987H92.3258L92.2644 251.592Z" fill="white"/>
<path d="M91.7976 251.592H91.5801L91.648 251.987H91.859L91.7976 251.592Z" fill="white"/>
<path d="M93.386 250.52L93.2205 251.594C93.1254 251.658 93.0142 251.694 92.8996 251.697C92.785 251.701 92.6718 251.672 92.5728 251.614L92.5362 251.593L92.4199 250.52H93.386Z" fill="#F7A57A"/>
<path d="M90.0946 206.555C90.1958 206.513 90.3087 206.508 90.4135 206.54C90.5182 206.573 90.6081 206.642 90.6671 206.734L89.5957 207.282C89.5806 207.276 89.5664 207.268 89.5513 207.262C89.3215 207.159 89.0844 207.072 88.8418 207.004C89.2477 206.823 89.6664 206.674 90.0946 206.555Z" fill="#F7A57A"/>
</svg>
