<svg width="191" height="158" viewBox="0 0 191 158" fill="none" xmlns="http://www.w3.org/2000/svg">
<ellipse cx="111.847" cy="78.148" rx="78.6477" ry="78.0269" fill="#D0E4F7"/>
<ellipse cx="52.0754" cy="85.1704" rx="51.9075" ry="51.4978" fill="#9CCDF8"/>
<path d="M76.8965 152.768H116.767C112.872 148.165 107.298 138.383 110.923 122.493C114.377 107.354 105.659 103.21 96.832 107.692C88.0039 103.209 79.2871 107.354 82.7406 122.493C86.3654 138.383 80.7915 148.165 76.8965 152.768Z" fill="#2A2E2F"/>
<path d="M119.311 150.257H73.0738C70.4291 150.257 68.2852 152.813 68.2852 155.965H124.096C124.096 152.813 121.955 150.257 119.311 150.257Z" fill="#2A2E2F"/>
<path d="M164.723 23.946H27.2991C26.0239 23.946 24.9902 24.9703 24.9902 26.2339V123.299C24.9902 124.562 26.0239 125.586 27.2991 125.586H164.723C165.999 125.586 167.032 124.562 167.032 123.299V26.2339C167.032 24.9703 165.999 23.946 164.723 23.946Z" fill="#A9A9A9"/>
<path d="M30.3928 26.2336H161.63C162.215 26.2336 162.775 26.4638 163.189 26.8736C163.602 27.2833 163.835 27.839 163.835 28.4184V121.113C163.835 121.4 163.778 121.684 163.667 121.949C163.556 122.214 163.394 122.455 163.189 122.658C162.984 122.861 162.741 123.022 162.473 123.132C162.206 123.241 161.919 123.298 161.629 123.298H30.3928C29.8079 123.298 29.247 123.068 28.8334 122.658C28.4198 122.248 28.1875 121.692 28.1875 121.113V28.4189C28.1875 27.8393 28.4198 27.2835 28.8334 26.8737C29.247 26.4639 29.8079 26.2336 30.3928 26.2336V26.2336Z" fill="#646464"/>
<path d="M94.3008 25.1047C94.3008 25.2722 94.3509 25.4359 94.4448 25.5751C94.5387 25.7143 94.6721 25.8229 94.8282 25.8869C94.9844 25.951 95.1562 25.9678 95.3219 25.9351C95.4877 25.9025 95.6399 25.8218 95.7594 25.7034C95.8789 25.585 95.9603 25.4341 95.9933 25.2699C96.0262 25.1057 96.0093 24.9354 95.9446 24.7807C95.88 24.626 95.7704 24.4938 95.6299 24.4007C95.4894 24.3077 95.3242 24.2581 95.1552 24.2581C94.9286 24.2581 94.7113 24.3473 94.551 24.506C94.3908 24.6648 94.3008 24.8802 94.3008 25.1047Z" fill="white"/>
<path d="M158.297 31.1323H34.0625V118.661H158.297V31.1323Z" fill="#FAFAFA"/>
<path d="M158.297 31.1323H34.0625V41.767H158.297V31.1323Z" fill="#2372B8"/>
<path d="M147.857 36.523C147.858 37.1336 148.04 37.7305 148.383 38.2382C148.725 38.7459 149.212 39.1415 149.781 39.3752C150.351 39.6088 150.977 39.6699 151.581 39.5507C152.186 39.4315 152.741 39.1374 153.177 38.7056C153.612 38.2738 153.909 37.7236 154.029 37.1247C154.149 36.5258 154.088 35.9051 153.852 35.3409C153.616 34.7768 153.217 34.2946 152.704 33.9554C152.192 33.6161 151.59 33.4351 150.973 33.4351C150.564 33.435 150.159 33.5148 149.781 33.67C149.403 33.8252 149.059 34.0526 148.77 34.3394C148.48 34.6261 148.251 34.9666 148.094 35.3413C147.938 35.7159 147.857 36.1175 147.857 36.523V36.523Z" fill="#122043"/>
<path d="M138.082 36.523C138.082 37.1336 138.265 37.7305 138.607 38.2381C138.95 38.7458 139.436 39.1415 140.006 39.3751C140.575 39.6087 141.201 39.6699 141.806 39.5507C142.41 39.4316 142.965 39.1375 143.401 38.7057C143.837 38.274 144.134 37.7239 144.254 37.125C144.374 36.5261 144.312 35.9054 144.077 35.3412C143.841 34.7771 143.442 34.2949 142.929 33.9556C142.417 33.6163 141.815 33.4351 141.198 33.4351C140.789 33.435 140.384 33.5148 140.006 33.67C139.628 33.8252 139.284 34.0526 138.995 34.3394C138.705 34.6261 138.476 34.9665 138.319 35.3412C138.163 35.7159 138.082 36.1175 138.082 36.523Z" fill="white"/>
<path d="M76.7061 33.4351H37.0645V39.6105H76.7061V33.4351Z" fill="white"/>
<path d="M51.8477 83.9788C51.8474 84.2913 51.9407 84.597 52.1157 84.857C52.2908 85.1171 52.5398 85.3198 52.8311 85.4397C53.1225 85.5595 53.4431 85.5911 53.7526 85.5303C54.062 85.4695 54.3463 85.3192 54.5696 85.0983C54.7928 84.8774 54.9449 84.5959 55.0066 84.2894C55.0684 83.9828 55.037 83.665 54.9164 83.3762C54.7959 83.0873 54.5916 82.8403 54.3294 82.6665C54.0672 82.4927 53.7589 82.3998 53.4434 82.3997C53.0205 82.3995 52.6149 82.5658 52.3157 82.8619C52.0165 83.158 51.8481 83.5597 51.8477 83.9788V83.9788Z" fill="#FF7B00"/>
<path d="M46.8438 83.9788C46.8434 84.2914 46.9366 84.5972 47.1117 84.8573C47.2867 85.1175 47.5356 85.3204 47.827 85.4403C48.1184 85.5603 48.4391 85.5919 48.7486 85.5313C49.0582 85.4706 49.3426 85.3204 49.5659 85.0995C49.7893 84.8787 49.9415 84.5972 50.0034 84.2906C50.0653 83.984 50.0341 83.6661 49.9137 83.3771C49.7932 83.0881 49.589 82.841 49.3269 82.667C49.0647 82.493 48.7564 82.4 48.4408 82.3997C48.2313 82.3994 48.0238 82.4401 47.8302 82.5193C47.6365 82.5986 47.4606 82.7148 47.3122 82.8614C47.1639 83.0081 47.0462 83.1822 46.9659 83.3739C46.8855 83.5656 46.844 83.7712 46.8438 83.9788V83.9788Z" fill="white"/>
<path d="M144.296 62.5427H94.3407C93.3525 62.5418 92.4056 62.4182 91.7068 62.1989C91.008 61.9796 90.6142 61.6824 90.6113 61.3723V61.3723C90.6142 61.0622 91.008 60.765 91.7068 60.5457C92.4056 60.3264 93.3525 60.2028 94.3407 60.2019H144.296C145.284 60.2029 146.231 60.3266 146.929 60.5459C147.628 60.7651 148.021 61.0622 148.024 61.3723V61.3723C148.021 61.6824 147.628 61.9795 146.929 62.1987C146.231 62.418 145.284 62.5417 144.296 62.5427Z" fill="#6DB6F7"/>
<path d="M87.4426 61.2415C87.4426 61.7787 87.2819 62.3038 86.9807 62.7504C86.6796 63.197 86.2515 63.5451 85.7507 63.7507C85.2498 63.9563 84.6988 64.01 84.1671 63.9052C83.6354 63.8004 83.147 63.5418 82.7637 63.162C82.3804 62.7821 82.1194 62.2982 82.0136 61.7714C81.9078 61.2445 81.9621 60.6985 82.1696 60.2022C82.377 59.7059 82.7283 59.2818 83.1791 58.9833C83.6298 58.6849 84.1597 58.5256 84.7018 58.5256C85.4287 58.5256 86.1259 58.8118 86.6399 59.3211C87.1539 59.8304 87.4426 60.5212 87.4426 61.2415V61.2415Z" fill="#6DB6F7"/>
<path d="M144.296 89.1875H94.3407C93.3525 89.1866 92.4056 89.063 91.7068 88.8437C91.008 88.6244 90.6142 88.3272 90.6113 88.0171V88.0171C90.6142 87.7069 91.008 87.4098 91.7068 87.1905C92.4056 86.9712 93.3525 86.8476 94.3407 86.8467H144.296C145.284 86.8477 146.231 86.9713 146.929 87.1906C147.628 87.4099 148.021 87.707 148.024 88.0171V88.0171C148.021 88.3271 147.628 88.6242 146.929 88.8435C146.231 89.0628 145.284 89.1865 144.296 89.1875Z" fill="#6DB6F7"/>
<path d="M87.4426 87.8863C87.4426 88.4235 87.2819 88.9485 86.9807 89.3952C86.6796 89.8418 86.2515 90.1899 85.7507 90.3955C85.2498 90.601 84.6988 90.6548 84.1671 90.55C83.6354 90.4452 83.147 90.1866 82.7637 89.8067C82.3804 89.4269 82.1194 88.943 82.0136 88.4161C81.9078 87.8893 81.9621 87.3432 82.1696 86.847C82.377 86.3507 82.7283 85.9265 83.1791 85.6281C83.6298 85.3297 84.1597 85.1704 84.7018 85.1704C85.4287 85.1704 86.1259 85.4565 86.6399 85.9659C87.1539 86.4752 87.4426 87.166 87.4426 87.8863V87.8863Z" fill="#6DB6F7"/>
<path d="M144.296 71.1255H94.3407C93.3527 71.1246 92.406 71.001 91.7073 70.7818C91.0086 70.5625 90.6146 70.2654 90.6113 69.9553C90.6142 69.6451 91.008 69.3479 91.7068 69.1285C92.4056 68.9092 93.3525 68.7856 94.3407 68.7847H144.296C145.284 68.7857 146.231 68.9094 146.929 69.1287C147.628 69.348 148.021 69.6452 148.024 69.9553V69.9553C148.021 70.2653 147.627 70.5624 146.929 70.7816C146.23 71.0008 145.284 71.1245 144.296 71.1255V71.1255Z" fill="#6DB6F7"/>
<path d="M87.4426 69.8323C87.4426 70.3695 87.2819 70.8946 86.9807 71.3412C86.6796 71.7878 86.2515 72.1359 85.7507 72.3415C85.2498 72.5471 84.6988 72.6008 84.1671 72.496C83.6354 72.3913 83.147 72.1326 82.7637 71.7528C82.3804 71.3729 82.1194 70.889 82.0136 70.3622C81.9078 69.8354 81.9621 69.2893 82.1696 68.793C82.377 68.2968 82.7283 67.8726 83.1791 67.5742C83.6298 67.2757 84.1597 67.1165 84.7018 67.1165C85.4287 67.1165 86.1259 67.4026 86.6399 67.9119C87.1539 68.4212 87.4426 69.112 87.4426 69.8323V69.8323Z" fill="#6DB6F7"/>
<path d="M144.296 97.7703H94.3407C93.3527 97.7694 92.406 97.6458 91.7073 97.4265C91.0086 97.2073 90.6146 96.9102 90.6113 96.6001C90.6142 96.2899 91.008 95.9927 91.7068 95.7733C92.4056 95.554 93.3525 95.4304 94.3407 95.4294H144.296C145.284 95.4305 146.231 95.5541 146.929 95.7735C147.628 95.9928 148.021 96.29 148.024 96.6001V96.6001C148.021 96.9101 147.627 97.2072 146.929 97.4264C146.23 97.6456 145.284 97.7692 144.296 97.7703V97.7703Z" fill="#6DB6F7"/>
<path d="M87.4426 96.4771C87.4426 97.0143 87.2819 97.5394 86.9807 97.986C86.6796 98.4326 86.2515 98.7807 85.7507 98.9863C85.2498 99.1919 84.6988 99.2456 84.1671 99.1409C83.6354 99.0361 83.147 98.7774 82.7637 98.3976C82.3804 98.0177 82.1194 97.5338 82.0136 97.007C81.9078 96.4801 81.9621 95.9341 82.1696 95.4378C82.377 94.9415 82.7283 94.5174 83.1791 94.2189C83.6298 93.9205 84.1597 93.7612 84.7018 93.7612C85.4287 93.7612 86.1259 94.0474 86.6399 94.5567C87.1539 95.066 87.4426 95.7568 87.4426 96.4771V96.4771Z" fill="#6DB6F7"/>
<path d="M144.296 79.7085H94.3407C93.3525 79.7076 92.4056 79.584 91.7068 79.3646C91.008 79.1453 90.6142 78.8481 90.6113 78.5379V78.5379C90.6142 78.2277 91.0081 77.9305 91.7069 77.7113C92.4057 77.492 93.3526 77.3685 94.3407 77.3677H144.296C145.284 77.3686 146.231 77.4922 146.929 77.7114C147.628 77.9307 148.021 78.2278 148.024 78.5379V78.5379C148.021 78.848 147.628 79.1451 146.929 79.3645C146.231 79.5838 145.284 79.7075 144.296 79.7085Z" fill="#6DB6F7"/>
<path d="M87.4426 78.4232C87.4426 78.9603 87.2819 79.4854 86.9807 79.932C86.6796 80.3787 86.2515 80.7268 85.7507 80.9323C85.2498 81.1379 84.6988 81.1917 84.1671 81.0869C83.6354 80.9821 83.147 80.7234 82.7637 80.3436C82.3804 79.9638 82.1194 79.4798 82.0136 78.953C81.9078 78.4262 81.9621 77.8801 82.1696 77.3838C82.377 76.8876 82.7283 76.4634 83.1791 76.165C83.6298 75.8666 84.1597 75.7073 84.7018 75.7073C85.0617 75.7073 85.4181 75.7775 85.7507 75.914C86.0832 76.0505 86.3854 76.2506 86.6399 76.5027C86.8944 76.7549 87.0963 77.0543 87.234 77.3838C87.3718 77.7133 87.4426 78.0665 87.4426 78.4232V78.4232Z" fill="#6DB6F7"/>
<path d="M144.296 106.353H94.3407C93.3525 106.352 92.4056 106.229 91.7068 106.009C91.008 105.79 90.6142 105.493 90.6113 105.183V105.183C90.6142 104.872 91.0081 104.575 91.7069 104.356C92.4057 104.137 93.3526 104.013 94.3407 104.012H144.296C145.284 104.013 146.231 104.137 146.929 104.356C147.628 104.575 148.021 104.873 148.024 105.183V105.183C148.021 105.493 147.628 105.79 146.929 106.009C146.231 106.229 145.284 106.352 144.296 106.353Z" fill="#6DB6F7"/>
<path d="M87.4426 105.068C87.4426 105.605 87.2819 106.13 86.9807 106.577C86.6796 107.023 86.2515 107.372 85.7507 107.577C85.2498 107.783 84.6988 107.836 84.1671 107.732C83.6354 107.627 83.147 107.368 82.7637 106.988C82.3804 106.609 82.1194 106.125 82.0136 105.598C81.9078 105.071 81.9621 104.525 82.1696 104.029C82.377 103.532 82.7283 103.108 83.1791 102.81C83.6298 102.511 84.1597 102.352 84.7018 102.352C85.0617 102.352 85.4181 102.422 85.7507 102.559C86.0832 102.695 86.3854 102.895 86.6399 103.148C86.8944 103.4 87.0963 103.699 87.234 104.029C87.3718 104.358 87.4426 104.711 87.4426 105.068V105.068Z" fill="#6DB6F7"/>
<path d="M59.9404 57.8611H46.5703V111.7H59.9404V57.8611Z" fill="#FF7B00"/>
<path d="M77.2412 57.8611H63.8711V111.7H77.2412V57.8611Z" fill="#FF7B00"/>
<path d="M157.111 119.5C157.111 119.5 160.166 125.329 159.951 126.611C159.737 127.893 157.111 130.119 157.111 130.119L156.686 129.393L158.019 126.407L156.303 121.508L157.111 119.5Z" fill="#F7A57A"/>
<path d="M153.836 117L154.084 118.668H155.581L155.734 116.105L153.836 117Z" fill="#F18C72"/>
<path d="M151.096 124.369V119.665C153.017 118.317 154.374 118.458 154.374 118.458C154.659 118.427 154.945 118.416 155.231 118.423C155.243 118.423 158.447 118.188 157.856 123.217C156.577 127.492 157.192 129.378 157.192 129.378C157.192 129.378 153.844 130.73 151.975 129.777C152.445 128.709 151.579 125.771 151.108 124.345L151.096 124.369Z" fill="#2995F5"/>
<path d="M156.087 117.93C156.087 117.93 157.359 118.67 157.359 119.84C157.34 120.445 157.123 121.028 156.742 121.501C156.47 121.909 156.331 122.389 156.342 122.877C156.353 123.366 156.515 123.839 156.804 124.234L156.831 124.269C156.931 124.39 157.002 124.532 157.038 124.685C157.075 124.837 157.076 124.995 157.042 125.148C156.807 126.258 155.265 126.425 154.669 125.456C154.423 125.058 154.226 124.631 154.083 124.185C153.964 123.911 153.931 123.608 153.987 123.315C154.044 123.022 154.187 122.752 154.399 122.54C154.465 122.48 154.518 122.408 154.556 122.328C154.594 122.247 154.615 122.16 154.619 122.071C154.622 121.982 154.608 121.894 154.577 121.811C154.546 121.727 154.499 121.651 154.438 121.586C153.959 121.098 153.48 120.362 154.083 119.714C154.662 119.113 155.103 118.396 155.377 117.611L156.087 117.93Z" fill="#122043"/>
<path d="M158.924 155.484L158.027 155.638C157.842 154.536 155.053 149.311 154.826 146.597C154.62 144.459 154.3 142.334 153.869 140.23L156.871 139.346C156.871 139.346 157.631 139.346 156.796 145.486C158.669 147.926 159.171 153.462 158.924 155.484Z" fill="#F18C72"/>
<path d="M152.458 113.062L155.225 112.933L155.717 114.822C155.724 114.848 155.727 114.876 155.733 114.902C155.689 114.929 155.646 114.957 155.605 114.989L155.585 115.004L155.565 115.017C155.327 115.202 155.14 115.444 155.022 115.72C154.904 115.996 154.859 116.297 154.89 116.595C154.567 116.794 154.209 116.932 153.835 117.002C153.623 117.06 153.398 117.054 153.188 116.987C152.227 116.083 152.458 113.062 152.458 113.062Z" fill="#F7A57A"/>
<path d="M156.096 117.528C155.378 117.61 156.52 117.528 155.378 117.61C155.345 117.009 153.395 115.446 153.024 115.13C152.753 114.915 152.534 114.644 152.382 114.335C152.23 114.026 152.15 113.688 152.146 113.344C152.146 113.344 154.031 111.332 155.251 111.759C155.606 111.885 155.924 112.097 156.176 112.375C156.427 112.654 156.604 112.99 156.691 113.354C156.827 113.803 157.107 114.568 156.096 117.528Z" fill="#122043"/>
<path d="M156.715 137.114C156.715 137.114 156.011 141.314 155.03 145.807C156.054 148.52 154.494 156.09 154.465 156.063C154.347 155.953 153.808 156.611 153.808 156.611C153.808 156.611 152.671 149.929 152.419 146.917C152.168 143.905 151.783 140.231 151.783 140.231L156.715 137.114Z" fill="#F7A57A"/>
<path d="M154.592 155.638C154.71 155.738 154.803 155.864 154.863 156.005C154.924 156.147 154.95 156.301 154.94 156.454C154.862 156.911 154.751 157.983 154.751 157.983H154.313L154.326 156.984C154.326 156.918 153.384 157.983 153.225 157.983H150.902C150.902 157.983 150.748 157.309 152.112 157.092C153.475 156.876 154.592 155.638 154.592 155.638Z" fill="#002F4C"/>
<path d="M155.379 117.929H156.089C156.248 117.929 156.377 117.801 156.377 117.644V117.576C156.377 117.418 156.248 117.29 156.089 117.29H155.379C155.22 117.29 155.091 117.418 155.091 117.576V117.644C155.091 117.801 155.22 117.929 155.379 117.929Z" fill="#2995F5"/>
<path d="M152.107 128.751C152.107 128.751 151.346 132.992 151.346 135.102C151.346 136.262 151.886 141.184 151.886 141.184C151.886 141.184 156.337 141.313 157.241 141.313C157.356 137.824 158.669 135.524 158.669 132.735C158.669 130.765 156.917 129.047 156.917 129.047L152.107 128.751Z" fill="#1E5A91"/>
<path d="M143.621 123.832L143.821 123.89C144.02 123.947 144.201 124.053 144.348 124.197C144.495 124.342 144.603 124.52 144.663 124.717L144.71 124.874C145.92 125.268 147.163 125.552 148.424 125.722C150.421 120.09 151.097 119.665 151.097 119.665C151.491 119.814 151.827 120.083 152.058 120.433C152.289 120.783 152.404 121.196 152.384 121.613C152.384 122.906 151.514 126.571 149.854 127.718C149.626 127.87 149.361 127.96 149.087 127.978C148.813 127.997 148.538 127.943 148.291 127.824C145.625 126.569 143.745 125.496 143.745 125.496L141.732 124.395L142.622 123.931C142.929 123.771 143.287 123.736 143.621 123.832Z" fill="#F7A57A"/>
<path d="M157.924 154.875L157.986 155.828C157.999 156.028 157.943 156.227 157.828 156.392C157.63 156.663 157.395 156.905 157.129 157.111C157.803 157.327 158.415 156.578 158.739 156.081C158.895 155.837 158.957 155.546 158.913 155.262L158.799 154.511L157.924 154.875Z" fill="#F18C72"/>
<path d="M158.924 155.401C158.924 155.401 159.516 155.453 159.615 155.9C159.713 156.346 159.993 157.25 159.993 157.25L159.67 157.505L159.214 156.609C158.867 157.092 158.488 157.55 158.079 157.982H155.543C155.543 157.982 155.543 157.151 157.13 157.113C158.591 157.078 158.924 155.401 158.924 155.401Z" fill="#122043"/>
<path d="M71.9241 41.6995L72.1238 42.8828C71.9424 43.0079 71.7285 43.0785 71.5076 43.0861C71.2868 43.0938 71.0684 43.0382 70.8787 42.9259L70.8086 42.8828L70.5137 41.6995H71.9241Z" fill="#F7A57A"/>
<path d="M62.3546 14.3264C63.4152 17.7954 66.9753 23.1207 66.9753 23.1207L64.1635 21.9805L62.1762 17.4312C62.1762 17.4312 61.2939 10.8574 62.3546 14.3264Z" fill="#A4D1BB"/>
<path d="M69.9955 28.2543L72.2143 41.8035H70.2418C70.2418 41.8035 65.8142 29.6131 65.3496 26.0289C65.3496 23.9989 69.825 26.0289 69.825 26.0289L69.9955 28.2543Z" fill="#CF5B1A"/>
<path d="M62.6526 8.85153L61.9169 10.7384L60.3242 9.59646L61.3992 7.37158L62.6526 8.85153Z" fill="#F18C72"/>
<path d="M63.253 9.16432C63.4573 9.21905 63.6733 9.21335 63.8743 9.14794C64.7979 8.27454 64.5726 5.3569 64.5726 5.3569L63.5406 4.6499L61.9153 5.2405L61.4437 7.06661C61.3835 7.313 61.3861 7.57035 61.4514 7.81547C61.5166 8.06059 61.6424 8.28577 61.8174 8.47069V8.47069C62.224 8.82604 62.7201 9.06572 63.253 9.16432V9.16432Z" fill="#F7A57A"/>
<path d="M62.2009 5.85502C62.2701 5.71321 62.3905 5.60229 62.5382 5.54418C62.6859 5.48607 62.8503 5.485 62.9988 5.54119C63.2466 5.63768 63.5016 5.71493 63.7615 5.77225C64.3992 5.9046 65.5887 5.89296 65.7914 4.93162C65.9941 3.97028 64.7329 4.05219 64.7329 4.05219L63.0562 4.16686C62.5599 4.19552 62.0639 4.10548 61.6101 3.90432C61.4383 3.85265 61.2529 3.87033 61.0941 3.95349C60.9354 4.03665 60.8163 4.17856 60.7626 4.34835C60.5738 4.89109 60.7709 5.81881 60.9366 6.41372C61.0324 6.75762 61.189 7.08195 61.3991 7.37161V7.37161L62.2009 5.85502Z" fill="#122043"/>
<path d="M61.2597 6.26824C61.3627 6.228 61.4763 6.22349 61.5822 6.25542C61.688 6.28736 61.7799 6.35387 61.8427 6.44412C61.9963 6.63596 61.9845 6.86875 61.8162 6.96359C61.7129 7.0036 61.5989 7.00777 61.4929 6.97545C61.3869 6.94312 61.2951 6.87619 61.2323 6.78555C61.0792 6.59457 61.0914 6.36222 61.2597 6.26824Z" fill="#F7A57A"/>
<path d="M72.1609 42.7575C72.1609 42.7575 72.1666 44.0154 74.7164 44.7703C75.2385 44.9254 75.0693 45.0785 75.1676 45.2966H72.2331L71.0842 44.0167L70.727 44.3211L69.9004 43.5145C69.9004 43.5145 70.044 42.3471 70.6748 42.3372C71.1947 42.5126 72.1609 42.7575 72.1609 42.7575Z" fill="#122043"/>
<path d="M64.9151 41.3311L64.4365 42.4201C64.224 42.4802 63.9985 42.4783 63.787 42.4147C63.5755 42.3511 63.387 42.2284 63.244 42.0614L63.1914 41.9998L63.5769 40.8789L64.9151 41.3311Z" fill="#F7A57A"/>
<path d="M62.2662 10.2104C62.2662 10.2104 62.4689 9.9004 60.6656 8.97656C57.6639 11.4416 57.0547 21.981 57.0547 21.981H64.1622C64.4028 16.0974 62.2662 10.2104 62.2662 10.2104Z" fill="#2995F5"/>
<path d="M69.2903 21.7016C69.3057 21.6367 69.2996 21.5686 69.273 21.5074C69.2464 21.4462 69.2006 21.395 69.1424 21.3615L67.9839 20.6959C67.6971 20.5316 67.3594 20.4776 67.035 20.5442L65.779 20.5937L65.6146 20.7903L65.3535 21.8905C65.6058 21.8305 65.7538 21.7922 65.7538 21.7922L66.5512 21.8142C66.5512 21.8142 68.0565 23.1993 68.8022 21.9944C68.8331 23.2764 69.2125 23.1777 69.2125 23.1777L69.2903 21.7016Z" fill="#F7A57A"/>
<path d="M57.0544 21.981L56.9469 22.8544L56.943 22.8897C56.8612 23.701 57.0725 24.5146 57.5393 25.1861C58.006 25.8575 58.6979 26.3431 59.492 26.5566C61.8714 27.2708 64.3282 27.7016 66.8104 27.84C64.1301 31.2504 63.3883 40.8202 63.3883 40.8202L65.1155 41.4414L71.7853 25.6996C71.8853 25.4636 71.9315 25.2087 71.9207 24.953C71.9098 24.6973 71.8421 24.4471 71.7225 24.2203C71.6028 23.9935 71.4341 23.7957 71.2283 23.6409C71.0226 23.4862 70.785 23.3784 70.5323 23.3251L64.1618 21.981H57.0544Z" fill="#FF7B00"/>
<path d="M61.4992 13.5784C60.7079 14.3076 60.0026 15.1234 59.397 16.0102C59.2913 16.1768 59.2423 16.3727 59.2573 16.5689C59.2722 16.7652 59.3503 16.9515 59.4801 17.1005C60.9593 18.7895 66.2348 20.4117 66.2348 20.4117L65.8932 22.318C65.8932 22.318 58.4103 20.8596 55.7565 18.2226C53.0361 15.5192 60.0683 9.87231 60.0683 9.87231" fill="#1E5A91"/>
<path d="M72.0856 24.0011L74.3008 16.153L73.8945 16.04L71.7819 23.5238L65.4218 22.4289L65.3496 22.841L72.0856 24.0011Z" fill="#2A2E2F"/>
<path d="M64.544 42.1786C64.544 42.1786 64.4439 43.4473 66.9938 44.2021C67.5159 44.3573 67.3466 44.5104 67.4449 44.7285H64.5105L63.362 43.4486L63.0043 43.7529L62.1777 42.9464C62.1777 42.9464 62.5645 41.779 63.1953 41.769C63.7117 41.9449 64.544 42.1786 64.544 42.1786Z" fill="#122043"/>
</svg>
