<svg width="216" height="262" viewBox="0 0 216 262" fill="none" xmlns="http://www.w3.org/2000/svg">
<circle cx="165.5" cy="88.5" r="38.5" stroke="#A9A9A9" stroke-width="2" stroke-dasharray="5 5"/>
<circle cx="165.5" cy="88.5" r="33.5" fill="#C7CCCE"/>
<circle cx="165.5" cy="88.5" r="29.5" fill="#FAFAFA"/>
<path d="M165 75.0833C166.702 75.0833 168.334 75.7593 169.537 76.9627C170.741 78.166 171.417 79.7981 171.417 81.4999C171.417 83.2017 170.741 84.8338 169.537 86.0372C168.334 87.2405 166.702 87.9166 165 87.9166C163.298 87.9166 161.666 87.2405 160.463 86.0372C159.259 84.8338 158.583 83.2017 158.583 81.4999C158.583 79.7981 159.259 78.166 160.463 76.9627C161.666 75.7593 163.298 75.0833 165 75.0833ZM152.167 79.6666C153.193 79.6666 154.147 79.9416 154.972 80.4366C154.697 83.0583 155.467 85.6616 157.043 87.6966C156.127 89.4566 154.293 90.6666 152.167 90.6666C150.708 90.6666 149.309 90.0871 148.278 89.0557C147.246 88.0242 146.667 86.6253 146.667 85.1666C146.667 83.7079 147.246 82.3089 148.278 81.2775C149.309 80.246 150.708 79.6666 152.167 79.6666ZM177.833 79.6666C179.292 79.6666 180.691 80.246 181.722 81.2775C182.754 82.3089 183.333 83.7079 183.333 85.1666C183.333 86.6253 182.754 88.0242 181.722 89.0557C180.691 90.0871 179.292 90.6666 177.833 90.6666C175.707 90.6666 173.873 89.4566 172.957 87.6966C174.533 85.6616 175.303 83.0583 175.028 80.4366C175.853 79.9416 176.807 79.6666 177.833 79.6666ZM153.083 98.4583C153.083 94.6632 158.418 91.5833 165 91.5833C171.582 91.5833 176.917 94.6632 176.917 98.4583V101.667H153.083V98.4583ZM143 101.667V98.9166C143 96.3682 146.465 94.2233 151.158 93.5999C150.077 94.8466 149.417 96.5699 149.417 98.4583V101.667H143ZM187 101.667H180.583V98.4583C180.583 96.5699 179.923 94.8466 178.842 93.5999C183.535 94.2233 187 96.3682 187 98.9166V101.667Z" fill="#2A2E2F"/>
<circle cx="39.5" cy="49.5" r="38.5" stroke="#A9A9A9" stroke-width="2" stroke-dasharray="5 5"/>
<circle cx="39.5" cy="49.5" r="33.5" fill="#C7CCCE"/>
<circle cx="39.5" cy="49.5" r="29.5" fill="#FAFAFA"/>
<path d="M39.0007 48.9999C43.0523 48.9999 46.334 45.7183 46.334 41.6666C46.334 37.6149 43.0523 34.3333 39.0007 34.3333C34.949 34.3333 31.6673 37.6149 31.6673 41.6666C31.6673 45.7183 34.949 48.9999 39.0007 48.9999ZM39.0007 52.6666C34.1057 52.6666 24.334 55.1233 24.334 59.9999V63.6666H53.6673V59.9999C53.6673 55.1233 43.8957 52.6666 39.0007 52.6666Z" fill="#2A2E2F"/>
<circle cx="103.5" cy="199.5" r="61.5" stroke="#A9A9A9" stroke-width="2" stroke-dasharray="5 5"/>
<circle cx="103.5" cy="199.5" r="53.0063" fill="#C7CCCE"/>
<circle cx="103.499" cy="199.5" r="46.6772" fill="#FAFAFA"/>
<path d="M103.501 177.5C106.724 177.5 109.334 174.89 109.334 171.667C109.334 168.444 106.724 165.833 103.501 165.833C100.278 165.833 97.6673 168.444 97.6673 171.667C97.6673 174.89 100.278 177.5 103.501 177.5ZM103.501 180.417C99.6069 180.417 91.834 182.371 91.834 186.25V189.167H115.167V186.25C115.167 182.371 107.394 180.417 103.501 180.417Z" fill="#2A2E2F"/>
<path d="M77.5007 210.5C79.6186 210.5 81.334 208.785 81.334 206.667C81.334 204.549 79.6186 202.833 77.5007 202.833C75.3827 202.833 73.6673 204.549 73.6673 206.667C73.6673 208.785 75.3827 210.5 77.5007 210.5ZM77.5007 212.417C74.9419 212.417 69.834 213.701 69.834 216.25V218.167H85.1673V216.25C85.1673 213.701 80.0594 212.417 77.5007 212.417Z" fill="#2A2E2F"/>
<path d="M103.501 210.5C105.619 210.5 107.334 208.785 107.334 206.667C107.334 204.549 105.619 202.833 103.501 202.833C101.383 202.833 99.6673 204.549 99.6673 206.667C99.6673 208.785 101.383 210.5 103.501 210.5ZM103.501 212.417C100.942 212.417 95.834 213.701 95.834 216.25V218.167H111.167V216.25C111.167 213.701 106.059 212.417 103.501 212.417Z" fill="#2A2E2F"/>
<path d="M129.501 210.5C131.619 210.5 133.334 208.785 133.334 206.667C133.334 204.549 131.619 202.833 129.501 202.833C127.383 202.833 125.667 204.549 125.667 206.667C125.667 208.785 127.383 210.5 129.501 210.5ZM129.501 212.417C126.942 212.417 121.834 213.701 121.834 216.25V218.167H137.167V216.25C137.167 213.701 132.059 212.417 129.501 212.417Z" fill="#2A2E2F"/>
<path d="M77.5 53.0001C91.3333 50.1668 121.1 50.3001 129.5 73.5001" stroke="#A9A9A9" stroke-width="2" stroke-dasharray="5 5"/>
<path d="M25.3434 88.2771C18.239 104.73 13.8241 141.509 53 157" stroke="#A9A9A9" stroke-width="2" stroke-dasharray="5 5"/>
<circle cx="192" cy="122" r="22.5" fill="#F2F2F2" stroke="white" stroke-width="3"/>
<path d="M191.946 124.24C191.49 124.683 190.967 125.072 190.39 125.353V134.072L187.708 136.754L185.025 134.072L187.708 131.778L185.696 130.048L187.708 128.318L185.025 126.024V125.353C183.013 124.374 181.672 122.349 181.672 119.988C181.672 116.635 184.354 113.953 187.708 113.953C187.761 113.953 187.815 113.953 187.855 113.953C187.828 114.046 187.761 114.113 187.708 114.194C187.345 115.012 187.144 115.871 187.077 116.742C186.272 117.011 185.696 117.762 185.696 118.647C185.696 119.76 186.594 120.659 187.708 120.659C187.748 120.659 187.802 120.659 187.842 120.659C188.7 122.336 190.176 123.61 191.946 124.24ZM196.426 113.953C196.426 113.107 196.292 112.276 196.05 111.511C197.848 112.021 199.39 113.349 200.088 115.24C200.892 117.467 200.302 119.841 198.773 121.45L201.791 129.619L200.155 133.066L196.721 131.456L198.438 128.385L195.97 127.446L197.271 125.139L193.958 123.891L193.743 123.274C191.544 123.033 189.559 121.598 188.74 119.371C187.6 116.246 189.223 112.772 192.348 111.632C192.59 111.552 192.845 111.498 193.073 111.444C192.188 109.754 190.43 108.587 188.378 108.587C185.414 108.587 183.013 110.988 183.013 113.953C183.013 114.073 183.013 114.181 183.053 114.301C182.611 114.663 182.208 115.052 181.873 115.495C181.752 114.999 181.672 114.489 181.672 113.953C181.672 110.251 184.676 107.246 188.378 107.246C192.08 107.246 195.085 110.251 195.085 113.953C195.085 115.508 194.548 116.917 193.663 118.057C196.533 117.815 196.426 113.953 196.426 113.953ZM192.147 116.769C192.228 116.997 192.348 117.185 192.483 117.359C193.234 116.474 193.703 115.347 193.743 114.1C193.596 114.127 193.475 114.154 193.341 114.194C192.295 114.583 191.731 115.736 192.147 116.769Z" fill="#2A2E2F"/>
<circle cx="77" cy="24" r="22.5" fill="#F2F2F2" stroke="white" stroke-width="3"/>
<path d="M76.9461 26.2401C76.4901 26.6828 75.967 27.0717 75.3902 27.3534V36.0717L72.7076 38.7543L70.0251 36.0717L72.7076 33.7781L70.6957 32.0479L72.7076 30.3176L70.0251 28.024V27.3534C68.0132 26.3743 66.6719 24.3489 66.6719 21.9883C66.6719 18.6351 69.3544 15.9525 72.7076 15.9525C72.7613 15.9525 72.8149 15.9525 72.8552 15.9525C72.8284 16.0464 72.7613 16.1135 72.7076 16.1939C72.3455 17.0121 72.1443 17.8705 72.0772 18.7424C71.2725 19.0106 70.6957 19.7617 70.6957 20.647C70.6957 21.7603 71.5944 22.6589 72.7076 22.6589C72.7479 22.6589 72.8015 22.6589 72.8418 22.6589C73.7002 24.3355 75.1756 25.6097 76.9461 26.2401ZM81.426 15.9525C81.426 15.1075 81.2918 14.2759 81.0504 13.5114C82.8477 14.0211 84.3902 15.3489 85.0877 17.2401C85.8924 19.4667 85.3023 21.8407 83.7732 23.4503L86.7911 31.6187L85.1547 35.0658L81.7211 33.4562L83.4379 30.3847L80.9699 29.4458L82.271 27.1388L78.958 25.8914L78.7434 25.2744C76.5437 25.033 74.5586 23.5978 73.7404 21.3713C72.6003 18.2461 74.2233 14.7722 77.3485 13.6321C77.5899 13.5516 77.8448 13.498 78.0728 13.4443C77.1875 11.7543 75.4304 10.5874 73.3783 10.5874C70.4141 10.5874 68.0132 12.9883 68.0132 15.9525C68.0132 16.0732 68.0132 16.1805 68.0534 16.3012C67.6108 16.6634 67.2084 17.0524 66.8731 17.495C66.7524 16.9987 66.6719 16.489 66.6719 15.9525C66.6719 12.2506 69.6763 9.24609 73.3783 9.24609C77.0802 9.24609 80.0847 12.2506 80.0847 15.9525C80.0847 17.5084 79.5482 18.9167 78.6629 20.0568C81.5333 19.8154 81.426 15.9525 81.426 15.9525ZM77.1473 18.7692C77.2278 18.9972 77.3485 19.185 77.4826 19.3594C78.2337 18.4741 78.7032 17.3474 78.7434 16.1C78.5959 16.1269 78.4752 16.1537 78.341 16.1939C77.2948 16.5829 76.7315 17.7364 77.1473 18.7692Z" fill="#2A2E2F"/>
<path d="M103 191V196.5" stroke="#2A2E2F"/>
<path d="M103 194.5V200" stroke="#2A2E2F"/>
<path d="M129.5 196.5L129.5 199.5" stroke="#2A2E2F"/>
<path d="M77.5 196.5L77.5 199.5" stroke="#2A2E2F"/>
<path d="M77 197H129.5" stroke="#2A2E2F"/>
</svg>
